<svg width="600" height="145" viewBox="0 0 600 145" fill="none" xmlns="http://www.w3.org/2000/svg">
<path d="M350.92 90.94H419.78" stroke="url(#paint0_linear)" stroke-width="2" stroke-miterlimit="10"/>
<path d="M179.87 90.94H248.61" stroke="url(#paint1_linear)" stroke-width="2" stroke-miterlimit="10"/>
<path d="M141 98.81H151.11V101H171.11V97H176.93V92.44H183.16V89.44H176.93V84.92H171V80.92H151V83.06H141V98.81ZM144 95.81V86.06H151.12V95.82L144 95.81ZM173.92 87.9V94H171V87.91L173.92 87.9ZM168.09 83.9V98H154.09V84L168.09 83.9Z" fill="url(#paint2_linear)"/>
<path d="M459 83.08H448.93V80.94H429V84.94H423.18V89.47H416.95V92.47H423.18V97H429V101H449V98.81H459V83.08ZM456 86.08V95.84H448.88V86.06L456 86.08ZM426.13 94V87.91H429V94H426.13ZM432 98V84H446V98H432Z" fill="url(#paint3_linear)"/>
<path d="M266.38 90.94C266.475 92.3672 266.174 93.7929 265.51 95.06C265.213 95.485 264.818 95.832 264.359 96.0717C263.899 96.3113 263.388 96.4364 262.87 96.4364C262.352 96.4364 261.841 96.3113 261.381 96.0717C260.922 95.832 260.527 95.485 260.23 95.06C259.552 93.808 259.24 92.3908 259.33 90.97C259.232 89.5393 259.533 88.1095 260.2 86.84C260.502 86.4184 260.9 86.0758 261.363 85.8413C261.825 85.6069 262.337 85.4875 262.856 85.4934C263.374 85.4993 263.883 85.6303 264.34 85.8752C264.797 86.12 265.188 86.4716 265.48 86.9C266.15 88.1367 266.462 89.5358 266.38 90.94V90.94ZM260.56 90.94C260.489 92.0927 260.673 93.2469 261.1 94.32C261.274 94.6302 261.527 94.8885 261.834 95.0682C262.14 95.248 262.489 95.3428 262.845 95.3428C263.2 95.3428 263.55 95.248 263.856 95.0682C264.163 94.8885 264.416 94.6302 264.59 94.32C265.022 93.2517 265.21 92.1003 265.14 90.95C265.211 89.8029 265.023 88.6545 264.59 87.59C264.416 87.2798 264.163 87.0215 263.856 86.8418C263.55 86.662 263.2 86.5672 262.845 86.5672C262.489 86.5672 262.14 86.662 261.834 86.8418C261.527 87.0215 261.274 87.2798 261.1 87.59C260.678 88.6539 260.493 89.7973 260.56 90.94Z" fill="#707070"/>
<path d="M275.23 90.94C275.325 92.3672 275.024 93.7929 274.36 95.06C274.063 95.485 273.668 95.832 273.209 96.0717C272.749 96.3113 272.238 96.4364 271.72 96.4364C271.202 96.4364 270.691 96.3113 270.231 96.0717C269.772 95.832 269.377 95.485 269.08 95.06C268.411 93.8052 268.103 92.3894 268.19 90.97C268.095 89.5407 268.392 88.1124 269.05 86.84C269.352 86.4184 269.751 86.0758 270.213 85.8413C270.675 85.6069 271.187 85.4875 271.706 85.4934C272.224 85.4993 272.733 85.6303 273.19 85.8752C273.647 86.12 274.038 86.4716 274.33 86.9C275 88.1367 275.312 89.5358 275.23 90.94V90.94ZM269.41 90.94C269.336 92.0937 269.524 93.2493 269.96 94.32C270.11 94.6509 270.356 94.929 270.667 95.1181C270.977 95.3071 271.337 95.3984 271.7 95.38C272.065 95.3955 272.426 95.302 272.738 95.1115C273.05 94.9209 273.298 94.6419 273.45 94.31C273.873 93.2393 274.057 92.0892 273.99 90.94C274.059 89.794 273.874 88.6469 273.45 87.58C273.276 87.2698 273.023 87.0115 272.716 86.8318C272.41 86.652 272.061 86.5572 271.705 86.5572C271.35 86.5572 271 86.652 270.694 86.8318C270.387 87.0115 270.134 87.2698 269.96 87.58C269.527 88.6446 269.339 89.7929 269.41 90.94V90.94Z" fill="#707070"/>
<path d="M280.84 96.28H279.66V88.69C279.66 88.06 279.66 87.46 279.72 86.9L279.38 87.22L277.65 88.64L277 87.81L279.82 85.63H280.82L280.84 96.28Z" fill="#707070"/>
<path d="M291.14 90.94C291.235 92.3672 290.934 93.7929 290.27 95.06C289.968 95.4796 289.57 95.8204 289.108 96.0535C288.647 96.2867 288.136 96.4053 287.619 96.3994C287.103 96.3936 286.595 96.2633 286.139 96.0197C285.683 95.7762 285.292 95.4264 285 95C284.331 93.7452 284.023 92.3294 284.11 90.91C284.014 89.4807 284.312 88.0524 284.97 86.78C285.272 86.3584 285.67 86.0158 286.133 85.7813C286.595 85.5469 287.107 85.4275 287.626 85.4334C288.144 85.4393 288.653 85.5703 289.11 85.8152C289.567 86.06 289.958 86.4116 290.25 86.84C290.928 88.0953 291.236 89.5167 291.14 90.94V90.94ZM285.32 90.94C285.246 92.0937 285.434 93.2493 285.87 94.32C286.02 94.6509 286.266 94.929 286.577 95.1181C286.887 95.3071 287.247 95.3984 287.61 95.38C287.975 95.3955 288.336 95.302 288.648 95.1115C288.96 94.9209 289.207 94.6419 289.36 94.31C289.783 93.2394 289.967 92.0893 289.9 90.94C289.969 89.794 289.784 88.6469 289.36 87.58C289.186 87.2698 288.933 87.0115 288.626 86.8318C288.32 86.652 287.971 86.5572 287.615 86.5572C287.259 86.5572 286.91 86.652 286.604 86.8318C286.297 87.0115 286.044 87.2698 285.87 87.58C285.437 88.6446 285.249 89.7929 285.32 90.94V90.94Z" fill="#707070"/>
<path d="M296.75 96.28H295.57V88.69C295.57 88.06 295.57 87.46 295.63 86.9C295.53 87 295.42 87.11 295.29 87.22L293.56 88.64L292.91 87.81L295.73 85.63H296.73L296.75 96.28Z" fill="#707070"/>
<path d="M307.05 90.94C307.145 92.3672 306.844 93.7929 306.18 95.06C305.883 95.485 305.488 95.832 305.029 96.0717C304.569 96.3113 304.058 96.4364 303.54 96.4364C303.022 96.4364 302.511 96.3113 302.051 96.0717C301.592 95.832 301.197 95.485 300.9 95.06C300.231 93.8052 299.923 92.3894 300.01 90.97C299.914 89.5407 300.212 88.1124 300.87 86.84C301.171 86.4184 301.57 86.0758 302.033 85.8413C302.495 85.6069 303.007 85.4875 303.526 85.4934C304.044 85.4993 304.553 85.6303 305.01 85.8752C305.467 86.12 305.858 86.4716 306.15 86.9C306.82 88.1367 307.132 89.5358 307.05 90.94V90.94ZM301.23 90.94C301.156 92.0937 301.344 93.2493 301.78 94.32C301.93 94.6509 302.176 94.929 302.487 95.1181C302.797 95.3071 303.157 95.3984 303.52 95.38C303.885 95.3955 304.246 95.302 304.558 95.1115C304.869 94.9209 305.117 94.6419 305.27 94.31C305.693 93.2393 305.877 92.0892 305.81 90.94C305.878 89.794 305.694 88.6469 305.27 87.58C305.096 87.2698 304.843 87.0115 304.536 86.8318C304.23 86.652 303.88 86.5572 303.525 86.5572C303.169 86.5572 302.82 86.652 302.514 86.8318C302.207 87.0115 301.954 87.2698 301.78 87.58C301.347 88.6446 301.159 89.7929 301.23 90.94V90.94Z" fill="#707070"/>
<path d="M315.91 90.94C316.005 92.3672 315.704 93.7929 315.04 95.06C314.743 95.485 314.348 95.832 313.889 96.0717C313.429 96.3113 312.918 96.4364 312.4 96.4364C311.882 96.4364 311.371 96.3113 310.911 96.0717C310.452 95.832 310.057 95.485 309.76 95.06C309.082 93.808 308.77 92.3908 308.86 90.97C308.762 89.5393 309.063 88.1095 309.73 86.84C310.032 86.4184 310.43 86.0758 310.893 85.8413C311.355 85.6069 311.867 85.4875 312.386 85.4934C312.904 85.4993 313.413 85.6303 313.87 85.8752C314.327 86.12 314.718 86.4716 315.01 86.9C315.68 88.1367 315.992 89.5358 315.91 90.94V90.94ZM310.09 90.94C310.019 92.0927 310.203 93.2469 310.63 94.32C310.804 94.6302 311.057 94.8885 311.364 95.0682C311.67 95.248 312.019 95.3428 312.375 95.3428C312.73 95.3428 313.08 95.248 313.386 95.0682C313.693 94.8885 313.946 94.6302 314.12 94.32C314.552 93.2517 314.74 92.1003 314.67 90.95C314.741 89.8029 314.553 88.6545 314.12 87.59C313.946 87.2798 313.693 87.0215 313.386 86.8418C313.08 86.662 312.73 86.5672 312.375 86.5672C312.019 86.5672 311.67 86.662 311.364 86.8418C311.057 87.0215 310.804 87.2798 310.63 87.59C310.208 88.6539 310.023 89.7973 310.09 90.94V90.94Z" fill="#707070"/>
<path d="M324.76 90.94C324.855 92.3672 324.554 93.7929 323.89 95.06C323.593 95.485 323.198 95.832 322.739 96.0717C322.279 96.3113 321.768 96.4364 321.25 96.4364C320.732 96.4364 320.221 96.3113 319.761 96.0717C319.302 95.832 318.907 95.485 318.61 95.06C317.941 93.8052 317.633 92.3894 317.72 90.97C317.625 89.5407 317.922 88.1124 318.58 86.84C318.882 86.4184 319.281 86.0758 319.743 85.8413C320.205 85.6069 320.717 85.4875 321.236 85.4934C321.754 85.4993 322.263 85.6303 322.72 85.8752C323.177 86.12 323.568 86.4716 323.86 86.9C324.53 88.1367 324.842 89.5358 324.76 90.94V90.94ZM318.94 90.94C318.866 92.0937 319.054 93.2493 319.49 94.32C319.64 94.6509 319.886 94.929 320.197 95.1181C320.507 95.3071 320.867 95.3984 321.23 95.38C321.598 95.3996 321.964 95.308 322.28 95.1172C322.595 94.9264 322.846 94.6452 323 94.31C323.423 93.2393 323.608 92.0892 323.54 90.94C323.609 89.794 323.424 88.6469 323 87.58C322.826 87.2698 322.573 87.0115 322.266 86.8318C321.96 86.652 321.611 86.5572 321.255 86.5572C320.9 86.5572 320.551 86.652 320.244 86.8318C319.937 87.0115 319.684 87.2698 319.51 87.58C319.07 88.643 318.875 89.7914 318.94 90.94V90.94Z" fill="#707070"/>
<path d="M330.37 96.28H329.19V88.69C329.19 88.06 329.19 87.46 329.25 86.9L328.91 87.22L327.17 88.64L326.53 87.81L329.35 85.63H330.35L330.37 96.28Z" fill="#707070"/>
<path d="M340.67 90.94C340.765 92.3672 340.464 93.7929 339.8 95.06C339.503 95.485 339.108 95.832 338.649 96.0717C338.189 96.3113 337.678 96.4364 337.16 96.4364C336.642 96.4364 336.131 96.3113 335.671 96.0717C335.212 95.832 334.817 95.485 334.52 95.06C333.846 93.807 333.537 92.3898 333.63 90.97C333.534 89.5407 333.832 88.1124 334.49 86.84C334.792 86.4184 335.191 86.0758 335.653 85.8413C336.115 85.6069 336.627 85.4875 337.146 85.4934C337.664 85.4993 338.173 85.6303 338.63 85.8752C339.087 86.12 339.478 86.4716 339.77 86.9C340.44 88.1367 340.752 89.5358 340.67 90.94V90.94ZM334.85 90.94C334.776 92.0937 334.964 93.2493 335.4 94.32C335.55 94.6509 335.796 94.929 336.107 95.1181C336.417 95.3071 336.777 95.3984 337.14 95.38C337.505 95.3955 337.866 95.302 338.178 95.1115C338.49 94.9209 338.738 94.6419 338.89 94.31C339.313 93.2393 339.497 92.0892 339.43 90.94C339.499 89.794 339.314 88.6469 338.89 87.58C338.716 87.2698 338.463 87.0115 338.156 86.8318C337.85 86.652 337.501 86.5572 337.145 86.5572C336.789 86.5572 336.44 86.652 336.134 86.8318C335.827 87.0115 335.574 87.2698 335.4 87.58C334.967 88.6446 334.779 89.7929 334.85 90.94V90.94Z" fill="#707070"/>
<path d="M130.734 123.398C130.734 124.096 130.482 124.644 129.977 125.041C129.472 125.439 128.776 125.637 127.888 125.637C127 125.637 126.273 125.5 125.707 125.224V124.01C126.065 124.178 126.445 124.311 126.846 124.407C127.25 124.504 127.626 124.552 127.974 124.552C128.482 124.552 128.856 124.456 129.096 124.262C129.34 124.069 129.461 123.809 129.461 123.484C129.461 123.19 129.35 122.941 129.128 122.737C128.906 122.533 128.448 122.291 127.753 122.012C127.037 121.722 126.532 121.391 126.239 121.018C125.945 120.646 125.798 120.198 125.798 119.676C125.798 119.02 126.031 118.505 126.497 118.129C126.962 117.753 127.587 117.565 128.371 117.565C129.123 117.565 129.871 117.729 130.616 118.059L130.208 119.106C129.51 118.813 128.887 118.666 128.339 118.666C127.924 118.666 127.608 118.757 127.394 118.94C127.179 119.119 127.071 119.357 127.071 119.654C127.071 119.858 127.114 120.034 127.2 120.18C127.286 120.324 127.428 120.46 127.625 120.589C127.821 120.718 128.176 120.888 128.688 121.099C129.264 121.339 129.687 121.563 129.956 121.77C130.224 121.978 130.421 122.212 130.546 122.474C130.672 122.735 130.734 123.043 130.734 123.398Z" fill="#707070"/>
<path d="M134.714 125.637C133.791 125.637 133.067 125.369 132.544 124.832C132.025 124.291 131.766 123.548 131.766 122.603C131.766 121.632 132.007 120.87 132.491 120.315C132.974 119.76 133.638 119.482 134.483 119.482C135.268 119.482 135.887 119.72 136.342 120.197C136.797 120.673 137.024 121.328 137.024 122.162V122.844H133.065C133.083 123.421 133.239 123.865 133.533 124.177C133.826 124.484 134.24 124.638 134.773 124.638C135.124 124.638 135.45 124.606 135.751 124.542C136.055 124.474 136.381 124.363 136.729 124.209V125.235C136.421 125.381 136.109 125.485 135.794 125.546C135.479 125.607 135.119 125.637 134.714 125.637ZM134.483 120.438C134.082 120.438 133.76 120.565 133.517 120.82C133.277 121.074 133.133 121.444 133.087 121.931H135.783C135.776 121.441 135.658 121.07 135.429 120.82C135.2 120.565 134.884 120.438 134.483 120.438Z" fill="#707070"/>
<path d="M143.684 125.53H142.417V121.878C142.417 121.419 142.323 121.077 142.137 120.852C141.955 120.626 141.663 120.513 141.262 120.513C140.728 120.513 140.338 120.671 140.091 120.986C139.844 121.301 139.72 121.829 139.72 122.571V125.53H138.458V119.59H139.446L139.624 120.368H139.688C139.867 120.086 140.121 119.867 140.451 119.713C140.78 119.559 141.145 119.482 141.546 119.482C142.972 119.482 143.684 120.207 143.684 121.657V125.53Z" fill="#707070"/>
<path d="M147.444 125.637C146.703 125.637 146.124 125.369 145.709 124.832C145.294 124.295 145.086 123.541 145.086 122.571C145.086 121.597 145.295 120.839 145.714 120.299C146.137 119.754 146.721 119.482 147.465 119.482C148.246 119.482 148.84 119.77 149.249 120.347H149.313C149.252 119.921 149.222 119.584 149.222 119.337V117.173H150.489V125.53H149.501L149.281 124.751H149.222C148.817 125.342 148.224 125.637 147.444 125.637ZM147.782 124.617C148.301 124.617 148.679 124.472 148.916 124.182C149.152 123.888 149.274 123.414 149.281 122.759V122.581C149.281 121.833 149.159 121.301 148.916 120.986C148.672 120.671 148.291 120.513 147.771 120.513C147.327 120.513 146.986 120.694 146.746 121.056C146.506 121.414 146.386 121.926 146.386 122.592C146.386 123.251 146.502 123.754 146.735 124.101C146.968 124.445 147.317 124.617 147.782 124.617Z" fill="#707070"/>
<path d="M153.556 125.53H152.294V119.59H153.556V125.53ZM152.219 118.016C152.219 117.79 152.28 117.617 152.401 117.495C152.527 117.373 152.704 117.312 152.933 117.312C153.155 117.312 153.327 117.373 153.449 117.495C153.574 117.617 153.637 117.79 153.637 118.016C153.637 118.231 153.574 118.401 153.449 118.526C153.327 118.648 153.155 118.709 152.933 118.709C152.704 118.709 152.527 118.648 152.401 118.526C152.28 118.401 152.219 118.231 152.219 118.016Z" fill="#707070"/>
<path d="M160.592 125.53H159.325V121.878C159.325 121.419 159.232 121.077 159.045 120.852C158.863 120.626 158.571 120.513 158.17 120.513C157.636 120.513 157.246 120.671 156.999 120.986C156.752 121.301 156.628 121.829 156.628 122.571V125.53H155.366V119.59H156.354L156.532 120.368H156.596C156.775 120.086 157.029 119.867 157.359 119.713C157.688 119.559 158.054 119.482 158.455 119.482C159.88 119.482 160.592 120.207 160.592 121.657V125.53Z" fill="#707070"/>
<path d="M167.365 119.59V120.282L166.35 120.47C166.443 120.596 166.52 120.75 166.581 120.932C166.642 121.115 166.672 121.308 166.672 121.512C166.672 122.125 166.461 122.606 166.039 122.957C165.616 123.308 165.034 123.484 164.293 123.484C164.103 123.484 163.931 123.469 163.777 123.441C163.505 123.609 163.369 123.806 163.369 124.031C163.369 124.168 163.432 124.27 163.557 124.338C163.686 124.406 163.921 124.44 164.261 124.44H165.297C165.953 124.44 166.45 124.579 166.791 124.859C167.131 125.138 167.301 125.541 167.301 126.067C167.301 126.74 167.023 127.26 166.468 127.625C165.913 127.99 165.111 128.173 164.062 128.173C163.253 128.173 162.635 128.029 162.209 127.743C161.783 127.456 161.57 127.048 161.57 126.518C161.57 126.153 161.684 125.845 161.914 125.594C162.146 125.347 162.47 125.176 162.886 125.079C162.717 125.007 162.578 124.893 162.467 124.735C162.359 124.574 162.306 124.406 162.306 124.23C162.306 124.008 162.368 123.82 162.494 123.666C162.619 123.512 162.805 123.36 163.052 123.21C162.744 123.077 162.494 122.862 162.3 122.565C162.111 122.264 162.016 121.913 162.016 121.512C162.016 120.868 162.218 120.368 162.623 120.014C163.031 119.659 163.611 119.482 164.363 119.482C164.531 119.482 164.707 119.495 164.889 119.52C165.075 119.541 165.215 119.565 165.308 119.59H167.365ZM162.698 126.454C162.698 126.726 162.819 126.935 163.063 127.082C163.31 127.229 163.656 127.302 164.1 127.302C164.787 127.302 165.299 127.204 165.636 127.007C165.972 126.81 166.141 126.549 166.141 126.223C166.141 125.965 166.048 125.781 165.861 125.67C165.679 125.562 165.337 125.509 164.835 125.509H163.879C163.518 125.509 163.229 125.593 163.015 125.761C162.803 125.933 162.698 126.164 162.698 126.454ZM163.24 121.512C163.24 121.885 163.335 122.171 163.525 122.372C163.718 122.572 163.994 122.673 164.352 122.673C165.083 122.673 165.448 122.282 165.448 121.502C165.448 121.115 165.356 120.818 165.174 120.61C164.995 120.399 164.721 120.293 164.352 120.293C163.987 120.293 163.709 120.397 163.52 120.605C163.333 120.812 163.24 121.115 163.24 121.512Z" fill="#707070"/>
<path d="M173.725 125.637C172.826 125.637 172.142 125.376 171.673 124.853C171.207 124.327 170.975 123.573 170.975 122.592C170.975 121.593 171.218 120.825 171.705 120.288C172.196 119.751 172.903 119.482 173.827 119.482C174.453 119.482 175.017 119.599 175.519 119.831L175.137 120.846C174.604 120.639 174.163 120.535 173.816 120.535C172.788 120.535 172.274 121.217 172.274 122.581C172.274 123.247 172.402 123.749 172.656 124.085C172.914 124.418 173.29 124.585 173.784 124.585C174.346 124.585 174.878 124.445 175.379 124.166V125.267C175.153 125.399 174.912 125.494 174.654 125.552C174.4 125.609 174.09 125.637 173.725 125.637Z" fill="#707070"/>
<path d="M180.492 125.53L180.24 124.703H180.197C179.91 125.065 179.622 125.312 179.332 125.444C179.042 125.573 178.67 125.637 178.215 125.637C177.631 125.637 177.175 125.48 176.845 125.165C176.519 124.85 176.356 124.404 176.356 123.827C176.356 123.215 176.584 122.753 177.039 122.442C177.493 122.13 178.186 121.96 179.117 121.931L180.143 121.899V121.582C180.143 121.203 180.054 120.92 179.875 120.734C179.699 120.544 179.425 120.449 179.053 120.449C178.748 120.449 178.457 120.494 178.177 120.583C177.898 120.673 177.629 120.778 177.372 120.9L176.963 119.998C177.286 119.83 177.638 119.702 178.021 119.616C178.405 119.527 178.766 119.482 179.106 119.482C179.862 119.482 180.431 119.647 180.814 119.976C181.201 120.306 181.395 120.823 181.395 121.529V125.53H180.492ZM178.612 124.671C179.071 124.671 179.438 124.544 179.713 124.289C179.993 124.031 180.132 123.672 180.132 123.21V122.694L179.37 122.726C178.775 122.748 178.342 122.848 178.07 123.027C177.801 123.203 177.667 123.473 177.667 123.838C177.667 124.103 177.746 124.309 177.903 124.456C178.061 124.599 178.297 124.671 178.612 124.671Z" fill="#707070"/>
<path d="M186.191 119.482C186.932 119.482 187.509 119.751 187.92 120.288C188.336 120.825 188.543 121.579 188.543 122.549C188.543 123.523 188.334 124.282 187.915 124.826C187.496 125.367 186.914 125.637 186.169 125.637C185.417 125.637 184.834 125.367 184.418 124.826H184.333L184.102 125.53H183.156V117.173H184.418V119.16C184.418 119.307 184.411 119.525 184.397 119.815C184.383 120.105 184.372 120.29 184.365 120.368H184.418C184.819 119.778 185.41 119.482 186.191 119.482ZM185.863 120.513C185.355 120.513 184.988 120.664 184.762 120.965C184.54 121.262 184.426 121.761 184.418 122.463V122.549C184.418 123.272 184.533 123.797 184.762 124.123C184.991 124.445 185.366 124.606 185.885 124.606C186.332 124.606 186.671 124.429 186.9 124.074C187.133 123.72 187.249 123.208 187.249 122.538C187.249 121.188 186.787 120.513 185.863 120.513Z" fill="#707070"/>
<path d="M191.272 125.53H190.01V117.173H191.272V125.53Z" fill="#707070"/>
<path d="M195.676 125.637C194.752 125.637 194.029 125.369 193.506 124.832C192.987 124.291 192.728 123.548 192.728 122.603C192.728 121.632 192.969 120.87 193.453 120.315C193.936 119.76 194.6 119.482 195.445 119.482C196.229 119.482 196.849 119.72 197.304 120.197C197.758 120.673 197.986 121.328 197.986 122.162V122.844H194.027C194.045 123.421 194.201 123.865 194.495 124.177C194.788 124.484 195.202 124.638 195.735 124.638C196.086 124.638 196.412 124.606 196.713 124.542C197.017 124.474 197.343 124.363 197.69 124.209V125.235C197.382 125.381 197.071 125.485 196.756 125.546C196.441 125.607 196.081 125.637 195.676 125.637ZM195.445 120.438C195.044 120.438 194.722 120.565 194.479 120.82C194.239 121.074 194.095 121.444 194.049 121.931H196.745C196.738 121.441 196.62 121.07 196.391 120.82C196.161 120.565 195.846 120.438 195.445 120.438Z" fill="#707070"/>
<path d="M274.487 117.677H276.818C277.899 117.677 278.68 117.835 279.159 118.15C279.643 118.465 279.885 118.963 279.885 119.643C279.885 120.102 279.766 120.483 279.53 120.787C279.294 121.092 278.954 121.283 278.51 121.362V121.416C279.061 121.52 279.466 121.726 279.723 122.033C279.985 122.338 280.115 122.751 280.115 123.274C280.115 123.98 279.868 124.533 279.374 124.934C278.884 125.331 278.2 125.53 277.323 125.53H274.487V117.677ZM275.77 120.922H277.006C277.543 120.922 277.935 120.837 278.182 120.669C278.429 120.497 278.552 120.207 278.552 119.799C278.552 119.43 278.418 119.163 278.15 118.999C277.885 118.834 277.462 118.752 276.882 118.752H275.77V120.922ZM275.77 121.964V124.45H277.135C277.672 124.45 278.076 124.348 278.348 124.144C278.624 123.937 278.762 123.611 278.762 123.167C278.762 122.759 278.622 122.456 278.343 122.259C278.064 122.062 277.639 121.964 277.07 121.964H275.77Z" fill="#707070"/>
<path d="M282.876 125.53H281.614V119.59H282.876V125.53ZM281.539 118.016C281.539 117.79 281.6 117.617 281.721 117.495C281.847 117.373 282.024 117.312 282.253 117.312C282.475 117.312 282.647 117.373 282.769 117.495C282.894 117.617 282.957 117.79 282.957 118.016C282.957 118.231 282.894 118.401 282.769 118.526C282.647 118.648 282.475 118.709 282.253 118.709C282.024 118.709 281.847 118.648 281.721 118.526C281.6 118.401 281.539 118.231 281.539 118.016Z" fill="#707070"/>
<path d="M286.899 124.617C287.207 124.617 287.515 124.569 287.823 124.472V125.423C287.683 125.483 287.503 125.534 287.281 125.573C287.062 125.616 286.835 125.637 286.598 125.637C285.402 125.637 284.804 125.007 284.804 123.747V120.546H283.993V119.987L284.864 119.525L285.293 118.268H286.072V119.59H287.764V120.546H286.072V123.725C286.072 124.03 286.147 124.255 286.298 124.402C286.452 124.545 286.652 124.617 286.899 124.617Z" fill="#707070"/>
<path d="M293.006 123.838C293.006 124.418 292.795 124.864 292.372 125.176C291.95 125.483 291.345 125.637 290.557 125.637C289.766 125.637 289.13 125.517 288.65 125.278V124.187C289.348 124.51 289.998 124.671 290.6 124.671C291.377 124.671 291.765 124.436 291.765 123.967C291.765 123.817 291.722 123.691 291.636 123.591C291.551 123.491 291.409 123.387 291.212 123.28C291.015 123.172 290.741 123.05 290.39 122.914C289.706 122.649 289.243 122.384 288.999 122.119C288.759 121.854 288.639 121.511 288.639 121.088C288.639 120.58 288.844 120.186 289.252 119.906C289.663 119.624 290.222 119.482 290.927 119.482C291.626 119.482 292.286 119.624 292.909 119.906L292.501 120.857C291.86 120.592 291.321 120.46 290.885 120.46C290.219 120.46 289.885 120.649 289.885 121.029C289.885 121.215 289.971 121.373 290.143 121.502C290.319 121.631 290.698 121.808 291.282 122.033C291.773 122.223 292.129 122.397 292.351 122.554C292.573 122.712 292.738 122.895 292.845 123.102C292.952 123.306 293.006 123.552 293.006 123.838Z" fill="#707070"/>
<path d="M296.589 124.617C296.897 124.617 297.205 124.569 297.512 124.472V125.423C297.373 125.483 297.192 125.534 296.97 125.573C296.752 125.616 296.524 125.637 296.288 125.637C295.092 125.637 294.494 125.007 294.494 123.747V120.546H293.683V119.987L294.553 119.525L294.983 118.268H295.761V119.59H297.453V120.546H295.761V123.725C295.761 124.03 295.837 124.255 295.987 124.402C296.141 124.545 296.342 124.617 296.589 124.617Z" fill="#707070"/>
<path d="M301.718 119.482C301.972 119.482 302.182 119.5 302.346 119.536L302.223 120.712C302.044 120.669 301.858 120.648 301.664 120.648C301.159 120.648 300.749 120.812 300.434 121.142C300.123 121.471 299.967 121.899 299.967 122.426V125.53H298.705V119.59H299.693L299.86 120.637H299.924C300.121 120.282 300.377 120.001 300.692 119.794C301.011 119.586 301.353 119.482 301.718 119.482Z" fill="#707070"/>
<path d="M306.047 125.637C305.123 125.637 304.4 125.369 303.877 124.832C303.358 124.291 303.098 123.548 303.098 122.603C303.098 121.632 303.34 120.87 303.823 120.315C304.307 119.76 304.971 119.482 305.816 119.482C306.6 119.482 307.22 119.72 307.675 120.197C308.129 120.673 308.357 121.328 308.357 122.162V122.844H304.398C304.416 123.421 304.572 123.865 304.865 124.177C305.159 124.484 305.573 124.638 306.106 124.638C306.457 124.638 306.783 124.606 307.084 124.542C307.388 124.474 307.714 124.363 308.061 124.209V125.235C307.753 125.381 307.442 125.485 307.127 125.546C306.812 125.607 306.452 125.637 306.047 125.637ZM305.816 120.438C305.415 120.438 305.093 120.565 304.849 120.82C304.609 121.074 304.466 121.444 304.42 121.931H307.116C307.109 121.441 306.991 121.07 306.761 120.82C306.532 120.565 306.217 120.438 305.816 120.438Z" fill="#707070"/>
<path d="M313.508 125.53L313.255 124.703H313.212C312.926 125.065 312.637 125.312 312.347 125.444C312.057 125.573 311.685 125.637 311.23 125.637C310.647 125.637 310.19 125.48 309.861 125.165C309.535 124.85 309.372 124.404 309.372 123.827C309.372 123.215 309.599 122.753 310.054 122.442C310.509 122.13 311.202 121.96 312.133 121.931L313.158 121.899V121.582C313.158 121.203 313.069 120.92 312.89 120.734C312.714 120.544 312.441 120.449 312.068 120.449C311.764 120.449 311.472 120.494 311.193 120.583C310.913 120.673 310.645 120.778 310.387 120.9L309.979 119.998C310.301 119.83 310.654 119.702 311.037 119.616C311.42 119.527 311.782 119.482 312.122 119.482C312.877 119.482 313.447 119.647 313.83 119.976C314.217 120.306 314.41 120.823 314.41 121.529V125.53H313.508ZM311.628 124.671C312.086 124.671 312.453 124.544 312.729 124.289C313.008 124.031 313.148 123.672 313.148 123.21V122.694L312.385 122.726C311.791 122.748 311.357 122.848 311.085 123.027C310.817 123.203 310.682 123.473 310.682 123.838C310.682 124.103 310.761 124.309 310.919 124.456C311.076 124.599 311.313 124.671 311.628 124.671Z" fill="#707070"/>
<path d="M321.177 125.53H319.91V121.867C319.91 121.412 319.824 121.074 319.652 120.852C319.48 120.626 319.212 120.513 318.846 120.513C318.359 120.513 318.001 120.673 317.772 120.991C317.547 121.307 317.434 121.833 317.434 122.571V125.53H316.172V119.59H317.16L317.337 120.368H317.402C317.566 120.086 317.804 119.867 318.116 119.713C318.431 119.559 318.777 119.482 319.153 119.482C320.066 119.482 320.671 119.794 320.968 120.417H321.054C321.229 120.123 321.476 119.894 321.795 119.729C322.114 119.565 322.479 119.482 322.891 119.482C323.6 119.482 324.115 119.661 324.438 120.019C324.764 120.377 324.927 120.923 324.927 121.657V125.53H323.664V121.867C323.664 121.412 323.577 121.074 323.401 120.852C323.229 120.626 322.961 120.513 322.595 120.513C322.105 120.513 321.745 120.667 321.516 120.975C321.29 121.28 321.177 121.749 321.177 122.383V125.53Z" fill="#707070"/>
<path d="M399.45 121.33H400.342C400.94 121.33 401.373 121.219 401.642 120.997C401.91 120.775 402.044 120.445 402.044 120.009C402.044 119.565 401.899 119.246 401.609 119.052C401.319 118.859 400.882 118.762 400.299 118.762H399.45V121.33ZM399.45 122.393V125.53H398.167V117.677H400.385C401.398 117.677 402.148 117.867 402.635 118.247C403.122 118.626 403.366 119.199 403.366 119.966C403.366 120.943 402.857 121.64 401.84 122.055L404.059 125.53H402.598L400.718 122.393H399.45Z" fill="#707070"/>
<path d="M407.663 125.637C406.739 125.637 406.015 125.369 405.493 124.832C404.973 124.291 404.714 123.548 404.714 122.603C404.714 121.632 404.956 120.87 405.439 120.315C405.922 119.76 406.587 119.482 407.432 119.482C408.216 119.482 408.835 119.72 409.29 120.197C409.745 120.673 409.972 121.328 409.972 122.162V122.844H406.014C406.032 123.421 406.187 123.865 406.481 124.177C406.775 124.484 407.188 124.638 407.722 124.638C408.073 124.638 408.398 124.606 408.699 124.542C409.004 124.474 409.329 124.363 409.677 124.209V125.235C409.369 125.381 409.057 125.485 408.742 125.546C408.427 125.607 408.067 125.637 407.663 125.637ZM407.432 120.438C407.031 120.438 406.708 120.565 406.465 120.82C406.225 121.074 406.082 121.444 406.035 121.931H408.731C408.724 121.441 408.606 121.07 408.377 120.82C408.148 120.565 407.833 120.438 407.432 120.438Z" fill="#707070"/>
<path d="M413.802 125.637C412.903 125.637 412.219 125.376 411.75 124.853C411.285 124.327 411.052 123.573 411.052 122.592C411.052 121.593 411.295 120.825 411.782 120.288C412.273 119.751 412.98 119.482 413.904 119.482C414.53 119.482 415.094 119.599 415.596 119.831L415.214 120.846C414.681 120.639 414.24 120.535 413.893 120.535C412.865 120.535 412.352 121.217 412.352 122.581C412.352 123.247 412.479 123.749 412.733 124.085C412.991 124.418 413.367 124.585 413.861 124.585C414.423 124.585 414.955 124.445 415.456 124.166V125.267C415.23 125.399 414.989 125.494 414.731 125.552C414.477 125.609 414.167 125.637 413.802 125.637Z" fill="#707070"/>
<path d="M419.447 125.637C418.523 125.637 417.8 125.369 417.277 124.832C416.758 124.291 416.498 123.548 416.498 122.603C416.498 121.632 416.74 120.87 417.223 120.315C417.707 119.76 418.371 119.482 419.216 119.482C420 119.482 420.619 119.72 421.074 120.197C421.529 120.673 421.756 121.328 421.756 122.162V122.844H417.798C417.816 123.421 417.972 123.865 418.265 124.177C418.559 124.484 418.972 124.638 419.506 124.638C419.857 124.638 420.183 124.606 420.483 124.542C420.788 124.474 421.114 124.363 421.461 124.209V125.235C421.153 125.381 420.841 125.485 420.526 125.546C420.211 125.607 419.851 125.637 419.447 125.637ZM419.216 120.438C418.815 120.438 418.493 120.565 418.249 120.82C418.009 121.074 417.866 121.444 417.819 121.931H420.516C420.508 121.441 420.39 121.07 420.161 120.82C419.932 120.565 419.617 120.438 419.216 120.438Z" fill="#707070"/>
<path d="M424.453 125.53H423.19V119.59H424.453V125.53ZM423.115 118.016C423.115 117.79 423.176 117.617 423.298 117.495C423.423 117.373 423.6 117.312 423.83 117.312C424.052 117.312 424.223 117.373 424.345 117.495C424.471 117.617 424.533 117.79 424.533 118.016C424.533 118.231 424.471 118.401 424.345 118.526C424.223 118.648 424.052 118.709 423.83 118.709C423.6 118.709 423.423 118.648 423.298 118.526C423.176 118.401 423.115 118.231 423.115 118.016Z" fill="#707070"/>
<path d="M427.616 125.53L425.36 119.59H426.692L427.901 123.043C428.109 123.623 428.234 124.092 428.277 124.45H428.32C428.352 124.193 428.477 123.724 428.696 123.043L429.904 119.59H431.247L428.98 125.53H427.616Z" fill="#707070"/>
<path d="M433.412 125.53H432.149V119.59H433.412V125.53ZM432.074 118.016C432.074 117.79 432.135 117.617 432.257 117.495C432.382 117.373 432.559 117.312 432.789 117.312C433.011 117.312 433.182 117.373 433.304 117.495C433.43 117.617 433.492 117.79 433.492 118.016C433.492 118.231 433.43 118.401 433.304 118.526C433.182 118.648 433.011 118.709 432.789 118.709C432.559 118.709 432.382 118.648 432.257 118.526C432.135 118.401 432.074 118.231 432.074 118.016Z" fill="#707070"/>
<path d="M440.448 125.53H439.18V121.878C439.18 121.419 439.087 121.077 438.901 120.852C438.718 120.626 438.426 120.513 438.025 120.513C437.492 120.513 437.102 120.671 436.854 120.986C436.607 121.301 436.484 121.829 436.484 122.571V125.53H435.222V119.59H436.21L436.387 120.368H436.452C436.631 120.086 436.885 119.867 437.214 119.713C437.544 119.559 437.909 119.482 438.31 119.482C439.735 119.482 440.448 120.207 440.448 121.657V125.53Z" fill="#707070"/>
<path d="M447.221 119.59V120.282L446.206 120.47C446.299 120.596 446.376 120.75 446.437 120.932C446.497 121.115 446.528 121.308 446.528 121.512C446.528 122.125 446.317 122.606 445.894 122.957C445.472 123.308 444.89 123.484 444.148 123.484C443.959 123.484 443.787 123.469 443.633 123.441C443.361 123.609 443.225 123.806 443.225 124.031C443.225 124.168 443.287 124.27 443.413 124.338C443.542 124.406 443.776 124.44 444.116 124.44H445.153C445.808 124.44 446.306 124.579 446.646 124.859C446.986 125.138 447.156 125.541 447.156 126.067C447.156 126.74 446.879 127.26 446.324 127.625C445.769 127.99 444.967 128.173 443.917 128.173C443.108 128.173 442.491 128.029 442.064 127.743C441.638 127.456 441.425 127.048 441.425 126.518C441.425 126.153 441.54 125.845 441.769 125.594C442.002 125.347 442.326 125.176 442.741 125.079C442.573 125.007 442.433 124.893 442.322 124.735C442.215 124.574 442.161 124.406 442.161 124.23C442.161 124.008 442.224 123.82 442.349 123.666C442.474 123.512 442.661 123.36 442.908 123.21C442.6 123.077 442.349 122.862 442.156 122.565C441.966 122.264 441.871 121.913 441.871 121.512C441.871 120.868 442.073 120.368 442.478 120.014C442.886 119.659 443.466 119.482 444.218 119.482C444.387 119.482 444.562 119.495 444.745 119.52C444.931 119.541 445.07 119.565 445.164 119.59H447.221ZM442.553 126.454C442.553 126.726 442.675 126.935 442.918 127.082C443.166 127.229 443.511 127.302 443.955 127.302C444.643 127.302 445.155 127.204 445.491 127.007C445.828 126.81 445.996 126.549 445.996 126.223C445.996 125.965 445.903 125.781 445.717 125.67C445.534 125.562 445.192 125.509 444.691 125.509H443.735C443.373 125.509 443.085 125.593 442.87 125.761C442.659 125.933 442.553 126.164 442.553 126.454ZM443.096 121.512C443.096 121.885 443.191 122.171 443.38 122.372C443.574 122.572 443.849 122.673 444.208 122.673C444.938 122.673 445.303 122.282 445.303 121.502C445.303 121.115 445.212 120.818 445.029 120.61C444.85 120.399 444.576 120.293 444.208 120.293C443.842 120.293 443.565 120.397 443.375 120.605C443.189 120.812 443.096 121.115 443.096 121.512Z" fill="#707070"/>
<path d="M453.58 125.637C452.681 125.637 451.997 125.376 451.528 124.853C451.063 124.327 450.83 123.573 450.83 122.592C450.83 121.593 451.074 120.825 451.561 120.288C452.051 119.751 452.758 119.482 453.682 119.482C454.309 119.482 454.873 119.599 455.374 119.831L454.993 120.846C454.459 120.639 454.019 120.535 453.671 120.535C452.644 120.535 452.13 121.217 452.13 122.581C452.13 123.247 452.257 123.749 452.511 124.085C452.769 124.418 453.145 124.585 453.639 124.585C454.201 124.585 454.733 124.445 455.234 124.166V125.267C455.009 125.399 454.767 125.494 454.509 125.552C454.255 125.609 453.945 125.637 453.58 125.637Z" fill="#707070"/>
<path d="M460.348 125.53L460.095 124.703H460.052C459.766 125.065 459.478 125.312 459.188 125.444C458.897 125.573 458.525 125.637 458.07 125.637C457.487 125.637 457.03 125.48 456.701 125.165C456.375 124.85 456.212 124.404 456.212 123.827C456.212 123.215 456.439 122.753 456.894 122.442C457.349 122.13 458.042 121.96 458.973 121.931L459.999 121.899V121.582C459.999 121.203 459.909 120.92 459.73 120.734C459.555 120.544 459.281 120.449 458.908 120.449C458.604 120.449 458.312 120.494 458.033 120.583C457.753 120.673 457.485 120.778 457.227 120.9L456.819 119.998C457.141 119.83 457.494 119.702 457.877 119.616C458.26 119.527 458.622 119.482 458.962 119.482C459.717 119.482 460.287 119.647 460.67 119.976C461.057 120.306 461.25 120.823 461.25 121.529V125.53H460.348ZM458.468 124.671C458.926 124.671 459.293 124.544 459.569 124.289C459.848 124.031 459.988 123.672 459.988 123.21V122.694L459.225 122.726C458.631 122.748 458.197 122.848 457.925 123.027C457.657 123.203 457.522 123.473 457.522 123.838C457.522 124.103 457.601 124.309 457.759 124.456C457.916 124.599 458.153 124.671 458.468 124.671Z" fill="#707070"/>
<path d="M466.046 119.482C466.788 119.482 467.364 119.751 467.776 120.288C468.191 120.825 468.399 121.579 468.399 122.549C468.399 123.523 468.189 124.282 467.771 124.826C467.352 125.367 466.77 125.637 466.025 125.637C465.273 125.637 464.689 125.367 464.274 124.826H464.188L463.957 125.53H463.012V117.173H464.274V119.16C464.274 119.307 464.267 119.525 464.252 119.815C464.238 120.105 464.227 120.29 464.22 120.368H464.274C464.675 119.778 465.266 119.482 466.046 119.482ZM465.719 120.513C465.21 120.513 464.843 120.664 464.618 120.965C464.396 121.262 464.281 121.761 464.274 122.463V122.549C464.274 123.272 464.389 123.797 464.618 124.123C464.847 124.445 465.221 124.606 465.74 124.606C466.188 124.606 466.526 124.429 466.755 124.074C466.988 123.72 467.104 123.208 467.104 122.538C467.104 121.188 466.643 120.513 465.719 120.513Z" fill="#707070"/>
<path d="M471.127 125.53H469.865V117.173H471.127V125.53Z" fill="#707070"/>
<path d="M475.532 125.637C474.608 125.637 473.885 125.369 473.362 124.832C472.843 124.291 472.583 123.548 472.583 122.603C472.583 121.632 472.825 120.87 473.308 120.315C473.792 119.76 474.456 119.482 475.301 119.482C476.085 119.482 476.704 119.72 477.159 120.197C477.614 120.673 477.841 121.328 477.841 122.162V122.844H473.883C473.901 123.421 474.056 123.865 474.35 124.177C474.644 124.484 475.057 124.638 475.591 124.638C475.942 124.638 476.268 124.606 476.568 124.542C476.873 124.474 477.199 124.363 477.546 124.209V125.235C477.238 125.381 476.926 125.485 476.611 125.546C476.296 125.607 475.936 125.637 475.532 125.637ZM475.301 120.438C474.9 120.438 474.577 120.565 474.334 120.82C474.094 121.074 473.951 121.444 473.904 121.931H476.601C476.593 121.441 476.475 121.07 476.246 120.82C476.017 120.565 475.702 120.438 475.301 120.438Z" fill="#707070"/>
<path d="M239.872 22.4H238.122V13.1935H234.972V11.692H243.022V13.1935H239.872V22.4Z" fill="#707070"/>
<path d="M251.613 22.4H249.885V17.4196C249.885 16.7946 249.758 16.3282 249.504 16.0206C249.255 15.713 248.857 15.5592 248.31 15.5592C247.587 15.5592 247.055 15.7765 246.713 16.2111C246.376 16.6407 246.208 17.3634 246.208 18.379V22.4H244.487V11.0035H246.208V13.8966C246.208 14.3605 246.178 14.8561 246.12 15.3834H246.23C246.464 14.9928 246.789 14.6901 247.204 14.4752C247.624 14.2604 248.112 14.153 248.669 14.153C250.632 14.153 251.613 15.1417 251.613 17.1193V22.4Z" fill="#707070"/>
<path d="M257.546 22.5465C256.286 22.5465 255.3 22.1803 254.587 21.4479C253.879 20.7106 253.525 19.6974 253.525 18.4083C253.525 17.0851 253.854 16.045 254.513 15.2882C255.173 14.5314 256.078 14.153 257.231 14.153C258.3 14.153 259.145 14.4777 259.765 15.1271C260.385 15.7765 260.695 16.67 260.695 17.8077V18.7379H255.297C255.322 19.524 255.534 20.1295 255.934 20.5543C256.335 20.9742 256.899 21.1842 257.626 21.1842C258.105 21.1842 258.549 21.1403 258.959 21.0524C259.374 20.9596 259.819 20.8082 260.292 20.5983V21.9972C259.872 22.1974 259.448 22.339 259.018 22.422C258.588 22.505 258.097 22.5465 257.546 22.5465ZM257.231 15.4567C256.684 15.4567 256.244 15.63 255.912 15.9767C255.585 16.3234 255.39 16.8287 255.326 17.4928H259.003C258.993 16.8239 258.832 16.3185 258.52 15.9767C258.207 15.63 257.778 15.4567 257.231 15.4567Z" fill="#707070"/>
<path d="M273.82 14.9293C273.82 16.0475 273.454 16.9044 272.721 17.5001C271.989 18.0958 270.947 18.3937 269.594 18.3937H268.481V22.4H266.73V11.692H269.814C271.152 11.692 272.153 11.9655 272.817 12.5123C273.486 13.0592 273.82 13.8649 273.82 14.9293ZM268.481 16.9215H269.411C270.309 16.9215 270.969 16.7653 271.388 16.4528C271.808 16.1403 272.018 15.652 272.018 14.9879C272.018 14.3727 271.83 13.9137 271.454 13.611C271.078 13.3082 270.492 13.1569 269.697 13.1569H268.481V16.9215Z" fill="#707070"/>
<path d="M282.902 22.4H281.174V17.4196C281.174 16.7946 281.047 16.3282 280.793 16.0206C280.544 15.713 280.146 15.5592 279.599 15.5592C278.876 15.5592 278.344 15.7765 278.002 16.2111C277.665 16.6407 277.497 17.3634 277.497 18.379V22.4H275.776V11.0035H277.497V13.8966C277.497 14.3605 277.468 14.8561 277.409 15.3834H277.519C277.753 14.9928 278.078 14.6901 278.493 14.4752C278.913 14.2604 279.401 14.153 279.958 14.153C281.921 14.153 282.902 15.1417 282.902 17.1193V22.4Z" fill="#707070"/>
<path d="M284.067 14.2994H285.942L287.59 18.8917C287.839 19.546 288.005 20.1613 288.088 20.7374H288.146C288.19 20.4689 288.271 20.1442 288.388 19.7633C288.505 19.3776 289.125 17.5563 290.248 14.2994H292.109L288.644 23.4767C288.014 25.1613 286.965 26.0035 285.495 26.0035C285.114 26.0035 284.743 25.962 284.382 25.879V24.5167C284.64 24.5753 284.936 24.6046 285.268 24.6046C286.098 24.6046 286.681 24.1237 287.018 23.1617L287.319 22.4L284.067 14.2994Z" fill="#707070"/>
<path d="M298.781 20.0929C298.781 20.8839 298.493 21.4918 297.917 21.9166C297.341 22.3365 296.515 22.5465 295.441 22.5465C294.362 22.5465 293.495 22.3829 292.841 22.0558V20.569C293.793 21.0084 294.679 21.2281 295.5 21.2281C296.559 21.2281 297.089 20.9083 297.089 20.2687C297.089 20.0636 297.031 19.8927 296.913 19.756C296.796 19.6193 296.603 19.4777 296.335 19.3312C296.066 19.1847 295.693 19.0187 295.214 18.8331C294.281 18.4718 293.649 18.1105 293.317 17.7491C292.99 17.3878 292.826 16.9191 292.826 16.3429C292.826 15.6495 293.105 15.1124 293.661 14.7316C294.223 14.3458 294.985 14.153 295.947 14.153C296.899 14.153 297.8 14.3458 298.649 14.7316L298.093 16.028C297.219 15.6666 296.484 15.486 295.888 15.486C294.98 15.486 294.526 15.7448 294.526 16.2623C294.526 16.5162 294.643 16.7311 294.877 16.9069C295.116 17.0826 295.634 17.3243 296.43 17.632C297.099 17.8907 297.585 18.1276 297.887 18.3424C298.19 18.5573 298.415 18.8063 298.561 19.0895C298.708 19.3678 298.781 19.7023 298.781 20.0929Z" fill="#707070"/>
<path d="M302.37 22.4H300.649V14.2994H302.37V22.4ZM300.546 12.1534C300.546 11.8458 300.629 11.609 300.795 11.443C300.966 11.277 301.208 11.194 301.52 11.194C301.823 11.194 302.057 11.277 302.223 11.443C302.394 11.609 302.48 11.8458 302.48 12.1534C302.48 12.4464 302.394 12.6783 302.223 12.8492C302.057 13.0153 301.823 13.0983 301.52 13.0983C301.208 13.0983 300.966 13.0153 300.795 12.8492C300.629 12.6783 300.546 12.4464 300.546 12.1534Z" fill="#707070"/>
<path d="M308.105 22.5465C306.879 22.5465 305.947 22.1901 305.307 21.4772C304.672 20.7594 304.355 19.7316 304.355 18.3937C304.355 17.0314 304.687 15.984 305.351 15.2516C306.02 14.5192 306.984 14.153 308.244 14.153C309.098 14.153 309.867 14.3116 310.551 14.629L310.031 16.0133C309.303 15.7301 308.703 15.5885 308.229 15.5885C306.828 15.5885 306.127 16.5187 306.127 18.379C306.127 19.2872 306.301 19.9708 306.647 20.4298C306.999 20.8839 307.511 21.111 308.185 21.111C308.952 21.111 309.677 20.9205 310.361 20.5397V22.0411C310.053 22.2218 309.723 22.3512 309.372 22.4293C309.025 22.5074 308.603 22.5465 308.105 22.5465Z" fill="#707070"/>
<path d="M317.333 22.4L316.989 21.2721H316.93C316.54 21.7653 316.147 22.1022 315.751 22.2828C315.356 22.4586 314.848 22.5465 314.228 22.5465C313.432 22.5465 312.809 22.3317 312.36 21.902C311.916 21.4723 311.694 20.8644 311.694 20.0782C311.694 19.2433 312.004 18.6134 312.624 18.1886C313.244 17.7638 314.189 17.5319 315.458 17.4928L316.857 17.4489V17.0167C316.857 16.4991 316.735 16.1134 316.491 15.8595C316.252 15.6007 315.878 15.4713 315.37 15.4713C314.955 15.4713 314.557 15.5323 314.177 15.6544C313.796 15.7765 313.429 15.9205 313.078 16.0865L312.521 14.8561C312.961 14.6266 313.442 14.4532 313.964 14.3361C314.487 14.214 314.98 14.153 315.444 14.153C316.474 14.153 317.25 14.3776 317.773 14.8268C318.3 15.276 318.564 15.9816 318.564 16.9435V22.4H317.333ZM314.77 21.2281C315.395 21.2281 315.895 21.0548 316.271 20.7081C316.652 20.3566 316.843 19.8658 316.843 19.236V18.5328L315.802 18.5768C314.992 18.6061 314.401 18.7428 314.03 18.9869C313.664 19.2262 313.481 19.5948 313.481 20.0929C313.481 20.4542 313.588 20.735 313.803 20.9352C314.018 21.1305 314.34 21.2281 314.77 21.2281Z" fill="#707070"/>
<path d="M322.687 22.4H320.966V11.0035H322.687V22.4Z" fill="#707070"/>
<path d="M329.235 22.4V11.692H330.986V20.8986H335.519V22.4H329.235Z" fill="#707070"/>
<path d="M342.25 22.4L341.906 21.2721H341.847C341.457 21.7653 341.064 22.1022 340.668 22.2828C340.273 22.4586 339.765 22.5465 339.145 22.5465C338.349 22.5465 337.726 22.3317 337.277 21.902C336.833 21.4723 336.611 20.8644 336.611 20.0782C336.611 19.2433 336.921 18.6134 337.541 18.1886C338.161 17.7638 339.106 17.5319 340.375 17.4928L341.774 17.4489V17.0167C341.774 16.4991 341.652 16.1134 341.408 15.8595C341.169 15.6007 340.795 15.4713 340.287 15.4713C339.872 15.4713 339.474 15.5323 339.094 15.6544C338.713 15.7765 338.346 15.9205 337.995 16.0865L337.438 14.8561C337.878 14.6266 338.359 14.4532 338.881 14.3361C339.404 14.214 339.897 14.153 340.361 14.153C341.391 14.153 342.167 14.3776 342.69 14.8268C343.217 15.276 343.481 15.9816 343.481 16.9435V22.4H342.25ZM339.687 21.2281C340.312 21.2281 340.812 21.0548 341.188 20.7081C341.569 20.3566 341.76 19.8658 341.76 19.236V18.5328L340.719 18.5768C339.909 18.6061 339.318 18.7428 338.947 18.9869C338.581 19.2262 338.398 19.5948 338.398 20.0929C338.398 20.4542 338.505 20.735 338.72 20.9352C338.935 21.1305 339.257 21.2281 339.687 21.2281Z" fill="#707070"/>
<path d="M344.653 14.2994H346.528L348.176 18.8917C348.425 19.546 348.591 20.1613 348.674 20.7374H348.732C348.776 20.4689 348.857 20.1442 348.974 19.7633C349.091 19.3776 349.711 17.5563 350.834 14.2994H352.695L349.23 23.4767C348.6 25.1613 347.551 26.0035 346.081 26.0035C345.7 26.0035 345.329 25.962 344.968 25.879V24.5167C345.226 24.5753 345.522 24.6046 345.854 24.6046C346.684 24.6046 347.267 24.1237 347.604 23.1617L347.905 22.4L344.653 14.2994Z" fill="#707070"/>
<path d="M357.463 22.5465C356.203 22.5465 355.217 22.1803 354.504 21.4479C353.796 20.7106 353.442 19.6974 353.442 18.4083C353.442 17.0851 353.771 16.045 354.43 15.2882C355.09 14.5314 355.995 14.153 357.148 14.153C358.217 14.153 359.062 14.4777 359.682 15.1271C360.302 15.7765 360.612 16.67 360.612 17.8077V18.7379H355.214C355.239 19.524 355.451 20.1295 355.851 20.5543C356.252 20.9742 356.816 21.1842 357.543 21.1842C358.022 21.1842 358.466 21.1403 358.876 21.0524C359.291 20.9596 359.736 20.8082 360.209 20.5983V21.9972C359.789 22.1974 359.365 22.339 358.935 22.422C358.505 22.505 358.014 22.5465 357.463 22.5465ZM357.148 15.4567C356.601 15.4567 356.161 15.63 355.829 15.9767C355.502 16.3234 355.307 16.8287 355.243 17.4928H358.92C358.91 16.8239 358.749 16.3185 358.437 15.9767C358.124 15.63 357.695 15.4567 357.148 15.4567Z" fill="#707070"/>
<path d="M366.677 14.153C367.023 14.153 367.309 14.1774 367.533 14.2262L367.365 15.8302C367.121 15.7716 366.867 15.7423 366.603 15.7423C365.915 15.7423 365.356 15.9669 364.926 16.4161C364.501 16.8654 364.289 17.4489 364.289 18.1666V22.4H362.568V14.2994H363.915L364.142 15.7277H364.23C364.499 15.2443 364.848 14.861 365.278 14.5778C365.712 14.2946 366.178 14.153 366.677 14.153Z" fill="#707070"/>
<path d="M237 31.55H365" stroke="#404242" stroke-width="0.5" stroke-linecap="round" stroke-linejoin="round"/>
<defs>
<linearGradient id="paint0_linear" x1="-nan" y1="-nan" x2="-nan" y2="-nan" gradientUnits="userSpaceOnUse">
<stop stop-color="#8176B5"/>
<stop offset="1" stop-color="#76C4E2"/>
</linearGradient>
<linearGradient id="paint1_linear" x1="-nan" y1="-nan" x2="-nan" y2="-nan" gradientUnits="userSpaceOnUse">
<stop stop-color="#8176B5"/>
<stop offset="1" stop-color="#76C4E2"/>
</linearGradient>
<linearGradient id="paint2_linear" x1="6083.87" y1="1907" x2="7859.65" y2="1907" gradientUnits="userSpaceOnUse">
<stop stop-color="#8176B5"/>
<stop offset="1" stop-color="#76C4E2"/>
</linearGradient>
<linearGradient id="paint3_linear" x1="17948.4" y1="1905.2" x2="19719.6" y2="1905.2" gradientUnits="userSpaceOnUse">
<stop stop-color="#8176B5"/>
<stop offset="1" stop-color="#76C4E2"/>
</linearGradient>
</defs>
</svg>
