<svg width="600" height="145" viewBox="0 0 600 145" fill="none" xmlns="http://www.w3.org/2000/svg">
<g clip-path="url(#clip0)">
<path d="M229 31.5H371" stroke="#404242" stroke-width="0.5" stroke-linecap="round" stroke-linejoin="round"/>
<path d="M234.302 22.4H232.552V13.1935H229.402V11.692H237.452V13.1935H234.302V22.4Z" fill="#707070"/>
<path d="M246.043 22.4H244.314V17.4196C244.314 16.7946 244.188 16.3282 243.934 16.0206C243.685 15.713 243.287 15.5592 242.74 15.5592C242.017 15.5592 241.485 15.7765 241.143 16.2111C240.806 16.6407 240.638 17.3634 240.638 18.379V22.4H238.917V11.0035H240.638V13.8966C240.638 14.3605 240.608 14.8561 240.55 15.3834H240.66C240.894 14.9928 241.219 14.6901 241.634 14.4752C242.054 14.2604 242.542 14.153 243.099 14.153C245.062 14.153 246.043 15.1417 246.043 17.1193V22.4Z" fill="#707070"/>
<path d="M251.976 22.5465C250.716 22.5465 249.729 22.1803 249.017 21.4479C248.309 20.7106 247.955 19.6974 247.955 18.4083C247.955 17.0851 248.284 16.045 248.943 15.2882C249.603 14.5314 250.508 14.153 251.661 14.153C252.73 14.153 253.575 14.4777 254.195 15.1271C254.815 15.7765 255.125 16.67 255.125 17.8077V18.7379H249.727C249.751 19.524 249.964 20.1295 250.364 20.5543C250.765 20.9742 251.329 21.1842 252.056 21.1842C252.535 21.1842 252.979 21.1403 253.389 21.0524C253.804 20.9596 254.249 20.8082 254.722 20.5983V21.9972C254.302 22.1974 253.877 22.339 253.448 22.422C253.018 22.505 252.527 22.5465 251.976 22.5465ZM251.661 15.4567C251.114 15.4567 250.674 15.63 250.342 15.9767C250.015 16.3234 249.82 16.8287 249.756 17.4928H253.433C253.423 16.8239 253.262 16.3185 252.95 15.9767C252.637 15.63 252.208 15.4567 251.661 15.4567Z" fill="#707070"/>
<path d="M269.869 16.9435C269.869 18.7111 269.378 20.0636 268.396 21.0011C267.415 21.9337 266.001 22.4 264.156 22.4H261.16V11.692H264.471C266.175 11.692 267.5 12.151 268.448 13.069C269.395 13.9869 269.869 15.2784 269.869 16.9435ZM268.023 17.0021C268.023 14.4386 266.824 13.1569 264.427 13.1569H262.911V20.9279H264.156C266.734 20.9279 268.023 19.6193 268.023 17.0021Z" fill="#707070"/>
<path d="M277.061 22.4L276.717 21.2721H276.658C276.268 21.7653 275.875 22.1022 275.479 22.2828C275.083 22.4586 274.576 22.5465 273.956 22.5465C273.16 22.5465 272.537 22.3317 272.088 21.902C271.644 21.4723 271.421 20.8644 271.421 20.0782C271.421 19.2433 271.731 18.6134 272.352 18.1886C272.972 17.7638 273.917 17.5319 275.186 17.4928L276.585 17.4489V17.0167C276.585 16.4991 276.463 16.1134 276.219 15.8595C275.979 15.6007 275.606 15.4713 275.098 15.4713C274.683 15.4713 274.285 15.5323 273.904 15.6544C273.523 15.7765 273.157 15.9205 272.806 16.0865L272.249 14.8561C272.688 14.6266 273.169 14.4532 273.692 14.3361C274.214 14.214 274.708 14.153 275.171 14.153C276.202 14.153 276.978 14.3776 277.5 14.8268C278.028 15.276 278.292 15.9816 278.292 16.9435V22.4H277.061ZM274.498 21.2281C275.123 21.2281 275.623 21.0548 275.999 20.7081C276.38 20.3566 276.57 19.8658 276.57 19.236V18.5328L275.53 18.5768C274.72 18.6061 274.129 18.7428 273.758 18.9869C273.392 19.2262 273.208 19.5948 273.208 20.0929C273.208 20.4542 273.316 20.735 273.531 20.9352C273.746 21.1305 274.068 21.2281 274.498 21.2281Z" fill="#707070"/>
<path d="M283.711 21.1549C284.131 21.1549 284.551 21.089 284.971 20.9572V22.2535C284.781 22.3365 284.534 22.4049 284.231 22.4586C283.934 22.5172 283.624 22.5465 283.301 22.5465C281.67 22.5465 280.855 21.6871 280.855 19.9684V15.6031H279.749V14.8414L280.936 14.2115L281.521 12.4977H282.583V14.2994H284.891V15.6031H282.583V19.9391C282.583 20.3541 282.686 20.6617 282.891 20.8619C283.101 21.0573 283.375 21.1549 283.711 21.1549Z" fill="#707070"/>
<path d="M291.666 22.4L291.321 21.2721H291.263C290.872 21.7653 290.479 22.1022 290.083 22.2828C289.688 22.4586 289.18 22.5465 288.56 22.5465C287.764 22.5465 287.142 22.3317 286.692 21.902C286.248 21.4723 286.026 20.8644 286.026 20.0782C286.026 19.2433 286.336 18.6134 286.956 18.1886C287.576 17.7638 288.521 17.5319 289.791 17.4928L291.189 17.4489V17.0167C291.189 16.4991 291.067 16.1134 290.823 15.8595C290.584 15.6007 290.21 15.4713 289.703 15.4713C289.288 15.4713 288.89 15.5323 288.509 15.6544C288.128 15.7765 287.762 15.9205 287.41 16.0865L286.854 14.8561C287.293 14.6266 287.774 14.4532 288.296 14.3361C288.819 14.214 289.312 14.153 289.776 14.153C290.806 14.153 291.583 14.3776 292.105 14.8268C292.632 15.276 292.896 15.9816 292.896 16.9435V22.4H291.666ZM289.102 21.2281C289.727 21.2281 290.228 21.0548 290.604 20.7081C290.984 20.3566 291.175 19.8658 291.175 19.236V18.5328L290.135 18.5768C289.324 18.6061 288.733 18.7428 288.362 18.9869C287.996 19.2262 287.813 19.5948 287.813 20.0929C287.813 20.4542 287.92 20.735 288.135 20.9352C288.35 21.1305 288.672 21.2281 289.102 21.2281Z" fill="#707070"/>
<path d="M299.378 22.4V11.692H301.128V20.8986H305.662V22.4H299.378Z" fill="#707070"/>
<path d="M309.046 22.4H307.325V14.2994H309.046V22.4ZM307.222 12.1534C307.222 11.8458 307.305 11.609 307.471 11.443C307.642 11.277 307.884 11.194 308.196 11.194C308.499 11.194 308.733 11.277 308.899 11.443C309.07 11.609 309.156 11.8458 309.156 12.1534C309.156 12.4464 309.07 12.6783 308.899 12.8492C308.733 13.0153 308.499 13.0983 308.196 13.0983C307.884 13.0983 307.642 13.0153 307.471 12.8492C307.305 12.6783 307.222 12.4464 307.222 12.1534Z" fill="#707070"/>
<path d="M318.641 22.4H316.912V17.4196C316.912 16.7946 316.785 16.3282 316.531 16.0206C316.282 15.713 315.884 15.5592 315.337 15.5592C314.61 15.5592 314.078 15.774 313.741 16.2037C313.404 16.6334 313.235 17.3536 313.235 18.3644V22.4H311.514V14.2994H312.862L313.104 15.3615H313.191C313.436 14.9757 313.782 14.6779 314.231 14.4679C314.681 14.2579 315.179 14.153 315.726 14.153C317.669 14.153 318.641 15.1417 318.641 17.1193V22.4Z" fill="#707070"/>
<path d="M322.698 18.1227L323.672 16.9069L326.119 14.2994H328.104L324.844 17.7784L328.309 22.4H326.287L323.687 18.8478L322.742 19.6241V22.4H321.036V11.0035H322.742V16.5626L322.654 18.1227H322.698Z" fill="#707070"/>
<path d="M333.699 22.4V11.692H335.45V20.8986H339.983V22.4H333.699Z" fill="#707070"/>
<path d="M346.714 22.4L346.37 21.2721H346.312C345.921 21.7653 345.528 22.1022 345.132 22.2828C344.737 22.4586 344.229 22.5465 343.609 22.5465C342.813 22.5465 342.19 22.3317 341.741 21.902C341.297 21.4723 341.075 20.8644 341.075 20.0782C341.075 19.2433 341.385 18.6134 342.005 18.1886C342.625 17.7638 343.57 17.5319 344.839 17.4928L346.238 17.4489V17.0167C346.238 16.4991 346.116 16.1134 345.872 15.8595C345.633 15.6007 345.259 15.4713 344.751 15.4713C344.336 15.4713 343.938 15.5323 343.558 15.6544C343.177 15.7765 342.811 15.9205 342.459 16.0865L341.902 14.8561C342.342 14.6266 342.823 14.4532 343.345 14.3361C343.868 14.214 344.361 14.153 344.825 14.153C345.855 14.153 346.631 14.3776 347.154 14.8268C347.681 15.276 347.945 15.9816 347.945 16.9435V22.4H346.714ZM344.151 21.2281C344.776 21.2281 345.276 21.0548 345.652 20.7081C346.033 20.3566 346.224 19.8658 346.224 19.236V18.5328L345.184 18.5768C344.373 18.6061 343.782 18.7428 343.411 18.9869C343.045 19.2262 342.862 19.5948 342.862 20.0929C342.862 20.4542 342.969 20.735 343.184 20.9352C343.399 21.1305 343.721 21.2281 344.151 21.2281Z" fill="#707070"/>
<path d="M349.117 14.2994H350.992L352.64 18.8917C352.889 19.546 353.055 20.1613 353.138 20.7374H353.196C353.24 20.4689 353.321 20.1442 353.438 19.7633C353.555 19.3776 354.175 17.5563 355.298 14.2994H357.159L353.694 23.4767C353.064 25.1613 352.015 26.0035 350.545 26.0035C350.164 26.0035 349.793 25.962 349.432 25.879V24.5167C349.69 24.5753 349.986 24.6046 350.318 24.6046C351.148 24.6046 351.731 24.1237 352.068 23.1617L352.369 22.4L349.117 14.2994Z" fill="#707070"/>
<path d="M361.927 22.5465C360.667 22.5465 359.681 22.1803 358.968 21.4479C358.26 20.7106 357.906 19.6974 357.906 18.4083C357.906 17.0851 358.235 16.045 358.895 15.2882C359.554 14.5314 360.459 14.153 361.612 14.153C362.681 14.153 363.526 14.4777 364.146 15.1271C364.766 15.7765 365.076 16.67 365.076 17.8077V18.7379H359.678C359.703 19.524 359.915 20.1295 360.315 20.5543C360.716 20.9742 361.28 21.1842 362.007 21.1842C362.486 21.1842 362.93 21.1403 363.34 21.0524C363.755 20.9596 364.2 20.8082 364.673 20.5983V21.9972C364.253 22.1974 363.829 22.339 363.399 22.422C362.969 22.505 362.479 22.5465 361.927 22.5465ZM361.612 15.4567C361.065 15.4567 360.625 15.63 360.293 15.9767C359.966 16.3234 359.771 16.8287 359.708 17.4928H363.384C363.375 16.8239 363.213 16.3185 362.901 15.9767C362.588 15.63 362.159 15.4567 361.612 15.4567Z" fill="#707070"/>
<path d="M371.141 14.153C371.487 14.153 371.773 14.1774 371.998 14.2262L371.829 15.8302C371.585 15.7716 371.331 15.7423 371.067 15.7423C370.379 15.7423 369.82 15.9669 369.39 16.4161C368.965 16.8654 368.753 17.4489 368.753 18.1666V22.4H367.032V14.2994H368.379L368.606 15.7277H368.694C368.963 15.2443 369.312 14.861 369.742 14.5778C370.176 14.2946 370.643 14.153 371.141 14.153Z" fill="#707070"/>
<path d="M451.829 111.81H450.545V105.059H448.236V103.957H454.139V105.059H451.829V111.81Z" fill="#707070"/>
<path d="M458.226 105.762C458.48 105.762 458.69 105.78 458.854 105.816L458.731 106.992C458.552 106.949 458.366 106.928 458.172 106.928C457.667 106.928 457.257 107.092 456.942 107.422C456.631 107.751 456.475 108.179 456.475 108.706V111.81H455.213V105.87H456.201L456.368 106.917H456.432C456.629 106.562 456.885 106.281 457.2 106.074C457.519 105.866 457.861 105.762 458.226 105.762Z" fill="#707070"/>
<path d="M463.678 111.81L463.425 110.983H463.382C463.096 111.345 462.808 111.592 462.518 111.724C462.228 111.853 461.855 111.917 461.4 111.917C460.817 111.917 460.36 111.76 460.031 111.445C459.705 111.13 459.542 110.684 459.542 110.107C459.542 109.495 459.769 109.033 460.224 108.722C460.679 108.41 461.372 108.24 462.303 108.211L463.329 108.179V107.862C463.329 107.483 463.239 107.2 463.06 107.014C462.885 106.824 462.611 106.729 462.238 106.729C461.934 106.729 461.642 106.774 461.363 106.863C461.083 106.953 460.815 107.058 460.557 107.18L460.149 106.278C460.471 106.109 460.824 105.982 461.207 105.896C461.59 105.807 461.952 105.762 462.292 105.762C463.048 105.762 463.617 105.927 464 106.256C464.387 106.586 464.58 107.103 464.58 107.809V111.81H463.678ZM461.798 110.951C462.256 110.951 462.623 110.824 462.899 110.569C463.178 110.311 463.318 109.952 463.318 109.49V108.974L462.555 109.006C461.961 109.028 461.528 109.128 461.255 109.307C460.987 109.483 460.853 109.753 460.853 110.118C460.853 110.383 460.931 110.589 461.089 110.736C461.246 110.879 461.483 110.951 461.798 110.951Z" fill="#707070"/>
<path d="M471.568 111.81H470.3V108.158C470.3 107.699 470.207 107.357 470.021 107.132C469.838 106.906 469.547 106.793 469.146 106.793C468.612 106.793 468.222 106.951 467.975 107.266C467.728 107.581 467.604 108.109 467.604 108.851V111.81H466.342V105.87H467.33L467.507 106.648H467.572C467.751 106.365 468.005 106.147 468.334 105.993C468.664 105.839 469.029 105.762 469.43 105.762C470.855 105.762 471.568 106.487 471.568 107.937V111.81Z" fill="#707070"/>
<path d="M477.315 110.118C477.315 110.698 477.104 111.144 476.681 111.456C476.259 111.763 475.653 111.917 474.866 111.917C474.074 111.917 473.439 111.797 472.959 111.558V110.467C473.657 110.789 474.307 110.951 474.909 110.951C475.686 110.951 476.074 110.716 476.074 110.247C476.074 110.097 476.031 109.971 475.945 109.871C475.859 109.771 475.718 109.667 475.521 109.56C475.324 109.452 475.05 109.33 474.699 109.194C474.015 108.929 473.552 108.664 473.308 108.399C473.068 108.134 472.948 107.791 472.948 107.368C472.948 106.86 473.152 106.466 473.561 106.186C473.972 105.904 474.531 105.762 475.236 105.762C475.935 105.762 476.595 105.904 477.218 106.186L476.81 107.137C476.169 106.872 475.63 106.74 475.193 106.74C474.527 106.74 474.194 106.929 474.194 107.309C474.194 107.495 474.28 107.653 474.452 107.782C474.628 107.911 475.007 108.088 475.591 108.313C476.081 108.503 476.438 108.677 476.66 108.834C476.882 108.992 477.046 109.175 477.154 109.382C477.261 109.586 477.315 109.832 477.315 110.118Z" fill="#707070"/>
<path d="M481.666 106.826H480.215V111.81H478.948V106.826H477.97V106.235L478.948 105.848V105.461C478.948 104.76 479.112 104.24 479.442 103.904C479.771 103.564 480.274 103.393 480.951 103.393C481.395 103.393 481.832 103.467 482.262 103.614L481.929 104.57C481.617 104.47 481.32 104.419 481.037 104.419C480.751 104.419 480.541 104.509 480.409 104.688C480.28 104.863 480.215 105.128 480.215 105.483V105.87H481.666V106.826Z" fill="#707070"/>
<path d="M485.275 111.917C484.351 111.917 483.628 111.649 483.105 111.112C482.586 110.571 482.326 109.828 482.326 108.883C482.326 107.912 482.568 107.15 483.051 106.595C483.535 106.04 484.199 105.762 485.044 105.762C485.828 105.762 486.448 106 486.902 106.477C487.357 106.953 487.584 107.608 487.584 108.442V109.124H483.626C483.644 109.701 483.8 110.145 484.093 110.456C484.387 110.764 484.8 110.918 485.334 110.918C485.685 110.918 486.011 110.886 486.312 110.822C486.616 110.754 486.942 110.643 487.289 110.489V111.515C486.981 111.661 486.67 111.765 486.354 111.826C486.039 111.887 485.68 111.917 485.275 111.917ZM485.044 106.718C484.643 106.718 484.321 106.845 484.077 107.1C483.837 107.354 483.694 107.724 483.647 108.211H486.344C486.337 107.721 486.218 107.35 485.989 107.1C485.76 106.845 485.445 106.718 485.044 106.718Z" fill="#707070"/>
<path d="M492.032 105.762C492.286 105.762 492.495 105.78 492.66 105.816L492.537 106.992C492.358 106.949 492.171 106.928 491.978 106.928C491.473 106.928 491.063 107.092 490.748 107.422C490.437 107.751 490.281 108.179 490.281 108.706V111.81H489.019V105.87H490.007L490.173 106.917H490.238C490.435 106.562 490.691 106.281 491.006 106.074C491.325 105.866 491.667 105.762 492.032 105.762Z" fill="#707070"/>
<path d="M499.605 106.826H498.155V111.81H496.887V106.826H495.91V106.235L496.887 105.848V105.461C496.887 104.76 497.052 104.24 497.381 103.904C497.711 103.564 498.214 103.393 498.891 103.393C499.335 103.393 499.771 103.467 500.201 103.614L499.868 104.57C499.557 104.47 499.259 104.419 498.977 104.419C498.69 104.419 498.481 104.509 498.348 104.688C498.219 104.863 498.155 105.128 498.155 105.483V105.87H499.605V106.826Z" fill="#707070"/>
<path d="M503.633 105.762C503.888 105.762 504.097 105.78 504.262 105.816L504.138 106.992C503.959 106.949 503.773 106.928 503.58 106.928C503.075 106.928 502.665 107.092 502.35 107.422C502.038 107.751 501.882 108.179 501.882 108.706V111.81H500.62V105.87H501.608L501.775 106.917H501.839C502.036 106.562 502.292 106.281 502.607 106.074C502.926 105.866 503.268 105.762 503.633 105.762Z" fill="#707070"/>
<path d="M509.085 111.81L508.833 110.983H508.79C508.503 111.345 508.215 111.592 507.925 111.724C507.635 111.853 507.262 111.917 506.808 111.917C506.224 111.917 505.767 111.76 505.438 111.445C505.112 111.13 504.949 110.684 504.949 110.107C504.949 109.495 505.177 109.033 505.631 108.722C506.086 108.41 506.779 108.24 507.71 108.211L508.736 108.179V107.862C508.736 107.483 508.646 107.2 508.467 107.014C508.292 106.824 508.018 106.729 507.646 106.729C507.341 106.729 507.049 106.774 506.77 106.863C506.491 106.953 506.222 107.058 505.964 107.18L505.556 106.278C505.878 106.109 506.231 105.982 506.614 105.896C506.997 105.807 507.359 105.762 507.699 105.762C508.455 105.762 509.024 105.927 509.407 106.256C509.794 106.586 509.987 107.103 509.987 107.809V111.81H509.085ZM507.205 110.951C507.663 110.951 508.03 110.824 508.306 110.569C508.585 110.311 508.725 109.952 508.725 109.49V108.974L507.962 109.006C507.368 109.028 506.935 109.128 506.663 109.307C506.394 109.483 506.26 109.753 506.26 110.118C506.26 110.383 506.339 110.589 506.496 110.736C506.654 110.879 506.89 110.951 507.205 110.951Z" fill="#707070"/>
<path d="M516.755 111.81H515.487V108.147C515.487 107.692 515.401 107.354 515.229 107.132C515.058 106.906 514.789 106.793 514.424 106.793C513.937 106.793 513.579 106.953 513.35 107.271C513.124 107.587 513.011 108.113 513.011 108.851V111.81H511.749V105.87H512.737L512.915 106.648H512.979C513.144 106.365 513.382 106.147 513.693 105.993C514.008 105.839 514.354 105.762 514.73 105.762C515.643 105.762 516.248 106.074 516.545 106.697H516.631C516.807 106.403 517.054 106.174 517.373 106.009C517.691 105.845 518.056 105.762 518.468 105.762C519.177 105.762 519.693 105.941 520.015 106.299C520.341 106.657 520.504 107.203 520.504 107.937V111.81H519.242V108.147C519.242 107.692 519.154 107.354 518.979 107.132C518.807 106.906 518.538 106.793 518.173 106.793C517.682 106.793 517.322 106.947 517.093 107.255C516.868 107.56 516.755 108.029 516.755 108.663V111.81Z" fill="#707070"/>
<path d="M524.86 111.917C523.936 111.917 523.213 111.649 522.69 111.112C522.171 110.571 521.911 109.828 521.911 108.883C521.911 107.912 522.153 107.15 522.636 106.595C523.12 106.04 523.784 105.762 524.629 105.762C525.413 105.762 526.033 106 526.487 106.477C526.942 106.953 527.169 107.608 527.169 108.442V109.124H523.211C523.229 109.701 523.385 110.145 523.678 110.456C523.972 110.764 524.385 110.918 524.919 110.918C525.27 110.918 525.596 110.886 525.896 110.822C526.201 110.754 526.527 110.643 526.874 110.489V111.515C526.566 111.661 526.255 111.765 525.939 111.826C525.624 111.887 525.264 111.917 524.86 111.917ZM524.629 106.718C524.228 106.718 523.906 106.845 523.662 107.1C523.422 107.354 523.279 107.724 523.232 108.211H525.929C525.922 107.721 525.803 107.35 525.574 107.1C525.345 106.845 525.03 106.718 524.629 106.718Z" fill="#707070"/>
<path d="M532.594 110.118C532.594 110.698 532.383 111.144 531.96 111.456C531.538 111.763 530.933 111.917 530.145 111.917C529.354 111.917 528.718 111.797 528.238 111.558V110.467C528.937 110.789 529.586 110.951 530.188 110.951C530.965 110.951 531.354 110.716 531.354 110.247C531.354 110.097 531.311 109.971 531.225 109.871C531.139 109.771 530.997 109.667 530.8 109.56C530.603 109.452 530.329 109.33 529.979 109.194C529.295 108.929 528.831 108.664 528.587 108.399C528.347 108.134 528.228 107.791 528.228 107.368C528.228 106.86 528.432 106.466 528.84 106.186C529.252 105.904 529.81 105.762 530.516 105.762C531.214 105.762 531.875 105.904 532.498 106.186L532.089 107.137C531.448 106.872 530.91 106.74 530.473 106.74C529.807 106.74 529.474 106.929 529.474 107.309C529.474 107.495 529.56 107.653 529.731 107.782C529.907 107.911 530.286 108.088 530.87 108.313C531.361 108.503 531.717 108.677 531.939 108.834C532.161 108.992 532.326 109.175 532.433 109.382C532.541 109.586 532.594 109.832 532.594 110.118Z" fill="#707070"/>
<path d="M539.856 105.762C540.597 105.762 541.174 106.031 541.585 106.568C542.001 107.105 542.208 107.859 542.208 108.829C542.208 109.803 541.999 110.562 541.58 111.106C541.161 111.647 540.579 111.917 539.834 111.917C539.083 111.917 538.499 111.647 538.083 111.106H537.998L537.767 111.81H536.821V103.453H538.083V105.44C538.083 105.587 538.076 105.805 538.062 106.095C538.048 106.385 538.037 106.57 538.03 106.648H538.083C538.485 106.058 539.075 105.762 539.856 105.762ZM539.528 106.793C539.02 106.793 538.653 106.944 538.427 107.245C538.205 107.542 538.091 108.041 538.083 108.743V108.829C538.083 109.552 538.198 110.077 538.427 110.403C538.656 110.725 539.031 110.886 539.55 110.886C539.997 110.886 540.336 110.709 540.565 110.354C540.798 110 540.914 109.488 540.914 108.818C540.914 107.468 540.452 106.793 539.528 106.793Z" fill="#707070"/>
<path d="M546.269 111.917C545.345 111.917 544.622 111.649 544.099 111.112C543.58 110.571 543.32 109.828 543.32 108.883C543.32 107.912 543.562 107.15 544.045 106.595C544.529 106.04 545.193 105.762 546.038 105.762C546.822 105.762 547.442 106 547.896 106.477C548.351 106.953 548.579 107.608 548.579 108.442V109.124H544.62C544.638 109.701 544.794 110.145 545.087 110.456C545.381 110.764 545.795 110.918 546.328 110.918C546.679 110.918 547.005 110.886 547.306 110.822C547.61 110.754 547.936 110.643 548.283 110.489V111.515C547.975 111.661 547.664 111.765 547.349 111.826C547.034 111.887 546.674 111.917 546.269 111.917ZM546.038 106.718C545.637 106.718 545.315 106.845 545.071 107.1C544.831 107.354 544.688 107.724 544.642 108.211H547.338C547.331 107.721 547.213 107.35 546.983 107.1C546.754 106.845 546.439 106.718 546.038 106.718Z" fill="#707070"/>
<path d="M552.226 110.897C552.534 110.897 552.841 110.849 553.149 110.752V111.703C553.01 111.763 552.829 111.814 552.607 111.853C552.389 111.896 552.161 111.917 551.925 111.917C550.729 111.917 550.131 111.287 550.131 110.027V106.826H549.32V106.267L550.19 105.805L550.62 104.548H551.398V105.87H553.09V106.826H551.398V110.005C551.398 110.31 551.474 110.535 551.624 110.682C551.778 110.825 551.979 110.897 552.226 110.897Z" fill="#707070"/>
<path d="M559.213 111.81L558.445 109.039C558.352 108.745 558.184 108.063 557.94 106.992H557.892C557.684 107.959 557.52 108.645 557.398 109.049L556.608 111.81H555.212L553.547 105.87H554.836L555.593 108.797C555.765 109.52 555.887 110.14 555.958 110.655H555.991C556.027 110.394 556.08 110.095 556.152 109.758C556.227 109.418 556.292 109.164 556.345 108.996L557.248 105.87H558.633L559.509 108.996C559.562 109.171 559.629 109.44 559.708 109.801C559.79 110.163 559.838 110.444 559.853 110.644H559.896C559.949 110.204 560.075 109.588 560.271 108.797L561.04 105.87H562.307L560.631 111.81H559.213Z" fill="#707070"/>
<path d="M565.927 111.917C565.003 111.917 564.28 111.649 563.757 111.112C563.238 110.571 562.979 109.828 562.979 108.883C562.979 107.912 563.22 107.15 563.704 106.595C564.187 106.04 564.851 105.762 565.696 105.762C566.48 105.762 567.1 106 567.555 106.477C568.009 106.953 568.237 107.608 568.237 108.442V109.124H564.278C564.296 109.701 564.452 110.145 564.746 110.456C565.039 110.764 565.453 110.918 565.986 110.918C566.337 110.918 566.663 110.886 566.964 110.822C567.268 110.754 567.594 110.643 567.941 110.489V111.515C567.633 111.661 567.322 111.765 567.007 111.826C566.692 111.887 566.332 111.917 565.927 111.917ZM565.696 106.718C565.295 106.718 564.973 106.845 564.729 107.1C564.49 107.354 564.346 107.724 564.3 108.211H566.996C566.989 107.721 566.871 107.35 566.642 107.1C566.412 106.845 566.097 106.718 565.696 106.718Z" fill="#707070"/>
<path d="M572.265 111.917C571.341 111.917 570.618 111.649 570.095 111.112C569.576 110.571 569.316 109.828 569.316 108.883C569.316 107.912 569.558 107.15 570.042 106.595C570.525 106.04 571.189 105.762 572.034 105.762C572.818 105.762 573.438 106 573.893 106.477C574.347 106.953 574.575 107.608 574.575 108.442V109.124H570.616C570.634 109.701 570.79 110.145 571.083 110.456C571.377 110.764 571.791 110.918 572.324 110.918C572.675 110.918 573.001 110.886 573.302 110.822C573.606 110.754 573.932 110.643 574.279 110.489V111.515C573.971 111.661 573.66 111.765 573.345 111.826C573.03 111.887 572.67 111.917 572.265 111.917ZM572.034 106.718C571.633 106.718 571.311 106.845 571.067 107.1C570.827 107.354 570.684 107.724 570.638 108.211H573.334C573.327 107.721 573.209 107.35 572.979 107.1C572.75 106.845 572.435 106.718 572.034 106.718Z" fill="#707070"/>
<path d="M581.235 111.81H579.967V108.158C579.967 107.699 579.874 107.357 579.688 107.132C579.505 106.906 579.214 106.793 578.812 106.793C578.279 106.793 577.889 106.951 577.642 107.266C577.395 107.581 577.271 108.109 577.271 108.851V111.81H576.009V105.87H576.997L577.174 106.648H577.239C577.418 106.365 577.672 106.147 578.001 105.993C578.331 105.839 578.696 105.762 579.097 105.762C580.522 105.762 581.235 106.487 581.235 107.937V111.81Z" fill="#707070"/>
<path d="M588.217 111.81H586.95V108.158C586.95 107.699 586.857 107.357 586.67 107.132C586.488 106.906 586.196 106.793 585.795 106.793C585.261 106.793 584.871 106.951 584.624 107.266C584.377 107.581 584.253 108.109 584.253 108.851V111.81H582.991V105.87H583.979L584.157 106.648H584.221C584.4 106.365 584.654 106.147 584.984 105.993C585.313 105.839 585.679 105.762 586.08 105.762C587.505 105.762 588.217 106.487 588.217 107.937V111.81Z" fill="#707070"/>
<path d="M592.568 111.917C591.644 111.917 590.921 111.649 590.398 111.112C589.879 110.571 589.619 109.828 589.619 108.883C589.619 107.912 589.861 107.15 590.344 106.595C590.828 106.04 591.492 105.762 592.337 105.762C593.121 105.762 593.741 106 594.195 106.477C594.65 106.953 594.877 107.608 594.877 108.442V109.124H590.919C590.937 109.701 591.093 110.145 591.386 110.456C591.68 110.764 592.093 110.918 592.627 110.918C592.978 110.918 593.304 110.886 593.604 110.822C593.909 110.754 594.235 110.643 594.582 110.489V111.515C594.274 111.661 593.963 111.765 593.647 111.826C593.332 111.887 592.972 111.917 592.568 111.917ZM592.337 106.718C591.936 106.718 591.614 106.845 591.37 107.1C591.13 107.354 590.987 107.724 590.94 108.211H593.637C593.63 107.721 593.511 107.35 593.282 107.1C593.053 106.845 592.738 106.718 592.337 106.718Z" fill="#707070"/>
<path d="M598.524 110.897C598.832 110.897 599.14 110.849 599.448 110.752V111.703C599.309 111.763 599.128 111.814 598.906 111.853C598.687 111.896 598.46 111.917 598.224 111.917C597.028 111.917 596.43 111.287 596.43 110.027V106.826H595.619V106.267L596.489 105.805L596.918 104.548H597.697V105.87H599.389V106.826H597.697V110.005C597.697 110.31 597.772 110.535 597.923 110.682C598.077 110.825 598.277 110.897 598.524 110.897Z" fill="#707070"/>
<path d="M605.512 111.81L604.744 109.039C604.651 108.745 604.483 108.063 604.239 106.992H604.191C603.983 107.959 603.819 108.645 603.697 109.049L602.907 111.81H601.511L599.846 105.87H601.135L601.892 108.797C602.064 109.52 602.186 110.14 602.257 110.655H602.29C602.325 110.394 602.379 110.095 602.451 109.758C602.526 109.418 602.59 109.164 602.644 108.996L603.546 105.87H604.932L605.808 108.996C605.861 109.171 605.928 109.44 606.006 109.801C606.089 110.163 606.137 110.444 606.151 110.644H606.194C606.248 110.204 606.373 109.588 606.57 108.797L607.338 105.87H608.606L606.93 111.81H605.512Z" fill="#707070"/>
<path d="M614.901 108.829C614.901 109.799 614.652 110.557 614.154 111.101C613.657 111.645 612.964 111.917 612.076 111.917C611.521 111.917 611.03 111.792 610.604 111.541C610.178 111.291 609.85 110.931 609.621 110.462C609.392 109.993 609.277 109.449 609.277 108.829C609.277 107.866 609.524 107.114 610.019 106.573C610.513 106.032 611.209 105.762 612.108 105.762C612.967 105.762 613.648 106.04 614.149 106.595C614.65 107.146 614.901 107.891 614.901 108.829ZM610.577 108.829C610.577 110.2 611.084 110.886 612.097 110.886C613.1 110.886 613.601 110.2 613.601 108.829C613.601 107.472 613.096 106.793 612.086 106.793C611.556 106.793 611.172 106.969 610.932 107.32C610.695 107.671 610.577 108.174 610.577 108.829Z" fill="#707070"/>
<path d="M619.37 105.762C619.624 105.762 619.833 105.78 619.998 105.816L619.875 106.992C619.695 106.949 619.509 106.928 619.316 106.928C618.811 106.928 618.401 107.092 618.086 107.422C617.774 107.751 617.619 108.179 617.619 108.706V111.81H616.356V105.87H617.345L617.511 106.917H617.576C617.773 106.562 618.029 106.281 618.344 106.074C618.662 105.866 619.004 105.762 619.37 105.762Z" fill="#707070"/>
<path d="M622.324 108.673L623.038 107.782L624.832 105.87H626.288L623.897 108.421L626.438 111.81H624.956L623.049 109.205L622.356 109.774V111.81H621.104V103.453H622.356V107.529L622.292 108.673H622.324Z" fill="#707070"/>
<path d="M635.483 111.81H634.215V108.158C634.215 107.699 634.122 107.357 633.936 107.132C633.753 106.906 633.462 106.793 633.061 106.793C632.527 106.793 632.137 106.951 631.89 107.266C631.643 107.581 631.519 108.109 631.519 108.851V111.81H630.257V105.87H631.245L631.422 106.648H631.487C631.666 106.365 631.92 106.147 632.25 105.993C632.579 105.839 632.944 105.762 633.345 105.762C634.77 105.762 635.483 106.487 635.483 107.937V111.81Z" fill="#707070"/>
<path d="M642.508 108.829C642.508 109.799 642.259 110.557 641.762 111.101C641.264 111.645 640.571 111.917 639.683 111.917C639.128 111.917 638.638 111.792 638.211 111.541C637.785 111.291 637.458 110.931 637.229 110.462C636.999 109.993 636.885 109.449 636.885 108.829C636.885 107.866 637.132 107.114 637.626 106.573C638.12 106.032 638.817 105.762 639.715 105.762C640.575 105.762 641.255 106.04 641.756 106.595C642.258 107.146 642.508 107.891 642.508 108.829ZM638.185 108.829C638.185 110.2 638.691 110.886 639.705 110.886C640.707 110.886 641.208 110.2 641.208 108.829C641.208 107.472 640.704 106.793 639.694 106.793C639.164 106.793 638.779 106.969 638.539 107.32C638.303 107.671 638.185 108.174 638.185 108.829Z" fill="#707070"/>
<path d="M645.967 111.917C645.226 111.917 644.648 111.649 644.232 111.112C643.817 110.575 643.609 109.821 643.609 108.851C643.609 107.877 643.819 107.119 644.238 106.579C644.66 106.034 645.244 105.762 645.989 105.762C646.769 105.762 647.364 106.05 647.772 106.627H647.836C647.776 106.201 647.745 105.864 647.745 105.617V103.453H649.013V111.81H648.024L647.804 111.031H647.745C647.34 111.622 646.748 111.917 645.967 111.917ZM646.306 110.897C646.825 110.897 647.203 110.752 647.439 110.462C647.675 110.168 647.797 109.694 647.804 109.039V108.861C647.804 108.113 647.682 107.581 647.439 107.266C647.195 106.951 646.814 106.793 646.295 106.793C645.851 106.793 645.509 106.974 645.269 107.336C645.029 107.694 644.909 108.206 644.909 108.872C644.909 109.531 645.026 110.034 645.258 110.381C645.491 110.725 645.84 110.897 646.306 110.897Z" fill="#707070"/>
<path d="M653.412 111.917C652.488 111.917 651.764 111.649 651.242 111.112C650.722 110.571 650.463 109.828 650.463 108.883C650.463 107.912 650.705 107.15 651.188 106.595C651.671 106.04 652.336 105.762 653.181 105.762C653.965 105.762 654.584 106 655.039 106.477C655.494 106.953 655.721 107.608 655.721 108.442V109.124H651.763C651.781 109.701 651.936 110.145 652.23 110.456C652.524 110.764 652.937 110.918 653.471 110.918C653.822 110.918 654.147 110.886 654.448 110.822C654.753 110.754 655.078 110.643 655.426 110.489V111.515C655.118 111.661 654.806 111.765 654.491 111.826C654.176 111.887 653.816 111.917 653.412 111.917ZM653.181 106.718C652.78 106.718 652.457 106.845 652.214 107.1C651.974 107.354 651.831 107.724 651.784 108.211H654.48C654.473 107.721 654.355 107.35 654.126 107.1C653.897 106.845 653.582 106.718 653.181 106.718Z" fill="#707070"/>
<path d="M661.146 110.118C661.146 110.698 660.935 111.144 660.512 111.456C660.09 111.763 659.485 111.917 658.697 111.917C657.905 111.917 657.27 111.797 656.79 111.558V110.467C657.488 110.789 658.138 110.951 658.74 110.951C659.517 110.951 659.905 110.716 659.905 110.247C659.905 110.097 659.862 109.971 659.776 109.871C659.69 109.771 659.549 109.667 659.352 109.56C659.155 109.452 658.881 109.33 658.53 109.194C657.846 108.929 657.383 108.664 657.139 108.399C656.899 108.134 656.779 107.791 656.779 107.368C656.779 106.86 656.983 106.466 657.392 106.186C657.803 105.904 658.362 105.762 659.067 105.762C659.766 105.762 660.426 105.904 661.049 106.186L660.641 107.137C660 106.872 659.461 106.74 659.024 106.74C658.358 106.74 658.025 106.929 658.025 107.309C658.025 107.495 658.111 107.653 658.283 107.782C658.459 107.911 658.838 108.088 659.422 108.313C659.912 108.503 660.269 108.677 660.491 108.834C660.713 108.992 660.877 109.175 660.985 109.382C661.092 109.586 661.146 109.832 661.146 110.118Z" fill="#707070"/>
<path d="M277.199 117.01H275.915V110.259H273.606V109.157H279.509V110.259H277.199V117.01Z" fill="#707070"/>
<path d="M283.596 110.962C283.85 110.962 284.06 110.98 284.224 111.016L284.101 112.192C283.922 112.149 283.736 112.128 283.542 112.128C283.037 112.128 282.627 112.292 282.312 112.622C282.001 112.951 281.845 113.379 281.845 113.906V117.01H280.583V111.07H281.571L281.738 112.117H281.802C281.999 111.762 282.255 111.481 282.57 111.274C282.889 111.066 283.231 110.962 283.596 110.962Z" fill="#707070"/>
<path d="M289.048 117.01L288.795 116.183H288.752C288.466 116.545 288.177 116.792 287.887 116.924C287.597 117.053 287.225 117.117 286.77 117.117C286.187 117.117 285.73 116.96 285.401 116.645C285.075 116.33 284.912 115.884 284.912 115.307C284.912 114.695 285.139 114.233 285.594 113.922C286.049 113.61 286.742 113.44 287.673 113.411L288.698 113.379V113.062C288.698 112.683 288.609 112.4 288.43 112.214C288.254 112.024 287.981 111.929 287.608 111.929C287.304 111.929 287.012 111.974 286.733 112.063C286.453 112.153 286.185 112.258 285.927 112.38L285.519 111.478C285.841 111.309 286.194 111.182 286.577 111.096C286.96 111.007 287.322 110.962 287.662 110.962C288.417 110.962 288.987 111.127 289.37 111.456C289.757 111.786 289.95 112.303 289.95 113.009V117.01H289.048ZM287.168 116.151C287.626 116.151 287.993 116.024 288.269 115.769C288.548 115.511 288.688 115.152 288.688 114.69V114.174L287.925 114.206C287.331 114.228 286.897 114.328 286.625 114.507C286.357 114.683 286.222 114.953 286.222 115.318C286.222 115.583 286.301 115.789 286.459 115.936C286.616 116.079 286.853 116.151 287.168 116.151Z" fill="#707070"/>
<path d="M296.938 117.01H295.67V113.358C295.67 112.899 295.577 112.557 295.391 112.332C295.208 112.106 294.916 111.993 294.515 111.993C293.982 111.993 293.592 112.151 293.344 112.466C293.097 112.781 292.974 113.309 292.974 114.051V117.01H291.712V111.07H292.7L292.877 111.848H292.942C293.121 111.566 293.375 111.347 293.704 111.193C294.034 111.039 294.399 110.962 294.8 110.962C296.225 110.962 296.938 111.687 296.938 113.137V117.01Z" fill="#707070"/>
<path d="M302.685 115.318C302.685 115.898 302.474 116.344 302.051 116.656C301.628 116.963 301.023 117.117 300.236 117.117C299.444 117.117 298.809 116.997 298.329 116.758V115.667C299.027 115.99 299.677 116.151 300.279 116.151C301.056 116.151 301.444 115.916 301.444 115.447C301.444 115.297 301.401 115.171 301.315 115.071C301.229 114.971 301.088 114.867 300.891 114.76C300.694 114.652 300.42 114.53 300.069 114.394C299.385 114.129 298.921 113.864 298.678 113.599C298.438 113.334 298.318 112.991 298.318 112.568C298.318 112.06 298.522 111.666 298.93 111.386C299.342 111.104 299.901 110.962 300.606 110.962C301.304 110.962 301.965 111.104 302.588 111.386L302.18 112.337C301.539 112.072 301 111.94 300.563 111.94C299.897 111.94 299.564 112.129 299.564 112.509C299.564 112.695 299.65 112.853 299.822 112.982C299.997 113.111 300.377 113.288 300.961 113.513C301.451 113.703 301.808 113.877 302.03 114.034C302.252 114.192 302.416 114.375 302.524 114.582C302.631 114.786 302.685 115.032 302.685 115.318Z" fill="#707070"/>
<path d="M307.068 117.117C306.316 117.117 305.732 116.847 305.317 116.306H305.241C305.292 116.808 305.317 117.112 305.317 117.219V119.653H304.054V111.07H305.075C305.104 111.181 305.163 111.446 305.252 111.865H305.317C305.711 111.263 306.301 110.962 307.089 110.962C307.83 110.962 308.407 111.231 308.819 111.768C309.234 112.305 309.442 113.059 309.442 114.029C309.442 114.999 309.23 115.757 308.808 116.301C308.389 116.845 307.809 117.117 307.068 117.117ZM306.761 111.993C306.26 111.993 305.893 112.14 305.66 112.434C305.431 112.727 305.317 113.197 305.317 113.841V114.029C305.317 114.752 305.431 115.277 305.66 115.603C305.89 115.925 306.264 116.086 306.783 116.086C307.22 116.086 307.556 115.907 307.793 115.549C308.029 115.191 308.147 114.681 308.147 114.018C308.147 113.352 308.029 112.849 307.793 112.509C307.56 112.165 307.216 111.993 306.761 111.993Z" fill="#707070"/>
<path d="M316.177 114.029C316.177 114.999 315.928 115.757 315.43 116.301C314.933 116.845 314.24 117.117 313.352 117.117C312.797 117.117 312.306 116.992 311.88 116.741C311.454 116.491 311.126 116.131 310.897 115.662C310.668 115.193 310.553 114.649 310.553 114.029C310.553 113.066 310.801 112.314 311.295 111.773C311.789 111.233 312.485 110.962 313.384 110.962C314.243 110.962 314.924 111.24 315.425 111.795C315.926 112.346 316.177 113.091 316.177 114.029ZM311.853 114.029C311.853 115.4 312.36 116.086 313.373 116.086C314.376 116.086 314.877 115.4 314.877 114.029C314.877 112.672 314.372 111.993 313.363 111.993C312.833 111.993 312.448 112.169 312.208 112.52C311.971 112.871 311.853 113.374 311.853 114.029Z" fill="#707070"/>
<path d="M320.646 110.962C320.9 110.962 321.109 110.98 321.274 111.016L321.151 112.192C320.972 112.149 320.785 112.128 320.592 112.128C320.087 112.128 319.677 112.292 319.362 112.622C319.051 112.951 318.895 113.379 318.895 113.906V117.01H317.633V111.07H318.621L318.787 112.117H318.852C319.049 111.762 319.305 111.481 319.62 111.274C319.939 111.066 320.281 110.962 320.646 110.962Z" fill="#707070"/>
<path d="M324.594 116.097C324.901 116.097 325.209 116.049 325.517 115.952V116.903C325.378 116.963 325.197 117.014 324.975 117.053C324.756 117.096 324.529 117.117 324.293 117.117C323.097 117.117 322.499 116.487 322.499 115.227V112.026H321.688V111.467L322.558 111.005L322.988 109.748H323.766V111.07H325.458V112.026H323.766V115.205C323.766 115.51 323.842 115.735 323.992 115.882C324.146 116.025 324.346 116.097 324.594 116.097Z" fill="#707070"/>
<path d="M67.2095 111.81H65.9365V103.957H70.3677V105.042H67.2095V107.497H70.1689V108.587H67.2095V111.81Z" fill="#707070"/>
<path d="M74.6699 105.762C74.9242 105.762 75.1336 105.78 75.2983 105.816L75.1748 106.992C74.9958 106.949 74.8096 106.928 74.6162 106.928C74.1113 106.928 73.7013 107.092 73.3862 107.422C73.0747 107.751 72.9189 108.179 72.9189 108.706V111.81H71.6567V105.87H72.645L72.8115 106.917H72.876C73.0729 106.562 73.3289 106.281 73.644 106.074C73.9627 105.866 74.3047 105.762 74.6699 105.762Z" fill="#707070"/>
<path d="M80.1216 111.81L79.8691 110.983H79.8262C79.5397 111.345 79.2515 111.592 78.9614 111.724C78.6714 111.853 78.299 111.917 77.8442 111.917C77.2606 111.917 76.804 111.76 76.4746 111.445C76.1488 111.13 75.9858 110.684 75.9858 110.107C75.9858 109.495 76.2132 109.033 76.668 108.722C77.1227 108.41 77.8156 108.24 78.7466 108.211L79.7725 108.179V107.862C79.7725 107.483 79.6829 107.2 79.5039 107.014C79.3285 106.824 79.0545 106.729 78.6821 106.729C78.3778 106.729 78.0859 106.774 77.8066 106.863C77.5273 106.953 77.2588 107.058 77.001 107.18L76.5928 106.278C76.915 106.109 77.2677 105.982 77.6509 105.896C78.034 105.807 78.3957 105.762 78.7358 105.762C79.4914 105.762 80.0607 105.927 80.4438 106.256C80.8306 106.586 81.0239 107.103 81.0239 107.809V111.81H80.1216ZM78.2417 110.951C78.7 110.951 79.0671 110.824 79.3428 110.569C79.6221 110.311 79.7617 109.952 79.7617 109.49V108.974L78.999 109.006C78.4046 109.028 77.9714 109.128 77.6992 109.307C77.4307 109.483 77.2964 109.753 77.2964 110.118C77.2964 110.383 77.3752 110.589 77.5327 110.736C77.6903 110.879 77.9266 110.951 78.2417 110.951Z" fill="#707070"/>
<path d="M87.7915 111.81H86.5239V108.147C86.5239 107.692 86.438 107.354 86.2661 107.132C86.0942 106.906 85.8257 106.793 85.4604 106.793C84.9735 106.793 84.6154 106.953 84.3862 107.271C84.1606 107.587 84.0479 108.113 84.0479 108.851V111.81H82.7856V105.87H83.7739L83.9512 106.648H84.0156C84.1803 106.365 84.4185 106.147 84.73 105.993C85.0451 105.839 85.3906 105.762 85.7666 105.762C86.6797 105.762 87.2848 106.074 87.582 106.697H87.668C87.8434 106.403 88.0905 106.174 88.4092 106.009C88.7279 105.845 89.0931 105.762 89.5049 105.762C90.2139 105.762 90.7295 105.941 91.0518 106.299C91.3776 106.657 91.5405 107.203 91.5405 107.937V111.81H90.2783V108.147C90.2783 107.692 90.1906 107.354 90.0151 107.132C89.8433 106.906 89.5747 106.793 89.2095 106.793C88.7189 106.793 88.359 106.947 88.1299 107.255C87.9043 107.56 87.7915 108.029 87.7915 108.663V111.81Z" fill="#707070"/>
<path d="M95.8965 111.917C94.9727 111.917 94.2493 111.649 93.7266 111.112C93.2074 110.571 92.9478 109.828 92.9478 108.883C92.9478 107.912 93.1895 107.15 93.6729 106.595C94.1562 106.04 94.8205 105.762 95.6655 105.762C96.4497 105.762 97.0692 106 97.5239 106.477C97.9787 106.953 98.2061 107.608 98.2061 108.442V109.124H94.2476C94.2655 109.701 94.4212 110.145 94.7148 110.456C95.0085 110.764 95.422 110.918 95.9556 110.918C96.3065 110.918 96.6323 110.886 96.9331 110.822C97.2375 110.754 97.5633 110.643 97.9106 110.489V111.515C97.6027 111.661 97.2912 111.765 96.9761 111.826C96.661 111.887 96.3011 111.917 95.8965 111.917ZM95.6655 106.718C95.2645 106.718 94.9422 106.845 94.6987 107.1C94.4588 107.354 94.3156 107.724 94.269 108.211H96.9653C96.9582 107.721 96.84 107.35 96.6108 107.1C96.3817 106.845 96.0666 106.718 95.6655 106.718Z" fill="#707070"/>
<path d="M105.973 104.946C105.235 104.946 104.655 105.207 104.232 105.73C103.81 106.253 103.599 106.974 103.599 107.894C103.599 108.858 103.801 109.586 104.206 110.081C104.614 110.575 105.203 110.822 105.973 110.822C106.306 110.822 106.628 110.789 106.939 110.725C107.251 110.657 107.575 110.571 107.912 110.467V111.568C107.296 111.801 106.597 111.917 105.817 111.917C104.667 111.917 103.785 111.57 103.169 110.875C102.553 110.177 102.245 109.18 102.245 107.884C102.245 107.067 102.394 106.353 102.691 105.741C102.992 105.128 103.425 104.659 103.991 104.333C104.556 104.008 105.221 103.845 105.983 103.845C106.785 103.845 107.527 104.013 108.207 104.35L107.745 105.418C107.48 105.293 107.199 105.184 106.902 105.091C106.608 104.994 106.299 104.946 105.973 104.946Z" fill="#707070"/>
<path d="M112.482 105.762C112.737 105.762 112.946 105.78 113.111 105.816L112.987 106.992C112.808 106.949 112.622 106.928 112.429 106.928C111.924 106.928 111.514 107.092 111.199 107.422C110.887 107.751 110.731 108.179 110.731 108.706V111.81H109.469V105.87H110.458L110.624 106.917H110.688C110.885 106.562 111.141 106.281 111.457 106.074C111.775 105.866 112.117 105.762 112.482 105.762Z" fill="#707070"/>
<path d="M116.812 111.917C115.888 111.917 115.164 111.649 114.642 111.112C114.122 110.571 113.863 109.828 113.863 108.883C113.863 107.912 114.104 107.15 114.588 106.595C115.071 106.04 115.736 105.762 116.581 105.762C117.365 105.762 117.984 106 118.439 106.477C118.894 106.953 119.121 107.608 119.121 108.442V109.124H115.163C115.181 109.701 115.336 110.145 115.63 110.456C115.924 110.764 116.337 110.918 116.871 110.918C117.222 110.918 117.547 110.886 117.848 110.822C118.153 110.754 118.478 110.643 118.826 110.489V111.515C118.518 111.661 118.206 111.765 117.891 111.826C117.576 111.887 117.216 111.917 116.812 111.917ZM116.581 106.718C116.18 106.718 115.857 106.845 115.614 107.1C115.374 107.354 115.231 107.724 115.184 108.211H117.88C117.873 107.721 117.755 107.35 117.526 107.1C117.297 106.845 116.982 106.718 116.581 106.718Z" fill="#707070"/>
<path d="M124.272 111.81L124.02 110.983H123.977C123.69 111.345 123.402 111.592 123.112 111.724C122.822 111.853 122.449 111.917 121.995 111.917C121.411 111.917 120.954 111.76 120.625 111.445C120.299 111.13 120.136 110.684 120.136 110.107C120.136 109.495 120.364 109.033 120.818 108.722C121.273 108.41 121.966 108.24 122.897 108.211L123.923 108.179V107.862C123.923 107.483 123.833 107.2 123.654 107.014C123.479 106.824 123.205 106.729 122.833 106.729C122.528 106.729 122.236 106.774 121.957 106.863C121.678 106.953 121.409 107.058 121.151 107.18L120.743 106.278C121.065 106.109 121.418 105.982 121.801 105.896C122.184 105.807 122.546 105.762 122.886 105.762C123.642 105.762 124.211 105.927 124.594 106.256C124.981 106.586 125.174 107.103 125.174 107.809V111.81H124.272ZM122.392 110.951C122.85 110.951 123.217 110.824 123.493 110.569C123.772 110.311 123.912 109.952 123.912 109.49V108.974L123.149 109.006C122.555 109.028 122.122 109.128 121.85 109.307C121.581 109.483 121.447 109.753 121.447 110.118C121.447 110.383 121.526 110.589 121.683 110.736C121.841 110.879 122.077 110.951 122.392 110.951Z" fill="#707070"/>
<path d="M129.149 110.897C129.457 110.897 129.765 110.849 130.073 110.752V111.703C129.933 111.763 129.752 111.814 129.53 111.853C129.312 111.896 129.084 111.917 128.848 111.917C127.652 111.917 127.054 111.287 127.054 110.027V106.826H126.243V106.267L127.113 105.805L127.543 104.548H128.322V105.87H130.014V106.826H128.322V110.005C128.322 110.31 128.397 110.535 128.547 110.682C128.701 110.825 128.902 110.897 129.149 110.897Z" fill="#707070"/>
<path d="M132.527 111.81H131.265V105.87H132.527V111.81ZM131.19 104.296C131.19 104.07 131.251 103.897 131.373 103.775C131.498 103.653 131.675 103.592 131.904 103.592C132.126 103.592 132.298 103.653 132.42 103.775C132.545 103.897 132.608 104.07 132.608 104.296C132.608 104.511 132.545 104.681 132.42 104.806C132.298 104.928 132.126 104.989 131.904 104.989C131.675 104.989 131.498 104.928 131.373 104.806C131.251 104.681 131.19 104.511 131.19 104.296Z" fill="#707070"/>
<path d="M139.606 108.829C139.606 109.799 139.358 110.557 138.86 111.101C138.362 111.645 137.669 111.917 136.781 111.917C136.226 111.917 135.736 111.792 135.31 111.541C134.883 111.291 134.556 110.931 134.327 110.462C134.097 109.993 133.983 109.449 133.983 108.829C133.983 107.866 134.23 107.114 134.724 106.573C135.218 106.032 135.915 105.762 136.813 105.762C137.673 105.762 138.353 106.04 138.854 106.595C139.356 107.146 139.606 107.891 139.606 108.829ZM135.283 108.829C135.283 110.2 135.789 110.886 136.803 110.886C137.805 110.886 138.307 110.2 138.307 108.829C138.307 107.472 137.802 106.793 136.792 106.793C136.262 106.793 135.877 106.969 135.637 107.32C135.401 107.671 135.283 108.174 135.283 108.829Z" fill="#707070"/>
<path d="M146.288 111.81H145.021V108.158C145.021 107.699 144.927 107.357 144.741 107.132C144.559 106.906 144.267 106.793 143.866 106.793C143.332 106.793 142.942 106.951 142.695 107.266C142.448 107.581 142.324 108.109 142.324 108.851V111.81H141.062V105.87H142.05L142.228 106.648H142.292C142.471 106.365 142.725 106.147 143.055 105.993C143.384 105.839 143.749 105.762 144.15 105.762C145.576 105.762 146.288 106.487 146.288 107.937V111.81Z" fill="#707070"/>
<path d="M535.78 34.59H494.65C494.272 34.5899 493.909 34.7371 493.639 35.0005C493.368 35.2638 493.21 35.6224 493.2 36V50.11C493.2 50.4946 493.353 50.8634 493.625 51.1353C493.897 51.4073 494.265 51.56 494.65 51.56H535.78C536.163 51.5574 536.529 51.4035 536.799 51.1318C537.069 50.8602 537.22 50.4929 537.22 50.11V36C537.21 35.6242 537.054 35.267 536.785 35.004C536.516 34.7409 536.156 34.5925 535.78 34.59V34.59ZM535.57 49.91H494.86V36.24H535.57V49.91ZM514.72 45.73V40.42C514.72 40.2874 514.773 40.1602 514.866 40.0665C514.96 39.9727 515.087 39.92 515.22 39.92C515.353 39.92 515.48 39.9727 515.573 40.0665C515.667 40.1602 515.72 40.2874 515.72 40.42V45.73C515.72 45.8626 515.667 45.9898 515.573 46.0836C515.48 46.1773 515.353 46.23 515.22 46.23C515.087 46.23 514.96 46.1773 514.866 46.0836C514.773 45.9898 514.72 45.8626 514.72 45.73ZM518.41 45.73V40.42C518.41 40.2874 518.463 40.1602 518.556 40.0665C518.65 39.9727 518.777 39.92 518.91 39.92C519.043 39.92 519.17 39.9727 519.263 40.0665C519.357 40.1602 519.41 40.2874 519.41 40.42V45.73C519.41 45.8626 519.357 45.9898 519.263 46.0836C519.17 46.1773 519.043 46.23 518.91 46.23C518.777 46.23 518.65 46.1773 518.556 46.0836C518.463 45.9898 518.41 45.8626 518.41 45.73ZM522.1 45.73V40.42C522.1 40.2874 522.153 40.1602 522.246 40.0665C522.34 39.9727 522.467 39.92 522.6 39.92C522.733 39.92 522.86 39.9727 522.953 40.0665C523.047 40.1602 523.1 40.2874 523.1 40.42V45.73C523.1 45.8626 523.047 45.9898 522.953 46.0836C522.86 46.1773 522.733 46.23 522.6 46.23C522.467 46.23 522.34 46.1773 522.246 46.0836C522.153 45.9898 522.1 45.8626 522.1 45.73ZM525.8 45.73V40.42C525.8 40.2901 525.852 40.1654 525.943 40.0735C526.035 39.9817 526.16 39.93 526.29 39.93C526.421 39.93 526.547 39.9813 526.64 40.0729C526.734 40.1645 526.787 40.2892 526.79 40.42V45.73C526.787 45.8609 526.734 45.9855 526.64 46.0771C526.547 46.1687 526.421 46.2201 526.29 46.22C526.226 46.22 526.162 46.2074 526.102 46.1827C526.043 46.1581 525.989 46.122 525.943 46.0765C525.898 46.031 525.862 45.977 525.837 45.9175C525.813 45.8581 525.8 45.7944 525.8 45.73V45.73ZM499.95 45.73V40.42C499.95 40.2874 500.003 40.1602 500.096 40.0665C500.19 39.9727 500.317 39.92 500.45 39.92C500.583 39.92 500.71 39.9727 500.803 40.0665C500.897 40.1602 500.95 40.2874 500.95 40.42V45.73C500.95 45.8626 500.897 45.9898 500.803 46.0836C500.71 46.1773 500.583 46.23 500.45 46.23C500.317 46.23 500.19 46.1773 500.096 46.0836C500.003 45.9898 499.95 45.8626 499.95 45.73ZM503.64 45.73V40.42C503.64 40.2874 503.693 40.1602 503.786 40.0665C503.88 39.9727 504.007 39.92 504.14 39.92C504.273 39.92 504.4 39.9727 504.493 40.0665C504.587 40.1602 504.64 40.2874 504.64 40.42V45.73C504.64 45.8626 504.587 45.9898 504.493 46.0836C504.4 46.1773 504.273 46.23 504.14 46.23C504.007 46.23 503.88 46.1773 503.786 46.0836C503.693 45.9898 503.64 45.8626 503.64 45.73ZM507.33 45.73V40.42C507.33 40.2874 507.383 40.1602 507.476 40.0665C507.57 39.9727 507.697 39.92 507.83 39.92C507.963 39.92 508.09 39.9727 508.184 40.0665C508.277 40.1602 508.33 40.2874 508.33 40.42V45.73C508.33 45.8626 508.277 45.9898 508.184 46.0836C508.09 46.1773 507.963 46.23 507.83 46.23C507.697 46.23 507.57 46.1773 507.476 46.0836C507.383 45.9898 507.33 45.8626 507.33 45.73ZM511.02 45.73V40.42C511.02 40.2874 511.073 40.1602 511.166 40.0665C511.26 39.9727 511.387 39.92 511.52 39.92C511.653 39.92 511.78 39.9727 511.874 40.0665C511.967 40.1602 512.02 40.2874 512.02 40.42V45.73C512.02 45.8626 511.967 45.9898 511.874 46.0836C511.78 46.1773 511.653 46.23 511.52 46.23C511.387 46.23 511.26 46.1773 511.166 46.0836C511.073 45.9898 511.02 45.8626 511.02 45.73V45.73ZM529.49 45.73V40.42C529.49 40.2874 529.543 40.1602 529.636 40.0665C529.73 39.9727 529.857 39.92 529.99 39.92C530.123 39.92 530.25 39.9727 530.344 40.0665C530.437 40.1602 530.49 40.2874 530.49 40.42V45.73C530.49 45.8626 530.437 45.9898 530.344 46.0836C530.25 46.1773 530.123 46.23 529.99 46.23C529.857 46.23 529.73 46.1773 529.636 46.0836C529.543 45.9898 529.49 45.8626 529.49 45.73Z" fill="url(#paint0_linear)"/>
<path d="M535.78 54.86H494.65C494.267 54.86 493.9 55.0114 493.628 55.2811C493.357 55.5509 493.203 55.9172 493.2 56.3V70.38C493.2 70.5699 493.238 70.758 493.311 70.9334C493.384 71.1087 493.49 71.2679 493.625 71.4018C493.76 71.5356 493.92 71.6415 494.096 71.7133C494.272 71.785 494.46 71.8213 494.65 71.82H535.78C535.969 71.82 536.156 71.7827 536.331 71.7104C536.506 71.638 536.664 71.5319 536.798 71.3982C536.932 71.2645 537.038 71.1058 537.11 70.931C537.183 70.7563 537.22 70.5691 537.22 70.38V56.3C537.217 55.9189 537.065 55.5541 536.795 55.2846C536.526 55.0152 536.161 54.8626 535.78 54.86V54.86ZM535.57 70.17H494.86V56.51H535.57V70.17ZM514.72 66V60.7C514.72 60.5674 514.773 60.4402 514.866 60.3464C514.96 60.2527 515.087 60.2 515.22 60.2C515.353 60.2 515.48 60.2527 515.573 60.3464C515.667 60.4402 515.72 60.5674 515.72 60.7V66C515.72 66.1326 515.667 66.2598 515.573 66.3535C515.48 66.4473 515.353 66.5 515.22 66.5C515.087 66.5 514.96 66.4473 514.866 66.3535C514.773 66.2598 514.72 66.1326 514.72 66ZM518.41 66V60.7C518.41 60.5674 518.463 60.4402 518.556 60.3464C518.65 60.2527 518.777 60.2 518.91 60.2C519.043 60.2 519.17 60.2527 519.263 60.3464C519.357 60.4402 519.41 60.5674 519.41 60.7V66C519.41 66.1326 519.357 66.2598 519.263 66.3535C519.17 66.4473 519.043 66.5 518.91 66.5C518.777 66.5 518.65 66.4473 518.556 66.3535C518.463 66.2598 518.41 66.1326 518.41 66ZM522.1 66V60.7C522.1 60.5674 522.153 60.4402 522.246 60.3464C522.34 60.2527 522.467 60.2 522.6 60.2C522.733 60.2 522.86 60.2527 522.953 60.3464C523.047 60.4402 523.1 60.5674 523.1 60.7V66C523.1 66.1326 523.047 66.2598 522.953 66.3535C522.86 66.4473 522.733 66.5 522.6 66.5C522.467 66.5 522.34 66.4473 522.246 66.3535C522.153 66.2598 522.1 66.1326 522.1 66ZM525.8 66V60.7C525.8 60.5691 525.851 60.4434 525.943 60.3499C526.034 60.2564 526.159 60.2026 526.29 60.2C526.422 60.2025 526.547 60.256 526.641 60.3493C526.734 60.4425 526.787 60.5682 526.79 60.7V66C526.79 66.1326 526.737 66.2598 526.643 66.3535C526.55 66.4473 526.423 66.5 526.29 66.5C526.225 66.5 526.16 66.487 526.1 66.4618C526.04 66.4365 525.986 66.3995 525.94 66.353C525.894 66.3064 525.858 66.2512 525.834 66.1906C525.81 66.13 525.799 66.0652 525.8 66V66ZM500 66V60.7C500 60.5674 500.053 60.4402 500.146 60.3464C500.24 60.2527 500.367 60.2 500.5 60.2C500.633 60.2 500.76 60.2527 500.853 60.3464C500.947 60.4402 501 60.5674 501 60.7V66C501 66.1326 500.947 66.2598 500.853 66.3535C500.76 66.4473 500.633 66.5 500.5 66.5C500.367 66.5 500.24 66.4473 500.146 66.3535C500.053 66.2598 500 66.1326 500 66ZM503.69 66V60.7C503.69 60.5674 503.743 60.4402 503.836 60.3464C503.93 60.2527 504.057 60.2 504.19 60.2C504.323 60.2 504.45 60.2527 504.543 60.3464C504.637 60.4402 504.69 60.5674 504.69 60.7V66C504.69 66.1326 504.637 66.2598 504.543 66.3535C504.45 66.4473 504.323 66.5 504.19 66.5C504.057 66.5 503.93 66.4473 503.836 66.3535C503.743 66.2598 503.69 66.1326 503.69 66ZM507.38 66V60.7C507.38 60.5674 507.433 60.4402 507.526 60.3464C507.62 60.2527 507.747 60.2 507.88 60.2C508.013 60.2 508.14 60.2527 508.233 60.3464C508.327 60.4402 508.38 60.5674 508.38 60.7V66C508.38 66.1326 508.327 66.2598 508.233 66.3535C508.14 66.4473 508.013 66.5 507.88 66.5C507.747 66.5 507.62 66.4473 507.526 66.3535C507.433 66.2598 507.38 66.1326 507.38 66ZM511 66V60.7C511 60.5674 511.053 60.4402 511.146 60.3464C511.24 60.2527 511.367 60.2 511.5 60.2C511.633 60.2 511.76 60.2527 511.853 60.3464C511.947 60.4402 512 60.5674 512 60.7V66C512 66.1326 511.947 66.2598 511.853 66.3535C511.76 66.4473 511.633 66.5 511.5 66.5C511.367 66.5 511.24 66.4473 511.146 66.3535C511.053 66.2598 511 66.1326 511 66ZM529.47 66V60.7C529.47 60.5674 529.523 60.4402 529.616 60.3464C529.71 60.2527 529.837 60.2 529.97 60.2C530.103 60.2 530.23 60.2527 530.323 60.3464C530.417 60.4402 530.47 60.5674 530.47 60.7V66C530.47 66.1326 530.417 66.2598 530.323 66.3535C530.23 66.4473 530.103 66.5 529.97 66.5C529.837 66.5 529.71 66.4473 529.616 66.3535C529.523 66.2598 529.47 66.1326 529.47 66Z" fill="url(#paint1_linear)"/>
<path d="M535.78 75.13H494.65C494.46 75.1287 494.272 75.1649 494.096 75.2367C493.92 75.3085 493.76 75.4144 493.625 75.5482C493.49 75.682 493.384 75.8412 493.311 76.0166C493.238 76.192 493.2 76.38 493.2 76.57V90.65C493.203 91.0328 493.357 91.3991 493.628 91.6688C493.9 91.9386 494.267 92.09 494.65 92.09H535.78C536.161 92.0874 536.526 91.9348 536.795 91.6653C537.065 91.3958 537.217 91.0311 537.22 90.65V76.57C537.22 76.3809 537.183 76.1936 537.11 76.0189C537.038 75.8442 536.932 75.6855 536.798 75.5517C536.664 75.418 536.506 75.312 536.331 75.2396C536.156 75.1672 535.969 75.13 535.78 75.13V75.13ZM535.57 90.44H494.86V76.78H535.57V90.44ZM514.72 86.26V81C514.72 80.8674 514.773 80.7402 514.866 80.6464C514.96 80.5527 515.087 80.5 515.22 80.5C515.353 80.5 515.48 80.5527 515.573 80.6464C515.667 80.7402 515.72 80.8674 515.72 81V86.3C515.72 86.4326 515.667 86.5598 515.573 86.6535C515.48 86.7473 515.353 86.8 515.22 86.8C515.087 86.8 514.96 86.7473 514.866 86.6535C514.773 86.5598 514.72 86.4326 514.72 86.3V86.26ZM518.41 86.26V81C518.41 80.8674 518.463 80.7402 518.556 80.6464C518.65 80.5527 518.777 80.5 518.91 80.5C519.043 80.5 519.17 80.5527 519.263 80.6464C519.357 80.7402 519.41 80.8674 519.41 81V86.3C519.41 86.4326 519.357 86.5598 519.263 86.6535C519.17 86.7473 519.043 86.8 518.91 86.8C518.777 86.8 518.65 86.7473 518.556 86.6535C518.463 86.5598 518.41 86.4326 518.41 86.3V86.26ZM522.1 86.26V81C522.1 80.8674 522.153 80.7402 522.246 80.6464C522.34 80.5527 522.467 80.5 522.6 80.5C522.733 80.5 522.86 80.5527 522.953 80.6464C523.047 80.7402 523.1 80.8674 523.1 81V86.3C523.1 86.4326 523.047 86.5598 522.953 86.6535C522.86 86.7473 522.733 86.8 522.6 86.8C522.467 86.8 522.34 86.7473 522.246 86.6535C522.153 86.5598 522.1 86.4326 522.1 86.3V86.26ZM525.8 86.26V81C525.799 80.9348 525.81 80.87 525.834 80.8094C525.858 80.7488 525.894 80.6936 525.94 80.647C525.986 80.6004 526.04 80.5635 526.1 80.5382C526.16 80.513 526.225 80.5 526.29 80.5C526.423 80.5 526.55 80.5527 526.643 80.6464C526.737 80.7402 526.79 80.8674 526.79 81V86.3C526.787 86.4318 526.734 86.5575 526.641 86.6507C526.547 86.7439 526.422 86.7974 526.29 86.8C526.222 86.7988 526.154 86.7837 526.092 86.7555C526.03 86.7273 525.974 86.6866 525.928 86.636C525.882 86.5854 525.847 86.526 525.825 86.4613C525.803 86.3966 525.794 86.3281 525.8 86.26V86.26ZM499.95 86.26V81C499.95 80.8674 500.003 80.7402 500.096 80.6464C500.19 80.5527 500.317 80.5 500.45 80.5C500.583 80.5 500.71 80.5527 500.803 80.6464C500.897 80.7402 500.95 80.8674 500.95 81V86.3C500.95 86.4326 500.897 86.5598 500.803 86.6535C500.71 86.7473 500.583 86.8 500.45 86.8C500.317 86.8 500.19 86.7473 500.096 86.6535C500.003 86.5598 499.95 86.4326 499.95 86.3V86.26ZM503.64 86.26V81C503.64 80.8674 503.693 80.7402 503.786 80.6464C503.88 80.5527 504.007 80.5 504.14 80.5C504.273 80.5 504.4 80.5527 504.493 80.6464C504.587 80.7402 504.64 80.8674 504.64 81V86.3C504.64 86.4326 504.587 86.5598 504.493 86.6535C504.4 86.7473 504.273 86.8 504.14 86.8C504.007 86.8 503.88 86.7473 503.786 86.6535C503.693 86.5598 503.64 86.4326 503.64 86.3V86.26ZM507.33 86.26V81C507.33 80.8674 507.383 80.7402 507.476 80.6464C507.57 80.5527 507.697 80.5 507.83 80.5C507.963 80.5 508.09 80.5527 508.184 80.6464C508.277 80.7402 508.33 80.8674 508.33 81V86.3C508.33 86.4326 508.277 86.5598 508.184 86.6535C508.09 86.7473 507.963 86.8 507.83 86.8C507.697 86.8 507.57 86.7473 507.476 86.6535C507.383 86.5598 507.33 86.4326 507.33 86.3V86.26ZM511.02 86.26V81C511.02 80.8674 511.073 80.7402 511.166 80.6464C511.26 80.5527 511.387 80.5 511.52 80.5C511.653 80.5 511.78 80.5527 511.874 80.6464C511.967 80.7402 512.02 80.8674 512.02 81V86.3C512.02 86.4326 511.967 86.5598 511.874 86.6535C511.78 86.7473 511.653 86.8 511.52 86.8C511.387 86.8 511.26 86.7473 511.166 86.6535C511.073 86.5598 511.02 86.4326 511.02 86.3V86.26ZM529.49 86.26V81C529.49 80.8674 529.543 80.7402 529.636 80.6464C529.73 80.5527 529.857 80.5 529.99 80.5C530.123 80.5 530.25 80.5527 530.344 80.6464C530.437 80.7402 530.49 80.8674 530.49 81V86.3C530.49 86.4326 530.437 86.5598 530.344 86.6535C530.25 86.7473 530.123 86.8 529.99 86.8C529.857 86.8 529.73 86.7473 529.636 86.6535C529.543 86.5598 529.49 86.4326 529.49 86.3V86.26Z" fill="url(#paint2_linear)"/>
<path d="M182.4 80.5H230.11" stroke="#707070" stroke-width="2" stroke-linecap="round" stroke-linejoin="round"/>
<path d="M226.13 83.89L229.52 80.5L226.13 77.11H229.01L232.4 80.5L229.01 83.89H226.13Z" fill="#707070"/>
<path d="M366.6 80.5H414.32" stroke="#707070" stroke-width="2" stroke-linecap="round" stroke-linejoin="round"/>
<path d="M410.33 83.89L413.73 80.5L410.33 77.11H413.21L416.6 80.5L413.21 83.89H410.33Z" fill="#707070"/>
<path d="M152.4 98H57.3999V63L104.9 43L152.4 63V98Z" fill="url(#paint3_linear)"/>
<path d="M150.02 63H59.77L104.9 44L150.02 63Z" fill="white"/>
<path d="M59.77 64H150.02L104.9 83L59.77 64Z" fill="white"/>
<path d="M93.5 75.5H118.5C118.5 75.5 118.5 51.5 93.5 50.5V76" fill="white"/>
<path d="M93.5 75.5H118.5C118.5 75.5 118.5 51.5 93.5 50.5V76" stroke="url(#paint4_linear)" stroke-miterlimit="10"/>
<path d="M328.8 74.47L323 62.87C322.842 62.5483 322.598 62.2774 322.294 62.0882C321.989 61.899 321.638 61.7991 321.28 61.8H305.8V57.93C305.8 57.6765 305.75 57.4256 305.653 57.1914C305.556 56.9573 305.414 56.7445 305.235 56.5653C305.055 56.3861 304.843 56.2439 304.609 56.1469C304.374 56.0499 304.123 56 303.87 56H272.93C272.419 56.0026 271.93 56.2068 271.568 56.5682C271.207 56.9296 271.003 57.4189 271 57.93V90.81C271 91.0643 271.05 91.3161 271.148 91.5509C271.245 91.7857 271.389 91.9989 271.569 92.1783C271.749 92.3576 271.963 92.4996 272.198 92.596C272.434 92.6924 272.686 92.7413 272.94 92.74H277.07C277.511 94.3823 278.482 95.8331 279.832 96.8679C281.181 97.9026 282.834 98.4633 284.535 98.4633C286.236 98.4633 287.889 97.9026 289.238 96.8679C290.588 95.8331 291.559 94.3823 292 92.74H308C308.441 94.3823 309.412 95.8331 310.762 96.8679C312.111 97.9026 313.764 98.4633 315.465 98.4633C317.166 98.4633 318.819 97.9026 320.168 96.8679C321.518 95.8331 322.489 94.3823 322.93 92.74H327.06C327.314 92.7413 327.566 92.6924 327.802 92.596C328.037 92.4996 328.251 92.3576 328.431 92.1783C328.611 91.9989 328.755 91.7857 328.852 91.5509C328.95 91.3161 329 91.0643 329 90.81V75.34C329 75.0386 328.931 74.7412 328.8 74.47V74.47ZM284.53 94.68C283.765 94.68 283.016 94.453 282.38 94.0278C281.744 93.6025 281.248 92.9981 280.955 92.291C280.662 91.5838 280.585 90.8057 280.734 90.055C280.884 89.3043 281.252 88.6147 281.793 88.0735C282.335 87.5323 283.024 87.1637 283.775 87.0144C284.526 86.865 285.304 86.9417 286.011 87.2346C286.718 87.5275 287.323 88.0235 287.748 88.6599C288.173 89.2964 288.4 90.0446 288.4 90.81C288.4 91.3182 288.3 91.8215 288.105 92.291C287.911 92.7605 287.626 93.1871 287.267 93.5465C286.907 93.9059 286.481 94.1909 286.011 94.3854C285.541 94.5799 285.038 94.68 284.53 94.68V94.68ZM303.93 88.88H292C291.559 87.2377 290.588 85.7869 289.238 84.7522C287.889 83.7174 286.236 83.1567 284.535 83.1567C282.834 83.1567 281.181 83.7174 279.832 84.7522C278.482 85.7869 277.511 87.2377 277.07 88.88H272.87V57.88H303.94L303.93 88.88ZM326.93 74.4H315.47V63.67H322.07L326.93 74.4ZM315.47 94.68C314.705 94.68 313.956 94.453 313.32 94.0278C312.684 93.6025 312.188 92.9981 311.895 92.291C311.602 91.5838 311.525 90.8057 311.674 90.055C311.824 89.3043 312.192 88.6147 312.733 88.0735C313.275 87.5323 313.964 87.1637 314.715 87.0144C315.466 86.865 316.244 86.9417 316.951 87.2346C317.658 87.5275 318.263 88.0235 318.688 88.6599C319.113 89.2964 319.34 90.0446 319.34 90.81C319.34 91.3182 319.24 91.8215 319.045 92.291C318.851 92.7605 318.566 93.1871 318.207 93.5465C317.847 93.9059 317.421 94.1909 316.951 94.3854C316.481 94.5799 315.978 94.68 315.47 94.68V94.68ZM322.94 88.88C322.499 87.2377 321.528 85.7869 320.178 84.7522C318.829 83.7174 317.176 83.1567 315.475 83.1567C313.774 83.1567 312.121 83.7174 310.772 84.7522C309.422 85.7869 308.451 87.2377 308.01 88.88H305.8V63.67H313.6V74.34C313.6 74.5943 313.65 74.8461 313.748 75.0809C313.845 75.3157 313.989 75.5289 314.169 75.7083C314.349 75.8876 314.563 76.0296 314.798 76.126C315.034 76.2224 315.286 76.2713 315.54 76.27H327.14V81.14H323.21V82H327.14V88.87L322.94 88.88Z" fill="url(#paint5_linear)"/>
</g>
<defs>
<linearGradient id="paint0_linear" x1="493.2" y1="43.07" x2="537.22" y2="43.07" gradientUnits="userSpaceOnUse">
<stop stop-color="#8176B5"/>
<stop offset="1" stop-color="#76C4E2"/>
</linearGradient>
<linearGradient id="paint1_linear" x1="22203.8" y1="1129.11" x2="24141.6" y2="1129.11" gradientUnits="userSpaceOnUse">
<stop stop-color="#8176B5"/>
<stop offset="1" stop-color="#76C4E2"/>
</linearGradient>
<linearGradient id="paint2_linear" x1="22203.8" y1="1493.16" x2="24141.6" y2="1493.16" gradientUnits="userSpaceOnUse">
<stop stop-color="#8176B5"/>
<stop offset="1" stop-color="#76C4E2"/>
</linearGradient>
<linearGradient id="paint3_linear" x1="5510.4" y1="3920.5" x2="14535.4" y2="3920.5" gradientUnits="userSpaceOnUse">
<stop stop-color="#8176B5"/>
<stop offset="1" stop-color="#76C4E2"/>
</linearGradient>
<linearGradient id="paint4_linear" x1="2418.5" y1="1656.74" x2="3068.5" y2="1656.74" gradientUnits="userSpaceOnUse">
<stop stop-color="#8176B5"/>
<stop offset="1" stop-color="#76C4E2"/>
</linearGradient>
<linearGradient id="paint5_linear" x1="15988.4" y1="3335.44" x2="19353.6" y2="3335.44" gradientUnits="userSpaceOnUse">
<stop stop-color="#8176B5"/>
<stop offset="1" stop-color="#76C4E2"/>
</linearGradient>
<clipPath id="clip0">
<rect width="600" height="145" fill="white"/>
</clipPath>
</defs>
</svg>
