<svg width="600" height="145" viewBox="0 0 600 145" fill="none" xmlns="http://www.w3.org/2000/svg">
<path d="M233 32H369" stroke="#404242" stroke-width="0.5" stroke-linecap="round" stroke-linejoin="round"/>
<path d="M237.472 22.4H235.722V13.1935H232.572V11.692H240.622V13.1935H237.472V22.4Z" fill="#707070"/>
<path d="M249.213 22.4H247.484V17.4196C247.484 16.7946 247.357 16.3282 247.104 16.0206C246.854 15.713 246.457 15.5592 245.91 15.5592C245.187 15.5592 244.655 15.7765 244.313 16.2111C243.976 16.6407 243.808 17.3634 243.808 18.379V22.4H242.086V11.0035H243.808V13.8966C243.808 14.3605 243.778 14.8561 243.72 15.3834H243.83C244.064 14.9928 244.389 14.6901 244.804 14.4752C245.224 14.2604 245.712 14.153 246.269 14.153C248.231 14.153 249.213 15.1417 249.213 17.1193V22.4Z" fill="#707070"/>
<path d="M255.146 22.5465C253.886 22.5465 252.899 22.1803 252.187 21.4479C251.479 20.7106 251.125 19.6974 251.125 18.4083C251.125 17.0851 251.454 16.045 252.113 15.2882C252.772 14.5314 253.678 14.153 254.831 14.153C255.9 14.153 256.745 14.4777 257.365 15.1271C257.985 15.7765 258.295 16.67 258.295 17.8077V18.7379H252.897C252.921 19.524 253.134 20.1295 253.534 20.5543C253.935 20.9742 254.499 21.1842 255.226 21.1842C255.705 21.1842 256.149 21.1403 256.559 21.0524C256.974 20.9596 257.418 20.8082 257.892 20.5983V21.9972C257.472 22.1974 257.047 22.339 256.618 22.422C256.188 22.505 255.697 22.5465 255.146 22.5465ZM254.831 15.4567C254.284 15.4567 253.844 15.63 253.512 15.9767C253.185 16.3234 252.99 16.8287 252.926 17.4928H256.603C256.593 16.8239 256.432 16.3185 256.12 15.9767C255.807 15.63 255.377 15.4567 254.831 15.4567Z" fill="#707070"/>
<path d="M273.251 22.4H271.105L265.839 13.8673H265.78L265.817 14.3434C265.885 15.2516 265.919 16.0817 265.919 16.8336V22.4H264.33V11.692H266.454L271.706 20.1808H271.75C271.74 20.0685 271.72 19.6608 271.691 18.9576C271.662 18.2496 271.647 17.6979 271.647 17.3024V11.692H273.251V22.4Z" fill="#707070"/>
<path d="M279.433 22.5465C278.173 22.5465 277.187 22.1803 276.474 21.4479C275.766 20.7106 275.412 19.6974 275.412 18.4083C275.412 17.0851 275.741 16.045 276.4 15.2882C277.06 14.5314 277.965 14.153 279.118 14.153C280.187 14.153 281.032 14.4777 281.652 15.1271C282.272 15.7765 282.582 16.67 282.582 17.8077V18.7379H277.184C277.208 19.524 277.421 20.1295 277.821 20.5543C278.222 20.9742 278.786 21.1842 279.513 21.1842C279.992 21.1842 280.436 21.1403 280.846 21.0524C281.261 20.9596 281.706 20.8082 282.179 20.5983V21.9972C281.759 22.1974 281.334 22.339 280.905 22.422C280.475 22.505 279.984 22.5465 279.433 22.5465ZM279.118 15.4567C278.571 15.4567 278.131 15.63 277.799 15.9767C277.472 16.3234 277.277 16.8287 277.213 17.4928H280.89C280.88 16.8239 280.719 16.3185 280.407 15.9767C280.094 15.63 279.665 15.4567 279.118 15.4567Z" fill="#707070"/>
<path d="M287.555 21.1549C287.975 21.1549 288.395 21.089 288.815 20.9572V22.2535C288.625 22.3365 288.378 22.4049 288.075 22.4586C287.777 22.5172 287.467 22.5465 287.145 22.5465C285.514 22.5465 284.699 21.6871 284.699 19.9684V15.6031H283.593V14.8414L284.779 14.2115L285.365 12.4977H286.427V14.2994H288.734V15.6031H286.427V19.9391C286.427 20.3541 286.53 20.6617 286.735 20.8619C286.945 21.0573 287.218 21.1549 287.555 21.1549Z" fill="#707070"/>
<path d="M297.084 22.4L296.037 18.6207C295.91 18.2203 295.68 17.2902 295.348 15.8302H295.282C294.999 17.1486 294.774 18.0836 294.608 18.6354L293.532 22.4H291.627L289.357 14.2994H291.115L292.147 18.2911C292.382 19.2775 292.548 20.1222 292.646 20.8253H292.689C292.738 20.4689 292.812 20.0612 292.909 19.6022C293.012 19.1383 293.1 18.7916 293.173 18.5621L294.403 14.2994H296.293L297.487 18.5621C297.56 18.8014 297.65 19.1676 297.758 19.6608C297.87 20.1539 297.936 20.5372 297.956 20.8107H298.014C298.087 20.2101 298.258 19.3702 298.527 18.2911L299.574 14.2994H301.303L299.018 22.4H297.084Z" fill="#707070"/>
<path d="M309.887 18.3351C309.887 19.6583 309.547 20.691 308.869 21.4332C308.19 22.1754 307.245 22.5465 306.034 22.5465C305.277 22.5465 304.608 22.3756 304.027 22.0338C303.446 21.692 303 21.2013 302.687 20.5616C302.375 19.922 302.218 19.1798 302.218 18.3351C302.218 17.0216 302.555 15.9962 303.229 15.2589C303.903 14.5216 304.853 14.153 306.078 14.153C307.25 14.153 308.178 14.5314 308.861 15.2882C309.545 16.0402 309.887 17.0558 309.887 18.3351ZM303.991 18.3351C303.991 20.2052 304.682 21.1403 306.063 21.1403C307.431 21.1403 308.114 20.2052 308.114 18.3351C308.114 16.4845 307.426 15.5592 306.049 15.5592C305.326 15.5592 304.801 15.7985 304.474 16.277C304.152 16.7555 303.991 17.4415 303.991 18.3351Z" fill="#707070"/>
<path d="M315.98 14.153C316.327 14.153 316.613 14.1774 316.837 14.2262L316.669 15.8302C316.425 15.7716 316.171 15.7423 315.907 15.7423C315.219 15.7423 314.66 15.9669 314.23 16.4161C313.805 16.8654 313.593 17.4489 313.593 18.1666V22.4H311.872V14.2994H313.219L313.446 15.7277H313.534C313.803 15.2443 314.152 14.861 314.582 14.5778C315.016 14.2946 315.482 14.153 315.98 14.153Z" fill="#707070"/>
<path d="M320.009 18.1227L320.983 16.9069L323.429 14.2994H325.414L322.155 17.7784L325.619 22.4H323.598L320.998 18.8478L320.053 19.6241V22.4H318.346V11.0035H320.053V16.5626L319.965 18.1227H320.009Z" fill="#707070"/>
<path d="M331.01 22.4V11.692H332.76V20.8986H337.294V22.4H331.01Z" fill="#707070"/>
<path d="M344.025 22.4L343.681 21.2721H343.622C343.231 21.7653 342.838 22.1022 342.443 22.2828C342.047 22.4586 341.54 22.5465 340.919 22.5465C340.124 22.5465 339.501 22.3317 339.052 21.902C338.607 21.4723 338.385 20.8644 338.385 20.0782C338.385 19.2433 338.695 18.6134 339.315 18.1886C339.936 17.7638 340.88 17.5319 342.15 17.4928L343.549 17.4489V17.0167C343.549 16.4991 343.427 16.1134 343.183 15.8595C342.943 15.6007 342.57 15.4713 342.062 15.4713C341.647 15.4713 341.249 15.5323 340.868 15.6544C340.487 15.7765 340.121 15.9205 339.77 16.0865L339.213 14.8561C339.652 14.6266 340.133 14.4532 340.656 14.3361C341.178 14.214 341.671 14.153 342.135 14.153C343.166 14.153 343.942 14.3776 344.464 14.8268C344.992 15.276 345.255 15.9816 345.255 16.9435V22.4H344.025ZM341.461 21.2281C342.086 21.2281 342.587 21.0548 342.963 20.7081C343.344 20.3566 343.534 19.8658 343.534 19.236V18.5328L342.494 18.5768C341.684 18.6061 341.093 18.7428 340.722 18.9869C340.355 19.2262 340.172 19.5948 340.172 20.0929C340.172 20.4542 340.28 20.735 340.495 20.9352C340.709 21.1305 341.032 21.2281 341.461 21.2281Z" fill="#707070"/>
<path d="M346.427 14.2994H348.302L349.95 18.8917C350.199 19.546 350.365 20.1613 350.448 20.7374H350.507C350.551 20.4689 350.631 20.1442 350.749 19.7633C350.866 19.3776 351.486 17.5563 352.609 14.2994H354.469L351.005 23.4767C350.375 25.1613 349.325 26.0035 347.855 26.0035C347.475 26.0035 347.104 25.962 346.742 25.879V24.5167C347.001 24.5753 347.296 24.6046 347.628 24.6046C348.458 24.6046 349.042 24.1237 349.379 23.1617L349.679 22.4L346.427 14.2994Z" fill="#707070"/>
<path d="M359.237 22.5465C357.978 22.5465 356.991 22.1803 356.278 21.4479C355.57 20.7106 355.216 19.6974 355.216 18.4083C355.216 17.0851 355.546 16.045 356.205 15.2882C356.864 14.5314 357.77 14.153 358.922 14.153C359.992 14.153 360.836 14.4777 361.457 15.1271C362.077 15.7765 362.387 16.67 362.387 17.8077V18.7379H356.989C357.013 19.524 357.226 20.1295 357.626 20.5543C358.026 20.9742 358.59 21.1842 359.318 21.1842C359.796 21.1842 360.241 21.1403 360.651 21.0524C361.066 20.9596 361.51 20.8082 361.984 20.5983V21.9972C361.564 22.1974 361.139 22.339 360.709 22.422C360.28 22.505 359.789 22.5465 359.237 22.5465ZM358.922 15.4567C358.375 15.4567 357.936 15.63 357.604 15.9767C357.277 16.3234 357.082 16.8287 357.018 17.4928H360.695C360.685 16.8239 360.524 16.3185 360.211 15.9767C359.899 15.63 359.469 15.4567 358.922 15.4567Z" fill="#707070"/>
<path d="M368.451 14.153C368.798 14.153 369.083 14.1774 369.308 14.2262L369.14 15.8302C368.896 15.7716 368.642 15.7423 368.378 15.7423C367.689 15.7423 367.13 15.9669 366.701 16.4161C366.276 16.8654 366.063 17.4489 366.063 18.1666V22.4H364.342V14.2994H365.69L365.917 15.7277H366.005C366.273 15.2443 366.623 14.861 367.052 14.5778C367.487 14.2946 367.953 14.153 368.451 14.153Z" fill="#707070"/>
<path d="M278.199 124.92H276.916V118.169H274.606V117.067H280.509V118.169H278.199V124.92Z" fill="#707070"/>
<path d="M284.596 118.872C284.85 118.872 285.06 118.89 285.225 118.926L285.101 120.102C284.922 120.059 284.736 120.038 284.542 120.038C284.038 120.038 283.628 120.202 283.312 120.532C283.001 120.861 282.845 121.289 282.845 121.815V124.92H281.583V118.98H282.571L282.738 120.027H282.802C282.999 119.672 283.255 119.391 283.57 119.184C283.889 118.976 284.231 118.872 284.596 118.872Z" fill="#707070"/>
<path d="M290.048 124.92L289.795 124.093H289.752C289.466 124.454 289.178 124.702 288.888 124.834C288.598 124.963 288.225 125.027 287.771 125.027C287.187 125.027 286.73 124.87 286.401 124.555C286.075 124.24 285.912 123.794 285.912 123.217C285.912 122.605 286.139 122.143 286.594 121.832C287.049 121.52 287.742 121.35 288.673 121.321L289.699 121.289V120.972C289.699 120.593 289.609 120.31 289.43 120.124C289.255 119.934 288.981 119.839 288.608 119.839C288.304 119.839 288.012 119.884 287.733 119.973C287.454 120.063 287.185 120.168 286.927 120.29L286.519 119.388C286.841 119.219 287.194 119.092 287.577 119.006C287.96 118.917 288.322 118.872 288.662 118.872C289.418 118.872 289.987 119.037 290.37 119.366C290.757 119.696 290.95 120.213 290.95 120.919V124.92H290.048ZM288.168 124.061C288.626 124.061 288.993 123.933 289.269 123.679C289.548 123.421 289.688 123.062 289.688 122.6V122.084L288.925 122.116C288.331 122.138 287.898 122.238 287.625 122.417C287.357 122.593 287.223 122.863 287.223 123.228C287.223 123.493 287.301 123.699 287.459 123.846C287.617 123.989 287.853 124.061 288.168 124.061Z" fill="#707070"/>
<path d="M297.938 124.92H296.67V121.268C296.67 120.809 296.577 120.467 296.391 120.242C296.208 120.016 295.917 119.903 295.516 119.903C294.982 119.903 294.592 120.061 294.345 120.376C294.098 120.691 293.974 121.219 293.974 121.961V124.92H292.712V118.98H293.7L293.877 119.758H293.942C294.121 119.475 294.375 119.257 294.705 119.103C295.034 118.949 295.399 118.872 295.8 118.872C297.225 118.872 297.938 119.597 297.938 121.047V124.92Z" fill="#707070"/>
<path d="M303.685 123.228C303.685 123.808 303.474 124.254 303.051 124.565C302.629 124.873 302.024 125.027 301.236 125.027C300.444 125.027 299.809 124.907 299.329 124.668V123.577C300.027 123.899 300.677 124.061 301.279 124.061C302.056 124.061 302.444 123.826 302.444 123.357C302.444 123.207 302.401 123.081 302.315 122.981C302.229 122.881 302.088 122.777 301.891 122.669C301.694 122.562 301.42 122.44 301.069 122.304C300.385 122.039 299.922 121.774 299.678 121.509C299.438 121.244 299.318 120.901 299.318 120.478C299.318 119.97 299.522 119.576 299.931 119.296C300.342 119.014 300.901 118.872 301.606 118.872C302.305 118.872 302.965 119.014 303.588 119.296L303.18 120.247C302.539 119.982 302 119.85 301.563 119.85C300.897 119.85 300.564 120.039 300.564 120.419C300.564 120.605 300.65 120.763 300.822 120.892C300.998 121.021 301.377 121.198 301.961 121.423C302.451 121.613 302.808 121.787 303.03 121.944C303.252 122.102 303.417 122.285 303.524 122.492C303.631 122.696 303.685 122.942 303.685 123.228Z" fill="#707070"/>
<path d="M308.068 125.027C307.316 125.027 306.732 124.757 306.317 124.216H306.242C306.292 124.718 306.317 125.022 306.317 125.129V127.563H305.055V118.98H306.075C306.104 119.091 306.163 119.356 306.252 119.774H306.317C306.711 119.173 307.302 118.872 308.089 118.872C308.831 118.872 309.407 119.141 309.819 119.678C310.234 120.215 310.442 120.969 310.442 121.939C310.442 122.909 310.231 123.667 309.808 124.211C309.389 124.755 308.809 125.027 308.068 125.027ZM307.762 119.903C307.26 119.903 306.893 120.05 306.661 120.344C306.431 120.637 306.317 121.107 306.317 121.751V121.939C306.317 122.662 306.431 123.187 306.661 123.513C306.89 123.835 307.264 123.996 307.783 123.996C308.22 123.996 308.557 123.817 308.793 123.459C309.029 123.101 309.147 122.591 309.147 121.928C309.147 121.262 309.029 120.759 308.793 120.419C308.56 120.075 308.216 119.903 307.762 119.903Z" fill="#707070"/>
<path d="M317.177 121.939C317.177 122.909 316.928 123.667 316.431 124.211C315.933 124.755 315.24 125.027 314.352 125.027C313.797 125.027 313.306 124.902 312.88 124.651C312.454 124.401 312.127 124.041 311.897 123.572C311.668 123.103 311.554 122.558 311.554 121.939C311.554 120.976 311.801 120.224 312.295 119.683C312.789 119.142 313.486 118.872 314.384 118.872C315.244 118.872 315.924 119.15 316.425 119.705C316.927 120.256 317.177 121.001 317.177 121.939ZM312.854 121.939C312.854 123.31 313.36 123.996 314.374 123.996C315.376 123.996 315.877 123.31 315.877 121.939C315.877 120.582 315.373 119.903 314.363 119.903C313.833 119.903 313.448 120.079 313.208 120.43C312.972 120.781 312.854 121.284 312.854 121.939Z" fill="#707070"/>
<path d="M321.646 118.872C321.9 118.872 322.11 118.89 322.274 118.926L322.151 120.102C321.972 120.059 321.786 120.038 321.592 120.038C321.087 120.038 320.677 120.202 320.362 120.532C320.051 120.861 319.895 121.289 319.895 121.815V124.92H318.633V118.98H319.621L319.788 120.027H319.852C320.049 119.672 320.305 119.391 320.62 119.184C320.939 118.976 321.281 118.872 321.646 118.872Z" fill="#707070"/>
<path d="M325.594 124.007C325.902 124.007 326.21 123.959 326.518 123.862V124.813C326.378 124.873 326.197 124.924 325.975 124.963C325.757 125.006 325.529 125.027 325.293 125.027C324.097 125.027 323.499 124.397 323.499 123.137V119.936H322.688V119.377L323.558 118.915L323.988 117.658H324.767V118.98H326.458V119.936H324.767V123.115C324.767 123.42 324.842 123.645 324.992 123.792C325.146 123.935 325.347 124.007 325.594 124.007Z" fill="#707070"/>
<path d="M94.2559 119.691C94.2559 120.511 93.9873 121.14 93.4502 121.577C92.9131 122.014 92.1486 122.232 91.1567 122.232H90.3403V125.17H89.0566V117.317H91.3179C92.299 117.317 93.033 117.518 93.52 117.919C94.0106 118.32 94.2559 118.911 94.2559 119.691ZM90.3403 121.152H91.0225C91.6813 121.152 92.1647 121.038 92.4727 120.809C92.7806 120.579 92.9346 120.221 92.9346 119.734C92.9346 119.283 92.7967 118.947 92.521 118.725C92.2453 118.503 91.8156 118.392 91.2319 118.392H90.3403V121.152Z" fill="#707070"/>
<path d="M99.4067 125.17L99.1543 124.343H99.1113C98.8249 124.704 98.5366 124.952 98.2466 125.084C97.9565 125.213 97.5841 125.277 97.1294 125.277C96.5457 125.277 96.0892 125.12 95.7598 124.805C95.4339 124.49 95.271 124.044 95.271 123.467C95.271 122.855 95.4984 122.393 95.9531 122.082C96.4079 121.77 97.1007 121.6 98.0317 121.571L99.0576 121.539V121.222C99.0576 120.843 98.9681 120.56 98.7891 120.374C98.6136 120.184 98.3397 120.089 97.9673 120.089C97.6629 120.089 97.3711 120.134 97.0918 120.223C96.8125 120.313 96.5439 120.418 96.2861 120.54L95.8779 119.638C96.2002 119.469 96.5529 119.342 96.936 119.256C97.3192 119.167 97.6808 119.122 98.021 119.122C98.7765 119.122 99.3459 119.287 99.729 119.616C100.116 119.946 100.309 120.463 100.309 121.169V125.17H99.4067ZM97.5269 124.311C97.9852 124.311 98.3522 124.183 98.6279 123.929C98.9072 123.671 99.0469 123.312 99.0469 122.85V122.334L98.2842 122.366C97.6898 122.388 97.2565 122.488 96.9844 122.667C96.7158 122.843 96.5815 123.113 96.5815 123.478C96.5815 123.743 96.6603 123.949 96.8179 124.096C96.9754 124.239 97.2118 124.311 97.5269 124.311Z" fill="#707070"/>
<path d="M104.466 125.277C103.568 125.277 102.884 125.016 102.415 124.493C101.949 123.967 101.716 123.213 101.716 122.232C101.716 121.233 101.96 120.465 102.447 119.928C102.937 119.391 103.645 119.122 104.568 119.122C105.195 119.122 105.759 119.239 106.26 119.471L105.879 120.486C105.345 120.279 104.905 120.175 104.558 120.175C103.53 120.175 103.016 120.857 103.016 122.221C103.016 122.887 103.143 123.389 103.397 123.725C103.655 124.058 104.031 124.225 104.525 124.225C105.088 124.225 105.619 124.085 106.121 123.806V124.907C105.895 125.039 105.653 125.134 105.396 125.191C105.141 125.249 104.832 125.277 104.466 125.277Z" fill="#707070"/>
<path d="M108.736 122.033L109.451 121.142L111.245 119.23H112.7L110.31 121.781L112.851 125.17H111.368L109.461 122.565L108.769 123.134V125.17H107.517V116.813H108.769V120.889L108.704 122.033H108.736Z" fill="#707070"/>
<path d="M116.406 125.277C115.482 125.277 114.759 125.009 114.236 124.472C113.717 123.931 113.458 123.188 113.458 122.243C113.458 121.272 113.699 120.51 114.183 119.955C114.666 119.4 115.33 119.122 116.175 119.122C116.959 119.122 117.579 119.36 118.034 119.836C118.488 120.313 118.716 120.968 118.716 121.802V122.484H114.757C114.775 123.061 114.931 123.505 115.225 123.816C115.518 124.124 115.932 124.278 116.465 124.278C116.816 124.278 117.142 124.246 117.443 124.182C117.747 124.114 118.073 124.003 118.42 123.849V124.875C118.112 125.021 117.801 125.125 117.486 125.186C117.171 125.247 116.811 125.277 116.406 125.277ZM116.175 120.078C115.774 120.078 115.452 120.205 115.208 120.46C114.969 120.714 114.825 121.084 114.779 121.571H117.475C117.468 121.081 117.35 120.71 117.121 120.46C116.891 120.205 116.576 120.078 116.175 120.078Z" fill="#707070"/>
<path d="M122.363 124.257C122.671 124.257 122.979 124.209 123.287 124.112V125.063C123.147 125.123 122.966 125.174 122.744 125.213C122.526 125.256 122.298 125.277 122.062 125.277C120.866 125.277 120.268 124.647 120.268 123.387V120.186H119.457V119.627L120.327 119.165L120.757 117.908H121.536V119.23H123.228V120.186H121.536V123.365C121.536 123.67 121.611 123.895 121.761 124.042C121.915 124.185 122.116 124.257 122.363 124.257Z" fill="#707070"/>
<path d="M128.47 123.478C128.47 124.058 128.258 124.504 127.836 124.815C127.413 125.123 126.808 125.277 126.021 125.277C125.229 125.277 124.594 125.157 124.114 124.918V123.827C124.812 124.149 125.462 124.311 126.063 124.311C126.84 124.311 127.229 124.076 127.229 123.607C127.229 123.457 127.186 123.331 127.1 123.231C127.014 123.131 126.873 123.027 126.676 122.919C126.479 122.812 126.205 122.69 125.854 122.554C125.17 122.289 124.706 122.024 124.463 121.759C124.223 121.494 124.103 121.151 124.103 120.728C124.103 120.22 124.307 119.826 124.715 119.546C125.127 119.264 125.686 119.122 126.391 119.122C127.089 119.122 127.75 119.264 128.373 119.546L127.965 120.497C127.324 120.232 126.785 120.1 126.348 120.1C125.682 120.1 125.349 120.289 125.349 120.669C125.349 120.855 125.435 121.013 125.607 121.142C125.782 121.271 126.162 121.448 126.746 121.673C127.236 121.863 127.592 122.037 127.814 122.194C128.036 122.352 128.201 122.535 128.309 122.742C128.416 122.946 128.47 123.192 128.47 123.478Z" fill="#707070"/>
<path d="M136.172 118.306C135.434 118.306 134.854 118.567 134.432 119.09C134.009 119.613 133.798 120.334 133.798 121.254C133.798 122.218 134 122.946 134.405 123.44C134.813 123.935 135.402 124.182 136.172 124.182C136.505 124.182 136.827 124.149 137.139 124.085C137.45 124.017 137.774 123.931 138.111 123.827V124.928C137.495 125.161 136.797 125.277 136.016 125.277C134.867 125.277 133.984 124.93 133.368 124.235C132.752 123.537 132.444 122.54 132.444 121.244C132.444 120.427 132.593 119.713 132.89 119.101C133.191 118.488 133.624 118.019 134.19 117.693C134.756 117.368 135.42 117.205 136.183 117.205C136.985 117.205 137.726 117.373 138.406 117.71L137.944 118.778C137.679 118.653 137.398 118.544 137.101 118.451C136.807 118.354 136.498 118.306 136.172 118.306Z" fill="#707070"/>
<path d="M142.682 119.122C142.936 119.122 143.145 119.14 143.31 119.176L143.187 120.352C143.007 120.309 142.821 120.288 142.628 120.288C142.123 120.288 141.713 120.452 141.398 120.782C141.086 121.111 140.931 121.539 140.931 122.065V125.17H139.668V119.23H140.657L140.823 120.277H140.888C141.085 119.922 141.341 119.641 141.656 119.434C141.974 119.226 142.316 119.122 142.682 119.122Z" fill="#707070"/>
<path d="M147.011 125.277C146.087 125.277 145.364 125.009 144.841 124.472C144.322 123.931 144.062 123.188 144.062 122.243C144.062 121.272 144.304 120.51 144.787 119.955C145.271 119.4 145.935 119.122 146.78 119.122C147.564 119.122 148.183 119.36 148.638 119.836C149.093 120.313 149.32 120.968 149.32 121.802V122.484H145.362C145.38 123.061 145.535 123.505 145.829 123.816C146.123 124.124 146.536 124.278 147.07 124.278C147.421 124.278 147.747 124.246 148.047 124.182C148.352 124.114 148.678 124.003 149.025 123.849V124.875C148.717 125.021 148.405 125.125 148.09 125.186C147.775 125.247 147.415 125.277 147.011 125.277ZM146.78 120.078C146.379 120.078 146.056 120.205 145.813 120.46C145.573 120.714 145.43 121.084 145.383 121.571H148.08C148.072 121.081 147.954 120.71 147.725 120.46C147.496 120.205 147.181 120.078 146.78 120.078Z" fill="#707070"/>
<path d="M154.471 125.17L154.219 124.343H154.176C153.889 124.704 153.601 124.952 153.311 125.084C153.021 125.213 152.649 125.277 152.194 125.277C151.61 125.277 151.154 125.12 150.824 124.805C150.498 124.49 150.335 124.044 150.335 123.467C150.335 122.855 150.563 122.393 151.018 122.082C151.472 121.77 152.165 121.6 153.096 121.571L154.122 121.539V121.222C154.122 120.843 154.033 120.56 153.854 120.374C153.678 120.184 153.404 120.089 153.032 120.089C152.727 120.089 152.436 120.134 152.156 120.223C151.877 120.313 151.608 120.418 151.351 120.54L150.942 119.638C151.265 119.469 151.617 119.342 152 119.256C152.384 119.167 152.745 119.122 153.085 119.122C153.841 119.122 154.41 119.287 154.793 119.616C155.18 119.946 155.374 120.463 155.374 121.169V125.17H154.471ZM152.591 124.311C153.05 124.311 153.417 124.183 153.692 123.929C153.972 123.671 154.111 123.312 154.111 122.85V122.334L153.349 122.366C152.754 122.388 152.321 122.488 152.049 122.667C151.78 122.843 151.646 123.113 151.646 123.478C151.646 123.743 151.725 123.949 151.882 124.096C152.04 124.239 152.276 124.311 152.591 124.311Z" fill="#707070"/>
<path d="M159.348 124.257C159.656 124.257 159.964 124.209 160.272 124.112V125.063C160.132 125.123 159.951 125.174 159.729 125.213C159.511 125.256 159.284 125.277 159.047 125.277C157.851 125.277 157.253 124.647 157.253 123.387V120.186H156.442V119.627L157.312 119.165L157.742 117.908H158.521V119.23H160.213V120.186H158.521V123.365C158.521 123.67 158.596 123.895 158.747 124.042C158.901 124.185 159.101 124.257 159.348 124.257Z" fill="#707070"/>
<path d="M162.727 125.17H161.464V119.23H162.727V125.17ZM161.389 117.656C161.389 117.43 161.45 117.257 161.572 117.135C161.697 117.013 161.874 116.952 162.104 116.952C162.326 116.952 162.497 117.013 162.619 117.135C162.744 117.257 162.807 117.43 162.807 117.656C162.807 117.871 162.744 118.041 162.619 118.166C162.497 118.288 162.326 118.349 162.104 118.349C161.874 118.349 161.697 118.288 161.572 118.166C161.45 118.041 161.389 117.871 161.389 117.656Z" fill="#707070"/>
<path d="M169.806 122.189C169.806 123.159 169.557 123.917 169.059 124.461C168.561 125.005 167.868 125.277 166.98 125.277C166.425 125.277 165.935 125.152 165.509 124.901C165.083 124.651 164.755 124.291 164.526 123.822C164.297 123.353 164.182 122.808 164.182 122.189C164.182 121.226 164.429 120.474 164.923 119.933C165.417 119.392 166.114 119.122 167.013 119.122C167.872 119.122 168.552 119.4 169.054 119.955C169.555 120.506 169.806 121.251 169.806 122.189ZM165.482 122.189C165.482 123.56 165.989 124.246 167.002 124.246C168.005 124.246 168.506 123.56 168.506 122.189C168.506 120.832 168.001 120.153 166.991 120.153C166.461 120.153 166.076 120.329 165.836 120.68C165.6 121.031 165.482 121.534 165.482 122.189Z" fill="#707070"/>
<path d="M176.487 125.17H175.22V121.518C175.22 121.059 175.127 120.717 174.94 120.492C174.758 120.266 174.466 120.153 174.065 120.153C173.531 120.153 173.141 120.311 172.894 120.626C172.647 120.941 172.523 121.469 172.523 122.211V125.17H171.261V119.23H172.25L172.427 120.008H172.491C172.67 119.725 172.924 119.507 173.254 119.353C173.583 119.199 173.949 119.122 174.35 119.122C175.775 119.122 176.487 119.847 176.487 121.297V125.17Z" fill="#707070"/>
<path d="M428.676 119.441C428.676 120.261 428.407 120.89 427.87 121.327C427.333 121.764 426.569 121.982 425.577 121.982H424.76V124.92H423.477V117.067H425.738C426.719 117.067 427.453 117.268 427.94 117.669C428.431 118.07 428.676 118.661 428.676 119.441ZM424.76 120.902H425.442C426.101 120.902 426.585 120.788 426.893 120.559C427.201 120.329 427.354 119.971 427.354 119.484C427.354 119.033 427.217 118.697 426.941 118.475C426.665 118.253 426.236 118.142 425.652 118.142H424.76V120.902Z" fill="#707070"/>
<path d="M433.827 124.92L433.574 124.093H433.531C433.245 124.454 432.957 124.702 432.667 124.834C432.376 124.963 432.004 125.027 431.549 125.027C430.966 125.027 430.509 124.87 430.18 124.555C429.854 124.24 429.691 123.794 429.691 123.217C429.691 122.605 429.918 122.143 430.373 121.832C430.828 121.52 431.521 121.35 432.452 121.321L433.478 121.289V120.972C433.478 120.593 433.388 120.31 433.209 120.124C433.034 119.934 432.76 119.839 432.387 119.839C432.083 119.839 431.791 119.884 431.512 119.973C431.232 120.063 430.964 120.168 430.706 120.29L430.298 119.388C430.62 119.219 430.973 119.092 431.356 119.006C431.739 118.917 432.101 118.872 432.441 118.872C433.196 118.872 433.766 119.037 434.149 119.366C434.536 119.696 434.729 120.213 434.729 120.919V124.92H433.827ZM431.947 124.061C432.405 124.061 432.772 123.933 433.048 123.679C433.327 123.421 433.467 123.062 433.467 122.6V122.084L432.704 122.116C432.11 122.138 431.676 122.238 431.404 122.417C431.136 122.593 431.001 122.863 431.001 123.228C431.001 123.493 431.08 123.699 431.238 123.846C431.395 123.989 431.632 124.061 431.947 124.061Z" fill="#707070"/>
<path d="M438.886 125.027C437.987 125.027 437.304 124.766 436.834 124.243C436.369 123.717 436.136 122.963 436.136 121.982C436.136 120.983 436.38 120.215 436.867 119.678C437.357 119.141 438.064 118.872 438.988 118.872C439.615 118.872 440.179 118.989 440.68 119.221L440.299 120.236C439.765 120.029 439.325 119.925 438.978 119.925C437.95 119.925 437.436 120.607 437.436 121.971C437.436 122.637 437.563 123.139 437.817 123.475C438.075 123.808 438.451 123.975 438.945 123.975C439.507 123.975 440.039 123.835 440.541 123.556V124.657C440.315 124.789 440.073 124.884 439.815 124.941C439.561 124.999 439.251 125.027 438.886 125.027Z" fill="#707070"/>
<path d="M443.156 121.783L443.871 120.892L445.665 118.98H447.12L444.73 121.531L447.271 124.92H445.788L443.881 122.315L443.188 122.884V124.92H441.937V116.563H443.188V120.639L443.124 121.783H443.156Z" fill="#707070"/>
<path d="M450.826 125.027C449.902 125.027 449.179 124.759 448.656 124.222C448.137 123.681 447.877 122.938 447.877 121.993C447.877 121.022 448.119 120.26 448.603 119.705C449.086 119.15 449.75 118.872 450.595 118.872C451.379 118.872 451.999 119.11 452.454 119.586C452.908 120.063 453.136 120.718 453.136 121.552V122.234H449.177C449.195 122.811 449.351 123.255 449.645 123.566C449.938 123.874 450.352 124.028 450.885 124.028C451.236 124.028 451.562 123.996 451.863 123.932C452.167 123.864 452.493 123.753 452.84 123.599V124.625C452.532 124.771 452.221 124.875 451.906 124.936C451.591 124.997 451.231 125.027 450.826 125.027ZM450.595 119.828C450.194 119.828 449.872 119.955 449.628 120.21C449.389 120.464 449.245 120.834 449.199 121.321H451.895C451.888 120.831 451.77 120.46 451.541 120.21C451.311 119.955 450.996 119.828 450.595 119.828Z" fill="#707070"/>
<path d="M456.783 124.007C457.091 124.007 457.399 123.959 457.707 123.862V124.813C457.567 124.873 457.386 124.924 457.164 124.963C456.946 125.006 456.718 125.027 456.482 125.027C455.286 125.027 454.688 124.397 454.688 123.137V119.936H453.877V119.377L454.747 118.915L455.177 117.658H455.956V118.98H457.647V119.936H455.956V123.115C455.956 123.42 456.031 123.645 456.181 123.792C456.335 123.935 456.536 124.007 456.783 124.007Z" fill="#707070"/>
<path d="M462.89 123.228C462.89 123.808 462.678 124.254 462.256 124.565C461.833 124.873 461.228 125.027 460.44 125.027C459.649 125.027 459.014 124.907 458.534 124.668V123.577C459.232 123.899 459.882 124.061 460.483 124.061C461.26 124.061 461.649 123.826 461.649 123.357C461.649 123.207 461.606 123.081 461.52 122.981C461.434 122.881 461.293 122.777 461.096 122.669C460.899 122.562 460.625 122.44 460.274 122.304C459.59 122.039 459.126 121.774 458.883 121.509C458.643 121.244 458.523 120.901 458.523 120.478C458.523 119.97 458.727 119.576 459.135 119.296C459.547 119.014 460.106 118.872 460.811 118.872C461.509 118.872 462.17 119.014 462.793 119.296L462.385 120.247C461.744 119.982 461.205 119.85 460.768 119.85C460.102 119.85 459.769 120.039 459.769 120.419C459.769 120.605 459.855 120.763 460.027 120.892C460.202 121.021 460.582 121.198 461.166 121.423C461.656 121.613 462.012 121.787 462.234 121.944C462.456 122.102 462.621 122.285 462.729 122.492C462.836 122.696 462.89 122.942 462.89 123.228Z" fill="#707070"/>
<path d="M472.123 124.92L471.338 122.739H468.336L467.568 124.92H466.214L469.152 117.035H470.549L473.487 124.92H472.123ZM471 121.633L470.264 119.495C470.21 119.352 470.135 119.126 470.039 118.818C469.945 118.51 469.881 118.285 469.845 118.142C469.749 118.582 469.607 119.064 469.421 119.586L468.712 121.633H471Z" fill="#707070"/>
<path d="M478.38 123.228C478.38 123.808 478.169 124.254 477.746 124.565C477.324 124.873 476.718 125.027 475.931 125.027C475.139 125.027 474.504 124.907 474.024 124.668V123.577C474.722 123.899 475.372 124.061 475.974 124.061C476.751 124.061 477.139 123.826 477.139 123.357C477.139 123.207 477.096 123.081 477.01 122.981C476.924 122.881 476.783 122.777 476.586 122.669C476.389 122.562 476.115 122.44 475.764 122.304C475.08 122.039 474.617 121.774 474.373 121.509C474.133 121.244 474.013 120.901 474.013 120.478C474.013 119.97 474.217 119.576 474.625 119.296C475.037 119.014 475.596 118.872 476.301 118.872C477 118.872 477.66 119.014 478.283 119.296L477.875 120.247C477.234 119.982 476.695 119.85 476.258 119.85C475.592 119.85 475.259 120.039 475.259 120.419C475.259 120.605 475.345 120.763 475.517 120.892C475.693 121.021 476.072 121.198 476.656 121.423C477.146 121.613 477.503 121.787 477.725 121.944C477.947 122.102 478.111 122.285 478.219 122.492C478.326 122.696 478.38 122.942 478.38 123.228Z" fill="#707070"/>
<path d="M483.74 123.228C483.74 123.808 483.529 124.254 483.106 124.565C482.684 124.873 482.079 125.027 481.291 125.027C480.5 125.027 479.864 124.907 479.384 124.668V123.577C480.083 123.899 480.732 124.061 481.334 124.061C482.111 124.061 482.5 123.826 482.5 123.357C482.5 123.207 482.457 123.081 482.371 122.981C482.285 122.881 482.143 122.777 481.946 122.669C481.749 122.562 481.475 122.44 481.125 122.304C480.441 122.039 479.977 121.774 479.733 121.509C479.493 121.244 479.374 120.901 479.374 120.478C479.374 119.97 479.578 119.576 479.986 119.296C480.398 119.014 480.956 118.872 481.662 118.872C482.36 118.872 483.021 119.014 483.644 119.296L483.235 120.247C482.594 119.982 482.056 119.85 481.619 119.85C480.953 119.85 480.62 120.039 480.62 120.419C480.62 120.605 480.706 120.763 480.877 120.892C481.053 121.021 481.432 121.198 482.016 121.423C482.507 121.613 482.863 121.787 483.085 121.944C483.307 122.102 483.472 122.285 483.579 122.492C483.687 122.696 483.74 122.942 483.74 123.228Z" fill="#707070"/>
<path d="M487.704 125.027C486.78 125.027 486.057 124.759 485.534 124.222C485.015 123.681 484.755 122.938 484.755 121.993C484.755 121.022 484.997 120.26 485.48 119.705C485.964 119.15 486.628 118.872 487.473 118.872C488.257 118.872 488.877 119.11 489.332 119.586C489.786 120.063 490.014 120.718 490.014 121.552V122.234H486.055C486.073 122.811 486.229 123.255 486.522 123.566C486.816 123.874 487.23 124.028 487.763 124.028C488.114 124.028 488.44 123.996 488.741 123.932C489.045 123.864 489.371 123.753 489.718 123.599V124.625C489.41 124.771 489.099 124.875 488.784 124.936C488.469 124.997 488.109 125.027 487.704 125.027ZM487.473 119.828C487.072 119.828 486.75 119.955 486.506 120.21C486.266 120.464 486.123 120.834 486.077 121.321H488.773C488.766 120.831 488.648 120.46 488.418 120.21C488.189 119.955 487.874 119.828 487.473 119.828Z" fill="#707070"/>
<path d="M496.454 124.92H495.186V121.257C495.186 120.802 495.1 120.464 494.928 120.242C494.756 120.016 494.488 119.903 494.123 119.903C493.636 119.903 493.278 120.063 493.048 120.381C492.823 120.697 492.71 121.223 492.71 121.961V124.92H491.448V118.98H492.436L492.613 119.758H492.678C492.842 119.475 493.081 119.257 493.392 119.103C493.707 118.949 494.053 118.872 494.429 118.872C495.342 118.872 495.947 119.184 496.244 119.807H496.33C496.506 119.513 496.753 119.284 497.071 119.119C497.39 118.954 497.755 118.872 498.167 118.872C498.876 118.872 499.392 119.051 499.714 119.409C500.04 119.767 500.203 120.313 500.203 121.047V124.92H498.94V121.257C498.94 120.802 498.853 120.464 498.677 120.242C498.505 120.016 498.237 119.903 497.872 119.903C497.381 119.903 497.021 120.057 496.792 120.365C496.566 120.67 496.454 121.139 496.454 121.773V124.92Z" fill="#707070"/>
<path d="M504.999 118.872C505.74 118.872 506.317 119.141 506.729 119.678C507.144 120.215 507.352 120.969 507.352 121.939C507.352 122.913 507.142 123.672 506.723 124.216C506.304 124.757 505.722 125.027 504.978 125.027C504.226 125.027 503.642 124.757 503.227 124.216H503.141L502.91 124.92H501.964V116.563H503.227V118.55C503.227 118.697 503.219 118.915 503.205 119.205C503.191 119.495 503.18 119.68 503.173 119.758H503.227C503.628 119.168 504.218 118.872 504.999 118.872ZM504.671 119.903C504.163 119.903 503.796 120.054 503.57 120.355C503.348 120.652 503.234 121.151 503.227 121.853V121.939C503.227 122.662 503.341 123.187 503.57 123.513C503.799 123.835 504.174 123.996 504.693 123.996C505.14 123.996 505.479 123.819 505.708 123.464C505.941 123.11 506.057 122.598 506.057 121.928C506.057 120.578 505.595 119.903 504.671 119.903Z" fill="#707070"/>
<path d="M510.08 124.92H508.818V116.563H510.08V124.92Z" fill="#707070"/>
<path d="M510.988 118.98H512.363L513.571 122.347C513.754 122.827 513.876 123.278 513.937 123.701H513.979C514.012 123.504 514.071 123.266 514.157 122.986C514.243 122.704 514.697 121.368 515.521 118.98H516.885L514.345 125.71C513.883 126.945 513.113 127.563 512.035 127.563C511.756 127.563 511.484 127.532 511.219 127.471V126.472C511.409 126.515 511.625 126.537 511.869 126.537C512.477 126.537 512.905 126.184 513.152 125.479L513.373 124.92L510.988 118.98Z" fill="#707070"/>
<path d="M183.4 88.41H231.11" stroke="#707070" stroke-width="2" stroke-linecap="round" stroke-linejoin="round"/>
<path d="M227.13 91.8L230.52 88.41L227.13 85.02H230.01L233.4 88.41L230.01 91.8H227.13Z" fill="#707070"/>
<path d="M367.6 88.41H415.32" stroke="#707070" stroke-width="2" stroke-linecap="round" stroke-linejoin="round"/>
<path d="M411.33 91.8L414.73 88.41L411.33 85.02H414.21L417.6 88.41L414.21 91.8H411.33Z" fill="#707070"/>
<path d="M125.49 87.5H100.49C100.49 87.5 100.49 111.5 125.49 112.5V86.5" stroke="url(#paint0_linear)" stroke-miterlimit="10"/>
<path d="M115.49 77V52C115.49 52 91.49 52 90.49 77H116.49" stroke="url(#paint1_linear)" stroke-miterlimit="10"/>
<path d="M125.49 67H150.49C150.49 67 150.49 43 125.49 42V68" stroke="url(#paint2_linear)" stroke-miterlimit="10"/>
<path d="M135.49 77.5V102.5C135.49 102.5 159.49 102.5 160.49 77.5H134.49" stroke="url(#paint3_linear)" stroke-miterlimit="10"/>
<path d="M469.49 77.5H444.49C444.49 77.5 444.49 101.5 469.49 102.5V76.5" stroke="url(#paint4_linear)" stroke-miterlimit="10"/>
<path d="M469.49 77V52C469.49 52 445.49 52 444.49 77H470.49" stroke="url(#paint5_linear)" stroke-miterlimit="10"/>
<path d="M469.49 77H494.49C494.49 77 494.49 53 469.49 52V78" stroke="url(#paint6_linear)" stroke-miterlimit="10"/>
<path d="M469.49 77.5V102.5C469.49 102.5 493.49 102.5 494.49 77.5H468.49" stroke="url(#paint7_linear)" stroke-miterlimit="10"/>
<path d="M329.3 80L323.49 68.4C323.333 68.0783 323.088 67.8074 322.784 67.6182C322.48 67.429 322.128 67.3291 321.77 67.33H306.3V63.43C306.3 62.9181 306.097 62.4272 305.735 62.0653C305.373 61.7033 304.882 61.5 304.37 61.5H273.43C272.917 61.5 272.426 61.703 272.062 62.0647C271.698 62.4263 271.493 62.9172 271.49 63.43V96.31C271.49 96.5643 271.541 96.8161 271.638 97.0509C271.736 97.2857 271.879 97.4989 272.059 97.6783C272.239 97.8576 272.453 97.9996 272.689 98.096C272.924 98.1924 273.176 98.2413 273.43 98.24H277.56C278.002 99.8823 278.972 101.333 280.322 102.368C281.672 103.403 283.325 103.963 285.025 103.963C286.726 103.963 288.379 103.403 289.729 102.368C291.078 101.333 292.049 99.8823 292.49 98.24H308.49C308.932 99.8823 309.902 101.333 311.252 102.368C312.602 103.403 314.255 103.963 315.955 103.963C317.656 103.963 319.309 103.403 320.659 102.368C322.008 101.333 322.979 99.8823 323.42 98.24H327.55C327.805 98.2413 328.057 98.1924 328.292 98.096C328.527 97.9996 328.741 97.8576 328.921 97.6783C329.102 97.4989 329.245 97.2857 329.342 97.0509C329.44 96.8161 329.49 96.5643 329.49 96.31V80.84C329.489 80.5495 329.424 80.2629 329.3 80ZM285 100.18C284.235 100.18 283.487 99.953 282.85 99.5278C282.214 99.1025 281.718 98.4981 281.425 97.791C281.132 97.0838 281.055 96.3057 281.205 95.555C281.354 94.8043 281.723 94.1147 282.264 93.5735C282.805 93.0323 283.495 92.6637 284.245 92.5144C284.996 92.365 285.774 92.4417 286.481 92.7346C287.188 93.0275 287.793 93.5235 288.218 94.1599C288.643 94.7964 288.87 95.5446 288.87 96.31C288.87 97.3364 288.463 98.3207 287.737 99.0465C287.011 99.7723 286.027 100.18 285 100.18V100.18ZM304.4 94.38H292.49C292.049 92.7377 291.078 91.2869 289.729 90.2522C288.379 89.2174 286.726 88.6567 285.025 88.6567C283.325 88.6567 281.672 89.2174 280.322 90.2522C278.972 91.2869 278.002 92.7377 277.56 94.38H273.36V63.38H304.43L304.4 94.38ZM327.4 79.9H316V69.17H322.6L327.4 79.9ZM316 100.18C315.235 100.18 314.487 99.953 313.85 99.5278C313.214 99.1025 312.718 98.4981 312.425 97.791C312.132 97.0838 312.055 96.3057 312.205 95.555C312.354 94.8043 312.723 94.1147 313.264 93.5735C313.805 93.0323 314.495 92.6637 315.245 92.5144C315.996 92.365 316.774 92.4417 317.481 92.7346C318.188 93.0275 318.793 93.5235 319.218 94.1599C319.643 94.7964 319.87 95.5446 319.87 96.31C319.87 97.3364 319.463 98.3207 318.737 99.0465C318.011 99.7723 317.027 100.18 316 100.18V100.18ZM323.47 94.38C323.029 92.7377 322.058 91.2869 320.708 90.2522C319.359 89.2174 317.706 88.6567 316.005 88.6567C314.305 88.6567 312.652 89.2174 311.302 90.2522C309.952 91.2869 308.982 92.7377 308.54 94.38H306.3V69.17H314.1V79.84C314.1 80.3467 314.299 80.8331 314.655 81.1942C315.01 81.5553 315.494 81.7621 316 81.77H327.6V86.64H323.67V87.51H327.6V94.38H323.47Z" fill="url(#paint8_linear)"/>
<defs>
<linearGradient id="paint0_linear" x1="99.99" y1="99.76" x2="125.99" y2="99.76" gradientUnits="userSpaceOnUse">
<stop stop-color="#8176B5"/>
<stop offset="1" stop-color="#76C4E2"/>
</linearGradient>
<linearGradient id="paint1_linear" x1="2429.71" y1="1664.5" x2="3119.23" y2="1664.5" gradientUnits="userSpaceOnUse">
<stop stop-color="#8176B5"/>
<stop offset="1" stop-color="#76C4E2"/>
</linearGradient>
<linearGradient id="paint2_linear" x1="3250.24" y1="1465.24" x2="3900.24" y2="1465.24" gradientUnits="userSpaceOnUse">
<stop stop-color="#8176B5"/>
<stop offset="1" stop-color="#76C4E2"/>
</linearGradient>
<linearGradient id="paint3_linear" x1="3631.23" y1="2327.5" x2="4320.75" y2="2327.5" gradientUnits="userSpaceOnUse">
<stop stop-color="#8176B5"/>
<stop offset="1" stop-color="#76C4E2"/>
</linearGradient>
<linearGradient id="paint4_linear" x1="11544.2" y1="2410.26" x2="12194.2" y2="2410.26" gradientUnits="userSpaceOnUse">
<stop stop-color="#8176B5"/>
<stop offset="1" stop-color="#76C4E2"/>
</linearGradient>
<linearGradient id="paint5_linear" x1="11987.7" y1="1664.5" x2="12677.2" y2="1664.5" gradientUnits="userSpaceOnUse">
<stop stop-color="#8176B5"/>
<stop offset="1" stop-color="#76C4E2"/>
</linearGradient>
<linearGradient id="paint6_linear" x1="12194.2" y1="1735.24" x2="12844.2" y2="1735.24" gradientUnits="userSpaceOnUse">
<stop stop-color="#8176B5"/>
<stop offset="1" stop-color="#76C4E2"/>
</linearGradient>
<linearGradient id="paint7_linear" x1="12649.2" y1="2327.5" x2="13338.7" y2="2327.5" gradientUnits="userSpaceOnUse">
<stop stop-color="#8176B5"/>
<stop offset="1" stop-color="#76C4E2"/>
</linearGradient>
<linearGradient id="paint8_linear" x1="16017.9" y1="3574.49" x2="19383.1" y2="3574.49" gradientUnits="userSpaceOnUse">
<stop stop-color="#8176B5"/>
<stop offset="1" stop-color="#76C4E2"/>
</linearGradient>
</defs>
</svg>
