<svg width="600" height="145" viewBox="0 0 600 145" fill="none" xmlns="http://www.w3.org/2000/svg">
<path d="M236.5 32H364.5" stroke="#404242" stroke-width="0.5" stroke-linecap="round" stroke-linejoin="round"/>
<path d="M248.542 22.85H246.792V13.6434H243.643V12.142H251.692V13.6434H248.542V22.85Z" fill="#707070"/>
<path d="M257.266 14.6029C257.612 14.6029 257.898 14.6273 258.123 14.6761L257.954 16.2802C257.71 16.2216 257.456 16.1923 257.192 16.1923C256.504 16.1923 255.945 16.4169 255.515 16.8661C255.09 17.3153 254.878 17.8988 254.878 18.6166V22.85H253.157V14.7494H254.504L254.731 16.1776H254.819C255.088 15.6942 255.437 15.3109 255.867 15.0277C256.301 14.7445 256.768 14.6029 257.266 14.6029Z" fill="#707070"/>
<path d="M264.7 22.85L264.355 21.722H264.297C263.906 22.2152 263.513 22.5521 263.118 22.7328C262.722 22.9086 262.214 22.9965 261.594 22.9965C260.798 22.9965 260.176 22.7816 259.727 22.3519C259.282 21.9222 259.06 21.3143 259.06 20.5282C259.06 19.6932 259.37 19.0634 259.99 18.6385C260.61 18.2137 261.555 17.9818 262.825 17.9427L264.224 17.8988V17.4667C264.224 16.9491 264.102 16.5634 263.857 16.3094C263.618 16.0507 263.245 15.9213 262.737 15.9213C262.322 15.9213 261.924 15.9823 261.543 16.1044C261.162 16.2264 260.796 16.3705 260.444 16.5365L259.888 15.306C260.327 15.0765 260.808 14.9032 261.331 14.786C261.853 14.6639 262.346 14.6029 262.81 14.6029C263.84 14.6029 264.617 14.8275 265.139 15.2767C265.667 15.726 265.93 16.4315 265.93 17.3934V22.85H264.7ZM262.136 21.6781C262.761 21.6781 263.262 21.5048 263.638 21.1581C264.019 20.8065 264.209 20.3158 264.209 19.6859V18.9828L263.169 19.0267C262.358 19.056 261.768 19.1927 261.396 19.4369C261.03 19.6761 260.847 20.0448 260.847 20.5428C260.847 20.9042 260.955 21.1849 261.169 21.3851C261.384 21.5804 261.707 21.6781 262.136 21.6781Z" fill="#707070"/>
<path d="M275.459 22.85H273.73V17.8695C273.73 17.2445 273.604 16.7782 273.35 16.4706C273.101 16.163 272.703 16.0092 272.156 16.0092C271.428 16.0092 270.896 16.224 270.559 16.6537C270.222 17.0834 270.054 17.8036 270.054 18.8143V22.85H268.333V14.7494H269.68L269.922 15.8114H270.01C270.254 15.4257 270.601 15.1278 271.05 14.9178C271.499 14.7079 271.997 14.6029 272.544 14.6029C274.487 14.6029 275.459 15.5917 275.459 17.5692V22.85Z" fill="#707070"/>
<path d="M283.296 20.5428C283.296 21.3339 283.008 21.9418 282.432 22.3666C281.855 22.7865 281.03 22.9965 279.956 22.9965C278.877 22.9965 278.01 22.8329 277.356 22.5057V21.0189C278.308 21.4584 279.194 21.6781 280.015 21.6781C281.074 21.6781 281.604 21.3583 281.604 20.7186C281.604 20.5135 281.545 20.3427 281.428 20.2059C281.311 20.0692 281.118 19.9276 280.85 19.7811C280.581 19.6346 280.208 19.4686 279.729 19.2831C278.796 18.9218 278.164 18.5604 277.832 18.1991C277.505 17.8378 277.341 17.369 277.341 16.7928C277.341 16.0995 277.62 15.5624 278.176 15.1815C278.738 14.7958 279.5 14.6029 280.461 14.6029C281.414 14.6029 282.314 14.7958 283.164 15.1815L282.607 16.4779C281.733 16.1166 280.999 15.9359 280.403 15.9359C279.495 15.9359 279.041 16.1947 279.041 16.7123C279.041 16.9662 279.158 17.181 279.392 17.3568C279.631 17.5326 280.149 17.7743 280.945 18.0819C281.614 18.3407 282.1 18.5775 282.402 18.7924C282.705 19.0072 282.93 19.2562 283.076 19.5394C283.223 19.8177 283.296 20.1522 283.296 20.5428Z" fill="#707070"/>
<path d="M289.272 22.9965C288.247 22.9965 287.451 22.6278 286.885 21.8905H286.782C286.851 22.5741 286.885 22.9891 286.885 23.1356V26.4535H285.164V14.7494H286.555C286.594 14.9008 286.675 15.2621 286.797 15.8334H286.885C287.422 15.0131 288.228 14.6029 289.302 14.6029C290.312 14.6029 291.099 14.9691 291.66 15.7015C292.227 16.434 292.51 17.4618 292.51 18.785C292.51 20.1083 292.222 21.141 291.646 21.8832C291.074 22.6254 290.283 22.9965 289.272 22.9965ZM288.855 16.0092C288.171 16.0092 287.671 16.2094 287.354 16.6097C287.041 17.0101 286.885 17.6498 286.885 18.5287V18.785C286.885 19.7714 287.041 20.4867 287.354 20.931C287.666 21.3705 288.176 21.5902 288.884 21.5902C289.48 21.5902 289.939 21.3461 290.261 20.8578C290.583 20.3695 290.745 19.6737 290.745 18.7704C290.745 17.8622 290.583 17.1761 290.261 16.7123C289.944 16.2435 289.475 16.0092 288.855 16.0092Z" fill="#707070"/>
<path d="M301.694 18.785C301.694 20.1083 301.355 21.141 300.676 21.8832C299.998 22.6254 299.053 22.9965 297.842 22.9965C297.085 22.9965 296.416 22.8256 295.835 22.4838C295.254 22.142 294.807 21.6512 294.495 21.0116C294.182 20.3719 294.026 19.6298 294.026 18.785C294.026 17.4716 294.363 16.4462 295.037 15.7089C295.71 14.9716 296.66 14.6029 297.886 14.6029C299.058 14.6029 299.985 14.9813 300.669 15.7382C301.353 16.4901 301.694 17.5057 301.694 18.785ZM295.798 18.785C295.798 20.6552 296.489 21.5902 297.871 21.5902C299.238 21.5902 299.922 20.6552 299.922 18.785C299.922 16.9344 299.233 16.0092 297.856 16.0092C297.134 16.0092 296.609 16.2484 296.282 16.7269C295.959 17.2054 295.798 17.8915 295.798 18.785Z" fill="#707070"/>
<path d="M307.788 14.6029C308.135 14.6029 308.42 14.6273 308.645 14.6761L308.477 16.2802C308.232 16.2216 307.979 16.1923 307.715 16.1923C307.026 16.1923 306.467 16.4169 306.038 16.8661C305.613 17.3153 305.4 17.8988 305.4 18.6166V22.85H303.679V14.7494H305.027L305.254 16.1776H305.342C305.61 15.6942 305.959 15.3109 306.389 15.0277C306.824 14.7445 307.29 14.6029 307.788 14.6029Z" fill="#707070"/>
<path d="M313.171 21.6049C313.591 21.6049 314.011 21.5389 314.431 21.4071V22.7035C314.241 22.7865 313.994 22.8549 313.691 22.9086C313.394 22.9672 313.083 22.9965 312.761 22.9965C311.13 22.9965 310.315 22.1371 310.315 20.4183V16.0531H309.209V15.2914L310.396 14.6615L310.981 12.9476H312.043V14.7494H314.351V16.0531H312.043V20.389C312.043 20.8041 312.146 21.1117 312.351 21.3119C312.561 21.5072 312.834 21.6049 313.171 21.6049Z" fill="#707070"/>
<path d="M320.137 22.85V12.142H321.887V21.3485H326.421V22.85H320.137Z" fill="#707070"/>
<path d="M333.152 22.85L332.808 21.722H332.749C332.358 22.2152 331.965 22.5521 331.57 22.7328C331.174 22.9086 330.667 22.9965 330.046 22.9965C329.25 22.9965 328.628 22.7816 328.179 22.3519C327.734 21.9222 327.512 21.3143 327.512 20.5282C327.512 19.6932 327.822 19.0634 328.442 18.6385C329.062 18.2137 330.007 17.9818 331.277 17.9427L332.676 17.8988V17.4667C332.676 16.9491 332.554 16.5634 332.31 16.3094C332.07 16.0507 331.697 15.9213 331.189 15.9213C330.774 15.9213 330.376 15.9823 329.995 16.1044C329.614 16.2264 329.248 16.3705 328.896 16.5365L328.34 15.306C328.779 15.0765 329.26 14.9032 329.783 14.786C330.305 14.6639 330.798 14.6029 331.262 14.6029C332.292 14.6029 333.069 14.8275 333.591 15.2767C334.119 15.726 334.382 16.4315 334.382 17.3934V22.85H333.152ZM330.588 21.6781C331.213 21.6781 331.714 21.5048 332.09 21.1581C332.471 20.8065 332.661 20.3158 332.661 19.6859V18.9828L331.621 19.0267C330.811 19.056 330.22 19.1927 329.849 19.4369C329.482 19.6761 329.299 20.0448 329.299 20.5428C329.299 20.9042 329.407 21.1849 329.622 21.3851C329.836 21.5804 330.159 21.6781 330.588 21.6781Z" fill="#707070"/>
<path d="M335.554 14.7494H337.429L339.077 19.3417C339.326 19.996 339.492 20.6112 339.575 21.1874H339.634C339.678 20.9188 339.758 20.5941 339.875 20.2133C339.993 19.8275 340.613 18.0062 341.736 14.7494H343.596L340.132 23.9266C339.502 25.6112 338.452 26.4535 336.982 26.4535C336.602 26.4535 336.23 26.412 335.869 26.329V24.9667C336.128 25.0253 336.423 25.0546 336.755 25.0546C337.585 25.0546 338.169 24.5736 338.506 23.6117L338.806 22.85L335.554 14.7494Z" fill="#707070"/>
<path d="M348.364 22.9965C347.104 22.9965 346.118 22.6302 345.405 21.8978C344.697 21.1605 344.343 20.1473 344.343 18.8583C344.343 17.535 344.673 16.495 345.332 15.7382C345.991 14.9813 346.897 14.6029 348.049 14.6029C349.119 14.6029 349.963 14.9276 350.583 15.577C351.204 16.2264 351.514 17.12 351.514 18.2577V19.1879H346.116C346.14 19.974 346.353 20.5795 346.753 21.0043C347.153 21.4242 347.717 21.6342 348.445 21.6342C348.923 21.6342 349.368 21.5902 349.778 21.5023C350.193 21.4095 350.637 21.2582 351.111 21.0482V22.4471C350.691 22.6473 350.266 22.7889 349.836 22.8719C349.407 22.955 348.916 22.9965 348.364 22.9965ZM348.049 15.9066C347.502 15.9066 347.063 16.08 346.731 16.4266C346.404 16.7733 346.208 17.2787 346.145 17.9427H349.822C349.812 17.2738 349.651 16.7684 349.338 16.4266C349.026 16.08 348.596 15.9066 348.049 15.9066Z" fill="#707070"/>
<path d="M357.578 14.6029C357.925 14.6029 358.21 14.6273 358.435 14.6761L358.267 16.2802C358.022 16.2216 357.769 16.1923 357.505 16.1923C356.816 16.1923 356.257 16.4169 355.828 16.8661C355.403 17.3153 355.19 17.8988 355.19 18.6166V22.85H353.469V14.7494H354.817L355.044 16.1776H355.132C355.4 15.6942 355.75 15.3109 356.179 15.0277C356.614 14.7445 357.08 14.6029 357.578 14.6029Z" fill="#707070"/>
<path d="M277.699 124.92H276.416V118.169H274.106V117.067H280.009V118.169H277.699V124.92Z" fill="#707070"/>
<path d="M284.096 118.872C284.35 118.872 284.56 118.89 284.725 118.926L284.601 120.102C284.422 120.059 284.236 120.038 284.042 120.038C283.538 120.038 283.128 120.202 282.812 120.532C282.501 120.861 282.345 121.289 282.345 121.815V124.92H281.083V118.98H282.071L282.238 120.027H282.302C282.499 119.672 282.755 119.391 283.07 119.184C283.389 118.976 283.731 118.872 284.096 118.872Z" fill="#707070"/>
<path d="M289.548 124.92L289.295 124.093H289.252C288.966 124.454 288.678 124.702 288.388 124.834C288.098 124.963 287.725 125.027 287.271 125.027C286.687 125.027 286.23 124.87 285.901 124.555C285.575 124.24 285.412 123.794 285.412 123.217C285.412 122.605 285.639 122.143 286.094 121.832C286.549 121.52 287.242 121.35 288.173 121.321L289.199 121.289V120.972C289.199 120.593 289.109 120.31 288.93 120.124C288.755 119.934 288.481 119.839 288.108 119.839C287.804 119.839 287.512 119.884 287.233 119.973C286.954 120.063 286.685 120.168 286.427 120.29L286.019 119.388C286.341 119.219 286.694 119.092 287.077 119.006C287.46 118.917 287.822 118.872 288.162 118.872C288.918 118.872 289.487 119.037 289.87 119.366C290.257 119.696 290.45 120.213 290.45 120.919V124.92H289.548ZM287.668 124.061C288.126 124.061 288.493 123.933 288.769 123.679C289.048 123.421 289.188 123.062 289.188 122.6V122.084L288.425 122.116C287.831 122.138 287.398 122.238 287.125 122.417C286.857 122.593 286.723 122.863 286.723 123.228C286.723 123.493 286.801 123.699 286.959 123.846C287.117 123.989 287.353 124.061 287.668 124.061Z" fill="#707070"/>
<path d="M297.438 124.92H296.17V121.268C296.17 120.809 296.077 120.467 295.891 120.242C295.708 120.016 295.417 119.903 295.016 119.903C294.482 119.903 294.092 120.061 293.845 120.376C293.598 120.691 293.474 121.219 293.474 121.961V124.92H292.212V118.98H293.2L293.377 119.758H293.442C293.621 119.475 293.875 119.257 294.205 119.103C294.534 118.949 294.899 118.872 295.3 118.872C296.725 118.872 297.438 119.597 297.438 121.047V124.92Z" fill="#707070"/>
<path d="M303.185 123.228C303.185 123.808 302.974 124.254 302.551 124.565C302.129 124.873 301.524 125.027 300.736 125.027C299.944 125.027 299.309 124.907 298.829 124.668V123.577C299.527 123.899 300.177 124.061 300.779 124.061C301.556 124.061 301.944 123.826 301.944 123.357C301.944 123.207 301.901 123.081 301.815 122.981C301.729 122.881 301.588 122.777 301.391 122.669C301.194 122.562 300.92 122.44 300.569 122.304C299.885 122.039 299.422 121.774 299.178 121.509C298.938 121.244 298.818 120.901 298.818 120.478C298.818 119.97 299.022 119.576 299.431 119.296C299.842 119.014 300.401 118.872 301.106 118.872C301.805 118.872 302.465 119.014 303.088 119.296L302.68 120.247C302.039 119.982 301.5 119.85 301.063 119.85C300.397 119.85 300.064 120.039 300.064 120.419C300.064 120.605 300.15 120.763 300.322 120.892C300.498 121.021 300.877 121.198 301.461 121.423C301.951 121.613 302.308 121.787 302.53 121.944C302.752 122.102 302.917 122.285 303.024 122.492C303.131 122.696 303.185 122.942 303.185 123.228Z" fill="#707070"/>
<path d="M307.568 125.027C306.816 125.027 306.232 124.757 305.817 124.216H305.742C305.792 124.718 305.817 125.022 305.817 125.129V127.563H304.555V118.98H305.575C305.604 119.091 305.663 119.356 305.752 119.774H305.817C306.211 119.173 306.802 118.872 307.589 118.872C308.331 118.872 308.907 119.141 309.319 119.678C309.734 120.215 309.942 120.969 309.942 121.939C309.942 122.909 309.731 123.667 309.308 124.211C308.889 124.755 308.309 125.027 307.568 125.027ZM307.262 119.903C306.76 119.903 306.393 120.05 306.161 120.344C305.931 120.637 305.817 121.107 305.817 121.751V121.939C305.817 122.662 305.931 123.187 306.161 123.513C306.39 123.835 306.764 123.996 307.283 123.996C307.72 123.996 308.057 123.817 308.293 123.459C308.529 123.101 308.647 122.591 308.647 121.928C308.647 121.262 308.529 120.759 308.293 120.419C308.06 120.075 307.716 119.903 307.262 119.903Z" fill="#707070"/>
<path d="M316.677 121.939C316.677 122.909 316.428 123.667 315.931 124.211C315.433 124.755 314.74 125.027 313.852 125.027C313.297 125.027 312.806 124.902 312.38 124.651C311.954 124.401 311.627 124.041 311.397 123.572C311.168 123.103 311.054 122.558 311.054 121.939C311.054 120.976 311.301 120.224 311.795 119.683C312.289 119.142 312.986 118.872 313.884 118.872C314.744 118.872 315.424 119.15 315.925 119.705C316.427 120.256 316.677 121.001 316.677 121.939ZM312.354 121.939C312.354 123.31 312.86 123.996 313.874 123.996C314.876 123.996 315.377 123.31 315.377 121.939C315.377 120.582 314.873 119.903 313.863 119.903C313.333 119.903 312.948 120.079 312.708 120.43C312.472 120.781 312.354 121.284 312.354 121.939Z" fill="#707070"/>
<path d="M321.146 118.872C321.4 118.872 321.61 118.89 321.774 118.926L321.651 120.102C321.472 120.059 321.286 120.038 321.092 120.038C320.587 120.038 320.177 120.202 319.862 120.532C319.551 120.861 319.395 121.289 319.395 121.815V124.92H318.133V118.98H319.121L319.288 120.027H319.352C319.549 119.672 319.805 119.391 320.12 119.184C320.439 118.976 320.781 118.872 321.146 118.872Z" fill="#707070"/>
<path d="M325.094 124.007C325.402 124.007 325.71 123.959 326.018 123.862V124.813C325.878 124.873 325.697 124.924 325.475 124.963C325.257 125.006 325.029 125.027 324.793 125.027C323.597 125.027 322.999 124.397 322.999 123.137V119.936H322.188V119.377L323.058 118.915L323.488 117.658H324.267V118.98H325.958V119.936H324.267V123.115C324.267 123.42 324.342 123.645 324.492 123.792C324.646 123.935 324.847 124.007 325.094 124.007Z" fill="#707070"/>
<path d="M93.2446 123.038C93.2446 123.736 92.9922 124.284 92.4873 124.681C91.9824 125.079 91.286 125.277 90.3979 125.277C89.5099 125.277 88.783 125.14 88.2173 124.864V123.65C88.5754 123.818 88.9549 123.951 89.356 124.047C89.7606 124.144 90.1366 124.192 90.4839 124.192C90.9924 124.192 91.3665 124.096 91.6064 123.902C91.8499 123.709 91.9717 123.449 91.9717 123.124C91.9717 122.83 91.8607 122.581 91.6387 122.377C91.4167 122.173 90.9583 121.931 90.2637 121.652C89.5475 121.362 89.0426 121.031 88.749 120.658C88.4554 120.286 88.3086 119.838 88.3086 119.315C88.3086 118.66 88.5413 118.145 89.0068 117.769C89.4723 117.393 90.0972 117.205 90.8813 117.205C91.6333 117.205 92.3817 117.369 93.1265 117.699L92.7183 118.746C92.02 118.453 91.397 118.306 90.8491 118.306C90.4338 118.306 90.1187 118.397 89.9038 118.58C89.689 118.759 89.5815 118.997 89.5815 119.294C89.5815 119.498 89.6245 119.674 89.7104 119.82C89.7964 119.964 89.9378 120.1 90.1348 120.229C90.3317 120.357 90.6862 120.528 91.1982 120.739C91.7747 120.979 92.1973 121.203 92.4658 121.41C92.7344 121.618 92.9313 121.852 93.0566 122.114C93.182 122.375 93.2446 122.683 93.2446 123.038Z" fill="#707070"/>
<path d="M97.2246 125.277C96.3008 125.277 95.5775 125.009 95.0547 124.472C94.5355 123.931 94.2759 123.188 94.2759 122.243C94.2759 121.272 94.5176 120.51 95.001 119.955C95.4844 119.4 96.1486 119.122 96.9937 119.122C97.7778 119.122 98.3973 119.36 98.8521 119.836C99.3068 120.313 99.5342 120.968 99.5342 121.802V122.484H95.5757C95.5936 123.061 95.7493 123.505 96.043 123.816C96.3366 124.124 96.7502 124.278 97.2837 124.278C97.6346 124.278 97.9604 124.246 98.2612 124.182C98.5656 124.114 98.8914 124.003 99.2388 123.849V124.875C98.9308 125.021 98.6193 125.125 98.3042 125.186C97.9891 125.247 97.6292 125.277 97.2246 125.277ZM96.9937 120.078C96.5926 120.078 96.2703 120.205 96.0269 120.46C95.7869 120.714 95.6437 121.084 95.5972 121.571H98.2935C98.2863 121.081 98.1681 120.71 97.939 120.46C97.7098 120.205 97.3947 120.078 96.9937 120.078Z" fill="#707070"/>
<path d="M105.985 119.23V119.922L104.97 120.11C105.063 120.236 105.14 120.39 105.201 120.572C105.262 120.755 105.292 120.948 105.292 121.152C105.292 121.765 105.081 122.246 104.658 122.597C104.236 122.948 103.654 123.124 102.913 123.124C102.723 123.124 102.551 123.109 102.397 123.081C102.125 123.249 101.989 123.446 101.989 123.671C101.989 123.808 102.051 123.91 102.177 123.978C102.306 124.046 102.54 124.08 102.88 124.08H103.917C104.572 124.08 105.07 124.219 105.41 124.499C105.75 124.778 105.92 125.181 105.92 125.707C105.92 126.38 105.643 126.899 105.088 127.265C104.533 127.63 103.731 127.813 102.682 127.813C101.872 127.813 101.255 127.669 100.829 127.383C100.403 127.096 100.189 126.688 100.189 126.158C100.189 125.793 100.304 125.485 100.533 125.234C100.766 124.987 101.09 124.815 101.505 124.719C101.337 124.647 101.197 124.533 101.086 124.375C100.979 124.214 100.925 124.046 100.925 123.87C100.925 123.648 100.988 123.46 101.113 123.306C101.239 123.152 101.425 123 101.672 122.85C101.364 122.717 101.113 122.502 100.92 122.205C100.73 121.904 100.635 121.553 100.635 121.152C100.635 120.508 100.838 120.008 101.242 119.654C101.65 119.299 102.23 119.122 102.982 119.122C103.151 119.122 103.326 119.135 103.509 119.16C103.695 119.181 103.835 119.204 103.928 119.23H105.985ZM101.317 126.094C101.317 126.366 101.439 126.575 101.683 126.722C101.93 126.869 102.275 126.942 102.719 126.942C103.407 126.942 103.919 126.844 104.255 126.647C104.592 126.45 104.76 126.189 104.76 125.863C104.76 125.605 104.667 125.421 104.481 125.31C104.298 125.202 103.956 125.148 103.455 125.148H102.499C102.137 125.148 101.849 125.233 101.634 125.401C101.423 125.573 101.317 125.804 101.317 126.094ZM101.86 121.152C101.86 121.525 101.955 121.811 102.145 122.012C102.338 122.212 102.614 122.313 102.972 122.313C103.702 122.313 104.067 121.922 104.067 121.142C104.067 120.755 103.976 120.458 103.793 120.25C103.614 120.039 103.34 119.933 102.972 119.933C102.606 119.933 102.329 120.037 102.139 120.245C101.953 120.452 101.86 120.755 101.86 121.152Z" fill="#707070"/>
<path d="M112.097 125.17H110.83V121.507C110.83 121.052 110.744 120.714 110.572 120.492C110.4 120.266 110.131 120.153 109.766 120.153C109.279 120.153 108.921 120.313 108.692 120.631C108.466 120.947 108.354 121.473 108.354 122.211V125.17H107.091V119.23H108.08L108.257 120.008H108.321C108.486 119.725 108.724 119.507 109.036 119.353C109.351 119.199 109.696 119.122 110.072 119.122C110.985 119.122 111.59 119.434 111.888 120.057H111.974C112.149 119.763 112.396 119.534 112.715 119.369C113.034 119.204 113.399 119.122 113.811 119.122C114.52 119.122 115.035 119.301 115.357 119.659C115.683 120.017 115.846 120.563 115.846 121.297V125.17H114.584V121.507C114.584 121.052 114.496 120.714 114.321 120.492C114.149 120.266 113.88 120.153 113.515 120.153C113.025 120.153 112.665 120.307 112.436 120.615C112.21 120.92 112.097 121.389 112.097 122.023V125.17Z" fill="#707070"/>
<path d="M120.202 125.277C119.278 125.277 118.555 125.009 118.032 124.472C117.513 123.931 117.253 123.188 117.253 122.243C117.253 121.272 117.495 120.51 117.979 119.955C118.462 119.4 119.126 119.122 119.971 119.122C120.755 119.122 121.375 119.36 121.83 119.836C122.284 120.313 122.512 120.968 122.512 121.802V122.484H118.553C118.571 123.061 118.727 123.505 119.021 123.816C119.314 124.124 119.728 124.278 120.261 124.278C120.612 124.278 120.938 124.246 121.239 124.182C121.543 124.114 121.869 124.003 122.216 123.849V124.875C121.908 125.021 121.597 125.125 121.282 125.186C120.967 125.247 120.607 125.277 120.202 125.277ZM119.971 120.078C119.57 120.078 119.248 120.205 119.004 120.46C118.764 120.714 118.621 121.084 118.575 121.571H121.271C121.264 121.081 121.146 120.71 120.917 120.46C120.687 120.205 120.372 120.078 119.971 120.078Z" fill="#707070"/>
<path d="M129.172 125.17H127.904V121.518C127.904 121.059 127.811 120.717 127.625 120.492C127.442 120.266 127.151 120.153 126.75 120.153C126.216 120.153 125.826 120.311 125.579 120.626C125.332 120.941 125.208 121.469 125.208 122.211V125.17H123.946V119.23H124.934L125.111 120.008H125.176C125.355 119.725 125.609 119.507 125.938 119.353C126.268 119.199 126.633 119.122 127.034 119.122C128.459 119.122 129.172 119.847 129.172 121.297V125.17Z" fill="#707070"/>
<path d="M133.141 124.257C133.449 124.257 133.757 124.209 134.065 124.112V125.063C133.925 125.123 133.744 125.174 133.522 125.213C133.304 125.256 133.077 125.277 132.84 125.277C131.644 125.277 131.046 124.647 131.046 123.387V120.186H130.235V119.627L131.105 119.165L131.535 117.908H132.314V119.23H134.006V120.186H132.314V123.365C132.314 123.67 132.389 123.895 132.54 124.042C132.694 124.185 132.894 124.257 133.141 124.257Z" fill="#707070"/>
<path d="M138.974 125.17L138.722 124.343H138.679C138.392 124.704 138.104 124.952 137.814 125.084C137.524 125.213 137.152 125.277 136.697 125.277C136.113 125.277 135.657 125.12 135.327 124.805C135.001 124.49 134.838 124.044 134.838 123.467C134.838 122.855 135.066 122.393 135.521 122.082C135.975 121.77 136.668 121.6 137.599 121.571L138.625 121.539V121.222C138.625 120.843 138.535 120.56 138.356 120.374C138.181 120.184 137.907 120.089 137.535 120.089C137.23 120.089 136.938 120.134 136.659 120.223C136.38 120.313 136.111 120.418 135.854 120.54L135.445 119.638C135.768 119.469 136.12 119.342 136.503 119.256C136.887 119.167 137.248 119.122 137.588 119.122C138.344 119.122 138.913 119.287 139.296 119.616C139.683 119.946 139.876 120.463 139.876 121.169V125.17H138.974ZM137.094 124.311C137.553 124.311 137.92 124.183 138.195 123.929C138.475 123.671 138.614 123.312 138.614 122.85V122.334L137.852 122.366C137.257 122.388 136.824 122.488 136.552 122.667C136.283 122.843 136.149 123.113 136.149 123.478C136.149 123.743 136.228 123.949 136.385 124.096C136.543 124.239 136.779 124.311 137.094 124.311Z" fill="#707070"/>
<path d="M143.851 124.257C144.159 124.257 144.467 124.209 144.775 124.112V125.063C144.635 125.123 144.454 125.174 144.232 125.213C144.014 125.256 143.787 125.277 143.55 125.277C142.354 125.277 141.756 124.647 141.756 123.387V120.186H140.945V119.627L141.815 119.165L142.245 117.908H143.024V119.23H144.716V120.186H143.024V123.365C143.024 123.67 143.099 123.895 143.25 124.042C143.403 124.185 143.604 124.257 143.851 124.257Z" fill="#707070"/>
<path d="M147.229 125.17H145.967V119.23H147.229V125.17ZM145.892 117.656C145.892 117.43 145.953 117.257 146.075 117.135C146.2 117.013 146.377 116.952 146.606 116.952C146.828 116.952 147 117.013 147.122 117.135C147.247 117.257 147.31 117.43 147.31 117.656C147.31 117.871 147.247 118.041 147.122 118.166C147 118.288 146.828 118.349 146.606 118.349C146.377 118.349 146.2 118.288 146.075 118.166C145.953 118.041 145.892 117.871 145.892 117.656Z" fill="#707070"/>
<path d="M154.309 122.189C154.309 123.159 154.06 123.917 153.562 124.461C153.064 125.005 152.371 125.277 151.483 125.277C150.928 125.277 150.438 125.152 150.012 124.901C149.586 124.651 149.258 124.291 149.029 123.822C148.8 123.353 148.685 122.808 148.685 122.189C148.685 121.226 148.932 120.474 149.426 119.933C149.92 119.392 150.617 119.122 151.516 119.122C152.375 119.122 153.055 119.4 153.557 119.955C154.058 120.506 154.309 121.251 154.309 122.189ZM149.985 122.189C149.985 123.56 150.492 124.246 151.505 124.246C152.507 124.246 153.009 123.56 153.009 122.189C153.009 120.832 152.504 120.153 151.494 120.153C150.964 120.153 150.579 120.329 150.339 120.68C150.103 121.031 149.985 121.534 149.985 122.189Z" fill="#707070"/>
<path d="M160.99 125.17H159.723V121.518C159.723 121.059 159.63 120.717 159.443 120.492C159.261 120.266 158.969 120.153 158.568 120.153C158.034 120.153 157.644 120.311 157.397 120.626C157.15 120.941 157.026 121.469 157.026 122.211V125.17H155.764V119.23H156.752L156.93 120.008H156.994C157.173 119.725 157.427 119.507 157.757 119.353C158.086 119.199 158.451 119.122 158.853 119.122C160.278 119.122 160.99 119.847 160.99 121.297V125.17Z" fill="#707070"/>
<path d="M440.01 120.97H440.902C441.5 120.97 441.933 120.859 442.202 120.637C442.47 120.415 442.604 120.085 442.604 119.648C442.604 119.204 442.459 118.886 442.169 118.692C441.879 118.499 441.443 118.402 440.859 118.402H440.01V120.97ZM440.01 122.033V125.17H438.727V117.317H440.945C441.958 117.317 442.708 117.507 443.195 117.887C443.682 118.266 443.926 118.839 443.926 119.606C443.926 120.583 443.417 121.28 442.4 121.695L444.619 125.17H443.158L441.278 122.033H440.01Z" fill="#707070"/>
<path d="M448.223 125.277C447.299 125.277 446.576 125.009 446.053 124.472C445.534 123.931 445.274 123.188 445.274 122.243C445.274 121.272 445.516 120.51 445.999 119.955C446.482 119.4 447.147 119.122 447.992 119.122C448.776 119.122 449.395 119.36 449.85 119.836C450.305 120.313 450.532 120.968 450.532 121.802V122.484H446.574C446.592 123.061 446.747 123.505 447.041 123.816C447.335 124.124 447.748 124.278 448.282 124.278C448.633 124.278 448.958 124.246 449.259 124.182C449.564 124.114 449.889 124.003 450.237 123.849V124.875C449.929 125.021 449.617 125.125 449.302 125.186C448.987 125.247 448.627 125.277 448.223 125.277ZM447.992 120.078C447.591 120.078 447.268 120.205 447.025 120.46C446.785 120.714 446.642 121.084 446.595 121.571H449.292C449.284 121.081 449.166 120.71 448.937 120.46C448.708 120.205 448.393 120.078 447.992 120.078Z" fill="#707070"/>
<path d="M455.683 125.17L455.431 124.343H455.388C455.101 124.704 454.813 124.952 454.523 125.084C454.233 125.213 453.861 125.277 453.406 125.277C452.822 125.277 452.366 125.12 452.036 124.805C451.71 124.49 451.547 124.044 451.547 123.467C451.547 122.855 451.775 122.393 452.229 122.082C452.684 121.77 453.377 121.6 454.308 121.571L455.334 121.539V121.222C455.334 120.843 455.244 120.56 455.065 120.374C454.89 120.184 454.616 120.089 454.244 120.089C453.939 120.089 453.647 120.134 453.368 120.223C453.089 120.313 452.82 120.418 452.562 120.54L452.154 119.638C452.477 119.469 452.829 119.342 453.212 119.256C453.596 119.167 453.957 119.122 454.297 119.122C455.053 119.122 455.622 119.287 456.005 119.616C456.392 119.946 456.585 120.463 456.585 121.169V125.17H455.683ZM453.803 124.311C454.262 124.311 454.629 124.183 454.904 123.929C455.184 123.671 455.323 123.312 455.323 122.85V122.334L454.561 122.366C453.966 122.388 453.533 122.488 453.261 122.667C452.992 122.843 452.858 123.113 452.858 123.478C452.858 123.743 452.937 123.949 453.094 124.096C453.252 124.239 453.488 124.311 453.803 124.311Z" fill="#707070"/>
<path d="M462.338 123.478C462.338 124.058 462.127 124.504 461.704 124.815C461.282 125.123 460.676 125.277 459.889 125.277C459.097 125.277 458.462 125.157 457.982 124.918V123.827C458.68 124.149 459.33 124.311 459.932 124.311C460.709 124.311 461.097 124.076 461.097 123.607C461.097 123.457 461.054 123.331 460.968 123.231C460.882 123.131 460.741 123.027 460.544 122.919C460.347 122.812 460.073 122.69 459.722 122.554C459.038 122.289 458.575 122.024 458.331 121.759C458.091 121.494 457.971 121.151 457.971 120.728C457.971 120.22 458.175 119.826 458.583 119.546C458.995 119.264 459.554 119.122 460.259 119.122C460.958 119.122 461.618 119.264 462.241 119.546L461.833 120.497C461.192 120.232 460.653 120.1 460.216 120.1C459.55 120.1 459.217 120.289 459.217 120.669C459.217 120.855 459.303 121.013 459.475 121.142C459.651 121.271 460.03 121.448 460.614 121.673C461.104 121.863 461.461 122.037 461.683 122.194C461.905 122.352 462.069 122.535 462.177 122.742C462.284 122.946 462.338 123.192 462.338 123.478Z" fill="#707070"/>
<path d="M467.698 123.478C467.698 124.058 467.487 124.504 467.064 124.815C466.642 125.123 466.037 125.277 465.249 125.277C464.458 125.277 463.822 125.157 463.342 124.918V123.827C464.041 124.149 464.69 124.311 465.292 124.311C466.069 124.311 466.458 124.076 466.458 123.607C466.458 123.457 466.415 123.331 466.329 123.231C466.243 123.131 466.101 123.027 465.904 122.919C465.707 122.812 465.433 122.69 465.083 122.554C464.399 122.289 463.935 122.024 463.691 121.759C463.451 121.494 463.332 121.151 463.332 120.728C463.332 120.22 463.536 119.826 463.944 119.546C464.356 119.264 464.914 119.122 465.62 119.122C466.318 119.122 466.979 119.264 467.602 119.546L467.193 120.497C466.552 120.232 466.014 120.1 465.577 120.1C464.911 120.1 464.578 120.289 464.578 120.669C464.578 120.855 464.664 121.013 464.835 121.142C465.011 121.271 465.39 121.448 465.974 121.673C466.465 121.863 466.821 122.037 467.043 122.194C467.265 122.352 467.43 122.535 467.537 122.742C467.645 122.946 467.698 123.192 467.698 123.478Z" fill="#707070"/>
<path d="M471.662 125.277C470.738 125.277 470.015 125.009 469.492 124.472C468.973 123.931 468.713 123.188 468.713 122.243C468.713 121.272 468.955 120.51 469.438 119.955C469.922 119.4 470.586 119.122 471.431 119.122C472.215 119.122 472.835 119.36 473.29 119.836C473.744 120.313 473.972 120.968 473.972 121.802V122.484H470.013C470.031 123.061 470.187 123.505 470.48 123.816C470.774 124.124 471.188 124.278 471.721 124.278C472.072 124.278 472.398 124.246 472.699 124.182C473.003 124.114 473.329 124.003 473.676 123.849V124.875C473.368 125.021 473.057 125.125 472.742 125.186C472.427 125.247 472.067 125.277 471.662 125.277ZM471.431 120.078C471.03 120.078 470.708 120.205 470.464 120.46C470.224 120.714 470.081 121.084 470.035 121.571H472.731C472.724 121.081 472.606 120.71 472.376 120.46C472.147 120.205 471.832 120.078 471.431 120.078Z" fill="#707070"/>
<path d="M480.412 125.17H479.144V121.507C479.144 121.052 479.058 120.714 478.886 120.492C478.714 120.266 478.446 120.153 478.081 120.153C477.594 120.153 477.236 120.313 477.006 120.631C476.781 120.947 476.668 121.473 476.668 122.211V125.17H475.406V119.23H476.394L476.571 120.008H476.636C476.8 119.725 477.039 119.507 477.35 119.353C477.665 119.199 478.011 119.122 478.387 119.122C479.3 119.122 479.905 119.434 480.202 120.057H480.288C480.464 119.763 480.711 119.534 481.029 119.369C481.348 119.204 481.713 119.122 482.125 119.122C482.834 119.122 483.35 119.301 483.672 119.659C483.998 120.017 484.161 120.563 484.161 121.297V125.17H482.898V121.507C482.898 121.052 482.811 120.714 482.635 120.492C482.463 120.266 482.195 120.153 481.83 120.153C481.339 120.153 480.979 120.307 480.75 120.615C480.524 120.92 480.412 121.389 480.412 122.023V125.17Z" fill="#707070"/>
<path d="M488.957 119.122C489.698 119.122 490.275 119.391 490.687 119.928C491.102 120.465 491.31 121.219 491.31 122.189C491.31 123.163 491.1 123.922 490.681 124.466C490.262 125.007 489.68 125.277 488.936 125.277C488.184 125.277 487.6 125.007 487.185 124.466H487.099L486.868 125.17H485.922V116.813H487.185V118.8C487.185 118.947 487.177 119.165 487.163 119.455C487.149 119.745 487.138 119.93 487.131 120.008H487.185C487.586 119.418 488.176 119.122 488.957 119.122ZM488.629 120.153C488.121 120.153 487.754 120.304 487.528 120.605C487.306 120.902 487.192 121.401 487.185 122.103V122.189C487.185 122.912 487.299 123.437 487.528 123.763C487.757 124.085 488.132 124.246 488.651 124.246C489.098 124.246 489.437 124.069 489.666 123.714C489.899 123.36 490.015 122.848 490.015 122.178C490.015 120.828 489.553 120.153 488.629 120.153Z" fill="#707070"/>
<path d="M494.038 125.17H492.776V116.813H494.038V125.17Z" fill="#707070"/>
<path d="M494.946 119.23H496.321L497.529 122.597C497.712 123.077 497.834 123.528 497.895 123.951H497.938C497.97 123.754 498.029 123.516 498.115 123.236C498.201 122.954 498.655 121.618 499.479 119.23H500.843L498.303 125.96C497.841 127.195 497.071 127.813 495.993 127.813C495.714 127.813 495.442 127.782 495.177 127.721V126.722C495.367 126.765 495.583 126.787 495.827 126.787C496.435 126.787 496.863 126.434 497.11 125.729L497.331 125.17L494.946 119.23Z" fill="#707070"/>
<path d="M469.45 52.81C474.197 52.81 478.837 54.2176 482.784 56.8547C486.731 59.4919 489.807 63.2402 491.623 67.6256C493.44 72.011 493.915 76.8366 492.989 81.4922C492.063 86.1477 489.777 90.4241 486.421 93.7806C483.064 97.137 478.788 99.4228 474.132 100.349C469.477 101.275 464.651 100.8 460.266 98.9831C455.88 97.1666 452.132 94.0905 449.495 90.1437C446.858 86.1969 445.45 81.5567 445.45 76.81C445.45 70.4448 447.979 64.3403 452.48 59.8394C456.981 55.3386 463.085 52.81 469.45 52.81V52.81ZM469.45 51.81C464.506 51.81 459.672 53.2762 455.561 56.0233C451.45 58.7703 448.245 62.6748 446.353 67.2429C444.461 71.8111 443.966 76.8377 444.931 81.6873C445.895 86.5368 448.276 90.9914 451.773 94.4877C455.269 97.984 459.723 100.365 464.573 101.33C469.422 102.294 474.449 101.799 479.017 99.907C483.585 98.0148 487.49 94.8105 490.237 90.6993C492.984 86.588 494.45 81.7545 494.45 76.81C494.45 70.1796 491.816 63.8207 487.128 59.1323C482.439 54.4439 476.081 51.81 469.45 51.81Z" fill="url(#paint0_linear)"/>
<path d="M182.9 88.41H230.61" stroke="#707070" stroke-width="2" stroke-linecap="round" stroke-linejoin="round"/>
<path d="M226.63 91.8L230.02 88.41L226.63 85.02H229.51L232.9 88.41L229.51 91.8H226.63Z" fill="#707070"/>
<path d="M367.1 88.41H414.82" stroke="#707070" stroke-width="2" stroke-linecap="round" stroke-linejoin="round"/>
<path d="M410.83 91.8L414.23 88.41L410.83 85.02H413.71L417.1 88.41L413.71 91.8H410.83Z" fill="#707070"/>
<path d="M125 77.5H100C100 77.5 100 101.5 125 102.5V76.5" stroke="url(#paint1_linear)" stroke-miterlimit="10"/>
<path d="M125 77V52C125 52 101 52 100 77H126" stroke="url(#paint2_linear)" stroke-miterlimit="10"/>
<path d="M125 77H150C150 77 150 53 125 52V78" stroke="url(#paint3_linear)" stroke-miterlimit="10"/>
<path d="M125 77.5V102.5C125 102.5 149 102.5 150 77.5H124" stroke="url(#paint4_linear)" stroke-miterlimit="10"/>
<path d="M328.8 71L323 59.37C322.842 59.0483 322.598 58.7774 322.294 58.5882C321.989 58.399 321.638 58.2991 321.28 58.3H305.8V54.43C305.8 54.1765 305.75 53.9256 305.653 53.6914C305.556 53.4573 305.414 53.2445 305.235 53.0653C305.055 52.8861 304.843 52.7439 304.609 52.6469C304.374 52.5499 304.123 52.5 303.87 52.5H272.93C272.419 52.5026 271.93 52.7068 271.568 53.0682C271.207 53.4296 271.003 53.9189 271 54.43V87.31C271 87.5643 271.05 87.8161 271.148 88.0509C271.245 88.2857 271.389 88.4989 271.569 88.6783C271.749 88.8576 271.963 88.9996 272.198 89.096C272.434 89.1924 272.686 89.2413 272.94 89.24H277.07C277.511 90.8823 278.482 92.3331 279.832 93.3679C281.181 94.4026 282.834 94.9633 284.535 94.9633C286.236 94.9633 287.889 94.4026 289.238 93.3679C290.588 92.3331 291.559 90.8823 292 89.24H308C308.441 90.8823 309.412 92.3331 310.762 93.3679C312.111 94.4026 313.764 94.9633 315.465 94.9633C317.166 94.9633 318.819 94.4026 320.168 93.3679C321.518 92.3331 322.489 90.8823 322.93 89.24H327.06C327.314 89.2413 327.566 89.1924 327.802 89.096C328.037 88.9996 328.251 88.8576 328.431 88.6783C328.611 88.4989 328.755 88.2857 328.852 88.0509C328.95 87.8161 329 87.5643 329 87.31V71.84C328.995 71.5488 328.927 71.2621 328.8 71V71ZM284.53 91.18C283.765 91.18 283.016 90.953 282.38 90.5278C281.744 90.1025 281.248 89.4981 280.955 88.791C280.662 88.0838 280.585 87.3057 280.734 86.555C280.884 85.8043 281.252 85.1147 281.793 84.5735C282.335 84.0323 283.024 83.6637 283.775 83.5144C284.526 83.365 285.304 83.4417 286.011 83.7346C286.718 84.0275 287.323 84.5235 287.748 85.1599C288.173 85.7964 288.4 86.5446 288.4 87.31C288.4 88.3364 287.992 89.3207 287.267 90.0465C286.541 90.7723 285.556 91.18 284.53 91.18V91.18ZM303.93 85.38H292C291.559 83.7377 290.588 82.2869 289.238 81.2522C287.889 80.2174 286.236 79.6567 284.535 79.6567C282.834 79.6567 281.181 80.2174 279.832 81.2522C278.482 82.2869 277.511 83.7377 277.07 85.38H272.87V54.38H303.94L303.93 85.38ZM326.93 70.9H315.47V60.17H322.07L326.93 70.9ZM315.47 91.18C314.705 91.18 313.956 90.953 313.32 90.5278C312.684 90.1025 312.188 89.4981 311.895 88.791C311.602 88.0838 311.525 87.3057 311.674 86.555C311.824 85.8043 312.192 85.1147 312.733 84.5735C313.275 84.0323 313.964 83.6637 314.715 83.5144C315.466 83.365 316.244 83.4417 316.951 83.7346C317.658 84.0275 318.263 84.5235 318.688 85.1599C319.113 85.7964 319.34 86.5446 319.34 87.31C319.34 88.3364 318.932 89.3207 318.207 90.0465C317.481 90.7723 316.496 91.18 315.47 91.18V91.18ZM322.94 85.38C322.499 83.7377 321.528 82.2869 320.178 81.2522C318.829 80.2174 317.176 79.6567 315.475 79.6567C313.774 79.6567 312.121 80.2174 310.772 81.2522C309.422 82.2869 308.451 83.7377 308.01 85.38H305.8V60.17H313.6V70.84C313.6 71.0943 313.65 71.3461 313.748 71.5809C313.845 71.8157 313.989 72.0289 314.169 72.2083C314.349 72.3876 314.563 72.5296 314.798 72.626C315.034 72.7224 315.286 72.7713 315.54 72.77H327.14V77.64H323.21V78.51H327.14V85.38H322.94Z" fill="url(#paint5_linear)"/>
<defs>
<linearGradient id="paint0_linear" x1="444.45" y1="76.81" x2="494.45" y2="76.81" gradientUnits="userSpaceOnUse">
<stop stop-color="#8176B5"/>
<stop offset="1" stop-color="#76C4E2"/>
</linearGradient>
<linearGradient id="paint1_linear" x1="2587.25" y1="2410.26" x2="3237.25" y2="2410.26" gradientUnits="userSpaceOnUse">
<stop stop-color="#8176B5"/>
<stop offset="1" stop-color="#76C4E2"/>
</linearGradient>
<linearGradient id="paint2_linear" x1="2686.22" y1="1664.5" x2="3375.74" y2="1664.5" gradientUnits="userSpaceOnUse">
<stop stop-color="#8176B5"/>
<stop offset="1" stop-color="#76C4E2"/>
</linearGradient>
<linearGradient id="paint3_linear" x1="3237.25" y1="1735.24" x2="3887.25" y2="1735.24" gradientUnits="userSpaceOnUse">
<stop stop-color="#8176B5"/>
<stop offset="1" stop-color="#76C4E2"/>
</linearGradient>
<linearGradient id="paint4_linear" x1="3347.74" y1="2327.5" x2="4037.26" y2="2327.5" gradientUnits="userSpaceOnUse">
<stop stop-color="#8176B5"/>
<stop offset="1" stop-color="#76C4E2"/>
</linearGradient>
<linearGradient id="paint5_linear" x1="15988.4" y1="3183.32" x2="19353.6" y2="3183.32" gradientUnits="userSpaceOnUse">
<stop stop-color="#8176B5"/>
<stop offset="1" stop-color="#76C4E2"/>
</linearGradient>
</defs>
</svg>
