<svg width="600" height="145" viewBox="0 0 600 145" fill="none" xmlns="http://www.w3.org/2000/svg">
<path d="M237 31.55H365" stroke="#404242" stroke-width="0.5" stroke-linecap="round" stroke-linejoin="round"/>
<path d="M241.782 22.4H240.032V13.1935H236.882V11.692H244.932V13.1935H241.782V22.4Z" fill="#707070"/>
<path d="M253.523 22.4H251.794V17.4196C251.794 16.7946 251.667 16.3282 251.414 16.0206C251.165 15.713 250.767 15.5592 250.22 15.5592C249.497 15.5592 248.965 15.7765 248.623 16.2111C248.286 16.6407 248.118 17.3634 248.118 18.379V22.4H246.396V11.0035H248.118V13.8966C248.118 14.3605 248.088 14.8561 248.03 15.3834H248.14C248.374 14.9928 248.699 14.6901 249.114 14.4752C249.534 14.2604 250.022 14.153 250.579 14.153C252.542 14.153 253.523 15.1417 253.523 17.1193V22.4Z" fill="#707070"/>
<path d="M259.456 22.5465C258.196 22.5465 257.209 22.1803 256.497 21.4479C255.789 20.7106 255.435 19.6974 255.435 18.4083C255.435 17.0851 255.764 16.045 256.423 15.2882C257.083 14.5314 257.988 14.153 259.141 14.153C260.21 14.153 261.055 14.4777 261.675 15.1271C262.295 15.7765 262.605 16.67 262.605 17.8077V18.7379H257.207C257.231 19.524 257.444 20.1295 257.844 20.5543C258.245 20.9742 258.809 21.1842 259.536 21.1842C260.015 21.1842 260.459 21.1403 260.869 21.0524C261.284 20.9596 261.729 20.8082 262.202 20.5983V21.9972C261.782 22.1974 261.357 22.339 260.928 22.422C260.498 22.505 260.007 22.5465 259.456 22.5465ZM259.141 15.4567C258.594 15.4567 258.154 15.63 257.822 15.9767C257.495 16.3234 257.3 16.8287 257.236 17.4928H260.913C260.903 16.8239 260.742 16.3185 260.43 15.9767C260.117 15.63 259.688 15.4567 259.141 15.4567Z" fill="#707070"/>
<path d="M274.814 19.4923C274.814 20.4445 274.47 21.1915 273.782 21.7335C273.093 22.2755 272.144 22.5465 270.933 22.5465C269.722 22.5465 268.73 22.3585 267.959 21.9825V20.3273C268.447 20.5568 268.965 20.7374 269.512 20.8693C270.063 21.0011 270.576 21.067 271.05 21.067C271.743 21.067 272.253 20.9352 272.581 20.6715C272.913 20.4078 273.079 20.0538 273.079 19.6095C273.079 19.2091 272.927 18.8698 272.625 18.5914C272.322 18.3131 271.697 17.9835 270.75 17.6027C269.773 17.2072 269.084 16.7555 268.684 16.2477C268.284 15.7399 268.083 15.1295 268.083 14.4166C268.083 13.5231 268.401 12.8199 269.036 12.3073C269.67 11.7946 270.522 11.5382 271.592 11.5382C272.617 11.5382 273.638 11.7628 274.653 12.212L274.097 13.6403C273.145 13.2399 272.295 13.0397 271.548 13.0397C270.981 13.0397 270.552 13.1642 270.259 13.4132C269.966 13.6573 269.819 13.9821 269.819 14.3873C269.819 14.6656 269.878 14.9049 269.995 15.1051C270.112 15.3004 270.305 15.486 270.574 15.6617C270.842 15.8375 271.326 16.0695 272.024 16.3575C272.81 16.6847 273.386 16.9899 273.752 17.2731C274.119 17.5563 274.387 17.8761 274.558 18.2325C274.729 18.589 274.814 19.0089 274.814 19.4923Z" fill="#707070"/>
<path d="M280.242 22.5465C278.982 22.5465 277.996 22.1803 277.283 21.4479C276.575 20.7106 276.221 19.6974 276.221 18.4083C276.221 17.0851 276.55 16.045 277.209 15.2882C277.869 14.5314 278.774 14.153 279.927 14.153C280.996 14.153 281.841 14.4777 282.461 15.1271C283.081 15.7765 283.391 16.67 283.391 17.8077V18.7379H277.993C278.018 19.524 278.23 20.1295 278.63 20.5543C279.031 20.9742 279.595 21.1842 280.322 21.1842C280.801 21.1842 281.245 21.1403 281.655 21.0524C282.07 20.9596 282.515 20.8082 282.988 20.5983V21.9972C282.568 22.1974 282.144 22.339 281.714 22.422C281.284 22.505 280.793 22.5465 280.242 22.5465ZM279.927 15.4567C279.38 15.4567 278.94 15.63 278.608 15.9767C278.281 16.3234 278.086 16.8287 278.022 17.4928H281.699C281.689 16.8239 281.528 16.3185 281.216 15.9767C280.903 15.63 280.474 15.4567 279.927 15.4567Z" fill="#707070"/>
<path d="M290.789 20.0929C290.789 20.8839 290.5 21.4918 289.924 21.9166C289.348 22.3365 288.523 22.5465 287.449 22.5465C286.37 22.5465 285.503 22.3829 284.849 22.0558V20.569C285.801 21.0084 286.687 21.2281 287.507 21.2281C288.567 21.2281 289.097 20.9083 289.097 20.2687C289.097 20.0636 289.038 19.8927 288.921 19.756C288.804 19.6193 288.611 19.4777 288.342 19.3312C288.074 19.1847 287.7 19.0187 287.222 18.8331C286.289 18.4718 285.657 18.1105 285.325 17.7491C284.998 17.3878 284.834 16.9191 284.834 16.3429C284.834 15.6495 285.112 15.1124 285.669 14.7316C286.23 14.3458 286.992 14.153 287.954 14.153C288.906 14.153 289.807 14.3458 290.657 14.7316L290.1 16.028C289.226 15.6666 288.491 15.486 287.896 15.486C286.987 15.486 286.533 15.7448 286.533 16.2623C286.533 16.5162 286.65 16.7311 286.885 16.9069C287.124 17.0826 287.642 17.3243 288.438 17.632C289.106 17.8907 289.592 18.1276 289.895 18.3424C290.198 18.5573 290.422 18.8063 290.569 19.0895C290.715 19.3678 290.789 19.7023 290.789 20.0929Z" fill="#707070"/>
<path d="M298.098 20.0929C298.098 20.8839 297.81 21.4918 297.234 21.9166C296.658 22.3365 295.833 22.5465 294.758 22.5465C293.679 22.5465 292.812 22.3829 292.158 22.0558V20.569C293.11 21.0084 293.997 21.2281 294.817 21.2281C295.876 21.2281 296.406 20.9083 296.406 20.2687C296.406 20.0636 296.348 19.8927 296.23 19.756C296.113 19.6193 295.92 19.4777 295.652 19.3312C295.383 19.1847 295.01 19.0187 294.531 18.8331C293.599 18.4718 292.966 18.1105 292.634 17.7491C292.307 17.3878 292.144 16.9191 292.144 16.3429C292.144 15.6495 292.422 15.1124 292.979 14.7316C293.54 14.3458 294.302 14.153 295.264 14.153C296.216 14.153 297.117 14.3458 297.966 14.7316L297.41 16.028C296.536 15.6666 295.801 15.486 295.205 15.486C294.297 15.486 293.843 15.7448 293.843 16.2623C293.843 16.5162 293.96 16.7311 294.194 16.9069C294.434 17.0826 294.951 17.3243 295.747 17.632C296.416 17.8907 296.902 18.1276 297.205 18.3424C297.507 18.5573 297.732 18.8063 297.878 19.0895C298.025 19.3678 298.098 19.7023 298.098 20.0929Z" fill="#707070"/>
<path d="M301.687 22.4H299.966V14.2994H301.687V22.4ZM299.863 12.1534C299.863 11.8458 299.946 11.609 300.112 11.443C300.283 11.277 300.525 11.194 300.837 11.194C301.14 11.194 301.375 11.277 301.541 11.443C301.711 11.609 301.797 11.8458 301.797 12.1534C301.797 12.4464 301.711 12.6783 301.541 12.8492C301.375 13.0153 301.14 13.0983 300.837 13.0983C300.525 13.0983 300.283 13.0153 300.112 12.8492C299.946 12.6783 299.863 12.4464 299.863 12.1534Z" fill="#707070"/>
<path d="M311.34 18.3351C311.34 19.6583 311.001 20.691 310.322 21.4332C309.644 22.1754 308.699 22.5465 307.488 22.5465C306.731 22.5465 306.062 22.3756 305.481 22.0338C304.9 21.692 304.453 21.2013 304.141 20.5616C303.828 19.922 303.672 19.1798 303.672 18.3351C303.672 17.0216 304.009 15.9962 304.683 15.2589C305.356 14.5216 306.306 14.153 307.532 14.153C308.704 14.153 309.631 14.5314 310.315 15.2882C310.999 16.0402 311.34 17.0558 311.34 18.3351ZM305.444 18.3351C305.444 20.2052 306.135 21.1403 307.517 21.1403C308.884 21.1403 309.568 20.2052 309.568 18.3351C309.568 16.4845 308.879 15.5592 307.502 15.5592C306.78 15.5592 306.255 15.7985 305.928 16.277C305.605 16.7555 305.444 17.4415 305.444 18.3351Z" fill="#707070"/>
<path d="M320.452 22.4H318.723V17.4196C318.723 16.7946 318.596 16.3282 318.342 16.0206C318.093 15.713 317.695 15.5592 317.148 15.5592C316.421 15.5592 315.889 15.774 315.552 16.2037C315.215 16.6334 315.046 17.3536 315.046 18.3644V22.4H313.325V14.2994H314.673L314.915 15.3615H315.002C315.247 14.9757 315.593 14.6779 316.042 14.4679C316.492 14.2579 316.99 14.153 317.537 14.153C319.48 14.153 320.452 15.1417 320.452 17.1193V22.4Z" fill="#707070"/>
<path d="M326.926 22.4V11.692H328.677V20.8986H333.21V22.4H326.926Z" fill="#707070"/>
<path d="M339.941 22.4L339.597 21.2721H339.539C339.148 21.7653 338.755 22.1022 338.359 22.2828C337.964 22.4586 337.456 22.5465 336.836 22.5465C336.04 22.5465 335.417 22.3317 334.968 21.902C334.524 21.4723 334.302 20.8644 334.302 20.0782C334.302 19.2433 334.612 18.6134 335.232 18.1886C335.852 17.7638 336.797 17.5319 338.066 17.4928L339.465 17.4489V17.0167C339.465 16.4991 339.343 16.1134 339.099 15.8595C338.86 15.6007 338.486 15.4713 337.979 15.4713C337.563 15.4713 337.166 15.5323 336.785 15.6544C336.404 15.7765 336.038 15.9205 335.686 16.0865L335.129 14.8561C335.569 14.6266 336.05 14.4532 336.572 14.3361C337.095 14.214 337.588 14.153 338.052 14.153C339.082 14.153 339.858 14.3776 340.381 14.8268C340.908 15.276 341.172 15.9816 341.172 16.9435V22.4H339.941ZM337.378 21.2281C338.003 21.2281 338.503 21.0548 338.879 20.7081C339.26 20.3566 339.451 19.8658 339.451 19.236V18.5328L338.411 18.5768C337.6 18.6061 337.009 18.7428 336.638 18.9869C336.272 19.2262 336.089 19.5948 336.089 20.0929C336.089 20.4542 336.196 20.735 336.411 20.9352C336.626 21.1305 336.948 21.2281 337.378 21.2281Z" fill="#707070"/>
<path d="M342.344 14.2994H344.219L345.867 18.8917C346.116 19.546 346.282 20.1613 346.365 20.7374H346.423C346.467 20.4689 346.548 20.1442 346.665 19.7633C346.782 19.3776 347.402 17.5563 348.525 14.2994H350.386L346.921 23.4767C346.292 25.1613 345.242 26.0035 343.772 26.0035C343.391 26.0035 343.02 25.962 342.659 25.879V24.5167C342.917 24.5753 343.213 24.6046 343.545 24.6046C344.375 24.6046 344.958 24.1237 345.295 23.1617L345.596 22.4L342.344 14.2994Z" fill="#707070"/>
<path d="M355.154 22.5465C353.894 22.5465 352.908 22.1803 352.195 21.4479C351.487 20.7106 351.133 19.6974 351.133 18.4083C351.133 17.0851 351.462 16.045 352.122 15.2882C352.781 14.5314 353.687 14.153 354.839 14.153C355.908 14.153 356.753 14.4777 357.373 15.1271C357.993 15.7765 358.303 16.67 358.303 17.8077V18.7379H352.905C352.93 19.524 353.142 20.1295 353.542 20.5543C353.943 20.9742 354.507 21.1842 355.234 21.1842C355.713 21.1842 356.157 21.1403 356.567 21.0524C356.982 20.9596 357.427 20.8082 357.9 20.5983V21.9972C357.48 22.1974 357.056 22.339 356.626 22.422C356.196 22.505 355.706 22.5465 355.154 22.5465ZM354.839 15.4567C354.292 15.4567 353.853 15.63 353.521 15.9767C353.193 16.3234 352.998 16.8287 352.935 17.4928H356.611C356.602 16.8239 356.44 16.3185 356.128 15.9767C355.815 15.63 355.386 15.4567 354.839 15.4567Z" fill="#707070"/>
<path d="M364.368 14.153C364.714 14.153 365 14.1774 365.225 14.2262L365.056 15.8302C364.812 15.7716 364.558 15.7423 364.294 15.7423C363.606 15.7423 363.047 15.9669 362.617 16.4161C362.192 16.8654 361.98 17.4489 361.98 18.1666V22.4H360.259V14.2994H361.606L361.833 15.7277H361.921C362.19 15.2443 362.539 14.861 362.969 14.5778C363.403 14.2946 363.87 14.153 364.368 14.153Z" fill="#707070"/>
<path d="M235.674 118.348C235.674 119.046 235.422 119.594 234.917 119.991C234.412 120.389 233.716 120.587 232.828 120.587C231.94 120.587 231.213 120.45 230.647 120.174V118.96C231.005 119.128 231.385 119.261 231.786 119.357C232.19 119.454 232.566 119.502 232.914 119.502C233.422 119.502 233.796 119.406 234.036 119.212C234.28 119.019 234.401 118.759 234.401 118.434C234.401 118.14 234.29 117.891 234.068 117.687C233.846 117.483 233.388 117.241 232.693 116.962C231.977 116.672 231.472 116.341 231.179 115.968C230.885 115.596 230.738 115.148 230.738 114.625C230.738 113.97 230.971 113.455 231.437 113.079C231.902 112.703 232.527 112.515 233.311 112.515C234.063 112.515 234.811 112.679 235.556 113.009L235.148 114.056C234.45 113.763 233.827 113.616 233.279 113.616C232.863 113.616 232.548 113.707 232.333 113.89C232.119 114.069 232.011 114.307 232.011 114.604C232.011 114.808 232.054 114.984 232.14 115.13C232.226 115.274 232.368 115.41 232.564 115.539C232.761 115.667 233.116 115.838 233.628 116.049C234.204 116.289 234.627 116.513 234.896 116.72C235.164 116.928 235.361 117.162 235.486 117.424C235.612 117.685 235.674 117.993 235.674 118.348Z" fill="#707070"/>
<path d="M239.654 120.587C238.73 120.587 238.007 120.319 237.484 119.782C236.965 119.241 236.706 118.498 236.706 117.553C236.706 116.582 236.947 115.82 237.431 115.265C237.914 114.71 238.578 114.432 239.423 114.432C240.208 114.432 240.827 114.67 241.282 115.146C241.736 115.623 241.964 116.278 241.964 117.112V117.794H238.005C238.023 118.371 238.179 118.815 238.473 119.126C238.766 119.434 239.18 119.588 239.713 119.588C240.064 119.588 240.39 119.556 240.691 119.492C240.995 119.424 241.321 119.313 241.668 119.159V120.185C241.361 120.331 241.049 120.435 240.734 120.496C240.419 120.557 240.059 120.587 239.654 120.587ZM239.423 115.388C239.022 115.388 238.7 115.515 238.457 115.77C238.217 116.024 238.073 116.394 238.027 116.881H240.723C240.716 116.391 240.598 116.02 240.369 115.77C240.139 115.515 239.824 115.388 239.423 115.388Z" fill="#707070"/>
<path d="M247.389 118.788C247.389 119.368 247.177 119.814 246.755 120.125C246.332 120.433 245.727 120.587 244.939 120.587C244.148 120.587 243.513 120.467 243.033 120.228V119.137C243.731 119.459 244.381 119.621 244.982 119.621C245.759 119.621 246.148 119.386 246.148 118.917C246.148 118.767 246.105 118.641 246.019 118.541C245.933 118.441 245.792 118.337 245.595 118.229C245.398 118.122 245.124 118 244.773 117.864C244.089 117.599 243.625 117.334 243.382 117.069C243.142 116.804 243.022 116.461 243.022 116.038C243.022 115.53 243.226 115.136 243.634 114.856C244.046 114.574 244.605 114.432 245.31 114.432C246.008 114.432 246.669 114.574 247.292 114.856L246.884 115.807C246.243 115.542 245.704 115.41 245.267 115.41C244.601 115.41 244.268 115.599 244.268 115.979C244.268 116.165 244.354 116.323 244.526 116.452C244.701 116.581 245.081 116.758 245.665 116.983C246.155 117.173 246.511 117.347 246.733 117.504C246.955 117.662 247.12 117.845 247.228 118.052C247.335 118.256 247.389 118.502 247.389 118.788Z" fill="#707070"/>
<path d="M252.749 118.788C252.749 119.368 252.538 119.814 252.115 120.125C251.693 120.433 251.088 120.587 250.3 120.587C249.508 120.587 248.873 120.467 248.393 120.228V119.137C249.091 119.459 249.741 119.621 250.343 119.621C251.12 119.621 251.508 119.386 251.508 118.917C251.508 118.767 251.465 118.641 251.379 118.541C251.293 118.441 251.152 118.337 250.955 118.229C250.758 118.122 250.484 118 250.133 117.864C249.449 117.599 248.986 117.334 248.742 117.069C248.502 116.804 248.382 116.461 248.382 116.038C248.382 115.53 248.586 115.136 248.995 114.856C249.406 114.574 249.965 114.432 250.67 114.432C251.369 114.432 252.029 114.574 252.652 114.856L252.244 115.807C251.603 115.542 251.064 115.41 250.627 115.41C249.961 115.41 249.628 115.599 249.628 115.979C249.628 116.165 249.714 116.323 249.886 116.452C250.062 116.581 250.441 116.758 251.025 116.983C251.515 117.173 251.872 117.347 252.094 117.504C252.316 117.662 252.48 117.845 252.588 118.052C252.695 118.256 252.749 118.502 252.749 118.788Z" fill="#707070"/>
<path d="M255.381 120.48H254.119V114.54H255.381V120.48ZM254.043 112.966C254.043 112.74 254.104 112.567 254.226 112.445C254.351 112.323 254.529 112.262 254.758 112.262C254.98 112.262 255.152 112.323 255.273 112.445C255.399 112.567 255.461 112.74 255.461 112.966C255.461 113.181 255.399 113.351 255.273 113.476C255.152 113.598 254.98 113.659 254.758 113.659C254.529 113.659 254.351 113.598 254.226 113.476C254.104 113.351 254.043 113.181 254.043 112.966Z" fill="#707070"/>
<path d="M262.46 117.499C262.46 118.469 262.211 119.227 261.713 119.771C261.216 120.315 260.523 120.587 259.635 120.587C259.08 120.587 258.589 120.462 258.163 120.211C257.737 119.961 257.409 119.601 257.18 119.132C256.951 118.663 256.836 118.118 256.836 117.499C256.836 116.536 257.083 115.784 257.578 115.243C258.072 114.702 258.768 114.432 259.667 114.432C260.526 114.432 261.207 114.71 261.708 115.265C262.209 115.816 262.46 116.561 262.46 117.499ZM258.136 117.499C258.136 118.87 258.643 119.556 259.656 119.556C260.659 119.556 261.16 118.87 261.16 117.499C261.16 116.142 260.655 115.463 259.646 115.463C259.116 115.463 258.731 115.639 258.491 115.99C258.254 116.341 258.136 116.844 258.136 117.499Z" fill="#707070"/>
<path d="M269.142 120.48H267.874V116.828C267.874 116.369 267.781 116.027 267.595 115.802C267.412 115.576 267.12 115.463 266.719 115.463C266.186 115.463 265.795 115.621 265.548 115.936C265.301 116.251 265.178 116.779 265.178 117.521V120.48H263.916V114.54H264.904L265.081 115.318H265.146C265.325 115.035 265.579 114.817 265.908 114.663C266.238 114.509 266.603 114.432 267.004 114.432C268.429 114.432 269.142 115.157 269.142 116.607V120.48Z" fill="#707070"/>
<path d="M279.024 117.499C279.024 118.469 278.776 119.227 278.278 119.771C277.78 120.315 277.087 120.587 276.199 120.587C275.644 120.587 275.154 120.462 274.728 120.211C274.301 119.961 273.974 119.601 273.745 119.132C273.515 118.663 273.401 118.118 273.401 117.499C273.401 116.536 273.648 115.784 274.142 115.243C274.636 114.702 275.333 114.432 276.231 114.432C277.091 114.432 277.771 114.71 278.272 115.265C278.774 115.816 279.024 116.561 279.024 117.499ZM274.701 117.499C274.701 118.87 275.207 119.556 276.221 119.556C277.223 119.556 277.725 118.87 277.725 117.499C277.725 116.142 277.22 115.463 276.21 115.463C275.68 115.463 275.295 115.639 275.055 115.99C274.819 116.341 274.701 116.844 274.701 117.499Z" fill="#707070"/>
<path d="M283.461 115.496H282.011V120.48H280.743V115.496H279.766V114.905L280.743 114.518V114.131C280.743 113.43 280.908 112.91 281.237 112.574C281.567 112.234 282.07 112.063 282.747 112.063C283.191 112.063 283.627 112.137 284.057 112.284L283.724 113.24C283.413 113.139 283.115 113.089 282.833 113.089C282.546 113.089 282.337 113.179 282.204 113.358C282.075 113.533 282.011 113.798 282.011 114.153V114.54H283.461V115.496Z" fill="#707070"/>
<path d="M289.729 120.587C288.83 120.587 288.146 120.326 287.677 119.803C287.212 119.277 286.979 118.523 286.979 117.542C286.979 116.543 287.222 115.775 287.709 115.238C288.2 114.701 288.907 114.432 289.831 114.432C290.458 114.432 291.022 114.549 291.523 114.781L291.142 115.796C290.608 115.589 290.168 115.485 289.82 115.485C288.793 115.485 288.279 116.167 288.279 117.531C288.279 118.197 288.406 118.699 288.66 119.035C288.918 119.368 289.294 119.535 289.788 119.535C290.35 119.535 290.882 119.395 291.383 119.116V120.217C291.158 120.349 290.916 120.444 290.658 120.501C290.404 120.559 290.094 120.587 289.729 120.587Z" fill="#707070"/>
<path d="M298.049 117.499C298.049 118.469 297.8 119.227 297.302 119.771C296.805 120.315 296.112 120.587 295.224 120.587C294.669 120.587 294.178 120.462 293.752 120.211C293.326 119.961 292.998 119.601 292.769 119.132C292.54 118.663 292.425 118.118 292.425 117.499C292.425 116.536 292.672 115.784 293.167 115.243C293.661 114.702 294.357 114.432 295.256 114.432C296.115 114.432 296.796 114.71 297.297 115.265C297.798 115.816 298.049 116.561 298.049 117.499ZM293.725 117.499C293.725 118.87 294.232 119.556 295.245 119.556C296.248 119.556 296.749 118.87 296.749 117.499C296.749 116.142 296.244 115.463 295.234 115.463C294.704 115.463 294.319 115.639 294.08 115.99C293.843 116.341 293.725 116.844 293.725 117.499Z" fill="#707070"/>
<path d="M304.51 120.48H303.243V116.817C303.243 116.362 303.157 116.024 302.985 115.802C302.813 115.576 302.544 115.463 302.179 115.463C301.692 115.463 301.334 115.623 301.105 115.941C300.879 116.257 300.767 116.783 300.767 117.521V120.48H299.504V114.54H300.493L300.67 115.318H300.734C300.899 115.035 301.137 114.817 301.449 114.663C301.764 114.509 302.109 114.432 302.485 114.432C303.398 114.432 304.004 114.744 304.301 115.367H304.387C304.562 115.073 304.809 114.844 305.128 114.679C305.447 114.514 305.812 114.432 306.224 114.432C306.933 114.432 307.448 114.611 307.771 114.969C308.096 115.327 308.259 115.873 308.259 116.607V120.48H306.997V116.817C306.997 116.362 306.909 116.024 306.734 115.802C306.562 115.576 306.293 115.463 305.928 115.463C305.438 115.463 305.078 115.617 304.849 115.925C304.623 116.23 304.51 116.699 304.51 117.333V120.48Z" fill="#707070"/>
<path d="M315.027 120.48H313.759V116.817C313.759 116.362 313.673 116.024 313.501 115.802C313.33 115.576 313.061 115.463 312.696 115.463C312.209 115.463 311.851 115.623 311.622 115.941C311.396 116.257 311.283 116.783 311.283 117.521V120.48H310.021V114.54H311.009L311.187 115.318H311.251C311.416 115.035 311.654 114.817 311.965 114.663C312.28 114.509 312.626 114.432 313.002 114.432C313.915 114.432 314.52 114.744 314.817 115.367H314.903C315.079 115.073 315.326 114.844 315.645 114.679C315.963 114.514 316.328 114.432 316.74 114.432C317.449 114.432 317.965 114.611 318.287 114.969C318.613 115.327 318.776 115.873 318.776 116.607V120.48H317.514V116.817C317.514 116.362 317.426 116.024 317.25 115.802C317.079 115.576 316.81 115.463 316.445 115.463C315.954 115.463 315.594 115.617 315.365 115.925C315.14 116.23 315.027 116.699 315.027 117.333V120.48Z" fill="#707070"/>
<path d="M324.727 120.48L324.55 119.701H324.485C324.31 119.977 324.059 120.194 323.733 120.351C323.411 120.509 323.042 120.587 322.627 120.587C321.907 120.587 321.37 120.408 321.016 120.05C320.661 119.692 320.484 119.15 320.484 118.423V114.54H321.757V118.203C321.757 118.657 321.85 118.999 322.036 119.229C322.222 119.454 322.514 119.567 322.912 119.567C323.442 119.567 323.83 119.409 324.077 119.094C324.328 118.776 324.453 118.244 324.453 117.499V114.54H325.721V120.48H324.727Z" fill="#707070"/>
<path d="M332.746 120.48H331.479V116.828C331.479 116.369 331.385 116.027 331.199 115.802C331.017 115.576 330.725 115.463 330.324 115.463C329.79 115.463 329.4 115.621 329.153 115.936C328.906 116.251 328.782 116.779 328.782 117.521V120.48H327.52V114.54H328.508L328.686 115.318H328.75C328.929 115.035 329.183 114.817 329.513 114.663C329.842 114.509 330.207 114.432 330.608 114.432C332.034 114.432 332.746 115.157 332.746 116.607V120.48Z" fill="#707070"/>
<path d="M335.765 120.48H334.502V114.54H335.765V120.48ZM334.427 112.966C334.427 112.74 334.488 112.567 334.61 112.445C334.735 112.323 334.912 112.262 335.142 112.262C335.364 112.262 335.535 112.323 335.657 112.445C335.783 112.567 335.845 112.74 335.845 112.966C335.845 113.181 335.783 113.351 335.657 113.476C335.535 113.598 335.364 113.659 335.142 113.659C334.912 113.659 334.735 113.598 334.61 113.476C334.488 113.351 334.427 113.181 334.427 112.966Z" fill="#707070"/>
<path d="M339.97 120.587C339.071 120.587 338.388 120.326 337.918 119.803C337.453 119.277 337.22 118.523 337.22 117.542C337.22 116.543 337.464 115.775 337.951 115.238C338.441 114.701 339.148 114.432 340.072 114.432C340.699 114.432 341.263 114.549 341.764 114.781L341.383 115.796C340.849 115.589 340.409 115.485 340.062 115.485C339.034 115.485 338.52 116.167 338.52 117.531C338.52 118.197 338.647 118.699 338.901 119.035C339.159 119.368 339.535 119.535 340.029 119.535C340.591 119.535 341.123 119.395 341.625 119.116V120.217C341.399 120.349 341.157 120.444 340.899 120.501C340.645 120.559 340.335 120.587 339.97 120.587Z" fill="#707070"/>
<path d="M346.738 120.48L346.485 119.653H346.442C346.156 120.014 345.868 120.262 345.578 120.394C345.288 120.523 344.915 120.587 344.46 120.587C343.877 120.587 343.42 120.43 343.091 120.115C342.765 119.8 342.602 119.354 342.602 118.777C342.602 118.165 342.829 117.703 343.284 117.392C343.739 117.08 344.432 116.91 345.363 116.881L346.389 116.849V116.532C346.389 116.153 346.299 115.87 346.12 115.684C345.945 115.494 345.671 115.399 345.298 115.399C344.994 115.399 344.702 115.444 344.423 115.533C344.144 115.623 343.875 115.728 343.617 115.85L343.209 114.948C343.531 114.779 343.884 114.652 344.267 114.566C344.65 114.477 345.012 114.432 345.352 114.432C346.108 114.432 346.677 114.597 347.06 114.926C347.447 115.256 347.64 115.773 347.64 116.479V120.48H346.738ZM344.858 119.621C345.316 119.621 345.683 119.493 345.959 119.239C346.238 118.981 346.378 118.622 346.378 118.16V117.644L345.615 117.676C345.021 117.698 344.588 117.798 344.315 117.977C344.047 118.153 343.913 118.423 343.913 118.788C343.913 119.053 343.991 119.259 344.149 119.406C344.306 119.549 344.543 119.621 344.858 119.621Z" fill="#707070"/>
<path d="M351.615 119.567C351.923 119.567 352.231 119.519 352.539 119.422V120.373C352.399 120.433 352.218 120.484 351.996 120.523C351.778 120.566 351.55 120.587 351.314 120.587C350.118 120.587 349.52 119.957 349.52 118.697V115.496H348.709V114.937L349.579 114.475L350.009 113.218H350.788V114.54H352.479V115.496H350.788V118.675C350.788 118.98 350.863 119.205 351.013 119.352C351.167 119.495 351.368 119.567 351.615 119.567Z" fill="#707070"/>
<path d="M354.993 120.48H353.731V114.54H354.993V120.48ZM353.656 112.966C353.656 112.74 353.717 112.567 353.838 112.445C353.964 112.323 354.141 112.262 354.37 112.262C354.592 112.262 354.764 112.323 354.886 112.445C355.011 112.567 355.074 112.74 355.074 112.966C355.074 113.181 355.011 113.351 354.886 113.476C354.764 113.598 354.592 113.659 354.37 113.659C354.141 113.659 353.964 113.598 353.838 113.476C353.717 113.351 353.656 113.181 353.656 112.966Z" fill="#707070"/>
<path d="M362.072 117.499C362.072 118.469 361.823 119.227 361.326 119.771C360.828 120.315 360.135 120.587 359.247 120.587C358.692 120.587 358.201 120.462 357.775 120.211C357.349 119.961 357.022 119.601 356.792 119.132C356.563 118.663 356.449 118.118 356.449 117.499C356.449 116.536 356.696 115.784 357.19 115.243C357.684 114.702 358.381 114.432 359.279 114.432C360.139 114.432 360.819 114.71 361.32 115.265C361.822 115.816 362.072 116.561 362.072 117.499ZM357.749 117.499C357.749 118.87 358.255 119.556 359.269 119.556C360.271 119.556 360.772 118.87 360.772 117.499C360.772 116.142 360.268 115.463 359.258 115.463C358.728 115.463 358.343 115.639 358.103 115.99C357.867 116.341 357.749 116.844 357.749 117.499Z" fill="#707070"/>
<path d="M368.754 120.48H367.486V116.828C367.486 116.369 367.393 116.027 367.207 115.802C367.024 115.576 366.733 115.463 366.332 115.463C365.798 115.463 365.408 115.621 365.161 115.936C364.914 116.251 364.79 116.779 364.79 117.521V120.48H363.528V114.54H364.516L364.693 115.318H364.758C364.937 115.035 365.191 114.817 365.521 114.663C365.85 114.509 366.215 114.432 366.616 114.432C368.041 114.432 368.754 115.157 368.754 116.607V120.48Z" fill="#707070"/>
<path d="M272.99 81.31H320.7" stroke="#707070" stroke-width="2" stroke-linecap="round" stroke-linejoin="round"/>
<path d="M316.72 84.7L320.11 81.31L316.72 77.92H319.6L322.99 81.31L319.6 84.7H316.72Z" fill="#707070"/>
<path d="M395.42 75.17C395.976 74.6641 396.419 74.046 396.719 73.3566C397.019 72.6671 397.169 71.9219 397.16 71.17C397.16 69.7326 396.589 68.354 395.573 67.3375C394.556 66.3211 393.178 65.75 391.74 65.75C390.303 65.75 388.924 66.3211 387.908 67.3375C386.891 68.354 386.32 69.7326 386.32 71.17C386.311 71.9219 386.461 72.6671 386.761 73.3566C387.061 74.046 387.504 74.6641 388.06 75.17C386.46 75.8265 385.062 76.8948 384.008 78.2666C382.954 79.6383 382.282 81.2645 382.06 82.98C380.602 82.1375 379.052 81.4664 377.44 80.98C378.945 80.0902 380.19 78.8214 381.052 77.3001C381.913 75.7788 382.361 74.0583 382.35 72.31C382.343 70.5463 381.874 68.8154 380.99 67.289C380.106 65.7626 378.839 64.4939 377.313 63.6089C375.788 62.7239 374.057 62.2534 372.293 62.2442C370.53 62.2349 368.794 62.6872 367.26 63.556C365.725 64.4249 364.444 65.6802 363.544 67.1972C362.645 68.7143 362.158 70.4402 362.131 72.2037C362.105 73.9672 362.541 75.7069 363.395 77.25C364.249 78.7931 365.492 80.0859 367 81C365.368 81.4298 363.81 82.1041 362.38 83C362.158 81.2845 361.486 79.6583 360.433 78.2866C359.379 76.9148 357.981 75.8465 356.38 75.19C356.934 74.6824 357.374 74.0638 357.672 73.3745C357.97 72.6853 358.119 71.9409 358.11 71.19C358.142 70.4593 358.025 69.7299 357.767 69.0455C357.509 68.3612 357.115 67.7361 356.609 67.208C356.103 66.6798 355.496 66.2595 354.823 65.9724C354.15 65.6853 353.427 65.5373 352.695 65.5373C351.964 65.5373 351.24 65.6853 350.567 65.9724C349.895 66.2595 349.287 66.6798 348.781 67.208C348.275 67.7361 347.882 68.3612 347.624 69.0455C347.366 69.7299 347.249 70.4593 347.28 71.19C347.271 71.9409 347.42 72.6853 347.719 73.3745C348.017 74.0638 348.457 74.6824 349.01 75.19C347.228 75.9288 345.702 77.1765 344.624 78.7771C343.547 80.3777 342.964 82.2604 342.95 84.19C342.95 84.4765 343.064 84.7512 343.267 84.9537C343.469 85.1562 343.744 85.27 344.03 85.27C344.317 85.27 344.591 85.1562 344.794 84.9537C344.996 84.7512 345.11 84.4765 345.11 84.19C345.181 82.226 346.012 80.3662 347.427 79.002C348.841 77.6378 350.73 76.8755 352.695 76.8755C354.66 76.8755 356.549 77.6378 357.964 79.002C359.379 80.3662 360.209 82.226 360.28 84.19V84.41C358.02 86.2013 356.197 88.4819 354.946 91.0801C353.695 93.6784 353.051 96.5265 353.06 99.41C353.06 99.6965 353.174 99.9712 353.376 100.174C353.579 100.376 353.854 100.49 354.14 100.49C354.427 100.49 354.701 100.376 354.904 100.174C355.106 99.9712 355.22 99.6965 355.22 99.41C355.456 95.0673 357.347 90.9801 360.505 87.9893C363.662 84.9985 367.846 83.3316 372.195 83.3316C376.544 83.3316 380.728 84.9985 383.886 87.9893C387.043 90.9801 388.934 95.0673 389.17 99.41C389.196 99.6798 389.322 99.9303 389.522 100.113C389.723 100.295 389.984 100.396 390.255 100.396C390.526 100.396 390.788 100.295 390.988 100.113C391.189 99.9303 391.314 99.6798 391.34 99.41C391.354 96.5258 390.711 93.6761 389.46 91.0772C388.209 88.4783 386.383 86.1983 384.12 84.41V84.2C384.192 82.236 385.022 80.3762 386.437 79.012C387.851 77.6478 389.74 76.8855 391.705 76.8855C393.67 76.8855 395.559 77.6478 396.974 79.012C398.389 80.3762 399.219 82.236 399.29 84.2C399.29 84.4865 399.404 84.7612 399.607 84.9637C399.809 85.1662 400.084 85.28 400.37 85.28C400.657 85.28 400.931 85.1662 401.134 84.9637C401.336 84.7612 401.45 84.4865 401.45 84.2C401.444 82.2687 400.869 80.3819 399.797 78.7758C398.724 77.1696 397.202 75.9154 395.42 75.17V75.17ZM352.74 74.45C352.098 74.4481 351.47 74.2558 350.937 73.8975C350.404 73.5391 349.989 73.0309 349.745 72.4368C349.5 71.8428 349.437 71.1897 349.564 70.5599C349.69 69.9301 350.001 69.3519 350.456 68.8984C350.911 68.4449 351.49 68.1364 352.12 68.0118C352.75 67.8872 353.403 67.9521 353.996 68.1984C354.589 68.4447 355.096 68.8612 355.453 69.3955C355.81 69.9297 356 70.5577 356 71.2C356.003 71.6284 355.92 72.0531 355.757 72.4492C355.594 72.8454 355.354 73.2052 355.051 73.5076C354.747 73.8101 354.387 74.0492 353.99 74.211C353.593 74.3728 353.169 74.454 352.74 74.45V74.45ZM364.29 72.28C364.3 70.7098 364.775 69.1777 365.654 67.877C366.534 66.5762 367.779 65.565 369.232 64.9709C370.686 64.3769 372.283 64.2266 373.822 64.5389C375.36 64.8513 376.772 65.6124 377.879 66.7262C378.986 67.84 379.738 69.2566 380.041 70.7974C380.344 72.3381 380.183 73.934 379.58 75.3838C378.977 76.8336 377.958 78.0722 376.652 78.9436C375.345 79.815 373.81 80.28 372.24 80.28C371.191 80.2841 370.151 80.0795 369.181 79.6783C368.212 79.277 367.332 78.6871 366.592 77.9428C365.852 77.1985 365.268 76.3145 364.873 75.3424C364.478 74.3703 364.28 73.3293 364.29 72.28V72.28ZM391.74 74.45C391.098 74.4481 390.47 74.2558 389.937 73.8975C389.404 73.5391 388.989 73.0309 388.745 72.4368C388.5 71.8428 388.437 71.1897 388.564 70.5599C388.69 69.9301 389.001 69.3519 389.456 68.8984C389.911 68.4449 390.49 68.1364 391.12 68.0118C391.75 67.8872 392.403 67.9521 392.996 68.1984C393.589 68.4447 394.096 68.8612 394.453 69.3955C394.81 69.9297 395 70.5577 395 71.2C395.002 71.628 394.918 72.0521 394.755 72.4476C394.591 72.8432 394.351 73.2024 394.048 73.5046C393.745 73.8068 393.385 74.046 392.989 74.2082C392.592 74.3705 392.168 74.4527 391.74 74.45V74.45Z" fill="url(#paint0_linear)"/>
<path d="M249 58.34H216.71C215.649 58.34 214.632 58.7615 213.881 59.5116C213.131 60.2617 212.71 61.2792 212.71 62.34V73.76H204C202.555 73.7627 201.17 74.3377 200.149 75.3592C199.127 76.3807 198.552 77.7654 198.55 79.21V90.74C198.55 92.1855 199.124 93.5717 200.146 94.5938C201.168 95.6158 202.554 96.19 204 96.19H204.12V104.29L213.71 96.19H221.24C222.685 96.19 224.071 95.6158 225.094 94.5938C226.116 93.5717 226.69 92.1855 226.69 90.74V89.74H231.81L244.4 100.35V89.75H249C250.061 89.75 251.078 89.3286 251.828 88.5785C252.578 87.8283 253 86.8109 253 85.75V62.32C252.995 61.2626 252.571 60.2503 251.821 59.5045C251.072 58.7587 250.057 58.34 249 58.34V58.34ZM224.49 90.74C224.482 91.6074 224.132 92.4365 223.516 93.047C222.9 93.6576 222.067 94.0001 221.2 94H212.88L206.23 99.61V94H204C203.567 94 203.138 93.9146 202.738 93.7486C202.339 93.5827 201.976 93.3394 201.67 93.0329C201.364 92.7263 201.122 92.3624 200.957 91.9621C200.793 91.5618 200.708 91.1329 200.71 90.7V79.21C200.71 78.3375 201.056 77.5006 201.673 76.8836C202.29 76.2667 203.127 75.92 204 75.92H212.77V85.77C212.77 86.8309 213.191 87.8483 213.941 88.5985C214.692 89.3486 215.709 89.77 216.77 89.77H224.55L224.49 90.74ZM228.14 77.21C227.59 77.21 227.052 77.0467 226.594 76.7408C226.137 76.4349 225.781 76.0001 225.57 75.4916C225.36 74.983 225.306 74.4235 225.414 73.884C225.522 73.3444 225.788 72.8491 226.178 72.4607C226.567 72.0723 227.064 71.8084 227.604 71.7022C228.144 71.5961 228.703 71.6526 229.211 71.8645C229.718 72.0765 230.152 72.4343 230.456 72.8928C230.76 73.3513 230.922 73.8898 230.92 74.44C230.92 74.8046 230.848 75.1657 230.708 75.5024C230.568 75.8391 230.363 76.1449 230.105 76.4023C229.847 76.6596 229.54 76.8634 229.203 77.002C228.866 77.1407 228.504 77.2113 228.14 77.21V77.21ZM237.07 77.21C236.52 77.21 235.982 77.0467 235.524 76.7408C235.067 76.4349 234.711 76.0001 234.5 75.4916C234.29 74.983 234.236 74.4235 234.344 73.884C234.452 73.3444 234.718 72.8491 235.108 72.4607C235.497 72.0723 235.994 71.8084 236.534 71.7022C237.074 71.5961 237.633 71.6526 238.141 71.8645C238.648 72.0765 239.082 72.4343 239.386 72.8928C239.69 73.3513 239.852 73.8898 239.85 74.44C239.85 74.8046 239.778 75.1657 239.638 75.5024C239.498 75.8391 239.293 76.1449 239.035 76.4023C238.777 76.6596 238.47 76.8634 238.133 77.002C237.796 77.1407 237.434 77.2113 237.07 77.21V77.21ZM246 77.21C245.45 77.21 244.912 77.0467 244.454 76.7408C243.997 76.4349 243.641 76.0001 243.43 75.4916C243.22 74.983 243.166 74.4235 243.274 73.884C243.382 73.3444 243.648 72.8491 244.038 72.4607C244.427 72.0723 244.924 71.8084 245.464 71.7022C246.004 71.5961 246.563 71.6526 247.071 71.8645C247.578 72.0765 248.012 72.4343 248.316 72.8928C248.62 73.3513 248.782 73.8898 248.78 74.44C248.78 74.8046 248.708 75.1657 248.568 75.5024C248.428 75.8391 248.223 76.1449 247.965 76.4023C247.707 76.6596 247.4 76.8634 247.063 77.002C246.726 77.1407 246.364 77.2113 246 77.21V77.21Z" fill="url(#paint1_linear)"/>
<defs>
<linearGradient id="paint0_linear" x1="342.99" y1="81.31" x2="401.49" y2="81.31" gradientUnits="userSpaceOnUse">
<stop stop-color="#8176B5"/>
<stop offset="1" stop-color="#76C4E2"/>
</linearGradient>
<linearGradient id="paint1_linear" x1="11007.4" y1="3794.53" x2="13973.9" y2="3794.53" gradientUnits="userSpaceOnUse">
<stop stop-color="#8176B5"/>
<stop offset="1" stop-color="#76C4E2"/>
</linearGradient>
</defs>
</svg>
