<svg width="600" height="145" viewBox="0 0 600 145" fill="none" xmlns="http://www.w3.org/2000/svg">
<path d="M142.48 58.7L129.48 71.7C129.427 71.7531 129.355 71.7829 129.28 71.7829C129.205 71.7829 129.133 71.7531 129.08 71.7C129.027 71.647 128.997 71.575 128.997 71.5C128.997 71.425 129.027 71.3531 129.08 71.3L141.66 58.72L139.26 58.81L126.89 71.17C125.247 70.6979 123.494 70.7831 121.904 71.4123C120.315 72.0415 118.978 73.1793 118.103 74.648C117.228 76.1168 116.864 77.8339 117.068 79.5314C117.272 81.2288 118.032 82.811 119.229 84.0311C120.427 85.2511 121.995 86.0403 123.688 86.2755C125.381 86.5106 127.105 86.1786 128.59 85.331C130.074 84.4835 131.237 83.1683 131.895 81.5906C132.554 80.013 132.672 78.2616 132.23 76.61L135 73.88H135.84L136.42 73.3L136.28 70.96L137.43 69.82L138.67 69.73L139.11 69.29V68L139.9 67.21L141.05 67.12L141.67 66.5L141.41 65.17L142.41 64.17L143.91 64.08L144.62 63.38V59.53L143.73 58.65L142.48 58.7ZM123.59 82.56C123.313 82.8465 122.957 83.0438 122.567 83.1265C122.177 83.2092 121.772 83.1736 121.402 83.0242C121.033 82.8749 120.717 82.6186 120.494 82.2882C120.271 81.9578 120.152 81.5685 120.152 81.17C120.152 80.7716 120.271 80.3822 120.494 80.0518C120.717 79.7215 121.033 79.4652 121.402 79.3158C121.772 79.1665 122.177 79.1309 122.567 79.2136C122.957 79.2963 123.313 79.4935 123.59 79.78C123.951 80.153 124.152 80.6513 124.152 81.17C124.152 81.6887 123.951 82.1871 123.59 82.56V82.56Z" fill="url(#paint0_linear)"/>
<path d="M109.648 125.61H105.207V117.757H109.648V118.842H106.49V120.98H109.45V122.054H106.49V124.52H109.648V125.61Z" fill="#707070"/>
<path d="M116.443 125.61H115.175V121.958C115.175 121.499 115.082 121.157 114.896 120.932C114.713 120.706 114.422 120.593 114.021 120.593C113.487 120.593 113.097 120.751 112.85 121.066C112.603 121.381 112.479 121.909 112.479 122.651V125.61H111.217V119.67H112.205L112.382 120.448H112.447C112.626 120.165 112.88 119.947 113.209 119.793C113.539 119.639 113.904 119.562 114.305 119.562C115.73 119.562 116.443 120.287 116.443 121.737V125.61Z" fill="#707070"/>
<path d="M120.595 125.717C119.696 125.717 119.012 125.456 118.543 124.933C118.077 124.407 117.845 123.653 117.845 122.672C117.845 121.673 118.088 120.905 118.575 120.368C119.066 119.831 119.773 119.562 120.697 119.562C121.323 119.562 121.887 119.679 122.389 119.911L122.007 120.926C121.474 120.719 121.033 120.615 120.686 120.615C119.658 120.615 119.145 121.297 119.145 122.661C119.145 123.327 119.272 123.829 119.526 124.165C119.784 124.498 120.16 124.665 120.654 124.665C121.216 124.665 121.748 124.525 122.249 124.246V125.347C122.023 125.479 121.782 125.574 121.524 125.631C121.27 125.689 120.96 125.717 120.595 125.717Z" fill="#707070"/>
<path d="M126.659 119.562C126.913 119.562 127.122 119.58 127.287 119.616L127.164 120.792C126.985 120.749 126.798 120.728 126.605 120.728C126.1 120.728 125.69 120.892 125.375 121.222C125.063 121.551 124.908 121.979 124.908 122.505V125.61H123.646V119.67H124.634L124.8 120.717H124.865C125.062 120.362 125.318 120.081 125.633 119.874C125.951 119.666 126.293 119.562 126.659 119.562Z" fill="#707070"/>
<path d="M127.491 119.67H128.866L130.075 123.037C130.257 123.517 130.379 123.968 130.44 124.391H130.483C130.515 124.194 130.574 123.956 130.66 123.676C130.746 123.394 131.201 122.058 132.024 119.67H133.389L130.848 126.4C130.386 127.635 129.616 128.253 128.539 128.253C128.259 128.253 127.987 128.222 127.722 128.161V127.162C127.912 127.205 128.129 127.227 128.372 127.227C128.981 127.227 129.409 126.874 129.656 126.169L129.876 125.61L127.491 119.67Z" fill="#707070"/>
<path d="M137.304 125.717C136.552 125.717 135.969 125.447 135.553 124.906H135.478C135.528 125.408 135.553 125.712 135.553 125.819V128.253H134.291V119.67H135.312C135.34 119.781 135.399 120.046 135.489 120.464H135.553C135.947 119.863 136.538 119.562 137.326 119.562C138.067 119.562 138.643 119.831 139.055 120.368C139.471 120.905 139.678 121.659 139.678 122.629C139.678 123.599 139.467 124.357 139.044 124.901C138.625 125.445 138.045 125.717 137.304 125.717ZM136.998 120.593C136.497 120.593 136.13 120.74 135.897 121.034C135.668 121.327 135.553 121.797 135.553 122.441V122.629C135.553 123.352 135.668 123.877 135.897 124.203C136.126 124.525 136.5 124.686 137.02 124.686C137.456 124.686 137.793 124.507 138.029 124.149C138.266 123.791 138.384 123.281 138.384 122.618C138.384 121.952 138.266 121.449 138.029 121.109C137.797 120.765 137.453 120.593 136.998 120.593Z" fill="#707070"/>
<path d="M143.357 124.697C143.665 124.697 143.973 124.649 144.281 124.552V125.503C144.142 125.563 143.961 125.614 143.739 125.653C143.52 125.696 143.293 125.717 143.057 125.717C141.861 125.717 141.263 125.087 141.263 123.827V120.626H140.452V120.067L141.322 119.605L141.751 118.348H142.53V119.67H144.222V120.626H142.53V123.805C142.53 124.11 142.605 124.335 142.756 124.482C142.91 124.625 143.11 124.697 143.357 124.697Z" fill="#707070"/>
<path d="M146.736 125.61H145.474V119.67H146.736V125.61ZM145.398 118.096C145.398 117.87 145.459 117.697 145.581 117.575C145.706 117.453 145.884 117.392 146.113 117.392C146.335 117.392 146.507 117.453 146.628 117.575C146.754 117.697 146.816 117.87 146.816 118.096C146.816 118.311 146.754 118.481 146.628 118.606C146.507 118.728 146.335 118.789 146.113 118.789C145.884 118.789 145.706 118.728 145.581 118.606C145.459 118.481 145.398 118.311 145.398 118.096Z" fill="#707070"/>
<path d="M153.815 122.629C153.815 123.599 153.566 124.357 153.068 124.901C152.571 125.445 151.878 125.717 150.99 125.717C150.435 125.717 149.944 125.592 149.518 125.341C149.092 125.091 148.764 124.731 148.535 124.262C148.306 123.793 148.191 123.248 148.191 122.629C148.191 121.666 148.438 120.914 148.933 120.373C149.427 119.832 150.123 119.562 151.022 119.562C151.881 119.562 152.562 119.84 153.063 120.395C153.564 120.946 153.815 121.691 153.815 122.629ZM149.491 122.629C149.491 124 149.998 124.686 151.011 124.686C152.014 124.686 152.515 124 152.515 122.629C152.515 121.272 152.01 120.593 151 120.593C150.471 120.593 150.086 120.769 149.846 121.12C149.609 121.471 149.491 121.974 149.491 122.629Z" fill="#707070"/>
<path d="M160.497 125.61H159.229V121.958C159.229 121.499 159.136 121.157 158.95 120.932C158.767 120.706 158.475 120.593 158.074 120.593C157.541 120.593 157.15 120.751 156.903 121.066C156.656 121.381 156.533 121.909 156.533 122.651V125.61H155.271V119.67H156.259L156.436 120.448H156.5C156.68 120.165 156.934 119.947 157.263 119.793C157.593 119.639 157.958 119.562 158.359 119.562C159.784 119.562 160.497 120.287 160.497 121.737V125.61Z" fill="#707070"/>
<path d="M272.107 118.746C271.37 118.746 270.79 119.007 270.367 119.53C269.945 120.053 269.733 120.774 269.733 121.694C269.733 122.658 269.936 123.386 270.34 123.88C270.749 124.375 271.338 124.622 272.107 124.622C272.44 124.622 272.763 124.589 273.074 124.525C273.386 124.457 273.71 124.371 274.046 124.267V125.368C273.431 125.601 272.732 125.717 271.952 125.717C270.802 125.717 269.92 125.37 269.304 124.675C268.688 123.977 268.38 122.98 268.38 121.684C268.38 120.867 268.528 120.153 268.826 119.541C269.126 118.928 269.56 118.459 270.125 118.133C270.691 117.808 271.355 117.645 272.118 117.645C272.92 117.645 273.661 117.813 274.342 118.15L273.88 119.218C273.615 119.093 273.334 118.984 273.037 118.891C272.743 118.794 272.433 118.746 272.107 118.746Z" fill="#707070"/>
<path d="M280.873 122.629C280.873 123.599 280.624 124.357 280.126 124.901C279.629 125.445 278.936 125.717 278.048 125.717C277.493 125.717 277.002 125.592 276.576 125.341C276.15 125.091 275.822 124.731 275.593 124.262C275.364 123.793 275.25 123.248 275.25 122.629C275.25 121.666 275.497 120.914 275.991 120.373C276.485 119.832 277.181 119.562 278.08 119.562C278.939 119.562 279.62 119.84 280.121 120.395C280.622 120.946 280.873 121.691 280.873 122.629ZM276.549 122.629C276.549 124 277.056 124.686 278.069 124.686C279.072 124.686 279.573 124 279.573 122.629C279.573 121.272 279.068 120.593 278.059 120.593C277.529 120.593 277.144 120.769 276.904 121.12C276.667 121.471 276.549 121.974 276.549 122.629Z" fill="#707070"/>
<path d="M287.334 125.61H286.067V121.947C286.067 121.492 285.981 121.154 285.809 120.932C285.637 120.706 285.369 120.593 285.003 120.593C284.516 120.593 284.158 120.753 283.929 121.071C283.704 121.387 283.591 121.913 283.591 122.651V125.61H282.329V119.67H283.317L283.494 120.448H283.559C283.723 120.165 283.961 119.947 284.273 119.793C284.588 119.639 284.934 119.562 285.31 119.562C286.223 119.562 286.828 119.874 287.125 120.497H287.211C287.386 120.203 287.633 119.974 287.952 119.809C288.271 119.644 288.636 119.562 289.048 119.562C289.757 119.562 290.272 119.741 290.595 120.099C290.921 120.457 291.083 121.003 291.083 121.737V125.61H289.821V121.947C289.821 121.492 289.734 121.154 289.558 120.932C289.386 120.706 289.118 120.593 288.752 120.593C288.262 120.593 287.902 120.747 287.673 121.055C287.447 121.36 287.334 121.829 287.334 122.463V125.61Z" fill="#707070"/>
<path d="M295.858 125.717C295.106 125.717 294.523 125.447 294.107 124.906H294.032C294.082 125.408 294.107 125.712 294.107 125.819V128.253H292.845V119.67H293.866C293.894 119.781 293.953 120.046 294.043 120.464H294.107C294.501 119.863 295.092 119.562 295.88 119.562C296.621 119.562 297.198 119.831 297.609 120.368C298.025 120.905 298.232 121.659 298.232 122.629C298.232 123.599 298.021 124.357 297.599 124.901C297.18 125.445 296.6 125.717 295.858 125.717ZM295.552 120.593C295.051 120.593 294.684 120.74 294.451 121.034C294.222 121.327 294.107 121.797 294.107 122.441V122.629C294.107 123.352 294.222 123.877 294.451 124.203C294.68 124.525 295.055 124.686 295.574 124.686C296.011 124.686 296.347 124.507 296.583 124.149C296.82 123.791 296.938 123.281 296.938 122.618C296.938 121.952 296.82 121.449 296.583 121.109C296.351 120.765 296.007 120.593 295.552 120.593Z" fill="#707070"/>
<path d="M302.712 119.562C302.966 119.562 303.176 119.58 303.34 119.616L303.217 120.792C303.038 120.749 302.852 120.728 302.658 120.728C302.153 120.728 301.743 120.892 301.428 121.222C301.117 121.551 300.961 121.979 300.961 122.505V125.61H299.699V119.67H300.687L300.854 120.717H300.918C301.115 120.362 301.371 120.081 301.686 119.874C302.005 119.666 302.347 119.562 302.712 119.562Z" fill="#707070"/>
<path d="M307.041 125.717C306.117 125.717 305.394 125.449 304.871 124.912C304.352 124.371 304.092 123.628 304.092 122.683C304.092 121.712 304.334 120.95 304.817 120.395C305.301 119.84 305.965 119.562 306.81 119.562C307.594 119.562 308.214 119.8 308.668 120.276C309.123 120.753 309.351 121.408 309.351 122.242V122.924H305.392C305.41 123.501 305.566 123.945 305.859 124.256C306.153 124.564 306.567 124.718 307.1 124.718C307.451 124.718 307.777 124.686 308.078 124.622C308.382 124.554 308.708 124.443 309.055 124.289V125.315C308.747 125.461 308.436 125.565 308.121 125.626C307.806 125.687 307.446 125.717 307.041 125.717ZM306.81 120.518C306.409 120.518 306.087 120.645 305.843 120.9C305.603 121.154 305.46 121.524 305.414 122.011H308.11C308.103 121.521 307.985 121.15 307.755 120.9C307.526 120.645 307.211 120.518 306.81 120.518Z" fill="#707070"/>
<path d="M314.775 123.918C314.775 124.498 314.564 124.944 314.142 125.255C313.719 125.563 313.114 125.717 312.326 125.717C311.535 125.717 310.899 125.597 310.419 125.358V124.267C311.118 124.589 311.768 124.751 312.369 124.751C313.146 124.751 313.535 124.516 313.535 124.047C313.535 123.897 313.492 123.771 313.406 123.671C313.32 123.571 313.178 123.467 312.981 123.359C312.785 123.252 312.511 123.13 312.16 122.994C311.476 122.729 311.012 122.464 310.769 122.199C310.529 121.934 310.409 121.591 310.409 121.168C310.409 120.66 310.613 120.266 311.021 119.986C311.433 119.704 311.991 119.562 312.697 119.562C313.395 119.562 314.056 119.704 314.679 119.986L314.271 120.937C313.63 120.672 313.091 120.54 312.654 120.54C311.988 120.54 311.655 120.729 311.655 121.109C311.655 121.295 311.741 121.453 311.913 121.582C312.088 121.711 312.468 121.888 313.051 122.113C313.542 122.303 313.898 122.477 314.12 122.634C314.342 122.792 314.507 122.975 314.614 123.182C314.722 123.386 314.775 123.632 314.775 123.918Z" fill="#707070"/>
<path d="M320.136 123.918C320.136 124.498 319.924 124.944 319.502 125.255C319.079 125.563 318.474 125.717 317.687 125.717C316.895 125.717 316.26 125.597 315.78 125.358V124.267C316.478 124.589 317.128 124.751 317.729 124.751C318.507 124.751 318.895 124.516 318.895 124.047C318.895 123.897 318.852 123.771 318.766 123.671C318.68 123.571 318.539 123.467 318.342 123.359C318.145 123.252 317.871 123.13 317.52 122.994C316.836 122.729 316.372 122.464 316.129 122.199C315.889 121.934 315.769 121.591 315.769 121.168C315.769 120.66 315.973 120.266 316.381 119.986C316.793 119.704 317.352 119.562 318.057 119.562C318.755 119.562 319.416 119.704 320.039 119.986L319.631 120.937C318.99 120.672 318.451 120.54 318.014 120.54C317.348 120.54 317.015 120.729 317.015 121.109C317.015 121.295 317.101 121.453 317.273 121.582C317.448 121.711 317.828 121.888 318.412 122.113C318.902 122.303 319.258 122.477 319.48 122.634C319.702 122.792 319.867 122.975 319.975 123.182C320.082 123.386 320.136 123.632 320.136 123.918Z" fill="#707070"/>
<path d="M322.768 125.61H321.505V119.67H322.768V125.61ZM321.43 118.096C321.43 117.87 321.491 117.697 321.613 117.575C321.738 117.453 321.915 117.392 322.145 117.392C322.367 117.392 322.538 117.453 322.66 117.575C322.785 117.697 322.848 117.87 322.848 118.096C322.848 118.311 322.785 118.481 322.66 118.606C322.538 118.728 322.367 118.789 322.145 118.789C321.915 118.789 321.738 118.728 321.613 118.606C321.491 118.481 321.43 118.311 321.43 118.096Z" fill="#707070"/>
<path d="M329.847 122.629C329.847 123.599 329.598 124.357 329.1 124.901C328.602 125.445 327.91 125.717 327.021 125.717C326.466 125.717 325.976 125.592 325.55 125.341C325.124 125.091 324.796 124.731 324.567 124.262C324.338 123.793 324.223 123.248 324.223 122.629C324.223 121.666 324.47 120.914 324.964 120.373C325.458 119.832 326.155 119.562 327.054 119.562C327.913 119.562 328.593 119.84 329.095 120.395C329.596 120.946 329.847 121.691 329.847 122.629ZM325.523 122.629C325.523 124 326.03 124.686 327.043 124.686C328.046 124.686 328.547 124 328.547 122.629C328.547 121.272 328.042 120.593 327.032 120.593C326.502 120.593 326.117 120.769 325.877 121.12C325.641 121.471 325.523 121.974 325.523 122.629Z" fill="#707070"/>
<path d="M336.528 125.61H335.261V121.958C335.261 121.499 335.168 121.157 334.981 120.932C334.799 120.706 334.507 120.593 334.106 120.593C333.572 120.593 333.182 120.751 332.935 121.066C332.688 121.381 332.564 121.909 332.564 122.651V125.61H331.302V119.67H332.291L332.468 120.448H332.532C332.711 120.165 332.965 119.947 333.295 119.793C333.624 119.639 333.99 119.562 334.391 119.562C335.816 119.562 336.528 120.287 336.528 121.737V125.61Z" fill="#707070"/>
<path d="M443.529 125.61H442.245V118.859H439.936V117.757H445.838V118.859H443.529V125.61Z" fill="#707070"/>
<path d="M449.926 119.562C450.18 119.562 450.389 119.58 450.554 119.616L450.431 120.792C450.252 120.749 450.065 120.728 449.872 120.728C449.367 120.728 448.957 120.892 448.642 121.222C448.331 121.551 448.175 121.979 448.175 122.505V125.61H446.913V119.67H447.901L448.067 120.717H448.132C448.329 120.362 448.585 120.081 448.9 119.874C449.219 119.666 449.561 119.562 449.926 119.562Z" fill="#707070"/>
<path d="M455.377 125.61L455.125 124.783H455.082C454.796 125.144 454.507 125.392 454.217 125.524C453.927 125.653 453.555 125.717 453.1 125.717C452.516 125.717 452.06 125.56 451.73 125.245C451.405 124.93 451.242 124.484 451.242 123.907C451.242 123.295 451.469 122.833 451.924 122.522C452.379 122.21 453.071 122.04 454.002 122.011L455.028 121.979V121.662C455.028 121.283 454.939 121 454.76 120.814C454.584 120.624 454.31 120.529 453.938 120.529C453.634 120.529 453.342 120.574 453.062 120.663C452.783 120.753 452.515 120.858 452.257 120.98L451.849 120.078C452.171 119.909 452.524 119.782 452.907 119.696C453.29 119.607 453.652 119.562 453.992 119.562C454.747 119.562 455.317 119.727 455.7 120.056C456.086 120.386 456.28 120.903 456.28 121.609V125.61H455.377ZM453.498 124.751C453.956 124.751 454.323 124.623 454.599 124.369C454.878 124.111 455.018 123.752 455.018 123.29V122.774L454.255 122.806C453.66 122.828 453.227 122.928 452.955 123.107C452.687 123.283 452.552 123.553 452.552 123.918C452.552 124.183 452.631 124.389 452.789 124.536C452.946 124.679 453.182 124.751 453.498 124.751Z" fill="#707070"/>
<path d="M463.268 125.61H462V121.958C462 121.499 461.907 121.157 461.721 120.932C461.538 120.706 461.246 120.593 460.845 120.593C460.312 120.593 459.921 120.751 459.674 121.066C459.427 121.381 459.304 121.909 459.304 122.651V125.61H458.042V119.67H459.03L459.207 120.448H459.271C459.451 120.165 459.705 119.947 460.034 119.793C460.364 119.639 460.729 119.562 461.13 119.562C462.555 119.562 463.268 120.287 463.268 121.737V125.61Z" fill="#707070"/>
<path d="M469.015 123.918C469.015 124.498 468.803 124.944 468.381 125.255C467.958 125.563 467.353 125.717 466.565 125.717C465.774 125.717 465.139 125.597 464.659 125.358V124.267C465.357 124.589 466.007 124.751 466.608 124.751C467.385 124.751 467.774 124.516 467.774 124.047C467.774 123.897 467.731 123.771 467.645 123.671C467.559 123.571 467.418 123.467 467.221 123.359C467.024 123.252 466.75 123.13 466.399 122.994C465.715 122.729 465.251 122.464 465.008 122.199C464.768 121.934 464.648 121.591 464.648 121.168C464.648 120.66 464.852 120.266 465.26 119.986C465.672 119.704 466.231 119.562 466.936 119.562C467.634 119.562 468.295 119.704 468.918 119.986L468.51 120.937C467.869 120.672 467.33 120.54 466.893 120.54C466.227 120.54 465.894 120.729 465.894 121.109C465.894 121.295 465.98 121.453 466.152 121.582C466.327 121.711 466.707 121.888 467.291 122.113C467.781 122.303 468.137 122.477 468.359 122.634C468.581 122.792 468.746 122.975 468.854 123.182C468.961 123.386 469.015 123.632 469.015 123.918Z" fill="#707070"/>
<path d="M471.646 125.61H470.384V117.253H471.646V125.61Z" fill="#707070"/>
<path d="M477.173 125.61L476.921 124.783H476.878C476.591 125.144 476.303 125.392 476.013 125.524C475.723 125.653 475.351 125.717 474.896 125.717C474.312 125.717 473.856 125.56 473.526 125.245C473.201 124.93 473.038 124.484 473.038 123.907C473.038 123.295 473.265 122.833 473.72 122.522C474.174 122.21 474.867 122.04 475.798 122.011L476.824 121.979V121.662C476.824 121.283 476.735 121 476.556 120.814C476.38 120.624 476.106 120.529 475.734 120.529C475.43 120.529 475.138 120.574 474.858 120.663C474.579 120.753 474.311 120.858 474.053 120.98L473.645 120.078C473.967 119.909 474.319 119.782 474.703 119.696C475.086 119.607 475.447 119.562 475.788 119.562C476.543 119.562 477.112 119.727 477.496 120.056C477.882 120.386 478.076 120.903 478.076 121.609V125.61H477.173ZM475.293 124.751C475.752 124.751 476.119 124.623 476.395 124.369C476.674 124.111 476.813 123.752 476.813 123.29V122.774L476.051 122.806C475.456 122.828 475.023 122.928 474.751 123.107C474.482 123.283 474.348 123.553 474.348 123.918C474.348 124.183 474.427 124.389 474.584 124.536C474.742 124.679 474.978 124.751 475.293 124.751Z" fill="#707070"/>
<path d="M482.05 124.697C482.358 124.697 482.666 124.649 482.974 124.552V125.503C482.834 125.563 482.654 125.614 482.432 125.653C482.213 125.696 481.986 125.717 481.75 125.717C480.554 125.717 479.956 125.087 479.956 123.827V120.626H479.145V120.067L480.015 119.605L480.444 118.348H481.223V119.67H482.915V120.626H481.223V123.805C481.223 124.11 481.298 124.335 481.449 124.482C481.603 124.625 481.803 124.697 482.05 124.697Z" fill="#707070"/>
<path d="M485.429 125.61H484.167V119.67H485.429V125.61ZM484.091 118.096C484.091 117.87 484.152 117.697 484.274 117.575C484.399 117.453 484.576 117.392 484.806 117.392C485.028 117.392 485.2 117.453 485.321 117.575C485.447 117.697 485.509 117.87 485.509 118.096C485.509 118.311 485.447 118.481 485.321 118.606C485.2 118.728 485.028 118.789 484.806 118.789C484.576 118.789 484.399 118.728 484.274 118.606C484.152 118.481 484.091 118.311 484.091 118.096Z" fill="#707070"/>
<path d="M492.508 122.629C492.508 123.599 492.259 124.357 491.761 124.901C491.264 125.445 490.571 125.717 489.683 125.717C489.128 125.717 488.637 125.592 488.211 125.341C487.785 125.091 487.457 124.731 487.228 124.262C486.999 123.793 486.884 123.248 486.884 122.629C486.884 121.666 487.131 120.914 487.625 120.373C488.12 119.832 488.816 119.562 489.715 119.562C490.574 119.562 491.255 119.84 491.756 120.395C492.257 120.946 492.508 121.691 492.508 122.629ZM488.184 122.629C488.184 124 488.691 124.686 489.704 124.686C490.707 124.686 491.208 124 491.208 122.629C491.208 121.272 490.703 120.593 489.693 120.593C489.163 120.593 488.778 120.769 488.539 121.12C488.302 121.471 488.184 121.974 488.184 122.629Z" fill="#707070"/>
<path d="M499.189 125.61H497.922V121.958C497.922 121.499 497.829 121.157 497.643 120.932C497.46 120.706 497.168 120.593 496.767 120.593C496.234 120.593 495.843 120.751 495.596 121.066C495.349 121.381 495.226 121.909 495.226 122.651V125.61H493.963V119.67H494.952L495.129 120.448H495.193C495.372 120.165 495.627 119.947 495.956 119.793C496.285 119.639 496.651 119.562 497.052 119.562C498.477 119.562 499.189 120.287 499.189 121.737V125.61Z" fill="#707070"/>
<path d="M222.112 22.4H220.362V13.1935H217.212V11.692H225.262V13.1935H222.112V22.4Z" fill="#707070"/>
<path d="M233.853 22.4H232.125V17.4196C232.125 16.7946 231.998 16.3282 231.744 16.0206C231.495 15.713 231.097 15.5592 230.55 15.5592C229.827 15.5592 229.295 15.7765 228.953 16.2111C228.616 16.6407 228.448 17.3634 228.448 18.379V22.4H226.727V11.0035H228.448V13.8966C228.448 14.3605 228.418 14.8561 228.36 15.3834H228.47C228.704 14.9928 229.029 14.6901 229.444 14.4752C229.864 14.2604 230.352 14.153 230.909 14.153C232.872 14.153 233.853 15.1417 233.853 17.1193V22.4Z" fill="#707070"/>
<path d="M239.786 22.5465C238.526 22.5465 237.54 22.1803 236.827 21.4479C236.119 20.7106 235.765 19.6974 235.765 18.4083C235.765 17.0851 236.094 16.045 236.753 15.2882C237.413 14.5314 238.318 14.153 239.471 14.153C240.54 14.153 241.385 14.4777 242.005 15.1271C242.625 15.7765 242.935 16.67 242.935 17.8077V18.7379H237.537C237.562 19.524 237.774 20.1295 238.174 20.5543C238.575 20.9742 239.139 21.1842 239.866 21.1842C240.345 21.1842 240.789 21.1403 241.199 21.0524C241.614 20.9596 242.059 20.8082 242.532 20.5983V21.9972C242.112 22.1974 241.688 22.339 241.258 22.422C240.828 22.505 240.337 22.5465 239.786 22.5465ZM239.471 15.4567C238.924 15.4567 238.484 15.63 238.152 15.9767C237.825 16.3234 237.63 16.8287 237.566 17.4928H241.243C241.233 16.8239 241.072 16.3185 240.76 15.9767C240.447 15.63 240.018 15.4567 239.471 15.4567Z" fill="#707070"/>
<path d="M256.06 14.9293C256.06 16.0475 255.694 16.9044 254.961 17.5001C254.229 18.0958 253.187 18.3937 251.834 18.3937H250.721V22.4H248.97V11.692H252.054C253.392 11.692 254.393 11.9655 255.057 12.5123C255.726 13.0592 256.06 13.8649 256.06 14.9293ZM250.721 16.9215H251.651C252.549 16.9215 253.208 16.7653 253.628 16.4528C254.048 16.1403 254.258 15.652 254.258 14.9879C254.258 14.3727 254.07 13.9137 253.694 13.611C253.318 13.3082 252.732 13.1569 251.937 13.1569H250.721V16.9215Z" fill="#707070"/>
<path d="M262.125 14.153C262.471 14.153 262.757 14.1774 262.981 14.2262L262.813 15.8302C262.569 15.7716 262.315 15.7423 262.051 15.7423C261.363 15.7423 260.804 15.9669 260.374 16.4161C259.949 16.8654 259.737 17.4489 259.737 18.1666V22.4H258.016V14.2994H259.363L259.59 15.7277H259.678C259.947 15.2443 260.296 14.861 260.726 14.5778C261.16 14.2946 261.626 14.153 262.125 14.153Z" fill="#707070"/>
<path d="M268.028 22.5465C266.768 22.5465 265.782 22.1803 265.069 21.4479C264.361 20.7106 264.007 19.6974 264.007 18.4083C264.007 17.0851 264.336 16.045 264.996 15.2882C265.655 14.5314 266.561 14.153 267.713 14.153C268.782 14.153 269.627 14.4777 270.247 15.1271C270.867 15.7765 271.177 16.67 271.177 17.8077V18.7379H265.779C265.804 19.524 266.016 20.1295 266.417 20.5543C266.817 20.9742 267.381 21.1842 268.108 21.1842C268.587 21.1842 269.031 21.1403 269.441 21.0524C269.856 20.9596 270.301 20.8082 270.774 20.5983V21.9972C270.354 22.1974 269.93 22.339 269.5 22.422C269.07 22.505 268.58 22.5465 268.028 22.5465ZM267.713 15.4567C267.166 15.4567 266.727 15.63 266.395 15.9767C266.067 16.3234 265.872 16.8287 265.809 17.4928H269.485C269.476 16.8239 269.314 16.3185 269.002 15.9767C268.689 15.63 268.26 15.4567 267.713 15.4567Z" fill="#707070"/>
<path d="M278.575 20.0929C278.575 20.8839 278.287 21.4918 277.71 21.9166C277.134 22.3365 276.309 22.5465 275.235 22.5465C274.156 22.5465 273.289 22.3829 272.635 22.0558V20.569C273.587 21.0084 274.473 21.2281 275.293 21.2281C276.353 21.2281 276.883 20.9083 276.883 20.2687C276.883 20.0636 276.824 19.8927 276.707 19.756C276.59 19.6193 276.397 19.4777 276.128 19.3312C275.86 19.1847 275.486 19.0187 275.008 18.8331C274.075 18.4718 273.443 18.1105 273.111 17.7491C272.784 17.3878 272.62 16.9191 272.62 16.3429C272.62 15.6495 272.898 15.1124 273.455 14.7316C274.017 14.3458 274.778 14.153 275.74 14.153C276.692 14.153 277.593 14.3458 278.443 14.7316L277.886 16.028C277.012 15.6666 276.277 15.486 275.682 15.486C274.773 15.486 274.319 15.7448 274.319 16.2623C274.319 16.5162 274.437 16.7311 274.671 16.9069C274.91 17.0826 275.428 17.3243 276.224 17.632C276.893 17.8907 277.378 18.1276 277.681 18.3424C277.984 18.5573 278.208 18.8063 278.355 19.0895C278.501 19.3678 278.575 19.7023 278.575 20.0929Z" fill="#707070"/>
<path d="M283.98 22.5465C282.72 22.5465 281.734 22.1803 281.021 21.4479C280.313 20.7106 279.959 19.6974 279.959 18.4083C279.959 17.0851 280.289 16.045 280.948 15.2882C281.607 14.5314 282.513 14.153 283.665 14.153C284.734 14.153 285.579 14.4777 286.199 15.1271C286.819 15.7765 287.129 16.67 287.129 17.8077V18.7379H281.731C281.756 19.524 281.968 20.1295 282.369 20.5543C282.769 20.9742 283.333 21.1842 284.061 21.1842C284.539 21.1842 284.983 21.1403 285.394 21.0524C285.809 20.9596 286.253 20.8082 286.727 20.5983V21.9972C286.307 22.1974 285.882 22.339 285.452 22.422C285.022 22.505 284.532 22.5465 283.98 22.5465ZM283.665 15.4567C283.118 15.4567 282.679 15.63 282.347 15.9767C282.02 16.3234 281.824 16.8287 281.761 17.4928H285.438C285.428 16.8239 285.267 16.3185 284.954 15.9767C284.642 15.63 284.212 15.4567 283.665 15.4567Z" fill="#707070"/>
<path d="M296.211 22.4H294.483V17.4196C294.483 16.7946 294.356 16.3282 294.102 16.0206C293.853 15.713 293.455 15.5592 292.908 15.5592C292.181 15.5592 291.648 15.774 291.312 16.2037C290.975 16.6334 290.806 17.3536 290.806 18.3644V22.4H289.085V14.2994H290.433L290.674 15.3615H290.762C291.006 14.9757 291.353 14.6779 291.802 14.4679C292.251 14.2579 292.75 14.153 293.296 14.153C295.24 14.153 296.211 15.1417 296.211 17.1193V22.4Z" fill="#707070"/>
<path d="M301.624 21.1549C302.044 21.1549 302.464 21.089 302.884 20.9572V22.2535C302.693 22.3365 302.447 22.4049 302.144 22.4586C301.846 22.5172 301.536 22.5465 301.214 22.5465C299.583 22.5465 298.768 21.6871 298.768 19.9684V15.6031H297.662V14.8414L298.848 14.2115L299.434 12.4977H300.496V14.2994H302.803V15.6031H300.496V19.9391C300.496 20.3541 300.599 20.6617 300.804 20.8619C301.014 21.0573 301.287 21.1549 301.624 21.1549Z" fill="#707070"/>
<path d="M309.578 22.4L309.234 21.2721H309.175C308.785 21.7653 308.392 22.1022 307.996 22.2828C307.601 22.4586 307.093 22.5465 306.473 22.5465C305.677 22.5465 305.054 22.3317 304.605 21.902C304.161 21.4723 303.938 20.8644 303.938 20.0782C303.938 19.2433 304.249 18.6134 304.869 18.1886C305.489 17.7638 306.434 17.5319 307.703 17.4928L309.102 17.4489V17.0167C309.102 16.4991 308.98 16.1134 308.736 15.8595C308.497 15.6007 308.123 15.4713 307.615 15.4713C307.2 15.4713 306.802 15.5323 306.421 15.6544C306.041 15.7765 305.674 15.9205 305.323 16.0865L304.766 14.8561C305.206 14.6266 305.687 14.4532 306.209 14.3361C306.731 14.214 307.225 14.153 307.688 14.153C308.719 14.153 309.495 14.3776 310.018 14.8268C310.545 15.276 310.809 15.9816 310.809 16.9435V22.4H309.578ZM307.015 21.2281C307.64 21.2281 308.14 21.0548 308.516 20.7081C308.897 20.3566 309.087 19.8658 309.087 19.236V18.5328L308.047 18.5768C307.237 18.6061 306.646 18.7428 306.275 18.9869C305.909 19.2262 305.726 19.5948 305.726 20.0929C305.726 20.4542 305.833 20.735 306.048 20.9352C306.263 21.1305 306.585 21.2281 307.015 21.2281Z" fill="#707070"/>
<path d="M316.229 21.1549C316.648 21.1549 317.068 21.089 317.488 20.9572V22.2535C317.298 22.3365 317.051 22.4049 316.749 22.4586C316.451 22.5172 316.141 22.5465 315.818 22.5465C314.188 22.5465 313.372 21.6871 313.372 19.9684V15.6031H312.266V14.8414L313.453 14.2115L314.039 12.4977H315.101V14.2994H317.408V15.6031H315.101V19.9391C315.101 20.3541 315.203 20.6617 315.408 20.8619C315.618 21.0573 315.892 21.1549 316.229 21.1549Z" fill="#707070"/>
<path d="M320.835 22.4H319.114V14.2994H320.835V22.4ZM319.012 12.1534C319.012 11.8458 319.095 11.609 319.261 11.443C319.432 11.277 319.673 11.194 319.986 11.194C320.289 11.194 320.523 11.277 320.689 11.443C320.86 11.609 320.945 11.8458 320.945 12.1534C320.945 12.4464 320.86 12.6783 320.689 12.8492C320.523 13.0153 320.289 13.0983 319.986 13.0983C319.673 13.0983 319.432 13.0153 319.261 12.8492C319.095 12.6783 319.012 12.4464 319.012 12.1534Z" fill="#707070"/>
<path d="M330.489 18.3351C330.489 19.6583 330.149 20.691 329.471 21.4332C328.792 22.1754 327.847 22.5465 326.636 22.5465C325.879 22.5465 325.21 22.3756 324.629 22.0338C324.048 21.692 323.602 21.2013 323.289 20.5616C322.977 19.922 322.82 19.1798 322.82 18.3351C322.82 17.0216 323.157 15.9962 323.831 15.2589C324.505 14.5216 325.455 14.153 326.68 14.153C327.852 14.153 328.78 14.5314 329.463 15.2882C330.147 16.0402 330.489 17.0558 330.489 18.3351ZM324.593 18.3351C324.593 20.2052 325.284 21.1403 326.666 21.1403C328.033 21.1403 328.716 20.2052 328.716 18.3351C328.716 16.4845 328.028 15.5592 326.651 15.5592C325.928 15.5592 325.403 15.7985 325.076 16.277C324.754 16.7555 324.593 17.4415 324.593 18.3351Z" fill="#707070"/>
<path d="M339.6 22.4H337.872V17.4196C337.872 16.7946 337.745 16.3282 337.491 16.0206C337.242 15.713 336.844 15.5592 336.297 15.5592C335.569 15.5592 335.037 15.774 334.7 16.2037C334.363 16.6334 334.195 17.3536 334.195 18.3644V22.4H332.474V14.2994H333.821L334.063 15.3615H334.151C334.395 14.9757 334.742 14.6779 335.191 14.4679C335.64 14.2579 336.138 14.153 336.685 14.153C338.628 14.153 339.6 15.1417 339.6 17.1193V22.4Z" fill="#707070"/>
<path d="M346.075 22.4V11.692H347.825V20.8986H352.359V22.4H346.075Z" fill="#707070"/>
<path d="M359.09 22.4L358.746 21.2721H358.687C358.296 21.7653 357.903 22.1022 357.508 22.2828C357.112 22.4586 356.604 22.5465 355.984 22.5465C355.188 22.5465 354.566 22.3317 354.117 21.902C353.672 21.4723 353.45 20.8644 353.45 20.0782C353.45 19.2433 353.76 18.6134 354.38 18.1886C355 17.7638 355.945 17.5319 357.215 17.4928L358.614 17.4489V17.0167C358.614 16.4991 358.492 16.1134 358.248 15.8595C358.008 15.6007 357.635 15.4713 357.127 15.4713C356.712 15.4713 356.314 15.5323 355.933 15.6544C355.552 15.7765 355.186 15.9205 354.834 16.0865L354.278 14.8561C354.717 14.6266 355.198 14.4532 355.721 14.3361C356.243 14.214 356.736 14.153 357.2 14.153C358.23 14.153 359.007 14.3776 359.529 14.8268C360.057 15.276 360.32 15.9816 360.32 16.9435V22.4H359.09ZM356.526 21.2281C357.151 21.2281 357.652 21.0548 358.028 20.7081C358.409 20.3566 358.599 19.8658 358.599 19.236V18.5328L357.559 18.5768C356.749 18.6061 356.158 18.7428 355.787 18.9869C355.42 19.2262 355.237 19.5948 355.237 20.0929C355.237 20.4542 355.345 20.735 355.56 20.9352C355.774 21.1305 356.097 21.2281 356.526 21.2281Z" fill="#707070"/>
<path d="M361.492 14.2994H363.367L365.015 18.8917C365.264 19.546 365.43 20.1613 365.513 20.7374H365.572C365.616 20.4689 365.696 20.1442 365.813 19.7633C365.931 19.3776 366.551 17.5563 367.674 14.2994H369.534L366.07 23.4767C365.44 25.1613 364.39 26.0035 362.92 26.0035C362.54 26.0035 362.168 25.962 361.807 25.879V24.5167C362.066 24.5753 362.361 24.6046 362.693 24.6046C363.523 24.6046 364.107 24.1237 364.444 23.1617L364.744 22.4L361.492 14.2994Z" fill="#707070"/>
<path d="M374.302 22.5465C373.042 22.5465 372.056 22.1803 371.343 21.4479C370.635 20.7106 370.281 19.6974 370.281 18.4083C370.281 17.0851 370.611 16.045 371.27 15.2882C371.929 14.5314 372.835 14.153 373.987 14.153C375.057 14.153 375.901 14.4777 376.521 15.1271C377.142 15.7765 377.452 16.67 377.452 17.8077V18.7379H372.054C372.078 19.524 372.291 20.1295 372.691 20.5543C373.091 20.9742 373.655 21.1842 374.383 21.1842C374.861 21.1842 375.306 21.1403 375.716 21.0524C376.131 20.9596 376.575 20.8082 377.049 20.5983V21.9972C376.629 22.1974 376.204 22.339 375.774 22.422C375.345 22.505 374.854 22.5465 374.302 22.5465ZM373.987 15.4567C373.44 15.4567 373.001 15.63 372.669 15.9767C372.342 16.3234 372.146 16.8287 372.083 17.4928H375.76C375.75 16.8239 375.589 16.3185 375.276 15.9767C374.964 15.63 374.534 15.4567 373.987 15.4567Z" fill="#707070"/>
<path d="M383.516 14.153C383.863 14.153 384.148 14.1774 384.373 14.2262L384.205 15.8302C383.96 15.7716 383.707 15.7423 383.443 15.7423C382.754 15.7423 382.195 15.9669 381.766 16.4161C381.341 16.8654 381.128 17.4489 381.128 18.1666V22.4H379.407V14.2994H380.755L380.982 15.7277H381.07C381.338 15.2443 381.688 14.861 382.117 14.5778C382.552 14.2946 383.018 14.153 383.516 14.153Z" fill="#707070"/>
<path d="M305.15 66.28H306.52V52.17H308.43V66.28H309.8L307.47 68.6L305.15 66.28ZM302.84 65.54L305.16 63.22H303.8V49.11H301.89V63.22H300.52L302.84 65.54ZM306.07 57.22L304.25 56.11V58.35L306.07 59.45V57.22ZM320.25 85.07C320.247 85.2365 320.203 85.3997 320.121 85.5446C320.038 85.6896 319.922 85.8117 319.78 85.9L303.29 95.64C303.25 95.6905 303.198 95.7315 303.14 95.76C302.995 95.847 302.829 95.8921 302.66 95.89C302.491 95.8905 302.326 95.8456 302.18 95.76L285.46 86.1C285.319 86.0117 285.202 85.8896 285.12 85.7446C285.038 85.5997 284.993 85.4365 284.99 85.27L285.07 66C285.073 65.8687 285.102 65.7392 285.156 65.6191C285.209 65.499 285.285 65.3906 285.38 65.3C285.448 65.2291 285.525 65.1684 285.61 65.12L296.8 58.73V60.93L288 65.93L296 70.56L302.72 74.4L317.2 66.26L308.9 61.2V58.93L319.59 65.45C319.739 65.5733 319.861 65.7255 319.948 65.8975C320.036 66.0694 320.088 66.2574 320.1 66.45L320.25 85.07ZM301.7 76.07L295 72.17L287 67.59L286.92 84.73L301.72 93.28L301.7 76.07ZM318.33 84.55L318.19 68L303.62 76V93.23L318.33 84.55ZM301.43 56L299.62 57V59.2L301.43 58.2V56ZM298.21 68.6L300.53 66.28H299.17V52.17H297.26V66.28H295.89L298.21 68.6Z" fill="url(#paint1_linear)"/>
<path d="M190.36 84H238.07" stroke="#707070" stroke-width="2" stroke-linecap="round" stroke-linejoin="round"/>
<path d="M234.09 87.39L237.48 84L234.09 80.61H236.97L240.36 84L236.97 87.39H234.09Z" fill="#707070"/>
<path d="M364.88 84H412.6" stroke="#707070" stroke-width="2" stroke-linecap="round" stroke-linejoin="round"/>
<path d="M408.61 87.39L412 84L408.61 80.61H411.49L414.88 84L411.49 87.39H408.61Z" fill="#707070"/>
<path d="M474.68 66.63C474.355 65.4451 473.874 64.3085 473.25 63.25L471.41 64.33C470.881 63.4322 470.235 62.6084 469.49 61.88L470.99 60.35C470.11 59.4933 469.125 58.7508 468.06 58.14L467 60C466.089 59.491 465.118 59.0979 464.11 58.83L464.64 56.77C463.453 56.4538 462.228 56.3024 461 56.32V58.45C459.956 58.4609 458.917 58.6054 457.91 58.88L457.34 56.83C456.169 57.1586 455.046 57.6393 454 58.26L455.08 60.1C454.178 60.619 453.35 61.2581 452.62 62L451.09 60.5C450.233 61.3801 449.491 62.3645 448.88 63.43L450.74 64.49C450.229 65.3964 449.836 66.3642 449.57 67.37L447.51 66.83C447.194 68.0205 447.043 69.2485 447.06 70.48H449.19C449.199 71.5249 449.347 72.5639 449.63 73.57L447.57 74.14C447.895 75.3249 448.376 76.4614 449 77.52L450.84 76.44C451.366 77.34 452.012 78.1642 452.76 78.89L451.26 80.41C452.137 81.2728 453.122 82.0189 454.19 82.63L455.25 80.77C456.155 81.2816 457.123 81.6716 458.13 81.93L457.6 84C458.788 84.3111 460.012 84.4625 461.24 84.45V82.32C462.285 82.3105 463.324 82.1626 464.33 81.88V81.88L464.9 83.94C466.083 83.6103 467.219 83.1296 468.28 82.51L467.2 80.67C468.095 80.1376 468.919 79.4923 469.65 78.75L471.18 80.25C472.036 79.3723 472.776 78.3874 473.38 77.32L471.53 76.26C472.041 75.3552 472.432 74.3868 472.69 73.38L474.76 73.91C475.07 72.7219 475.222 71.4979 475.21 70.27H473.08C473.07 69.225 472.922 68.186 472.64 67.18L474.68 66.63ZM469 70.32C469.009 71.3507 468.816 72.3733 468.43 73.329C468.043 74.2848 467.473 75.155 466.75 75.89C466.267 76.3813 465.722 76.8082 465.13 77.16C464.537 77.5067 463.902 77.7756 463.24 77.96C462.588 78.1381 461.916 78.2321 461.24 78.24C460.565 78.2445 459.893 78.1605 459.24 77.99C458.575 77.8179 457.937 77.559 457.34 77.22C456.712 76.8909 456.131 76.4807 455.61 76C454.628 75.03 453.918 73.8198 453.55 72.49V72.49C453.367 71.8389 453.273 71.1662 453.27 70.49C453.265 69.8152 453.349 69.1428 453.52 68.49C453.866 67.1584 454.555 65.941 455.52 64.96C456.001 64.466 456.545 64.0389 457.14 63.69C457.733 63.3433 458.368 63.0744 459.03 62.89C459.681 62.7073 460.354 62.6131 461.03 62.61C461.705 62.6045 462.377 62.6886 463.03 62.86C465.049 63.3835 466.778 64.685 467.84 66.48C468.187 67.073 468.455 67.7082 468.64 68.37V68.37C468.845 69.0013 468.966 69.6569 469 70.32V70.32ZM490.89 74.85C490.499 74.1208 490.011 73.4479 489.44 72.85L488.44 73.85C487.961 73.3517 487.416 72.9211 486.82 72.57L487.55 71.35C486.855 70.9185 486.105 70.5822 485.32 70.35L484.93 71.7C484.279 71.5136 483.607 71.4128 482.93 71.4V69.99C482.118 69.9708 481.307 70.0617 480.52 70.26L480.86 71.63C480.191 71.8038 479.546 72.059 478.94 72.39L478.26 71.16C477.533 71.5505 476.861 72.0346 476.26 72.6L477.26 73.6C476.763 74.1052 476.339 74.6774 476 75.3L474.79 74.58C474.363 75.2777 474.027 76.0271 473.79 76.81L475.15 77.2C474.963 77.8506 474.862 78.523 474.85 79.2H473.43C473.418 80.0121 473.512 80.8222 473.71 81.61L475.08 81.27C475.247 81.9407 475.503 82.5863 475.84 83.19V83.19L474.6 83.88C474.994 84.6068 475.482 85.2792 476.05 85.88L477.05 84.88C477.528 85.3751 478.07 85.8055 478.66 86.16L477.93 87.38C478.628 87.8054 479.378 88.1414 480.16 88.38L480.55 87.02C481.2 87.2096 481.873 87.3138 482.55 87.33V88.74C483.362 88.7591 484.172 88.6683 484.96 88.47L484.64 87C485.31 86.8359 485.956 86.5837 486.56 86.25V86.25L487.25 87.48C487.961 87.0889 488.617 86.6046 489.2 86.04L488.2 85.04C488.695 84.558 489.126 84.0134 489.48 83.42L490.69 84.15C491.121 83.4544 491.457 82.7045 491.69 81.92L490.33 81.53C490.516 80.8791 490.617 80.2068 490.63 79.53H492.05C492.061 78.7146 491.967 77.9012 491.77 77.11L490.4 77.45C490.237 76.781 489.981 76.1382 489.64 75.54L490.89 74.85ZM487.79 78.11C487.908 78.55 487.962 79.0046 487.95 79.46C487.938 79.9131 487.871 80.3631 487.75 80.8C487.626 81.2356 487.444 81.6526 487.21 82.04C486.976 82.4329 486.69 82.7928 486.36 83.11C486.033 83.4261 485.667 83.6984 485.27 83.92V83.92C484.872 84.137 484.449 84.3048 484.01 84.42C483.568 84.529 483.114 84.5794 482.66 84.57C482.203 84.5637 481.749 84.4965 481.31 84.37C480.875 84.2443 480.458 84.0628 480.07 83.83C479.676 83.6054 479.315 83.3259 479 83C478.681 82.6721 478.408 82.302 478.19 81.9C477.967 81.5046 477.799 81.0807 477.69 80.64C477.581 80.1985 477.53 79.7446 477.54 79.29C477.542 78.8368 477.606 78.386 477.73 77.95C477.857 77.5108 478.042 77.0905 478.28 76.7C478.513 76.3121 478.796 75.9559 479.12 75.64C479.447 75.3238 479.813 75.0515 480.21 74.83V74.83C480.814 74.4945 481.478 74.282 482.165 74.2047C482.851 74.1275 483.546 74.1871 484.21 74.38C484.646 74.5013 485.064 74.6831 485.45 74.92C485.843 75.1507 486.202 75.4333 486.52 75.76C486.834 76.0885 487.106 76.4546 487.33 76.85V76.85C487.53 77.2494 487.678 77.6728 487.77 78.11H487.79Z" fill="url(#paint2_linear)"/>
<path d="M218.5 31.55H382.5" stroke="#404242" stroke-width="0.5" stroke-linecap="round" stroke-linejoin="round"/>
<defs>
<linearGradient id="paint0_linear" x1="117.01" y1="72.5" x2="144.54" y2="72.5" gradientUnits="userSpaceOnUse">
<stop stop-color="#8176B5"/>
<stop offset="1" stop-color="#76C4E2"/>
</linearGradient>
<linearGradient id="paint1_linear" x1="10333.7" y1="3440.66" x2="11577" y2="3440.66" gradientUnits="userSpaceOnUse">
<stop stop-color="#8176B5"/>
<stop offset="1" stop-color="#76C4E2"/>
</linearGradient>
<linearGradient id="paint2_linear" x1="20561.3" y1="2407.05" x2="22585" y2="2407.05" gradientUnits="userSpaceOnUse">
<stop stop-color="#8176B5"/>
<stop offset="1" stop-color="#76C4E2"/>
</linearGradient>
</defs>
</svg>
