<svg width="600" height="145" viewBox="0 0 600 145" fill="none" xmlns="http://www.w3.org/2000/svg">
<path d="M33.3799 78.45L63.9599 70.34H193.28L162.69 78.45H33.3799Z" fill="url(#paint0_linear)"/>
<path d="M163.3 78.45H33.3799V113.79H163.3V78.45Z" fill="url(#paint1_linear)"/>
<path d="M163.3 113.79L194.03 105.68V70.34L163.3 78.45V113.79Z" fill="url(#paint2_linear)"/>
<path d="M177.22 97L180.07 88.65H176.32V86.79H181.77V88.14L178.9 97H177.22Z" fill="white"/>
<path d="M56.4299 100.33L55.9399 98.71H53.4599L52.9999 100.33H51.4199L53.8199 93.51H55.5699L57.9999 100.33H56.4299ZM55.5899 97.5C55.1399 96.04 54.8799 95.21 54.8199 95.02L54.6999 94.57C54.5999 94.96 54.3099 95.94 53.8199 97.5H55.5899Z" fill="white"/>
<path d="M63.5201 95.66C63.54 95.9716 63.4892 96.2837 63.3715 96.5729C63.2537 96.8621 63.072 97.1209 62.8401 97.33C62.2669 97.7617 61.5553 97.9681 60.8401 97.91H60.2201V100.33H58.8301V93.54H61.0001C61.669 93.4956 62.3328 93.6827 62.8801 94.07C63.1014 94.2683 63.2742 94.5148 63.3852 94.7905C63.4962 95.0661 63.5423 95.3636 63.5201 95.66V95.66ZM60.2701 96.73H60.7401C61.0933 96.7602 61.4463 96.6685 61.7401 96.47C61.8513 96.3785 61.9392 96.2618 61.9966 96.1297C62.054 95.9976 62.0791 95.8537 62.0701 95.71C62.0829 95.5719 62.0644 95.4328 62.0159 95.3029C61.9674 95.1731 61.8902 95.0558 61.7901 94.96C61.5415 94.7793 61.2363 94.6942 60.9301 94.72H60.2701V96.73Z" fill="white"/>
<path d="M69.4898 95.66C69.5139 95.973 69.464 96.2872 69.3441 96.5773C69.2243 96.8675 69.0378 97.1253 68.7998 97.33C68.2447 97.7518 67.5554 97.9578 66.8598 97.91H66.2398V100.33H64.7998V93.54H66.9998C67.6687 93.4956 68.3326 93.6827 68.8798 94.07C69.0922 94.2738 69.257 94.522 69.3625 94.7968C69.4679 95.0717 69.5114 95.3664 69.4898 95.66V95.66ZM66.2398 96.73H66.7098C67.0631 96.7602 67.416 96.6685 67.7098 96.47C67.821 96.3785 67.9089 96.2618 67.9663 96.1297C68.0237 95.9976 68.0489 95.8537 68.0398 95.71C68.0473 95.5724 68.0263 95.4348 67.9781 95.3057C67.9299 95.1767 67.8556 95.059 67.7598 94.96C67.5082 94.7778 67.1992 94.6926 66.8898 94.72H66.2398V96.73Z" fill="white"/>
<path d="M70.77 100.33V93.54H72.21V99.14H75V100.33H70.77Z" fill="white"/>
<path d="M76.1401 100.33V93.54H77.5801V100.33H76.1401Z" fill="white"/>
<path d="M82.1701 94.64C81.9259 94.6289 81.6828 94.6789 81.4628 94.7854C81.2428 94.8919 81.0529 95.0516 80.9101 95.25C80.5863 95.7554 80.4321 96.3509 80.4701 96.95C80.4701 98.46 81.0301 99.22 82.1701 99.22C82.7628 99.1969 83.3474 99.0752 83.9001 98.86V100.07C83.3091 100.308 82.6771 100.427 82.0401 100.42C81.6187 100.448 81.1964 100.381 80.8038 100.225C80.4113 100.07 80.0582 99.8288 79.7701 99.52C79.2088 98.782 78.9352 97.865 79.0001 96.94C78.9833 96.3024 79.1133 95.6694 79.3801 95.09C79.6192 94.5811 80.006 94.156 80.4901 93.87C81.0026 93.5725 81.5878 93.4236 82.1801 93.44C82.8746 93.4463 83.5585 93.6104 84.1801 93.92L83.7101 95.09C83.4622 94.9739 83.2085 94.8704 82.9501 94.78C82.7001 94.6888 82.4362 94.6414 82.1701 94.64Z" fill="white"/>
<path d="M89.5002 100.33L89.0002 98.71H86.5302L86.0002 100.33H84.4902L86.8802 93.51H88.6402L91.0502 100.33H89.5002ZM88.6602 97.5C88.2102 96 88.0002 95.21 87.8902 95L87.7702 94.55C87.6702 94.94 87.3802 95.92 86.8902 97.48L88.6602 97.5Z" fill="white"/>
<path d="M94.5202 100.33H93.0802V94.74H91.2402V93.54H96.3602V94.74H94.5202V100.33Z" fill="white"/>
<path d="M97.4102 100.33V93.54H98.8502V100.33H97.4102Z" fill="white"/>
<path d="M106.71 96.92C106.772 97.8574 106.476 98.7834 105.88 99.51C105.569 99.8248 105.193 100.069 104.779 100.226C104.365 100.383 103.922 100.449 103.48 100.42C103.04 100.45 102.598 100.385 102.185 100.228C101.773 100.07 101.399 99.8257 101.09 99.51C100.487 98.7833 100.186 97.8524 100.25 96.91C100.186 95.9738 100.487 95.0491 101.09 94.33C101.404 94.0186 101.78 93.7773 102.193 93.6222C102.607 93.467 103.049 93.4015 103.49 93.43C103.93 93.4004 104.371 93.4654 104.783 93.6206C105.195 93.7759 105.569 94.0178 105.88 94.33C106.478 95.0552 106.775 95.9822 106.71 96.92V96.92ZM101.76 96.92C101.717 97.5245 101.868 98.127 102.19 98.64C102.343 98.8322 102.54 98.9844 102.765 99.0837C102.99 99.183 103.235 99.2263 103.48 99.21C104.63 99.21 105.2 98.45 105.2 96.92C105.2 95.39 104.63 94.63 103.49 94.63C103.244 94.6131 102.998 94.6573 102.773 94.7584C102.548 94.8596 102.351 95.0147 102.2 95.21C101.874 95.7182 101.72 96.3176 101.76 96.92V96.92Z" fill="white"/>
<path d="M114.14 100.33H112.31L109.31 95.19C109.36 96.1 109.39 96.75 109.39 97.13V100.33H108.11V93.54H109.92L112.87 98.62C112.87 97.74 112.8 97.12 112.8 96.75V93.54H114.1L114.14 100.33Z" fill="white"/>
<path d="M118.32 100.33V93.54H119.75V99.14H122.51V100.33H118.32Z" fill="white"/>
<path d="M127.84 100.33L127.35 98.71H124.87L124.38 100.33H122.83L125.23 93.51H127L129.4 100.33H127.84ZM127 97.5C126.55 96.04 126.29 95.21 126.24 95.02C126.19 94.83 126.14 94.68 126.11 94.57C126.01 94.96 125.72 95.94 125.24 97.5H127Z" fill="white"/>
<path d="M132.36 96.33L133.77 93.54H135.32L133.07 97.69V100.33H131.64V97.73L129.39 93.54H131L132.36 96.33Z" fill="white"/>
<path d="M140.08 100.33H136.17V93.54H140.08V94.72H137.61V96.21H139.91V97.39H137.61V99.14H140.08V100.33Z" fill="white"/>
<path d="M142.94 97.72V100.33H141.5V93.54H143.5C144.202 93.4957 144.901 93.6704 145.5 94.04C145.86 94.3598 146.093 94.7989 146.156 95.2765C146.218 95.7542 146.106 96.2384 145.84 96.64C145.6 96.9655 145.275 97.2181 144.9 97.37L146.9 100.37H145.3L143.68 97.76L142.94 97.72ZM142.94 96.55H143.4C143.748 96.575 144.095 96.4986 144.4 96.33C144.51 96.2472 144.597 96.1375 144.653 96.0115C144.709 95.8855 144.732 95.7473 144.72 95.61C144.731 95.4761 144.706 95.3417 144.648 95.2205C144.59 95.0993 144.501 94.9956 144.39 94.92C144.078 94.7714 143.735 94.7027 143.39 94.72H142.96L142.94 96.55Z" fill="white"/>
<path d="M565.62 60.17C565 59.5385 564.155 59.1788 563.27 59.17H488.85C487.966 59.1829 487.121 59.54 486.495 60.1655C485.87 60.7909 485.513 61.6355 485.5 62.52V121.64C485.51 122.518 485.859 123.358 486.474 123.984C487.089 124.61 487.923 124.974 488.8 125H563.23C564.114 124.987 564.959 124.63 565.585 124.005C566.21 123.379 566.567 122.534 566.58 121.65V62.53C566.581 61.648 566.236 60.8007 565.62 60.17V60.17ZM563.38 121.65C563.369 121.685 563.349 121.717 563.323 121.743C563.297 121.769 563.265 121.789 563.23 121.8V121.8H488.81C488.75 121.8 488.65 121.69 488.65 121.64V71.31H563.38V121.65ZM562.06 65.19C562.06 65.6939 561.86 66.1772 561.503 66.5335C561.147 66.8898 560.664 67.09 560.16 67.09H507.77C507.522 67.09 507.276 67.0411 507.047 66.9461C506.817 66.8511 506.609 66.7119 506.434 66.5364C506.258 66.3609 506.119 66.1526 506.024 65.9233C505.929 65.694 505.88 65.4482 505.88 65.2C505.88 64.9518 505.929 64.706 506.024 64.4767C506.119 64.2474 506.258 64.0391 506.434 63.8636C506.609 63.688 506.817 63.5488 507.047 63.4539C507.276 63.3589 507.522 63.31 507.77 63.31H560.16C560.66 63.31 561.141 63.5074 561.496 63.8594C561.852 64.2114 562.055 64.6895 562.06 65.19ZM502.17 65.12C502.17 65.3751 502.094 65.6245 501.953 65.8367C501.811 66.0488 501.609 66.2142 501.374 66.3118C501.138 66.4094 500.879 66.435 500.628 66.3852C500.378 66.3354 500.148 66.2126 499.968 66.0322C499.787 65.8517 499.665 65.6219 499.615 65.3717C499.565 65.1214 499.591 64.862 499.688 64.6263C499.786 64.3906 499.951 64.1891 500.163 64.0474C500.375 63.9056 500.625 63.83 500.88 63.83C501.05 63.8287 501.218 63.8611 501.375 63.9255C501.532 63.9898 501.675 64.0848 501.795 64.2048C501.915 64.3249 502.01 64.4676 502.075 64.6247C502.139 64.7819 502.171 64.9502 502.17 65.12V65.12ZM498.38 65.12C498.382 65.376 498.308 65.6267 498.167 65.8404C498.026 66.0541 497.824 66.221 497.588 66.3198C497.352 66.4187 497.092 66.4451 496.841 66.3956C496.59 66.3462 496.359 66.2231 496.178 66.0421C495.997 65.8611 495.874 65.6303 495.824 65.3792C495.775 65.128 495.801 64.8678 495.9 64.6317C495.999 64.3956 496.166 64.1942 496.38 64.0532C496.593 63.9122 496.844 63.838 497.1 63.84C497.437 63.8426 497.76 63.9769 497.999 64.2142C498.238 64.4515 498.375 64.7731 498.38 65.11V65.12ZM493.31 63.84C493.562 63.8459 493.807 63.9262 494.014 64.0709C494.221 64.2155 494.38 64.418 494.472 64.6529C494.564 64.8879 494.584 65.1447 494.531 65.3913C494.477 65.6378 494.352 65.863 494.171 66.0387C493.99 66.2143 493.761 66.3324 493.513 66.3783C493.265 66.4242 493.009 66.3957 492.777 66.2965C492.545 66.1973 492.347 66.0317 492.209 65.8206C492.071 65.6095 491.998 65.3623 492 65.11C492 64.9393 492.034 64.7704 492.1 64.6131C492.166 64.4558 492.263 64.3134 492.385 64.1941C492.507 64.0749 492.652 63.9812 492.811 63.9187C492.97 63.8561 493.139 63.826 493.31 63.83V63.84Z" fill="url(#paint3_linear)"/>
<path d="M556.03 78.89H521.44V81.24H556.03V78.89Z" fill="url(#paint4_linear)"/>
<path d="M556.03 83.2H521.44V85.55H556.03V83.2Z" fill="url(#paint5_linear)"/>
<path d="M556.03 87.51H521.44V89.86H556.03V87.51Z" fill="url(#paint6_linear)"/>
<path d="M550.38 91.83H521.44V94.18H550.38V91.83Z" fill="url(#paint7_linear)"/>
<path d="M542.06 96.14H521.44V98.49H542.06V96.14Z" fill="url(#paint8_linear)"/>
<path d="M516.59 101.76H494.95V103.12H516.59V101.76Z" fill="url(#paint9_linear)"/>
<path d="M516.59 103.97H494.95V105.33H516.59V103.97Z" fill="url(#paint10_linear)"/>
<path d="M516.59 106.17H494.95V107.53H516.59V106.17Z" fill="url(#paint11_linear)"/>
<path d="M516.59 108.38H494.95V109.74H516.59V108.38Z" fill="url(#paint12_linear)"/>
<path d="M516.71 78.89H494.95V98.71H516.71V78.89Z" fill="url(#paint13_linear)"/>
<path d="M512.972 54.87H511.576L510.244 50.1864C510.186 49.9823 510.115 49.6887 510.029 49.3055C509.943 48.9188 509.891 48.6503 509.873 48.4999C509.837 48.729 509.778 49.0262 509.696 49.3915C509.617 49.7567 509.551 50.0288 509.497 50.2079L508.197 54.87H506.801L505.786 50.9384L504.754 47.0175H506.065L507.188 51.5936C507.363 52.3277 507.488 52.9758 507.563 53.538C507.603 53.2336 507.662 52.8934 507.741 52.5175C507.819 52.1415 507.891 51.8371 507.956 51.6044L509.234 47.0175H510.507L511.817 51.6259C511.943 52.052 512.075 52.6893 512.215 53.538C512.269 53.0259 512.397 52.3742 512.602 51.5829L513.719 47.0175H515.019L512.972 54.87Z" fill="#707070"/>
<path d="M518.596 54.9774C517.672 54.9774 516.949 54.7089 516.426 54.1718C515.907 53.6311 515.647 52.8881 515.647 51.9427C515.647 50.9724 515.889 50.2097 516.372 49.6547C516.855 49.0997 517.52 48.8221 518.365 48.8221C519.149 48.8221 519.768 49.0603 520.223 49.5365C520.678 50.0127 520.905 50.668 520.905 51.5023V52.1844H516.947C516.965 52.7609 517.12 53.205 517.414 53.5165C517.708 53.8244 518.121 53.9784 518.655 53.9784C519.006 53.9784 519.332 53.9462 519.632 53.8817C519.937 53.8137 520.263 53.7027 520.61 53.5487V54.5746C520.302 54.7214 519.99 54.8252 519.675 54.8861C519.36 54.947 519 54.9774 518.596 54.9774ZM518.365 49.7782C517.964 49.7782 517.641 49.9053 517.398 50.1595C517.158 50.4138 517.015 50.7844 516.968 51.2714H519.665C519.657 50.7808 519.539 50.4102 519.31 50.1595C519.081 49.9053 518.766 49.7782 518.365 49.7782Z" fill="#707070"/>
<path d="M525.374 48.8221C526.115 48.8221 526.692 49.0907 527.104 49.6278C527.519 50.1649 527.727 50.9187 527.727 51.889C527.727 52.863 527.517 53.6221 527.098 54.1664C526.679 54.7071 526.097 54.9774 525.353 54.9774C524.601 54.9774 524.017 54.7071 523.602 54.1664H523.516L523.285 54.87H522.339V46.5126H523.602V48.4999C523.602 48.6467 523.594 48.8651 523.58 49.1552C523.566 49.4452 523.555 49.6296 523.548 49.7084H523.602C524.003 49.1176 524.593 48.8221 525.374 48.8221ZM525.046 49.8534C524.538 49.8534 524.171 50.0038 523.945 50.3046C523.723 50.6018 523.609 51.1013 523.602 51.8031V51.889C523.602 52.6123 523.716 53.1369 523.945 53.4628C524.174 53.785 524.549 53.9462 525.068 53.9462C525.515 53.9462 525.854 53.7689 526.083 53.4144C526.316 53.0599 526.432 52.5479 526.432 51.8783C526.432 50.5284 525.97 49.8534 525.046 49.8534Z" fill="#707070"/>
<path d="M533.184 53.1781C533.184 53.7582 532.972 54.204 532.55 54.5155C532.127 54.8234 531.522 54.9774 530.734 54.9774C529.943 54.9774 529.307 54.8575 528.828 54.6176V53.5272C529.526 53.8495 530.176 54.0106 530.777 54.0106C531.554 54.0106 531.943 53.7761 531.943 53.307C531.943 53.1566 531.9 53.0313 531.814 52.931C531.728 52.8308 531.587 52.7269 531.39 52.6195C531.193 52.5121 530.919 52.3903 530.568 52.2543C529.884 51.9893 529.42 51.7243 529.177 51.4594C528.937 51.1944 528.817 50.8506 528.817 50.4281C528.817 49.9196 529.021 49.5258 529.429 49.2465C529.841 48.9636 530.4 48.8221 531.105 48.8221C531.803 48.8221 532.464 48.9636 533.087 49.2465L532.679 50.1971C532.038 49.9322 531.499 49.7997 531.062 49.7997C530.396 49.7997 530.063 49.9895 530.063 50.369C530.063 50.5552 530.149 50.7128 530.321 50.8417C530.496 50.9706 530.876 51.1478 531.459 51.3734C531.95 51.5632 532.306 51.7369 532.528 51.8944C532.75 52.052 532.915 52.2346 533.022 52.4423C533.13 52.6464 533.184 52.8916 533.184 53.1781Z" fill="#707070"/>
<path d="M535.815 54.87H534.553V48.9296H535.815V54.87ZM534.478 47.3558C534.478 47.1302 534.539 46.9566 534.661 46.8348C534.786 46.7131 534.963 46.6522 535.192 46.6522C535.414 46.6522 535.586 46.7131 535.708 46.8348C535.833 46.9566 535.896 47.1302 535.896 47.3558C535.896 47.5707 535.833 47.7408 535.708 47.8661C535.586 47.9878 535.414 48.0487 535.192 48.0487C534.963 48.0487 534.786 47.9878 534.661 47.8661C534.539 47.7408 534.478 47.5707 534.478 47.3558Z" fill="#707070"/>
<path d="M539.838 53.9569C540.146 53.9569 540.454 53.9086 540.762 53.8119V54.7626C540.623 54.8234 540.442 54.8736 540.22 54.913C540.001 54.9559 539.774 54.9774 539.538 54.9774C538.342 54.9774 537.744 54.3472 537.744 53.0868V49.8856H536.933V49.327L537.803 48.8651L538.232 47.6083H539.011V48.9296H540.703V49.8856H539.011V53.0653C539.011 53.3697 539.086 53.5953 539.237 53.7421C539.391 53.8853 539.591 53.9569 539.838 53.9569Z" fill="#707070"/>
<path d="M544.549 54.9774C543.625 54.9774 542.902 54.7089 542.379 54.1718C541.86 53.6311 541.6 52.8881 541.6 51.9427C541.6 50.9724 541.842 50.2097 542.325 49.6547C542.809 49.0997 543.473 48.8221 544.318 48.8221C545.102 48.8221 545.722 49.0603 546.176 49.5365C546.631 50.0127 546.858 50.668 546.858 51.5023V52.1844H542.9C542.918 52.7609 543.074 53.205 543.367 53.5165C543.661 53.8244 544.074 53.9784 544.608 53.9784C544.959 53.9784 545.285 53.9462 545.585 53.8817C545.89 53.8137 546.216 53.7027 546.563 53.5487V54.5746C546.255 54.7214 545.944 54.8252 545.628 54.8861C545.313 54.947 544.953 54.9774 544.549 54.9774ZM544.318 49.7782C543.917 49.7782 543.595 49.9053 543.351 50.1595C543.111 50.4138 542.968 50.7844 542.921 51.2714H545.618C545.611 50.7808 545.492 50.4102 545.263 50.1595C545.034 49.9053 544.719 49.7782 544.318 49.7782Z" fill="#707070"/>
<path d="M317.8 70.0898H318.692C319.29 70.0898 319.723 69.9788 319.992 69.7568C320.26 69.5348 320.395 69.2053 320.395 68.7685C320.395 68.3245 320.25 68.0058 319.959 67.8124C319.669 67.6191 319.233 67.5224 318.649 67.5224H317.8V70.0898ZM317.8 71.1533V74.29H316.517V66.4374H318.735C319.748 66.4374 320.498 66.6272 320.985 67.0068C321.472 67.3863 321.716 67.9592 321.716 68.7255C321.716 69.7031 321.207 70.3995 320.19 70.8149L322.409 74.29H320.948L319.068 71.1533H317.8Z" fill="#707070"/>
<path d="M326.013 74.3974C325.089 74.3974 324.366 74.1288 323.843 73.5917C323.324 73.051 323.064 72.308 323.064 71.3627C323.064 70.3924 323.306 69.6297 323.789 69.0746C324.272 68.5196 324.937 68.2421 325.782 68.2421C326.566 68.2421 327.185 68.4802 327.64 68.9565C328.095 69.4327 328.322 70.088 328.322 70.9223V71.6044H324.364C324.382 72.1809 324.537 72.6249 324.831 72.9365C325.125 73.2444 325.538 73.3984 326.072 73.3984C326.423 73.3984 326.749 73.3661 327.049 73.3017C327.354 73.2337 327.68 73.1227 328.027 72.9687V73.9946C327.719 74.1414 327.407 74.2452 327.092 74.3061C326.777 74.367 326.417 74.3974 326.013 74.3974ZM325.782 69.1982C325.381 69.1982 325.058 69.3253 324.815 69.5795C324.575 69.8338 324.432 70.2044 324.385 70.6913H327.082C327.074 70.2008 326.956 69.8302 326.727 69.5795C326.498 69.3253 326.183 69.1982 325.782 69.1982Z" fill="#707070"/>
<path d="M332.109 73.3876C332.639 73.3876 333.018 73.2355 333.248 72.9311C333.48 72.6231 333.597 72.1594 333.597 71.54V71.3412C333.597 70.6072 333.477 70.079 333.237 69.7568C333 69.4345 332.617 69.2734 332.087 69.2734C331.636 69.2734 331.292 69.4524 331.056 69.8105C330.82 70.1686 330.702 70.6824 330.702 71.352C330.702 72.7091 331.171 73.3876 332.109 73.3876ZM331.749 74.3974C331.015 74.3974 330.44 74.1288 330.025 73.5917C329.61 73.051 329.402 72.2973 329.402 71.3305C329.402 70.3637 329.613 69.6082 330.036 69.0639C330.458 68.5161 331.04 68.2421 331.781 68.2421C332.154 68.2421 332.487 68.312 332.78 68.4516C333.077 68.5877 333.342 68.8133 333.575 69.1284H333.618L333.758 68.3495H334.805V76.9326H333.538V74.4135C333.538 74.256 333.545 74.0895 333.559 73.914C333.573 73.7385 333.586 73.6043 333.597 73.5112H333.527C333.154 74.102 332.562 74.3974 331.749 74.3974Z" fill="#707070"/>
<path d="M340.799 74.29L340.622 73.5112H340.558C340.382 73.7869 340.132 74.0035 339.806 74.1611C339.483 74.3186 339.115 74.3974 338.699 74.3974C337.979 74.3974 337.442 74.2184 337.088 73.8603C336.733 73.5022 336.556 72.9597 336.556 72.2328V68.3495H337.829V72.0126C337.829 72.4674 337.922 72.8093 338.108 73.0385C338.295 73.2641 338.586 73.3769 338.984 73.3769C339.514 73.3769 339.902 73.2193 340.149 72.9042C340.4 72.5856 340.525 72.0538 340.525 71.309V68.3495H341.793V74.29H340.799Z" fill="#707070"/>
<path d="M346.187 74.3974C345.263 74.3974 344.539 74.1288 344.017 73.5917C343.497 73.051 343.238 72.308 343.238 71.3627C343.238 70.3924 343.479 69.6297 343.963 69.0746C344.446 68.5196 345.111 68.2421 345.956 68.2421C346.74 68.2421 347.359 68.4802 347.814 68.9565C348.269 69.4327 348.496 70.088 348.496 70.9223V71.6044H344.538C344.556 72.1809 344.711 72.6249 345.005 72.9365C345.299 73.2444 345.712 73.3984 346.246 73.3984C346.597 73.3984 346.922 73.3661 347.223 73.3017C347.528 73.2337 347.853 73.1227 348.201 72.9687V73.9946C347.893 74.1414 347.581 74.2452 347.266 74.3061C346.951 74.367 346.591 74.3974 346.187 74.3974ZM345.956 69.1982C345.555 69.1982 345.232 69.3253 344.989 69.5795C344.749 69.8338 344.606 70.2044 344.559 70.6913H347.255C347.248 70.2008 347.13 69.8302 346.901 69.5795C346.672 69.3253 346.357 69.1982 345.956 69.1982Z" fill="#707070"/>
<path d="M353.921 72.5981C353.921 73.1782 353.71 73.624 353.287 73.9355C352.865 74.2434 352.259 74.3974 351.472 74.3974C350.68 74.3974 350.045 74.2774 349.565 74.0375V72.9472C350.263 73.2695 350.913 73.4306 351.515 73.4306C352.292 73.4306 352.68 73.1961 352.68 72.727C352.68 72.5766 352.637 72.4513 352.551 72.351C352.465 72.2508 352.324 72.1469 352.127 72.0395C351.93 71.9321 351.656 71.8103 351.305 71.6743C350.621 71.4093 350.158 71.1443 349.914 70.8793C349.674 70.6144 349.554 70.2706 349.554 69.8481C349.554 69.3396 349.758 68.9457 350.167 68.6664C350.578 68.3836 351.137 68.2421 351.842 68.2421C352.541 68.2421 353.201 68.3836 353.824 68.6664L353.416 69.6171C352.775 69.3522 352.236 69.2197 351.799 69.2197C351.133 69.2197 350.8 69.4094 350.8 69.789C350.8 69.9752 350.886 70.1328 351.058 70.2617C351.234 70.3906 351.613 70.5678 352.197 70.7934C352.687 70.9832 353.044 71.1568 353.266 71.3144C353.488 71.4719 353.652 71.6546 353.76 71.8622C353.867 72.0663 353.921 72.3116 353.921 72.5981Z" fill="#707070"/>
<path d="M357.503 73.3769C357.811 73.3769 358.119 73.3286 358.427 73.2319V74.1826C358.288 74.2434 358.107 74.2936 357.885 74.3329C357.666 74.3759 357.439 74.3974 357.203 74.3974C356.007 74.3974 355.409 73.7672 355.409 72.5068V69.3056H354.598V68.747L355.468 68.2851L355.897 67.0283H356.676V68.3495H358.368V69.3056H356.676V72.4853C356.676 72.7897 356.751 73.0152 356.902 73.162C357.056 73.3053 357.256 73.3769 357.503 73.3769Z" fill="#707070"/>
<path d="M364.873 74.3974C363.974 74.3974 363.29 74.136 362.821 73.6132C362.355 73.0869 362.123 72.3331 362.123 71.352C362.123 70.353 362.366 69.5849 362.853 69.0478C363.344 68.5107 364.051 68.2421 364.975 68.2421C365.601 68.2421 366.165 68.3585 366.667 68.5912L366.285 69.6064C365.752 69.3987 365.311 69.2949 364.964 69.2949C363.936 69.2949 363.422 69.977 363.422 71.3412C363.422 72.0073 363.549 72.5086 363.804 72.8452C364.062 73.1782 364.438 73.3447 364.932 73.3447C365.494 73.3447 366.026 73.205 366.527 72.9257V74.0268C366.301 74.1593 366.06 74.2542 365.802 74.3115C365.548 74.3688 365.238 74.3974 364.873 74.3974Z" fill="#707070"/>
<path d="M373.192 71.309C373.192 72.2794 372.944 73.0367 372.446 73.581C371.948 74.1253 371.255 74.3974 370.367 74.3974C369.812 74.3974 369.322 74.2721 368.896 74.0214C368.469 73.7708 368.142 73.4109 367.913 72.9418C367.683 72.4728 367.569 71.9285 367.569 71.309C367.569 70.3458 367.816 69.5939 368.31 69.0532C368.804 68.5125 369.501 68.2421 370.399 68.2421C371.259 68.2421 371.939 68.5196 372.44 69.0746C372.942 69.6261 373.192 70.3709 373.192 71.309ZM368.869 71.309C368.869 72.6804 369.375 73.3661 370.389 73.3661C371.391 73.3661 371.893 72.6804 371.893 71.309C371.893 69.9519 371.388 69.2734 370.378 69.2734C369.848 69.2734 369.463 69.4488 369.223 69.7997C368.987 70.1507 368.869 70.6537 368.869 71.309Z" fill="#707070"/>
<path d="M379.874 74.29H378.606V70.6376C378.606 70.1793 378.513 69.8373 378.327 69.6118C378.145 69.3862 377.853 69.2734 377.452 69.2734C376.918 69.2734 376.528 69.4309 376.281 69.746C376.034 70.0611 375.91 70.5893 375.91 71.3305V74.29H374.648V68.3495H375.636L375.813 69.1284H375.878C376.057 68.8455 376.311 68.6271 376.641 68.4731C376.97 68.3191 377.335 68.2421 377.736 68.2421C379.161 68.2421 379.874 68.9672 379.874 70.4174V74.29Z" fill="#707070"/>
<path d="M383.843 73.3769C384.151 73.3769 384.459 73.3286 384.767 73.2319V74.1826C384.627 74.2434 384.447 74.2936 384.225 74.3329C384.006 74.3759 383.779 74.3974 383.542 74.3974C382.347 74.3974 381.749 73.7672 381.749 72.5068V69.3056H380.938V68.747L381.808 68.2851L382.237 67.0283H383.016V68.3495H384.708V69.3056H383.016V72.4853C383.016 72.7897 383.091 73.0152 383.242 73.162C383.396 73.3053 383.596 73.3769 383.843 73.3769Z" fill="#707070"/>
<path d="M388.554 74.3974C387.63 74.3974 386.907 74.1288 386.384 73.5917C385.865 73.051 385.605 72.308 385.605 71.3627C385.605 70.3924 385.847 69.6297 386.33 69.0746C386.813 68.5196 387.478 68.2421 388.323 68.2421C389.107 68.2421 389.726 68.4802 390.181 68.9565C390.636 69.4327 390.863 70.088 390.863 70.9223V71.6044H386.905C386.923 72.1809 387.078 72.6249 387.372 72.9365C387.666 73.2444 388.079 73.3984 388.613 73.3984C388.964 73.3984 389.29 73.3661 389.59 73.3017C389.895 73.2337 390.221 73.1227 390.568 72.9687V73.9946C390.26 74.1414 389.948 74.2452 389.633 74.3061C389.318 74.367 388.958 74.3974 388.554 74.3974ZM388.323 69.1982C387.922 69.1982 387.599 69.3253 387.356 69.5795C387.116 69.8338 386.973 70.2044 386.926 70.6913H389.623C389.615 70.2008 389.497 69.8302 389.268 69.5795C389.039 69.3253 388.724 69.1982 388.323 69.1982Z" fill="#707070"/>
<path d="M397.523 74.29H396.256V70.6376C396.256 70.1793 396.163 69.8373 395.977 69.6118C395.794 69.3862 395.502 69.2734 395.101 69.2734C394.568 69.2734 394.177 69.4309 393.93 69.746C393.683 70.0611 393.56 70.5893 393.56 71.3305V74.29H392.297V68.3495H393.286L393.463 69.1284H393.527C393.706 68.8455 393.961 68.6271 394.29 68.4731C394.619 68.3191 394.985 68.2421 395.386 68.2421C396.811 68.2421 397.523 68.9672 397.523 70.4174V74.29Z" fill="#707070"/>
<path d="M401.493 73.3769C401.801 73.3769 402.109 73.3286 402.417 73.2319V74.1826C402.277 74.2434 402.096 74.2936 401.874 74.3329C401.656 74.3759 401.428 74.3974 401.192 74.3974C399.996 74.3974 399.398 73.7672 399.398 72.5068V69.3056H398.587V68.747L399.457 68.2851L399.887 67.0283H400.666V68.3495H402.357V69.3056H400.666V72.4853C400.666 72.7897 400.741 73.0152 400.891 73.162C401.045 73.3053 401.246 73.3769 401.493 73.3769Z" fill="#707070"/>
<path d="M270.67 109.57H271.562C272.16 109.57 272.593 109.459 272.862 109.237C273.13 109.015 273.265 108.685 273.265 108.249C273.265 107.805 273.12 107.486 272.83 107.292C272.54 107.099 272.103 107.002 271.519 107.002H270.67V109.57ZM270.67 110.633V113.77H269.387V105.917H271.605C272.618 105.917 273.368 106.107 273.855 106.487C274.342 106.866 274.586 107.439 274.586 108.206C274.586 109.183 274.077 109.88 273.061 110.295L275.279 113.77H273.818L271.938 110.633H270.67Z" fill="#707070"/>
<path d="M278.883 113.877C277.959 113.877 277.236 113.609 276.713 113.072C276.194 112.531 275.934 111.788 275.934 110.843C275.934 109.872 276.176 109.11 276.659 108.555C277.143 108 277.807 107.722 278.652 107.722C279.436 107.722 280.056 107.96 280.51 108.437C280.965 108.913 281.192 109.568 281.192 110.402V111.084H277.234C277.252 111.661 277.408 112.105 277.701 112.417C277.995 112.724 278.408 112.878 278.942 112.878C279.293 112.878 279.619 112.846 279.919 112.782C280.224 112.714 280.55 112.603 280.897 112.449V113.475C280.589 113.621 280.278 113.725 279.962 113.786C279.647 113.847 279.287 113.877 278.883 113.877ZM278.652 108.678C278.251 108.678 277.929 108.805 277.685 109.06C277.445 109.314 277.302 109.684 277.255 110.171H279.952C279.944 109.681 279.826 109.31 279.597 109.06C279.368 108.805 279.053 108.678 278.652 108.678Z" fill="#707070"/>
<path d="M284.839 112.857C285.147 112.857 285.455 112.809 285.763 112.712V113.663C285.624 113.723 285.443 113.774 285.221 113.813C285.002 113.856 284.775 113.877 284.539 113.877C283.343 113.877 282.745 113.247 282.745 111.987V108.786H281.934V108.227L282.804 107.765L283.233 106.508H284.012V107.83H285.704V108.786H284.012V111.965C284.012 112.27 284.087 112.495 284.238 112.642C284.392 112.785 284.592 112.857 284.839 112.857Z" fill="#707070"/>
<path d="M291.145 113.77L290.968 112.991H290.903C290.728 113.267 290.477 113.484 290.151 113.641C289.829 113.799 289.46 113.877 289.045 113.877C288.325 113.877 287.788 113.698 287.434 113.34C287.079 112.982 286.902 112.44 286.902 111.713V107.83H288.175V111.493C288.175 111.947 288.268 112.289 288.454 112.519C288.64 112.744 288.932 112.857 289.33 112.857C289.86 112.857 290.248 112.699 290.495 112.384C290.746 112.066 290.871 111.534 290.871 110.789V107.83H292.139V113.77H291.145Z" fill="#707070"/>
<path d="M296.951 107.722C297.205 107.722 297.415 107.74 297.58 107.776L297.456 108.952C297.277 108.909 297.091 108.888 296.897 108.888C296.393 108.888 295.983 109.052 295.667 109.382C295.356 109.711 295.2 110.139 295.2 110.666V113.77H293.938V107.83H294.926L295.093 108.877H295.157C295.354 108.522 295.61 108.241 295.925 108.034C296.244 107.826 296.586 107.722 296.951 107.722Z" fill="#707070"/>
<path d="M303.912 113.77H302.645V110.118C302.645 109.659 302.551 109.317 302.365 109.092C302.183 108.866 301.891 108.753 301.49 108.753C300.956 108.753 300.566 108.911 300.319 109.226C300.072 109.541 299.948 110.069 299.948 110.811V113.77H298.686V107.83H299.674L299.852 108.608H299.916C300.095 108.326 300.349 108.107 300.679 107.953C301.008 107.799 301.373 107.722 301.774 107.722C303.2 107.722 303.912 108.447 303.912 109.897V113.77Z" fill="#707070"/>
<path d="M310.921 113.877C310.023 113.877 309.339 113.616 308.87 113.093C308.404 112.567 308.171 111.813 308.171 110.832C308.171 109.833 308.415 109.065 308.902 108.528C309.392 107.991 310.1 107.722 311.023 107.722C311.65 107.722 312.214 107.839 312.715 108.071L312.334 109.086C311.8 108.879 311.36 108.775 311.013 108.775C309.985 108.775 309.471 109.457 309.471 110.821C309.471 111.487 309.598 111.989 309.853 112.325C310.11 112.658 310.486 112.825 310.98 112.825C311.543 112.825 312.074 112.685 312.576 112.406V113.507C312.35 113.639 312.108 113.734 311.851 113.792C311.596 113.849 311.287 113.877 310.921 113.877Z" fill="#707070"/>
<path d="M319.241 110.789C319.241 111.759 318.992 112.517 318.495 113.061C317.997 113.605 317.304 113.877 316.416 113.877C315.861 113.877 315.37 113.752 314.944 113.501C314.518 113.251 314.191 112.891 313.961 112.422C313.732 111.953 313.618 111.409 313.618 110.789C313.618 109.826 313.865 109.074 314.359 108.533C314.853 107.993 315.549 107.722 316.448 107.722C317.308 107.722 317.988 108 318.489 108.555C318.991 109.106 319.241 109.851 319.241 110.789ZM314.917 110.789C314.917 112.16 315.424 112.846 316.438 112.846C317.44 112.846 317.941 112.16 317.941 110.789C317.941 109.432 317.437 108.753 316.427 108.753C315.897 108.753 315.512 108.929 315.272 109.28C315.036 109.631 314.917 110.134 314.917 110.789Z" fill="#707070"/>
<path d="M325.923 113.77H324.655V110.118C324.655 109.659 324.562 109.317 324.376 109.092C324.193 108.866 323.902 108.753 323.5 108.753C322.967 108.753 322.577 108.911 322.33 109.226C322.083 109.541 321.959 110.069 321.959 110.811V113.77H320.697V107.83H321.685L321.862 108.608H321.927C322.106 108.326 322.36 108.107 322.689 107.953C323.019 107.799 323.384 107.722 323.785 107.722C325.21 107.722 325.923 108.447 325.923 109.897V113.77Z" fill="#707070"/>
<path d="M329.892 112.857C330.2 112.857 330.508 112.809 330.816 112.712V113.663C330.676 113.723 330.495 113.774 330.273 113.813C330.055 113.856 329.828 113.877 329.591 113.877C328.395 113.877 327.797 113.247 327.797 111.987V108.786H326.986V108.227L327.856 107.765L328.286 106.508H329.065V107.83H330.757V108.786H329.065V111.965C329.065 112.27 329.14 112.495 329.291 112.642C329.444 112.785 329.645 112.857 329.892 112.857Z" fill="#707070"/>
<path d="M334.603 113.877C333.679 113.877 332.955 113.609 332.433 113.072C331.913 112.531 331.654 111.788 331.654 110.843C331.654 109.872 331.896 109.11 332.379 108.555C332.862 108 333.527 107.722 334.372 107.722C335.156 107.722 335.775 107.96 336.23 108.437C336.685 108.913 336.912 109.568 336.912 110.402V111.084H332.954C332.972 111.661 333.127 112.105 333.421 112.417C333.715 112.724 334.128 112.878 334.662 112.878C335.013 112.878 335.338 112.846 335.639 112.782C335.944 112.714 336.269 112.603 336.617 112.449V113.475C336.309 113.621 335.997 113.725 335.682 113.786C335.367 113.847 335.007 113.877 334.603 113.877ZM334.372 108.678C333.971 108.678 333.648 108.805 333.405 109.06C333.165 109.314 333.022 109.684 332.975 110.171H335.671C335.664 109.681 335.546 109.31 335.317 109.06C335.088 108.805 334.773 108.678 334.372 108.678Z" fill="#707070"/>
<path d="M343.572 113.77H342.305V110.118C342.305 109.659 342.212 109.317 342.025 109.092C341.843 108.866 341.551 108.753 341.15 108.753C340.616 108.753 340.226 108.911 339.979 109.226C339.732 109.541 339.608 110.069 339.608 110.811V113.77H338.346V107.83H339.334L339.512 108.608H339.576C339.755 108.326 340.009 108.107 340.339 107.953C340.668 107.799 341.034 107.722 341.435 107.722C342.86 107.722 343.572 108.447 343.572 109.897V113.77Z" fill="#707070"/>
<path d="M347.542 112.857C347.849 112.857 348.157 112.809 348.465 112.712V113.663C348.326 113.723 348.145 113.774 347.923 113.813C347.704 113.856 347.477 113.877 347.241 113.877C346.045 113.877 345.447 113.247 345.447 111.987V108.786H344.636V108.227L345.506 107.765L345.936 106.508H346.714V107.83H348.406V108.786H346.714V111.965C346.714 112.27 346.79 112.495 346.94 112.642C347.094 112.785 347.294 112.857 347.542 112.857Z" fill="#707070"/>
<path d="M353.777 113.77H352.515V107.83H353.777V113.77ZM352.44 106.256C352.44 106.03 352.501 105.857 352.623 105.735C352.748 105.613 352.925 105.552 353.154 105.552C353.376 105.552 353.548 105.613 353.67 105.735C353.795 105.857 353.858 106.03 353.858 106.256C353.858 106.471 353.795 106.641 353.67 106.766C353.548 106.888 353.376 106.949 353.154 106.949C352.925 106.949 352.748 106.888 352.623 106.766C352.501 106.641 352.44 106.471 352.44 106.256Z" fill="#707070"/>
<path d="M360.813 113.77H359.546V110.118C359.546 109.659 359.453 109.317 359.267 109.092C359.084 108.866 358.792 108.753 358.391 108.753C357.858 108.753 357.467 108.911 357.22 109.226C356.973 109.541 356.85 110.069 356.85 110.811V113.77H355.587V107.83H356.576L356.753 108.608H356.817C356.996 108.326 357.251 108.107 357.58 107.953C357.91 107.799 358.275 107.722 358.676 107.722C360.101 107.722 360.813 108.447 360.813 109.897V113.77Z" fill="#707070"/>
<path d="M368.44 107.722C368.695 107.722 368.904 107.74 369.069 107.776L368.945 108.952C368.766 108.909 368.58 108.888 368.387 108.888C367.882 108.888 367.472 109.052 367.157 109.382C366.845 109.711 366.689 110.139 366.689 110.666V113.77H365.427V107.83H366.416L366.582 108.877H366.646C366.843 108.522 367.099 108.241 367.415 108.034C367.733 107.826 368.075 107.722 368.44 107.722Z" fill="#707070"/>
<path d="M372.77 113.877C371.846 113.877 371.122 113.609 370.6 113.072C370.08 112.531 369.821 111.788 369.821 110.843C369.821 109.872 370.062 109.11 370.546 108.555C371.029 108 371.694 107.722 372.539 107.722C373.323 107.722 373.942 107.96 374.397 108.437C374.852 108.913 375.079 109.568 375.079 110.402V111.084H371.121C371.139 111.661 371.294 112.105 371.588 112.417C371.882 112.724 372.295 112.878 372.829 112.878C373.18 112.878 373.505 112.846 373.806 112.782C374.111 112.714 374.436 112.603 374.784 112.449V113.475C374.476 113.621 374.164 113.725 373.849 113.786C373.534 113.847 373.174 113.877 372.77 113.877ZM372.539 108.678C372.138 108.678 371.815 108.805 371.572 109.06C371.332 109.314 371.189 109.684 371.142 110.171H373.838C373.831 109.681 373.713 109.31 373.484 109.06C373.255 108.805 372.94 108.678 372.539 108.678Z" fill="#707070"/>
<path d="M378.866 112.868C379.396 112.868 379.775 112.715 380.004 112.411C380.237 112.103 380.354 111.639 380.354 111.02V110.821C380.354 110.087 380.234 109.559 379.994 109.237C379.757 108.915 379.374 108.753 378.844 108.753C378.393 108.753 378.049 108.932 377.813 109.291C377.577 109.649 377.458 110.162 377.458 110.832C377.458 112.189 377.928 112.868 378.866 112.868ZM378.506 113.877C377.772 113.877 377.197 113.609 376.782 113.072C376.366 112.531 376.159 111.777 376.159 110.811C376.159 109.844 376.37 109.088 376.792 108.544C377.215 107.996 377.797 107.722 378.538 107.722C378.91 107.722 379.243 107.792 379.537 107.932C379.834 108.068 380.099 108.293 380.332 108.608H380.375L380.515 107.83H381.562V116.413H380.294V113.894C380.294 113.736 380.302 113.569 380.316 113.394C380.33 113.219 380.343 113.084 380.354 112.991H380.284C379.911 113.582 379.319 113.877 378.506 113.877Z" fill="#707070"/>
<path d="M387.556 113.77L387.379 112.991H387.314C387.139 113.267 386.888 113.484 386.562 113.641C386.24 113.799 385.871 113.877 385.456 113.877C384.736 113.877 384.199 113.698 383.845 113.34C383.49 112.982 383.313 112.44 383.313 111.713V107.83H384.586V111.493C384.586 111.947 384.679 112.289 384.865 112.519C385.051 112.744 385.343 112.857 385.741 112.857C386.271 112.857 386.659 112.699 386.906 112.384C387.157 112.066 387.282 111.534 387.282 110.789V107.83H388.55V113.77H387.556Z" fill="#707070"/>
<path d="M391.611 113.77H390.349V107.83H391.611V113.77ZM390.274 106.256C390.274 106.03 390.335 105.857 390.457 105.735C390.582 105.613 390.759 105.552 390.988 105.552C391.21 105.552 391.382 105.613 391.504 105.735C391.629 105.857 391.692 106.03 391.692 106.256C391.692 106.471 391.629 106.641 391.504 106.766C391.382 106.888 391.21 106.949 390.988 106.949C390.759 106.949 390.582 106.888 390.457 106.766C390.335 106.641 390.274 106.471 390.274 106.256Z" fill="#707070"/>
<path d="M396.435 107.722C396.689 107.722 396.898 107.74 397.063 107.776L396.939 108.952C396.76 108.909 396.574 108.888 396.381 108.888C395.876 108.888 395.466 109.052 395.151 109.382C394.839 109.711 394.684 110.139 394.684 110.666V113.77H393.421V107.83H394.41L394.576 108.877H394.641C394.838 108.522 395.094 108.241 395.409 108.034C395.727 107.826 396.069 107.722 396.435 107.722Z" fill="#707070"/>
<path d="M400.764 113.877C399.84 113.877 399.117 113.609 398.594 113.072C398.075 112.531 397.815 111.788 397.815 110.843C397.815 109.872 398.057 109.11 398.54 108.555C399.023 108 399.688 107.722 400.533 107.722C401.317 107.722 401.936 107.96 402.391 108.437C402.846 108.913 403.073 109.568 403.073 110.402V111.084H399.115C399.133 111.661 399.288 112.105 399.582 112.417C399.876 112.724 400.289 112.878 400.823 112.878C401.174 112.878 401.5 112.846 401.8 112.782C402.105 112.714 402.431 112.603 402.778 112.449V113.475C402.47 113.621 402.158 113.725 401.843 113.786C401.528 113.847 401.168 113.877 400.764 113.877ZM400.533 108.678C400.132 108.678 399.809 108.805 399.566 109.06C399.326 109.314 399.183 109.684 399.136 110.171H401.833C401.825 109.681 401.707 109.31 401.478 109.06C401.249 108.805 400.934 108.678 400.533 108.678Z" fill="#707070"/>
<path d="M406.511 113.877C405.77 113.877 405.191 113.609 404.776 113.072C404.361 112.535 404.153 111.781 404.153 110.811C404.153 109.837 404.362 109.079 404.781 108.539C405.204 107.994 405.787 107.722 406.532 107.722C407.313 107.722 407.907 108.01 408.315 108.587H408.38C408.319 108.161 408.289 107.824 408.289 107.577V105.413H409.556V113.77H408.568L408.348 112.991H408.289C407.884 113.582 407.291 113.877 406.511 113.877ZM406.849 112.857C407.368 112.857 407.746 112.712 407.982 112.422C408.219 112.128 408.34 111.654 408.348 110.999V110.821C408.348 110.073 408.226 109.541 407.982 109.226C407.739 108.911 407.358 108.753 406.838 108.753C406.394 108.753 406.052 108.934 405.812 109.296C405.573 109.654 405.453 110.166 405.453 110.832C405.453 111.491 405.569 111.994 405.802 112.341C406.035 112.685 406.384 112.857 406.849 112.857Z" fill="#707070"/>
<path d="M417.199 108.786H415.749V113.77H414.481V108.786H413.504V108.195L414.481 107.808V107.421C414.481 106.72 414.646 106.2 414.976 105.864C415.305 105.524 415.808 105.354 416.485 105.354C416.929 105.354 417.366 105.427 417.795 105.574L417.462 106.53C417.151 106.43 416.854 106.379 416.571 106.379C416.284 106.379 416.075 106.469 415.942 106.648C415.813 106.823 415.749 107.088 415.749 107.443V107.83H417.199V108.786Z" fill="#707070"/>
<path d="M423.483 110.789C423.483 111.759 423.235 112.517 422.737 113.061C422.239 113.605 421.546 113.877 420.658 113.877C420.103 113.877 419.613 113.752 419.187 113.501C418.76 113.251 418.433 112.891 418.204 112.422C417.974 111.953 417.86 111.409 417.86 110.789C417.86 109.826 418.107 109.074 418.601 108.533C419.095 107.993 419.792 107.722 420.69 107.722C421.55 107.722 422.23 108 422.731 108.555C423.233 109.106 423.483 109.851 423.483 110.789ZM419.16 110.789C419.16 112.16 419.666 112.846 420.68 112.846C421.682 112.846 422.184 112.16 422.184 110.789C422.184 109.432 421.679 108.753 420.669 108.753C420.139 108.753 419.754 108.929 419.514 109.28C419.278 109.631 419.16 110.134 419.16 110.789Z" fill="#707070"/>
<path d="M427.952 107.722C428.206 107.722 428.416 107.74 428.581 107.776L428.457 108.952C428.278 108.909 428.092 108.888 427.898 108.888C427.394 108.888 426.984 109.052 426.668 109.382C426.357 109.711 426.201 110.139 426.201 110.666V113.77H424.939V107.83H425.927L426.094 108.877H426.158C426.355 108.522 426.611 108.241 426.926 108.034C427.245 107.826 427.587 107.722 427.952 107.722Z" fill="#707070"/>
<path d="M434.693 113.77H433.425V110.107C433.425 109.652 433.339 109.314 433.167 109.092C432.996 108.866 432.727 108.753 432.362 108.753C431.875 108.753 431.517 108.913 431.288 109.231C431.062 109.547 430.949 110.073 430.949 110.811V113.77H429.687V107.83H430.675L430.853 108.608H430.917C431.082 108.326 431.32 108.107 431.631 107.953C431.946 107.799 432.292 107.722 432.668 107.722C433.581 107.722 434.186 108.034 434.483 108.657H434.569C434.745 108.363 434.992 108.134 435.311 107.969C435.629 107.805 435.994 107.722 436.406 107.722C437.115 107.722 437.631 107.901 437.953 108.259C438.279 108.617 438.442 109.163 438.442 109.897V113.77H437.18V110.107C437.18 109.652 437.092 109.314 436.917 109.092C436.745 108.866 436.476 108.753 436.111 108.753C435.62 108.753 435.26 108.907 435.031 109.215C434.806 109.52 434.693 109.989 434.693 110.623V113.77Z" fill="#707070"/>
<path d="M443.92 113.77L443.668 112.943H443.625C443.339 113.305 443.05 113.552 442.76 113.684C442.47 113.813 442.098 113.877 441.643 113.877C441.059 113.877 440.603 113.72 440.273 113.405C439.948 113.09 439.785 112.644 439.785 112.067C439.785 111.455 440.012 110.993 440.467 110.682C440.922 110.37 441.614 110.2 442.545 110.171L443.571 110.139V109.822C443.571 109.443 443.482 109.16 443.303 108.974C443.127 108.784 442.853 108.689 442.481 108.689C442.177 108.689 441.885 108.734 441.605 108.823C441.326 108.913 441.058 109.018 440.8 109.14L440.392 108.238C440.714 108.069 441.067 107.942 441.45 107.856C441.833 107.767 442.194 107.722 442.535 107.722C443.29 107.722 443.86 107.887 444.243 108.216C444.629 108.546 444.823 109.063 444.823 109.769V113.77H443.92ZM442.041 112.911C442.499 112.911 442.866 112.784 443.142 112.529C443.421 112.271 443.561 111.912 443.561 111.45V110.934L442.798 110.966C442.203 110.988 441.77 111.088 441.498 111.267C441.229 111.443 441.095 111.713 441.095 112.078C441.095 112.343 441.174 112.549 441.332 112.696C441.489 112.839 441.725 112.911 442.041 112.911Z" fill="#707070"/>
<path d="M448.797 112.857C449.105 112.857 449.413 112.809 449.721 112.712V113.663C449.582 113.723 449.401 113.774 449.179 113.813C448.96 113.856 448.733 113.877 448.497 113.877C447.301 113.877 446.703 113.247 446.703 111.987V108.786H445.892V108.227L446.762 107.765L447.191 106.508H447.97V107.83H449.662V108.786H447.97V111.965C447.97 112.27 448.045 112.495 448.196 112.642C448.35 112.785 448.55 112.857 448.797 112.857Z" fill="#707070"/>
<path d="M311 70.13H205.29" stroke="#707070" stroke-width="2" stroke-linecap="round" stroke-linejoin="round"/>
<path d="M209.27 66.74L205.88 70.13L209.27 73.52H206.39L203 70.13L206.39 66.74H209.27Z" fill="#707070"/>
<path d="M456 109.6H471.71" stroke="#707070" stroke-width="2" stroke-linecap="round" stroke-linejoin="round"/>
<path d="M467.73 113L471.12 109.6L467.73 106.21H470.61L474 109.6L470.61 113H467.73Z" fill="#707070"/>
<path d="M474 70.13H408" stroke="#707070" stroke-width="2" stroke-linecap="round" stroke-linejoin="round"/>
<path d="M265 109.6H205.65" stroke="#707070" stroke-width="2" stroke-linecap="round" stroke-linejoin="round"/>
<path d="M245.387 22.35L244.317 19.3763H240.223L239.176 22.35H237.33L241.336 11.598H243.241L247.247 22.35H245.387ZM243.856 17.8676L242.853 14.9525C242.779 14.7572 242.677 14.4496 242.545 14.0297C242.418 13.6097 242.33 13.3021 242.281 13.1068C242.149 13.7074 241.957 14.3641 241.703 15.077L240.736 17.8676H243.856Z" fill="#707070"/>
<path d="M252.586 22.4965C251.561 22.4965 250.765 22.1278 250.199 21.3905H250.096C250.165 22.0741 250.199 22.4891 250.199 22.6356V25.9535H248.478V14.2494H249.869C249.908 14.4008 249.989 14.7621 250.111 15.3334H250.199C250.736 14.5131 251.542 14.1029 252.616 14.1029C253.626 14.1029 254.413 14.4691 254.974 15.2015C255.541 15.934 255.824 16.9618 255.824 18.285C255.824 19.6083 255.536 20.641 254.959 21.3832C254.388 22.1254 253.597 22.4965 252.586 22.4965ZM252.169 15.5092C251.485 15.5092 250.985 15.7094 250.667 16.1097C250.355 16.5101 250.199 17.1498 250.199 18.0287V18.285C250.199 19.2714 250.355 19.9867 250.667 20.431C250.98 20.8705 251.49 21.0902 252.198 21.0902C252.794 21.0902 253.253 20.8461 253.575 20.3578C253.897 19.8695 254.059 19.1737 254.059 18.2704C254.059 17.3622 253.897 16.6761 253.575 16.2123C253.258 15.7435 252.789 15.5092 252.169 15.5092Z" fill="#707070"/>
<path d="M261.932 22.4965C260.907 22.4965 260.111 22.1278 259.544 21.3905H259.442C259.51 22.0741 259.544 22.4891 259.544 22.6356V25.9535H257.823V14.2494H259.215C259.254 14.4008 259.334 14.7621 259.457 15.3334H259.544C260.082 14.5131 260.887 14.1029 261.961 14.1029C262.972 14.1029 263.758 14.4691 264.32 15.2015C264.886 15.934 265.169 16.9618 265.169 18.285C265.169 19.6083 264.881 20.641 264.305 21.3832C263.734 22.1254 262.943 22.4965 261.932 22.4965ZM261.515 15.5092C260.831 15.5092 260.331 15.7094 260.013 16.1097C259.701 16.5101 259.544 17.1498 259.544 18.0287V18.285C259.544 19.2714 259.701 19.9867 260.013 20.431C260.326 20.8705 260.836 21.0902 261.544 21.0902C262.14 21.0902 262.599 20.8461 262.921 20.3578C263.243 19.8695 263.404 19.1737 263.404 18.2704C263.404 17.3622 263.243 16.6761 262.921 16.2123C262.604 15.7435 262.135 15.5092 261.515 15.5092Z" fill="#707070"/>
<path d="M268.89 22.35H267.169V10.9535H268.89V22.35Z" fill="#707070"/>
<path d="M273.08 22.35H271.358V14.2494H273.08V22.35ZM271.256 12.1034C271.256 11.7958 271.339 11.559 271.505 11.3929C271.676 11.2269 271.917 11.1439 272.23 11.1439C272.533 11.1439 272.767 11.2269 272.933 11.3929C273.104 11.559 273.189 11.7958 273.189 12.1034C273.189 12.3964 273.104 12.6283 272.933 12.7992C272.767 12.9652 272.533 13.0482 272.23 13.0482C271.917 13.0482 271.676 12.9652 271.505 12.7992C271.339 12.6283 271.256 12.3964 271.256 12.1034Z" fill="#707070"/>
<path d="M278.814 22.4965C277.589 22.4965 276.656 22.14 276.017 21.4271C275.382 20.7094 275.064 19.6815 275.064 18.3436C275.064 16.9813 275.396 15.934 276.061 15.2015C276.729 14.4691 277.694 14.1029 278.954 14.1029C279.808 14.1029 280.577 14.2616 281.261 14.579L280.741 15.9633C280.013 15.6801 279.413 15.5385 278.939 15.5385C277.538 15.5385 276.837 16.4686 276.837 18.329C276.837 19.2372 277.01 19.9208 277.357 20.3798C277.708 20.8339 278.221 21.0609 278.895 21.0609C279.662 21.0609 280.387 20.8705 281.07 20.4896V21.9911C280.763 22.1718 280.433 22.3011 280.082 22.3793C279.735 22.4574 279.312 22.4965 278.814 22.4965Z" fill="#707070"/>
<path d="M288.043 22.35L287.699 21.222H287.64C287.25 21.7152 286.856 22.0521 286.461 22.2328C286.065 22.4086 285.558 22.4965 284.938 22.4965C284.142 22.4965 283.519 22.2816 283.07 21.8519C282.625 21.4222 282.403 20.8143 282.403 20.0282C282.403 19.1932 282.713 18.5634 283.333 18.1385C283.954 17.7137 284.898 17.4818 286.168 17.4427L287.567 17.3988V16.9667C287.567 16.4491 287.445 16.0634 287.201 15.8094C286.961 15.5507 286.588 15.4213 286.08 15.4213C285.665 15.4213 285.267 15.4823 284.886 15.6044C284.505 15.7264 284.139 15.8705 283.788 16.0365L283.231 14.806C283.67 14.5765 284.151 14.4032 284.674 14.286C285.196 14.1639 285.689 14.1029 286.153 14.1029C287.184 14.1029 287.96 14.3275 288.482 14.7767C289.01 15.226 289.273 15.9315 289.273 16.8934V22.35H288.043ZM285.479 21.1781C286.104 21.1781 286.605 21.0048 286.981 20.6581C287.362 20.3065 287.552 19.8158 287.552 19.1859V18.4828L286.512 18.5267C285.702 18.556 285.111 18.6927 284.74 18.9369C284.374 19.1761 284.19 19.5448 284.19 20.0428C284.19 20.4042 284.298 20.6849 284.513 20.8851C284.728 21.0804 285.05 21.1781 285.479 21.1781Z" fill="#707070"/>
<path d="M294.693 21.1049C295.113 21.1049 295.533 21.0389 295.953 20.9071V22.2035C295.763 22.2865 295.516 22.3549 295.213 22.4086C294.916 22.4672 294.605 22.4965 294.283 22.4965C292.652 22.4965 291.837 21.6371 291.837 19.9183V15.5531H290.731V14.7914L291.917 14.1615L292.503 12.4476H293.565V14.2494H295.873V15.5531H293.565V19.889C293.565 20.3041 293.668 20.6117 293.873 20.8119C294.083 21.0072 294.356 21.1049 294.693 21.1049Z" fill="#707070"/>
<path d="M299.3 22.35H297.579V14.2494H299.3V22.35ZM297.477 12.1034C297.477 11.7958 297.56 11.559 297.726 11.3929C297.896 11.2269 298.138 11.1439 298.451 11.1439C298.753 11.1439 298.988 11.2269 299.154 11.3929C299.325 11.559 299.41 11.7958 299.41 12.1034C299.41 12.3964 299.325 12.6283 299.154 12.7992C298.988 12.9652 298.753 13.0482 298.451 13.0482C298.138 13.0482 297.896 12.9652 297.726 12.7992C297.56 12.6283 297.477 12.3964 297.477 12.1034Z" fill="#707070"/>
<path d="M308.954 18.285C308.954 19.6083 308.614 20.641 307.936 21.3832C307.257 22.1254 306.312 22.4965 305.101 22.4965C304.344 22.4965 303.675 22.3256 303.094 21.9838C302.513 21.642 302.066 21.1512 301.754 20.5116C301.441 19.8719 301.285 19.1298 301.285 18.285C301.285 16.9716 301.622 15.9462 302.296 15.2089C302.97 14.4716 303.919 14.1029 305.145 14.1029C306.317 14.1029 307.245 14.4813 307.928 15.2382C308.612 15.9901 308.954 17.0057 308.954 18.285ZM303.058 18.285C303.058 20.1552 303.749 21.0902 305.13 21.0902C306.498 21.0902 307.181 20.1552 307.181 18.285C307.181 16.4344 306.493 15.5092 305.116 15.5092C304.393 15.5092 303.868 15.7484 303.541 16.2269C303.219 16.7054 303.058 17.3915 303.058 18.285Z" fill="#707070"/>
<path d="M318.065 22.35H316.336V17.3695C316.336 16.7445 316.209 16.2782 315.956 15.9706C315.707 15.663 315.309 15.5092 314.762 15.5092C314.034 15.5092 313.502 15.724 313.165 16.1537C312.828 16.5834 312.66 17.3036 312.66 18.3143V22.35H310.938V14.2494H312.286L312.528 15.3114H312.616C312.86 14.9257 313.207 14.6278 313.656 14.4178C314.105 14.2079 314.603 14.1029 315.15 14.1029C317.093 14.1029 318.065 15.0917 318.065 17.0692V22.35Z" fill="#707070"/>
<path d="M324.54 22.35V11.642H326.29V20.8485H330.824V22.35H324.54Z" fill="#707070"/>
<path d="M337.555 22.35L337.21 21.222H337.152C336.761 21.7152 336.368 22.0521 335.973 22.2328C335.577 22.4086 335.069 22.4965 334.449 22.4965C333.653 22.4965 333.031 22.2816 332.582 21.8519C332.137 21.4222 331.915 20.8143 331.915 20.0282C331.915 19.1932 332.225 18.5634 332.845 18.1385C333.465 17.7137 334.41 17.4818 335.68 17.4427L337.079 17.3988V16.9667C337.079 16.4491 336.957 16.0634 336.712 15.8094C336.473 15.5507 336.1 15.4213 335.592 15.4213C335.177 15.4213 334.779 15.4823 334.398 15.6044C334.017 15.7264 333.651 15.8705 333.299 16.0365L332.743 14.806C333.182 14.5765 333.663 14.4032 334.186 14.286C334.708 14.1639 335.201 14.1029 335.665 14.1029C336.695 14.1029 337.472 14.3275 337.994 14.7767C338.521 15.226 338.785 15.9315 338.785 16.8934V22.35H337.555ZM334.991 21.1781C335.616 21.1781 336.117 21.0048 336.493 20.6581C336.874 20.3065 337.064 19.8158 337.064 19.1859V18.4828L336.024 18.5267C335.213 18.556 334.623 18.6927 334.251 18.9369C333.885 19.1761 333.702 19.5448 333.702 20.0428C333.702 20.4042 333.81 20.6849 334.024 20.8851C334.239 21.0804 334.562 21.1781 334.991 21.1781Z" fill="#707070"/>
<path d="M339.957 14.2494H341.832L343.48 18.8417C343.729 19.496 343.895 20.1112 343.978 20.6874H344.037C344.081 20.4188 344.161 20.0941 344.278 19.7133C344.396 19.3275 345.016 17.5062 346.139 14.2494H347.999L344.535 23.4266C343.905 25.1112 342.855 25.9535 341.385 25.9535C341.004 25.9535 340.633 25.912 340.272 25.829V24.4667C340.531 24.5253 340.826 24.5546 341.158 24.5546C341.988 24.5546 342.572 24.0736 342.909 23.1117L343.209 22.35L339.957 14.2494Z" fill="#707070"/>
<path d="M352.767 22.4965C351.507 22.4965 350.521 22.1302 349.808 21.3978C349.1 20.6605 348.746 19.6473 348.746 18.3583C348.746 17.035 349.076 15.995 349.735 15.2382C350.394 14.4813 351.3 14.1029 352.452 14.1029C353.521 14.1029 354.366 14.4276 354.986 15.077C355.606 15.7264 355.917 16.62 355.917 17.7577V18.6879H350.519C350.543 19.474 350.755 20.0795 351.156 20.5043C351.556 20.9242 352.12 21.1342 352.848 21.1342C353.326 21.1342 353.771 21.0902 354.181 21.0023C354.596 20.9095 355.04 20.7582 355.514 20.5482V21.9471C355.094 22.1473 354.669 22.2889 354.239 22.3719C353.81 22.455 353.319 22.4965 352.767 22.4965ZM352.452 15.4066C351.905 15.4066 351.466 15.58 351.134 15.9266C350.807 16.2733 350.611 16.7787 350.548 17.4427H354.225C354.215 16.7738 354.054 16.2684 353.741 15.9266C353.429 15.58 352.999 15.4066 352.452 15.4066Z" fill="#707070"/>
<path d="M361.981 14.1029C362.328 14.1029 362.613 14.1273 362.838 14.1761L362.669 15.7802C362.425 15.7216 362.171 15.6923 361.908 15.6923C361.219 15.6923 360.66 15.9169 360.23 16.3661C359.806 16.8153 359.593 17.3988 359.593 18.1166V22.35H357.872V14.2494H359.22L359.447 15.6776H359.535C359.803 15.1942 360.152 14.8109 360.582 14.5277C361.017 14.2445 361.483 14.1029 361.981 14.1029Z" fill="#707070"/>
<path d="M236 32H364" stroke="#404242" stroke-width="0.5" stroke-linecap="round" stroke-linejoin="round"/>
<defs>
<linearGradient id="paint0_linear" x1="33.3799" y1="74.39" x2="193.28" y2="74.39" gradientUnits="userSpaceOnUse">
<stop stop-color="#8176B5"/>
<stop offset="1" stop-color="#76C4E2"/>
</linearGradient>
<linearGradient id="paint1_linear" x1="4370.11" y1="3475.33" x2="21249.3" y2="3475.33" gradientUnits="userSpaceOnUse">
<stop stop-color="#8176B5"/>
<stop offset="1" stop-color="#76C4E2"/>
</linearGradient>
<linearGradient id="paint2_linear" x1="5181.51" y1="4070.78" x2="6125.84" y2="4070.78" gradientUnits="userSpaceOnUse">
<stop stop-color="#8176B5"/>
<stop offset="1" stop-color="#76C4E2"/>
</linearGradient>
<linearGradient id="paint3_linear" x1="39845.8" y1="6120.14" x2="46427.1" y2="6120.14" gradientUnits="userSpaceOnUse">
<stop stop-color="#8176B5"/>
<stop offset="1" stop-color="#76C4E2"/>
</linearGradient>
<linearGradient id="paint4_linear" x1="18558.1" y1="267.031" x2="19754.5" y2="267.031" gradientUnits="userSpaceOnUse">
<stop stop-color="#8176B5"/>
<stop offset="1" stop-color="#76C4E2"/>
</linearGradient>
<linearGradient id="paint5_linear" x1="18558.1" y1="281.494" x2="19754.5" y2="281.494" gradientUnits="userSpaceOnUse">
<stop stop-color="#8176B5"/>
<stop offset="1" stop-color="#76C4E2"/>
</linearGradient>
<linearGradient id="paint6_linear" x1="18558.1" y1="295.931" x2="19754.5" y2="295.931" gradientUnits="userSpaceOnUse">
<stop stop-color="#8176B5"/>
<stop offset="1" stop-color="#76C4E2"/>
</linearGradient>
<linearGradient id="paint7_linear" x1="15611.9" y1="310.38" x2="16449.1" y2="310.38" gradientUnits="userSpaceOnUse">
<stop stop-color="#8176B5"/>
<stop offset="1" stop-color="#76C4E2"/>
</linearGradient>
<linearGradient id="paint8_linear" x1="11273.5" y1="324.842" x2="11698.5" y2="324.842" gradientUnits="userSpaceOnUse">
<stop stop-color="#8176B5"/>
<stop offset="1" stop-color="#76C4E2"/>
</linearGradient>
<linearGradient id="paint9_linear" x1="11205.7" y1="241.078" x2="11674" y2="241.078" gradientUnits="userSpaceOnUse">
<stop stop-color="#8176B5"/>
<stop offset="1" stop-color="#76C4E2"/>
</linearGradient>
<linearGradient id="paint10_linear" x1="11205.7" y1="246.294" x2="11674" y2="246.294" gradientUnits="userSpaceOnUse">
<stop stop-color="#8176B5"/>
<stop offset="1" stop-color="#76C4E2"/>
</linearGradient>
<linearGradient id="paint11_linear" x1="11205.7" y1="251.5" x2="11674" y2="251.5" gradientUnits="userSpaceOnUse">
<stop stop-color="#8176B5"/>
<stop offset="1" stop-color="#76C4E2"/>
</linearGradient>
<linearGradient id="paint12_linear" x1="11205.7" y1="256.702" x2="11674" y2="256.702" gradientUnits="userSpaceOnUse">
<stop stop-color="#8176B5"/>
<stop offset="1" stop-color="#76C4E2"/>
</linearGradient>
<linearGradient id="paint13_linear" x1="11265.1" y1="1838.91" x2="11738.6" y2="1838.91" gradientUnits="userSpaceOnUse">
<stop stop-color="#8176B5"/>
<stop offset="1" stop-color="#76C4E2"/>
</linearGradient>
</defs>
</svg>
