<svg width="784" height="456" viewBox="0 0 784 456" fill="none" xmlns="http://www.w3.org/2000/svg">
<g clip-path="url(#clip0)">
<rect width="784" height="456" fill="white"/>
<path d="M464 378V90.5V65H447" stroke="#F3652B" stroke-width="2"/>
<path d="M186 369V104.5V55H335.5" stroke="#F3652B" stroke-width="2"/>
<path d="M320 93V258" stroke="#F3652B" stroke-width="2"/>
<path d="M321 92V65H347" stroke="#F3652B" stroke-width="2"/>
<rect x="41" y="258" width="702" height="68" rx="4" fill="#F7F7F7"/>
<path d="M651.32 286.977C651.32 286.576 651.177 286.263 650.891 286.039C650.609 285.815 650.112 285.583 649.398 285.344C648.685 285.104 648.102 284.872 647.648 284.648C646.174 283.924 645.438 282.93 645.438 281.664C645.438 281.034 645.62 280.479 645.984 280C646.354 279.516 646.875 279.141 647.547 278.875C648.219 278.604 648.974 278.469 649.812 278.469C650.63 278.469 651.362 278.615 652.008 278.906C652.659 279.198 653.164 279.615 653.523 280.156C653.883 280.693 654.062 281.307 654.062 282H651.328C651.328 281.536 651.185 281.177 650.898 280.922C650.617 280.667 650.234 280.539 649.75 280.539C649.26 280.539 648.872 280.648 648.586 280.867C648.305 281.081 648.164 281.354 648.164 281.688C648.164 281.979 648.32 282.245 648.633 282.484C648.945 282.719 649.495 282.964 650.281 283.219C651.068 283.469 651.714 283.74 652.219 284.031C653.448 284.74 654.062 285.716 654.062 286.961C654.062 287.956 653.688 288.737 652.938 289.305C652.188 289.872 651.159 290.156 649.852 290.156C648.93 290.156 648.094 289.992 647.344 289.664C646.599 289.331 646.036 288.878 645.656 288.305C645.281 287.727 645.094 287.062 645.094 286.312H647.844C647.844 286.922 648 287.372 648.312 287.664C648.63 287.951 649.143 288.094 649.852 288.094C650.305 288.094 650.661 287.997 650.922 287.805C651.188 287.607 651.32 287.331 651.32 286.977ZM660.383 289.086C659.826 289.799 659.073 290.156 658.125 290.156C657.198 290.156 656.495 289.888 656.016 289.352C655.542 288.81 655.305 288.034 655.305 287.023V281.547H657.938V287.039C657.938 287.763 658.289 288.125 658.992 288.125C659.596 288.125 660.026 287.909 660.281 287.477V281.547H662.93V290H660.461L660.383 289.086ZM672.227 285.844C672.227 287.229 671.94 288.294 671.367 289.039C670.794 289.784 669.987 290.156 668.945 290.156C668.086 290.156 667.393 289.815 666.867 289.133L666.758 290H664.398V278H667.031V282.227C667.521 281.669 668.154 281.391 668.93 281.391C669.982 281.391 670.794 281.768 671.367 282.523C671.94 283.279 672.227 284.341 672.227 285.711V285.844ZM669.586 285.68C669.586 284.867 669.477 284.289 669.258 283.945C669.044 283.596 668.714 283.422 668.266 283.422C667.672 283.422 667.26 283.648 667.031 284.102V287.461C667.255 287.909 667.672 288.133 668.281 288.133C668.901 288.133 669.294 287.831 669.461 287.227C669.544 286.93 669.586 286.414 669.586 285.68ZM673.062 285.711C673.062 284.372 673.352 283.318 673.93 282.547C674.508 281.776 675.315 281.391 676.352 281.391C677.107 281.391 677.742 281.688 678.258 282.281V278H680.898V290H678.531L678.398 289.094C677.857 289.802 677.169 290.156 676.336 290.156C675.331 290.156 674.534 289.771 673.945 289C673.357 288.229 673.062 287.133 673.062 285.711ZM675.695 285.875C675.695 287.375 676.133 288.125 677.008 288.125C677.591 288.125 678.008 287.88 678.258 287.391V284.172C678.018 283.672 677.607 283.422 677.023 283.422C676.211 283.422 675.771 284.078 675.703 285.391L675.695 285.875ZM682.062 285.695C682.062 284.852 682.227 284.102 682.555 283.445C682.883 282.784 683.354 282.276 683.969 281.922C684.583 281.568 685.305 281.391 686.133 281.391C687.398 281.391 688.396 281.784 689.125 282.57C689.854 283.352 690.219 284.417 690.219 285.766V285.859C690.219 287.177 689.852 288.224 689.117 289C688.388 289.771 687.398 290.156 686.148 290.156C684.945 290.156 683.979 289.797 683.25 289.078C682.521 288.354 682.128 287.375 682.07 286.141L682.062 285.695ZM684.695 285.859C684.695 286.641 684.818 287.214 685.062 287.578C685.307 287.943 685.669 288.125 686.148 288.125C687.086 288.125 687.565 287.404 687.586 285.961V285.695C687.586 284.18 687.102 283.422 686.133 283.422C685.253 283.422 684.776 284.076 684.703 285.383L684.695 285.859ZM693.867 281.547L693.953 282.539C694.552 281.773 695.357 281.391 696.367 281.391C697.435 281.391 698.156 281.815 698.531 282.664C699.104 281.815 699.932 281.391 701.016 281.391C702.729 281.391 703.609 282.427 703.656 284.5V290H701.016V284.664C701.016 284.232 700.943 283.917 700.797 283.719C700.651 283.521 700.385 283.422 700 283.422C699.479 283.422 699.091 283.654 698.836 284.117L698.844 284.227V290H696.203V284.68C696.203 284.237 696.133 283.917 695.992 283.719C695.852 283.521 695.583 283.422 695.188 283.422C694.682 283.422 694.297 283.654 694.031 284.117V290H691.398V281.547H693.867ZM708.031 290H705.383V281.547H708.031V290ZM707.047 278.156H709.828L707.656 280.609H705.508L707.047 278.156ZM712.141 281.547L712.227 282.539C712.81 281.773 713.615 281.391 714.641 281.391C715.521 281.391 716.177 281.654 716.609 282.18C717.047 282.706 717.273 283.497 717.289 284.555V290H714.648V284.664C714.648 284.237 714.562 283.924 714.391 283.727C714.219 283.523 713.906 283.422 713.453 283.422C712.938 283.422 712.555 283.625 712.305 284.031V290H709.672V281.547H712.141ZM721.531 290H718.891V281.547H721.531V290ZM718.734 279.367C718.734 278.992 718.87 278.685 719.141 278.445C719.411 278.206 719.763 278.086 720.195 278.086C720.628 278.086 720.979 278.206 721.25 278.445C721.521 278.685 721.656 278.992 721.656 279.367C721.656 279.742 721.521 280.049 721.25 280.289C720.979 280.529 720.628 280.648 720.195 280.648C719.763 280.648 719.411 280.529 719.141 280.289C718.87 280.049 718.734 279.742 718.734 279.367ZM722.828 285.695C722.828 284.852 722.992 284.102 723.32 283.445C723.648 282.784 724.12 282.276 724.734 281.922C725.349 281.568 726.07 281.391 726.898 281.391C728.164 281.391 729.161 281.784 729.891 282.57C730.62 283.352 730.984 284.417 730.984 285.766V285.859C730.984 287.177 730.617 288.224 729.883 289C729.154 289.771 728.164 290.156 726.914 290.156C725.711 290.156 724.745 289.797 724.016 289.078C723.286 288.354 722.893 287.375 722.836 286.141L722.828 285.695ZM725.461 285.859C725.461 286.641 725.583 287.214 725.828 287.578C726.073 287.943 726.435 288.125 726.914 288.125C727.852 288.125 728.331 287.404 728.352 285.961V285.695C728.352 284.18 727.867 283.422 726.898 283.422C726.018 283.422 725.542 284.076 725.469 285.383L725.461 285.859ZM678.672 303.549H676.668V307H675.537V298.469H678.361C679.322 298.469 680.061 298.688 680.576 299.125C681.096 299.562 681.355 300.199 681.355 301.035C681.355 301.566 681.211 302.029 680.922 302.424C680.637 302.818 680.238 303.113 679.727 303.309L681.73 306.93V307H680.523L678.672 303.549ZM676.668 302.629H678.396C678.955 302.629 679.398 302.484 679.727 302.195C680.059 301.906 680.225 301.52 680.225 301.035C680.225 300.508 680.066 300.104 679.75 299.822C679.438 299.541 678.984 299.398 678.391 299.395H676.668V302.629ZM685.398 307.117C684.539 307.117 683.84 306.836 683.301 306.273C682.762 305.707 682.492 304.951 682.492 304.006V303.807C682.492 303.178 682.611 302.617 682.85 302.125C683.092 301.629 683.428 301.242 683.857 300.965C684.291 300.684 684.76 300.543 685.264 300.543C686.088 300.543 686.729 300.814 687.186 301.357C687.643 301.9 687.871 302.678 687.871 303.689V304.141H683.576C683.592 304.766 683.773 305.271 684.121 305.658C684.473 306.041 684.918 306.232 685.457 306.232C685.84 306.232 686.164 306.154 686.43 305.998C686.695 305.842 686.928 305.635 687.127 305.377L687.789 305.893C687.258 306.709 686.461 307.117 685.398 307.117ZM685.264 301.434C684.826 301.434 684.459 301.594 684.162 301.914C683.865 302.23 683.682 302.676 683.611 303.25H686.787V303.168C686.756 302.617 686.607 302.191 686.342 301.891C686.076 301.586 685.717 301.434 685.264 301.434ZM688.867 303.777C688.867 302.805 689.098 302.023 689.559 301.434C690.02 300.84 690.623 300.543 691.369 300.543C692.111 300.543 692.699 300.797 693.133 301.305V298H694.217V307H693.221L693.168 306.32C692.734 306.852 692.131 307.117 691.357 307.117C690.623 307.117 690.023 306.816 689.559 306.215C689.098 305.613 688.867 304.828 688.867 303.859V303.777ZM689.951 303.9C689.951 304.619 690.1 305.182 690.396 305.588C690.693 305.994 691.104 306.197 691.627 306.197C692.314 306.197 692.816 305.889 693.133 305.271V302.359C692.809 301.762 692.311 301.463 691.639 301.463C691.107 301.463 690.693 301.668 690.396 302.078C690.1 302.488 689.951 303.096 689.951 303.9ZM698.535 307.117C697.676 307.117 696.977 306.836 696.438 306.273C695.898 305.707 695.629 304.951 695.629 304.006V303.807C695.629 303.178 695.748 302.617 695.986 302.125C696.229 301.629 696.564 301.242 696.994 300.965C697.428 300.684 697.896 300.543 698.4 300.543C699.225 300.543 699.865 300.814 700.322 301.357C700.779 301.9 701.008 302.678 701.008 303.689V304.141H696.713C696.729 304.766 696.91 305.271 697.258 305.658C697.609 306.041 698.055 306.232 698.594 306.232C698.977 306.232 699.301 306.154 699.566 305.998C699.832 305.842 700.064 305.635 700.264 305.377L700.926 305.893C700.395 306.709 699.598 307.117 698.535 307.117ZM698.4 301.434C697.963 301.434 697.596 301.594 697.299 301.914C697.002 302.23 696.818 302.676 696.748 303.25H699.924V303.168C699.893 302.617 699.744 302.191 699.479 301.891C699.213 301.586 698.854 301.434 698.4 301.434Z" fill="#646464"/>
<path d="M164.61 300C164.516 299.828 164.433 299.576 164.36 299.242C163.876 299.852 163.198 300.156 162.329 300.156C161.532 300.156 160.855 299.917 160.297 299.438C159.74 298.953 159.462 298.346 159.462 297.617C159.462 296.701 159.8 296.008 160.477 295.539C161.154 295.07 162.139 294.836 163.43 294.836H164.243V294.391C164.243 293.615 163.907 293.227 163.235 293.227C162.61 293.227 162.297 293.534 162.297 294.148H159.665C159.665 293.331 160.011 292.667 160.704 292.156C161.402 291.646 162.29 291.391 163.368 291.391C164.446 291.391 165.297 291.654 165.922 292.18C166.547 292.706 166.868 293.427 166.883 294.344V298.086C166.894 298.862 167.014 299.456 167.243 299.867V300H164.61ZM162.962 298.281C163.29 298.281 163.56 298.211 163.774 298.07C163.993 297.93 164.149 297.771 164.243 297.594V296.242H163.477C162.56 296.242 162.102 296.654 162.102 297.477C162.102 297.716 162.183 297.911 162.344 298.062C162.506 298.208 162.712 298.281 162.962 298.281ZM171.454 297.969H175.305V300H168.126V298.531L171.876 293.578H168.29V291.547H175.219V292.969L171.454 297.969ZM179.36 300H176.719V291.547H179.36V300ZM176.563 289.367C176.563 288.992 176.698 288.685 176.969 288.445C177.24 288.206 177.592 288.086 178.024 288.086C178.456 288.086 178.808 288.206 179.079 288.445C179.35 288.685 179.485 288.992 179.485 289.367C179.485 289.742 179.35 290.049 179.079 290.289C178.808 290.529 178.456 290.648 178.024 290.648C177.592 290.648 177.24 290.529 176.969 290.289C176.698 290.049 176.563 289.742 176.563 289.367ZM180.657 295.695C180.657 294.852 180.821 294.102 181.149 293.445C181.477 292.784 181.948 292.276 182.563 291.922C183.178 291.568 183.899 291.391 184.727 291.391C185.993 291.391 186.99 291.784 187.719 292.57C188.448 293.352 188.813 294.417 188.813 295.766V295.859C188.813 297.177 188.446 298.224 187.712 299C186.982 299.771 185.993 300.156 184.743 300.156C183.54 300.156 182.573 299.797 181.844 299.078C181.115 298.354 180.722 297.375 180.665 296.141L180.657 295.695ZM183.29 295.859C183.29 296.641 183.412 297.214 183.657 297.578C183.902 297.943 184.264 298.125 184.743 298.125C185.68 298.125 186.159 297.404 186.18 295.961V295.695C186.18 294.18 185.696 293.422 184.727 293.422C183.847 293.422 183.37 294.076 183.297 295.383L183.29 295.859ZM192.391 291.547L192.477 292.539C193.06 291.773 193.865 291.391 194.891 291.391C195.771 291.391 196.428 291.654 196.86 292.18C197.297 292.706 197.524 293.497 197.54 294.555V300H194.899V294.664C194.899 294.237 194.813 293.924 194.641 293.727C194.469 293.523 194.157 293.422 193.704 293.422C193.188 293.422 192.805 293.625 192.555 294.031V300H189.922V291.547H192.391Z" fill="#646464"/>
<path d="M113 273H245V271H113V273ZM248 276V308H250V276H248ZM245 311H113V313H245V311ZM110 308V276H108V308H110ZM113 311C111.343 311 110 309.657 110 308H108C108 310.761 110.239 313 113 313V311ZM248 308C248 309.657 246.657 311 245 311V313C247.761 313 250 310.761 250 308H248ZM245 273C246.657 273 248 274.343 248 276H250C250 273.239 247.761 271 245 271V273ZM113 271C110.239 271 108 273.239 108 276H110C110 274.343 111.343 273 113 273V271Z" fill="#C4C4C4"/>
<path d="M447.438 297.625C447.438 297.401 447.32 297.221 447.086 297.086C446.852 296.951 446.406 296.81 445.75 296.664C445.094 296.518 444.552 296.328 444.125 296.094C443.698 295.854 443.372 295.565 443.148 295.227C442.924 294.888 442.812 294.5 442.812 294.062C442.812 293.286 443.133 292.648 443.773 292.148C444.414 291.643 445.253 291.391 446.289 291.391C447.404 291.391 448.299 291.643 448.977 292.148C449.654 292.654 449.992 293.318 449.992 294.141H447.352C447.352 293.464 446.995 293.125 446.281 293.125C446.005 293.125 445.773 293.203 445.586 293.359C445.398 293.51 445.305 293.701 445.305 293.93C445.305 294.164 445.419 294.354 445.648 294.5C445.878 294.646 446.242 294.766 446.742 294.859C447.247 294.953 447.69 295.065 448.07 295.195C449.341 295.633 449.977 296.417 449.977 297.547C449.977 298.318 449.633 298.945 448.945 299.43C448.263 299.914 447.378 300.156 446.289 300.156C445.565 300.156 444.919 300.026 444.352 299.766C443.784 299.505 443.341 299.151 443.023 298.703C442.706 298.255 442.547 297.784 442.547 297.289H445.008C445.018 297.68 445.148 297.966 445.398 298.148C445.648 298.326 445.969 298.414 446.359 298.414C446.719 298.414 446.987 298.341 447.164 298.195C447.346 298.049 447.438 297.859 447.438 297.625ZM455.977 300C455.883 299.828 455.799 299.576 455.727 299.242C455.242 299.852 454.565 300.156 453.695 300.156C452.898 300.156 452.221 299.917 451.664 299.438C451.107 298.953 450.828 298.346 450.828 297.617C450.828 296.701 451.167 296.008 451.844 295.539C452.521 295.07 453.505 294.836 454.797 294.836H455.609V294.391C455.609 293.615 455.273 293.227 454.602 293.227C453.977 293.227 453.664 293.534 453.664 294.148H451.031C451.031 293.331 451.378 292.667 452.07 292.156C452.768 291.646 453.656 291.391 454.734 291.391C455.812 291.391 456.664 291.654 457.289 292.18C457.914 292.706 458.234 293.427 458.25 294.344V298.086C458.26 298.862 458.38 299.456 458.609 299.867V300H455.977ZM454.328 298.281C454.656 298.281 454.927 298.211 455.141 298.07C455.359 297.93 455.516 297.771 455.609 297.594V296.242H454.844C453.927 296.242 453.469 296.654 453.469 297.477C453.469 297.716 453.549 297.911 453.711 298.062C453.872 298.208 454.078 298.281 454.328 298.281ZM464.75 299.086C464.193 299.799 463.44 300.156 462.492 300.156C461.565 300.156 460.862 299.888 460.383 299.352C459.909 298.81 459.672 298.034 459.672 297.023V291.547H462.305V297.039C462.305 297.763 462.656 298.125 463.359 298.125C463.964 298.125 464.393 297.909 464.648 297.477V291.547H467.297V300H464.828L464.75 299.086ZM468.414 295.711C468.414 294.372 468.703 293.318 469.281 292.547C469.859 291.776 470.667 291.391 471.703 291.391C472.458 291.391 473.094 291.688 473.609 292.281V288H476.25V300H473.883L473.75 299.094C473.208 299.802 472.521 300.156 471.688 300.156C470.682 300.156 469.885 299.771 469.297 299C468.708 298.229 468.414 297.133 468.414 295.711ZM471.047 295.875C471.047 297.375 471.484 298.125 472.359 298.125C472.943 298.125 473.359 297.88 473.609 297.391V294.172C473.37 293.672 472.958 293.422 472.375 293.422C471.562 293.422 471.122 294.078 471.055 295.391L471.047 295.875ZM481.836 300.156C480.539 300.156 479.49 299.771 478.688 299C477.885 298.224 477.484 297.216 477.484 295.977V295.758C477.484 294.893 477.643 294.13 477.961 293.469C478.284 292.807 478.753 292.297 479.367 291.938C479.982 291.573 480.711 291.391 481.555 291.391C482.742 291.391 483.68 291.76 484.367 292.5C485.055 293.234 485.398 294.26 485.398 295.578V296.602H480.164C480.258 297.076 480.464 297.448 480.781 297.719C481.099 297.99 481.51 298.125 482.016 298.125C482.849 298.125 483.5 297.833 483.969 297.25L485.172 298.672C484.844 299.125 484.378 299.487 483.773 299.758C483.174 300.023 482.529 300.156 481.836 300.156ZM481.539 293.422C480.768 293.422 480.31 293.932 480.164 294.953H482.82V294.75C482.831 294.328 482.724 294.003 482.5 293.773C482.276 293.539 481.956 293.422 481.539 293.422Z" fill="#646464"/>
<path d="M414 273H515V271H414V273ZM518 276V308H520V276H518ZM515 311H414V313H515V311ZM411 308V276H409V308H411ZM414 311C412.343 311 411 309.657 411 308H409C409 310.761 411.239 313 414 313V311ZM518 308C518 309.657 516.657 311 515 311V313C517.761 313 520 310.761 520 308H518ZM515 273C516.657 273 518 274.343 518 276H520C520 273.239 517.761 271 515 271V273ZM414 271C411.239 271 409 273.239 409 276H411C411 274.343 412.343 273 414 273V271Z" fill="#C4C4C4"/>
<rect x="41" y="342" width="702" height="68" rx="4" fill="#EBEBEB"/>
<path d="M656.695 379.984H655.211V384H652.469V372.625H656.945C658.294 372.625 659.349 372.924 660.109 373.523C660.87 374.122 661.25 374.969 661.25 376.062C661.25 376.854 661.089 377.51 660.766 378.031C660.448 378.552 659.948 378.974 659.266 379.297L661.641 383.883V384H658.703L656.695 379.984ZM655.211 377.867H656.945C657.466 377.867 657.857 377.732 658.117 377.461C658.383 377.185 658.516 376.802 658.516 376.312C658.516 375.823 658.383 375.44 658.117 375.164C657.852 374.883 657.461 374.742 656.945 374.742H655.211V377.867ZM666.875 384.156C665.578 384.156 664.529 383.771 663.727 383C662.924 382.224 662.523 381.216 662.523 379.977V379.758C662.523 378.893 662.682 378.13 663 377.469C663.323 376.807 663.792 376.297 664.406 375.938C665.021 375.573 665.75 375.391 666.594 375.391C667.781 375.391 668.719 375.76 669.406 376.5C670.094 377.234 670.438 378.26 670.438 379.578V380.602H665.203C665.297 381.076 665.503 381.448 665.82 381.719C666.138 381.99 666.549 382.125 667.055 382.125C667.888 382.125 668.539 381.833 669.008 381.25L670.211 382.672C669.883 383.125 669.417 383.487 668.812 383.758C668.214 384.023 667.568 384.156 666.875 384.156ZM666.578 377.422C665.807 377.422 665.349 377.932 665.203 378.953H667.859V378.75C667.87 378.328 667.763 378.003 667.539 377.773C667.315 377.539 666.995 377.422 666.578 377.422ZM675.93 381.625C675.93 381.401 675.812 381.221 675.578 381.086C675.344 380.951 674.898 380.81 674.242 380.664C673.586 380.518 673.044 380.328 672.617 380.094C672.19 379.854 671.865 379.565 671.641 379.227C671.417 378.888 671.305 378.5 671.305 378.062C671.305 377.286 671.625 376.648 672.266 376.148C672.906 375.643 673.745 375.391 674.781 375.391C675.896 375.391 676.792 375.643 677.469 376.148C678.146 376.654 678.484 377.318 678.484 378.141H675.844C675.844 377.464 675.487 377.125 674.773 377.125C674.497 377.125 674.266 377.203 674.078 377.359C673.891 377.51 673.797 377.701 673.797 377.93C673.797 378.164 673.911 378.354 674.141 378.5C674.37 378.646 674.734 378.766 675.234 378.859C675.74 378.953 676.182 379.065 676.562 379.195C677.833 379.633 678.469 380.417 678.469 381.547C678.469 382.318 678.125 382.945 677.438 383.43C676.755 383.914 675.87 384.156 674.781 384.156C674.057 384.156 673.411 384.026 672.844 383.766C672.276 383.505 671.833 383.151 671.516 382.703C671.198 382.255 671.039 381.784 671.039 381.289H673.5C673.51 381.68 673.641 381.966 673.891 382.148C674.141 382.326 674.461 382.414 674.852 382.414C675.211 382.414 675.479 382.341 675.656 382.195C675.839 382.049 675.93 381.859 675.93 381.625ZM684.742 383.086C684.185 383.799 683.432 384.156 682.484 384.156C681.557 384.156 680.854 383.888 680.375 383.352C679.901 382.81 679.664 382.034 679.664 381.023V375.547H682.297V381.039C682.297 381.763 682.648 382.125 683.352 382.125C683.956 382.125 684.385 381.909 684.641 381.477V375.547H687.289V384H684.82L684.742 383.086ZM691.516 384H688.875V372H691.516V384ZM696.211 373.445V375.547H697.602V377.375H696.211V381.242C696.211 381.56 696.268 381.781 696.383 381.906C696.497 382.031 696.724 382.094 697.062 382.094C697.323 382.094 697.542 382.078 697.719 382.047V383.93C697.245 384.081 696.75 384.156 696.234 384.156C695.328 384.156 694.659 383.943 694.227 383.516C693.794 383.089 693.578 382.44 693.578 381.57V377.375H692.5V375.547H693.578V373.445H696.211ZM703.406 384C703.312 383.828 703.229 383.576 703.156 383.242C702.672 383.852 701.995 384.156 701.125 384.156C700.328 384.156 699.651 383.917 699.094 383.438C698.536 382.953 698.258 382.346 698.258 381.617C698.258 380.701 698.596 380.008 699.273 379.539C699.951 379.07 700.935 378.836 702.227 378.836H703.039V378.391C703.039 377.615 702.703 377.227 702.031 377.227C701.406 377.227 701.094 377.534 701.094 378.148H698.461C698.461 377.331 698.807 376.667 699.5 376.156C700.198 375.646 701.086 375.391 702.164 375.391C703.242 375.391 704.094 375.654 704.719 376.18C705.344 376.706 705.664 377.427 705.68 378.344V382.086C705.69 382.862 705.81 383.456 706.039 383.867V384H703.406ZM701.758 382.281C702.086 382.281 702.357 382.211 702.57 382.07C702.789 381.93 702.945 381.771 703.039 381.594V380.242H702.273C701.357 380.242 700.898 380.654 700.898 381.477C700.898 381.716 700.979 381.911 701.141 382.062C701.302 382.208 701.508 382.281 701.758 382.281ZM706.812 379.711C706.812 378.372 707.102 377.318 707.68 376.547C708.258 375.776 709.065 375.391 710.102 375.391C710.857 375.391 711.492 375.688 712.008 376.281V372H714.648V384H712.281L712.148 383.094C711.607 383.802 710.919 384.156 710.086 384.156C709.081 384.156 708.284 383.771 707.695 383C707.107 382.229 706.812 381.133 706.812 379.711ZM709.445 379.875C709.445 381.375 709.883 382.125 710.758 382.125C711.341 382.125 711.758 381.88 712.008 381.391V378.172C711.768 377.672 711.357 377.422 710.773 377.422C709.961 377.422 709.521 378.078 709.453 379.391L709.445 379.875ZM715.812 379.695C715.812 378.852 715.977 378.102 716.305 377.445C716.633 376.784 717.104 376.276 717.719 375.922C718.333 375.568 719.055 375.391 719.883 375.391C721.148 375.391 722.146 375.784 722.875 376.57C723.604 377.352 723.969 378.417 723.969 379.766V379.859C723.969 381.177 723.602 382.224 722.867 383C722.138 383.771 721.148 384.156 719.898 384.156C718.695 384.156 717.729 383.797 717 383.078C716.271 382.354 715.878 381.375 715.82 380.141L715.812 379.695ZM718.445 379.859C718.445 380.641 718.568 381.214 718.812 381.578C719.057 381.943 719.419 382.125 719.898 382.125C720.836 382.125 721.315 381.404 721.336 379.961V379.695C721.336 378.18 720.852 377.422 719.883 377.422C719.003 377.422 718.526 378.076 718.453 379.383L718.445 379.859Z" fill="#646464"/>
<path d="M66.1801 384.156C64.8832 384.156 63.8338 383.771 63.0317 383C62.2296 382.224 61.8286 381.216 61.8286 379.977V379.758C61.8286 378.893 61.9874 378.13 62.3051 377.469C62.628 376.807 63.0968 376.297 63.7114 375.938C64.3259 375.573 65.0551 375.391 65.8989 375.391C67.0864 375.391 68.0239 375.76 68.7114 376.5C69.3989 377.234 69.7426 378.26 69.7426 379.578V380.602H64.5082C64.602 381.076 64.8077 381.448 65.1254 381.719C65.4431 381.99 65.8546 382.125 66.3598 382.125C67.1931 382.125 67.8442 381.833 68.3129 381.25L69.5161 382.672C69.1879 383.125 68.7218 383.487 68.1176 383.758C67.5187 384.023 66.8728 384.156 66.1801 384.156ZM65.8832 377.422C65.1124 377.422 64.6541 377.932 64.5082 378.953H67.1645V378.75C67.1749 378.328 67.0681 378.003 66.8442 377.773C66.6202 377.539 66.2999 377.422 65.8832 377.422ZM70.477 379.711C70.477 378.372 70.7661 377.318 71.3442 376.547C71.9223 375.776 72.7296 375.391 73.7661 375.391C74.5213 375.391 75.1567 375.688 75.6723 376.281V372H78.3129V384H75.9457L75.8129 383.094C75.2713 383.802 74.5838 384.156 73.7504 384.156C72.7452 384.156 71.9483 383.771 71.3598 383C70.7713 382.229 70.477 381.133 70.477 379.711ZM73.1098 379.875C73.1098 381.375 73.5473 382.125 74.4223 382.125C75.0056 382.125 75.4223 381.88 75.6723 381.391V378.172C75.4327 377.672 75.0213 377.422 74.4379 377.422C73.6254 377.422 73.1853 378.078 73.1176 379.391L73.1098 379.875ZM79.5004 379.711C79.5004 378.857 79.6411 378.102 79.9223 377.445C80.2036 376.789 80.6072 376.284 81.1332 375.93C81.6593 375.57 82.2713 375.391 82.9692 375.391C83.8494 375.391 84.5369 375.688 85.0317 376.281L85.1254 375.547H87.5161V383.68C87.5161 384.424 87.3416 385.07 86.9926 385.617C86.6489 386.169 86.1489 386.591 85.4926 386.883C84.8364 387.18 84.0759 387.328 83.2114 387.328C82.5916 387.328 81.99 387.211 81.4067 386.977C80.8286 386.742 80.3858 386.438 80.0786 386.062L81.1801 384.516C81.6697 385.094 82.3155 385.383 83.1176 385.383C84.2843 385.383 84.8676 384.784 84.8676 383.586V383.32C84.3624 383.878 83.7244 384.156 82.9536 384.156C81.9223 384.156 81.089 383.763 80.4536 382.977C79.8181 382.185 79.5004 381.128 79.5004 379.805V379.711ZM82.1411 379.875C82.1411 380.568 82.2713 381.117 82.5317 381.523C82.7921 381.924 83.1567 382.125 83.6254 382.125C84.1931 382.125 84.6072 381.935 84.8676 381.555V378C84.6124 377.615 84.2036 377.422 83.6411 377.422C83.1723 377.422 82.8051 377.633 82.5395 378.055C82.2739 378.471 82.1411 379.078 82.1411 379.875ZM93.102 384.156C91.8051 384.156 90.7556 383.771 89.9536 383C89.1515 382.224 88.7504 381.216 88.7504 379.977V379.758C88.7504 378.893 88.9093 378.13 89.227 377.469C89.5499 376.807 90.0187 376.297 90.6332 375.938C91.2478 375.573 91.977 375.391 92.8207 375.391C94.0082 375.391 94.9457 375.76 95.6332 376.5C96.3207 377.234 96.6645 378.26 96.6645 379.578V380.602H91.4301C91.5239 381.076 91.7296 381.448 92.0473 381.719C92.365 381.99 92.7765 382.125 93.2817 382.125C94.115 382.125 94.7661 381.833 95.2348 381.25L96.4379 382.672C96.1098 383.125 95.6437 383.487 95.0395 383.758C94.4405 384.023 93.7947 384.156 93.102 384.156ZM92.8051 377.422C92.0343 377.422 91.5759 377.932 91.4301 378.953H94.0864V378.75C94.0968 378.328 93.99 378.003 93.7661 377.773C93.5421 377.539 93.2218 377.422 92.8051 377.422ZM101.305 382.125C101.675 382.125 101.961 382.026 102.164 381.828C102.368 381.625 102.467 381.344 102.461 380.984H104.93C104.93 381.911 104.597 382.672 103.93 383.266C103.269 383.859 102.414 384.156 101.368 384.156C100.138 384.156 99.1697 383.771 98.4614 383C97.753 382.229 97.3989 381.161 97.3989 379.797V379.688C97.3989 378.833 97.5551 378.081 97.8676 377.43C98.1853 376.773 98.6411 376.271 99.2348 375.922C99.8286 375.568 100.532 375.391 101.344 375.391C102.443 375.391 103.316 375.695 103.961 376.305C104.607 376.914 104.93 377.74 104.93 378.781H102.461C102.461 378.344 102.355 378.008 102.141 377.773C101.928 377.539 101.641 377.422 101.282 377.422C100.599 377.422 100.201 377.857 100.086 378.727C100.05 379.003 100.032 379.383 100.032 379.867C100.032 380.716 100.133 381.305 100.336 381.633C100.539 381.961 100.862 382.125 101.305 382.125ZM105.711 379.695C105.711 378.852 105.875 378.102 106.204 377.445C106.532 376.784 107.003 376.276 107.618 375.922C108.232 375.568 108.954 375.391 109.782 375.391C111.047 375.391 112.045 375.784 112.774 376.57C113.503 377.352 113.868 378.417 113.868 379.766V379.859C113.868 381.177 113.5 382.224 112.766 383C112.037 383.771 111.047 384.156 109.797 384.156C108.594 384.156 107.628 383.797 106.899 383.078C106.17 382.354 105.776 381.375 105.719 380.141L105.711 379.695ZM108.344 379.859C108.344 380.641 108.467 381.214 108.711 381.578C108.956 381.943 109.318 382.125 109.797 382.125C110.735 382.125 111.214 381.404 111.235 379.961V379.695C111.235 378.18 110.75 377.422 109.782 377.422C108.901 377.422 108.425 378.076 108.352 379.383L108.344 379.859ZM117.516 375.547L117.602 376.539C118.201 375.773 119.006 375.391 120.016 375.391C121.084 375.391 121.805 375.815 122.18 376.664C122.753 375.815 123.581 375.391 124.664 375.391C126.378 375.391 127.258 376.427 127.305 378.5V384H124.664V378.664C124.664 378.232 124.592 377.917 124.446 377.719C124.3 377.521 124.034 377.422 123.649 377.422C123.128 377.422 122.74 377.654 122.485 378.117L122.493 378.227V384H119.852V378.68C119.852 378.237 119.782 377.917 119.641 377.719C119.5 377.521 119.232 377.422 118.836 377.422C118.331 377.422 117.946 377.654 117.68 378.117V384H115.047V375.547H117.516ZM136.657 379.836C136.657 381.148 136.36 382.198 135.766 382.984C135.178 383.766 134.381 384.156 133.375 384.156C132.599 384.156 131.961 383.872 131.461 383.305V387.25H128.829V375.547H131.289L131.368 376.328C131.873 375.703 132.537 375.391 133.36 375.391C134.401 375.391 135.211 375.776 135.789 376.547C136.368 377.312 136.657 378.367 136.657 379.711V379.836ZM134.024 379.672C134.024 378.172 133.586 377.422 132.711 377.422C132.086 377.422 131.67 377.646 131.461 378.094V381.422C131.691 381.891 132.112 382.125 132.727 382.125C133.566 382.125 133.998 381.401 134.024 379.953V379.672ZM142.86 383.086C142.303 383.799 141.55 384.156 140.602 384.156C139.675 384.156 138.972 383.888 138.493 383.352C138.019 382.81 137.782 382.034 137.782 381.023V375.547H140.414V381.039C140.414 381.763 140.766 382.125 141.469 382.125C142.073 382.125 142.503 381.909 142.758 381.477V375.547H145.407V384H142.938L142.86 383.086ZM149.922 373.445V375.547H151.313V377.375H149.922V381.242C149.922 381.56 149.98 381.781 150.094 381.906C150.209 382.031 150.435 382.094 150.774 382.094C151.034 382.094 151.253 382.078 151.43 382.047V383.93C150.956 384.081 150.461 384.156 149.946 384.156C149.039 384.156 148.37 383.943 147.938 383.516C147.506 383.089 147.289 382.44 147.289 381.57V377.375H146.211V375.547H147.289V373.445H149.922ZM155.133 384H152.493V375.547H155.133V384ZM152.336 373.367C152.336 372.992 152.472 372.685 152.743 372.445C153.013 372.206 153.365 372.086 153.797 372.086C154.23 372.086 154.581 372.206 154.852 372.445C155.123 372.685 155.258 372.992 155.258 373.367C155.258 373.742 155.123 374.049 154.852 374.289C154.581 374.529 154.23 374.648 153.797 374.648C153.365 374.648 153.013 374.529 152.743 374.289C152.472 374.049 152.336 373.742 152.336 373.367ZM159.18 375.547L159.266 376.539C159.849 375.773 160.654 375.391 161.68 375.391C162.56 375.391 163.217 375.654 163.649 376.18C164.086 376.706 164.313 377.497 164.329 378.555V384H161.688V378.664C161.688 378.237 161.602 377.924 161.43 377.727C161.258 377.523 160.946 377.422 160.493 377.422C159.977 377.422 159.594 377.625 159.344 378.031V384H156.711V375.547H159.18ZM165.485 379.711C165.485 378.857 165.625 378.102 165.907 377.445C166.188 376.789 166.592 376.284 167.118 375.93C167.644 375.57 168.256 375.391 168.954 375.391C169.834 375.391 170.521 375.688 171.016 376.281L171.11 375.547H173.5V383.68C173.5 384.424 173.326 385.07 172.977 385.617C172.633 386.169 172.133 386.591 171.477 386.883C170.821 387.18 170.06 387.328 169.196 387.328C168.576 387.328 167.974 387.211 167.391 386.977C166.813 386.742 166.37 386.438 166.063 386.062L167.164 384.516C167.654 385.094 168.3 385.383 169.102 385.383C170.269 385.383 170.852 384.784 170.852 383.586V383.32C170.347 383.878 169.709 384.156 168.938 384.156C167.907 384.156 167.073 383.763 166.438 382.977C165.803 382.185 165.485 381.128 165.485 379.805V379.711ZM168.125 379.875C168.125 380.568 168.256 381.117 168.516 381.523C168.776 381.924 169.141 382.125 169.61 382.125C170.178 382.125 170.592 381.935 170.852 381.555V378C170.597 377.615 170.188 377.422 169.625 377.422C169.157 377.422 168.789 377.633 168.524 378.055C168.258 378.471 168.125 379.078 168.125 379.875ZM176.625 381.445C177.042 381.445 177.388 381.57 177.664 381.82C177.941 382.065 178.079 382.38 178.079 382.766C178.079 383.151 177.941 383.469 177.664 383.719C177.388 383.964 177.042 384.086 176.625 384.086C176.204 384.086 175.855 383.961 175.579 383.711C175.308 383.461 175.172 383.146 175.172 382.766C175.172 382.385 175.308 382.07 175.579 381.82C175.855 381.57 176.204 381.445 176.625 381.445ZM184.602 384C184.508 383.828 184.425 383.576 184.352 383.242C183.868 383.852 183.191 384.156 182.321 384.156C181.524 384.156 180.847 383.917 180.289 383.438C179.732 382.953 179.454 382.346 179.454 381.617C179.454 380.701 179.792 380.008 180.469 379.539C181.146 379.07 182.131 378.836 183.422 378.836H184.235V378.391C184.235 377.615 183.899 377.227 183.227 377.227C182.602 377.227 182.289 377.534 182.289 378.148H179.657C179.657 377.331 180.003 376.667 180.696 376.156C181.394 375.646 182.282 375.391 183.36 375.391C184.438 375.391 185.289 375.654 185.914 376.18C186.539 376.706 186.86 377.427 186.875 378.344V382.086C186.886 382.862 187.006 383.456 187.235 383.867V384H184.602ZM182.954 382.281C183.282 382.281 183.553 382.211 183.766 382.07C183.985 381.93 184.141 381.771 184.235 381.594V380.242H183.469C182.553 380.242 182.094 380.654 182.094 381.477C182.094 381.716 182.175 381.911 182.336 382.062C182.498 382.208 182.704 382.281 182.954 382.281ZM191.446 381.969H195.297V384H188.118V382.531L191.868 377.578H188.282V375.547H195.211V376.969L191.446 381.969ZM199.352 384H196.711V375.547H199.352V384ZM196.555 373.367C196.555 372.992 196.691 372.685 196.961 372.445C197.232 372.206 197.584 372.086 198.016 372.086C198.448 372.086 198.8 372.206 199.071 372.445C199.342 372.685 199.477 372.992 199.477 373.367C199.477 373.742 199.342 374.049 199.071 374.289C198.8 374.529 198.448 374.648 198.016 374.648C197.584 374.648 197.232 374.529 196.961 374.289C196.691 374.049 196.555 373.742 196.555 373.367ZM200.649 379.695C200.649 378.852 200.813 378.102 201.141 377.445C201.469 376.784 201.941 376.276 202.555 375.922C203.17 375.568 203.891 375.391 204.719 375.391C205.985 375.391 206.982 375.784 207.711 376.57C208.441 377.352 208.805 378.417 208.805 379.766V379.859C208.805 381.177 208.438 382.224 207.704 383C206.974 383.771 205.985 384.156 204.735 384.156C203.532 384.156 202.566 383.797 201.836 383.078C201.107 382.354 200.714 381.375 200.657 380.141L200.649 379.695ZM203.282 379.859C203.282 380.641 203.404 381.214 203.649 381.578C203.894 381.943 204.256 382.125 204.735 382.125C205.672 382.125 206.151 381.404 206.172 379.961V379.695C206.172 378.18 205.688 377.422 204.719 377.422C203.839 377.422 203.362 378.076 203.289 379.383L203.282 379.859ZM212.383 375.547L212.469 376.539C213.053 375.773 213.857 375.391 214.883 375.391C215.763 375.391 216.42 375.654 216.852 376.18C217.289 376.706 217.516 377.497 217.532 378.555V384H214.891V378.664C214.891 378.237 214.805 377.924 214.633 377.727C214.461 377.523 214.149 377.422 213.696 377.422C213.18 377.422 212.797 377.625 212.547 378.031V384H209.914V375.547H212.383ZM220.625 381.445C221.042 381.445 221.388 381.57 221.664 381.82C221.941 382.065 222.079 382.38 222.079 382.766C222.079 383.151 221.941 383.469 221.664 383.719C221.388 383.964 221.042 384.086 220.625 384.086C220.204 384.086 219.855 383.961 219.579 383.711C219.308 383.461 219.172 383.146 219.172 382.766C219.172 382.385 219.308 382.07 219.579 381.82C219.855 381.57 220.204 381.445 220.625 381.445ZM227.414 382.125C227.784 382.125 228.071 382.026 228.274 381.828C228.477 381.625 228.576 381.344 228.571 380.984H231.039C231.039 381.911 230.706 382.672 230.039 383.266C229.378 383.859 228.524 384.156 227.477 384.156C226.248 384.156 225.279 383.771 224.571 383C223.862 382.229 223.508 381.161 223.508 379.797V379.688C223.508 378.833 223.664 378.081 223.977 377.43C224.295 376.773 224.75 376.271 225.344 375.922C225.938 375.568 226.641 375.391 227.454 375.391C228.553 375.391 229.425 375.695 230.071 376.305C230.717 376.914 231.039 377.74 231.039 378.781H228.571C228.571 378.344 228.464 378.008 228.25 377.773C228.037 377.539 227.75 377.422 227.391 377.422C226.709 377.422 226.31 377.857 226.196 378.727C226.159 379.003 226.141 379.383 226.141 379.867C226.141 380.716 226.243 381.305 226.446 381.633C226.649 381.961 226.972 382.125 227.414 382.125ZM231.821 379.695C231.821 378.852 231.985 378.102 232.313 377.445C232.641 376.784 233.112 376.276 233.727 375.922C234.342 375.568 235.063 375.391 235.891 375.391C237.157 375.391 238.154 375.784 238.883 376.57C239.612 377.352 239.977 378.417 239.977 379.766V379.859C239.977 381.177 239.61 382.224 238.875 383C238.146 383.771 237.157 384.156 235.907 384.156C234.704 384.156 233.737 383.797 233.008 383.078C232.279 382.354 231.886 381.375 231.829 380.141L231.821 379.695ZM234.454 379.859C234.454 380.641 234.576 381.214 234.821 381.578C235.066 381.943 235.428 382.125 235.907 382.125C236.844 382.125 237.323 381.404 237.344 379.961V379.695C237.344 378.18 236.86 377.422 235.891 377.422C235.011 377.422 234.534 378.076 234.461 379.383L234.454 379.859ZM243.625 375.547L243.711 376.539C244.31 375.773 245.115 375.391 246.125 375.391C247.193 375.391 247.914 375.815 248.289 376.664C248.862 375.815 249.691 375.391 250.774 375.391C252.487 375.391 253.368 376.427 253.414 378.5V384H250.774V378.664C250.774 378.232 250.701 377.917 250.555 377.719C250.409 377.521 250.144 377.422 249.758 377.422C249.237 377.422 248.849 377.654 248.594 378.117L248.602 378.227V384H245.961V378.68C245.961 378.237 245.891 377.917 245.75 377.719C245.61 377.521 245.342 377.422 244.946 377.422C244.441 377.422 244.055 377.654 243.789 378.117V384H241.157V375.547H243.625Z" fill="#646464"/>
<path d="M55 357H261V355H55V357ZM264 360V392H266V360H264ZM261 395H55V397H261V395ZM52 392V360H50V392H52ZM55 395C53.3431 395 52 393.657 52 392H50C50 394.761 52.2386 397 55 397V395ZM264 392C264 393.657 262.657 395 261 395V397C263.761 397 266 394.761 266 392H264ZM261 357C262.657 357 264 358.343 264 360H266C266 357.239 263.761 355 261 355V357ZM55 355C52.2386 355 50 357.239 50 360H52C52 358.343 53.3431 357 55 357V355Z" fill="#C4C4C4"/>
<path d="M304.586 375.547L304.672 376.539C305.271 375.773 306.076 375.391 307.086 375.391C308.154 375.391 308.875 375.815 309.25 376.664C309.823 375.815 310.651 375.391 311.734 375.391C313.448 375.391 314.328 376.427 314.375 378.5V384H311.734V378.664C311.734 378.232 311.661 377.917 311.516 377.719C311.37 377.521 311.104 377.422 310.719 377.422C310.198 377.422 309.81 377.654 309.555 378.117L309.562 378.227V384H306.922V378.68C306.922 378.237 306.852 377.917 306.711 377.719C306.57 377.521 306.302 377.422 305.906 377.422C305.401 377.422 305.016 377.654 304.75 378.117V384H302.117V375.547H304.586ZM318.656 384H316.016V375.547H318.656V384ZM315.859 373.367C315.859 372.992 315.995 372.685 316.266 372.445C316.536 372.206 316.888 372.086 317.32 372.086C317.753 372.086 318.104 372.206 318.375 372.445C318.646 372.685 318.781 372.992 318.781 373.367C318.781 373.742 318.646 374.049 318.375 374.289C318.104 374.529 317.753 374.648 317.32 374.648C316.888 374.648 316.536 374.529 316.266 374.289C315.995 374.049 315.859 373.742 315.859 373.367ZM323.352 373.445V375.547H324.742V377.375H323.352V381.242C323.352 381.56 323.409 381.781 323.523 381.906C323.638 382.031 323.865 382.094 324.203 382.094C324.464 382.094 324.682 382.078 324.859 382.047V383.93C324.385 384.081 323.891 384.156 323.375 384.156C322.469 384.156 321.799 383.943 321.367 383.516C320.935 383.089 320.719 382.44 320.719 381.57V377.375H319.641V375.547H320.719V373.445H323.352ZM327.414 381.445C327.831 381.445 328.177 381.57 328.453 381.82C328.729 382.065 328.867 382.38 328.867 382.766C328.867 383.151 328.729 383.469 328.453 383.719C328.177 383.964 327.831 384.086 327.414 384.086C326.992 384.086 326.643 383.961 326.367 383.711C326.096 383.461 325.961 383.146 325.961 382.766C325.961 382.385 326.096 382.07 326.367 381.82C326.643 381.57 326.992 381.445 327.414 381.445ZM334.719 384.156C333.422 384.156 332.372 383.771 331.57 383C330.768 382.224 330.367 381.216 330.367 379.977V379.758C330.367 378.893 330.526 378.13 330.844 377.469C331.167 376.807 331.635 376.297 332.25 375.938C332.865 375.573 333.594 375.391 334.438 375.391C335.625 375.391 336.562 375.76 337.25 376.5C337.938 377.234 338.281 378.26 338.281 379.578V380.602H333.047C333.141 381.076 333.346 381.448 333.664 381.719C333.982 381.99 334.393 382.125 334.898 382.125C335.732 382.125 336.383 381.833 336.852 381.25L338.055 382.672C337.727 383.125 337.26 383.487 336.656 383.758C336.057 384.023 335.411 384.156 334.719 384.156ZM334.422 377.422C333.651 377.422 333.193 377.932 333.047 378.953H335.703V378.75C335.714 378.328 335.607 378.003 335.383 377.773C335.159 377.539 334.839 377.422 334.422 377.422ZM339.016 379.711C339.016 378.372 339.305 377.318 339.883 376.547C340.461 375.776 341.268 375.391 342.305 375.391C343.06 375.391 343.695 375.688 344.211 376.281V372H346.852V384H344.484L344.352 383.094C343.81 383.802 343.122 384.156 342.289 384.156C341.284 384.156 340.487 383.771 339.898 383C339.31 382.229 339.016 381.133 339.016 379.711ZM341.648 379.875C341.648 381.375 342.086 382.125 342.961 382.125C343.544 382.125 343.961 381.88 344.211 381.391V378.172C343.971 377.672 343.56 377.422 342.977 377.422C342.164 377.422 341.724 378.078 341.656 379.391L341.648 379.875ZM353.383 383.086C352.826 383.799 352.073 384.156 351.125 384.156C350.198 384.156 349.495 383.888 349.016 383.352C348.542 382.81 348.305 382.034 348.305 381.023V375.547H350.938V381.039C350.938 381.763 351.289 382.125 351.992 382.125C352.596 382.125 353.026 381.909 353.281 381.477V375.547H355.93V384H353.461L353.383 383.086Z" fill="#646464"/>
<path d="M279 357H380V355H279V357ZM383 360V392H385V360H383ZM380 395H279V397H380V395ZM276 392V360H274V392H276ZM279 395C277.343 395 276 393.657 276 392H274C274 394.761 276.239 397 279 397V395ZM383 392C383 393.657 381.657 395 380 395V397C382.761 397 385 394.761 385 392H383ZM380 357C381.657 357 383 358.343 383 360H385C385 357.239 382.761 355 380 355V357ZM279 355C276.239 355 274 357.239 274 360H276C276 358.343 277.343 357 279 357V355Z" fill="#C4C4C4"/>
<path d="M422.547 381.625C422.547 381.401 422.43 381.221 422.195 381.086C421.961 380.951 421.516 380.81 420.859 380.664C420.203 380.518 419.661 380.328 419.234 380.094C418.807 379.854 418.482 379.565 418.258 379.227C418.034 378.888 417.922 378.5 417.922 378.062C417.922 377.286 418.242 376.648 418.883 376.148C419.523 375.643 420.362 375.391 421.398 375.391C422.513 375.391 423.409 375.643 424.086 376.148C424.763 376.654 425.102 377.318 425.102 378.141H422.461C422.461 377.464 422.104 377.125 421.391 377.125C421.115 377.125 420.883 377.203 420.695 377.359C420.508 377.51 420.414 377.701 420.414 377.93C420.414 378.164 420.529 378.354 420.758 378.5C420.987 378.646 421.352 378.766 421.852 378.859C422.357 378.953 422.799 379.065 423.18 379.195C424.451 379.633 425.086 380.417 425.086 381.547C425.086 382.318 424.742 382.945 424.055 383.43C423.372 383.914 422.487 384.156 421.398 384.156C420.674 384.156 420.029 384.026 419.461 383.766C418.893 383.505 418.451 383.151 418.133 382.703C417.815 382.255 417.656 381.784 417.656 381.289H420.117C420.128 381.68 420.258 381.966 420.508 382.148C420.758 382.326 421.078 382.414 421.469 382.414C421.828 382.414 422.096 382.341 422.273 382.195C422.456 382.049 422.547 381.859 422.547 381.625ZM431.086 384C430.992 383.828 430.909 383.576 430.836 383.242C430.352 383.852 429.674 384.156 428.805 384.156C428.008 384.156 427.331 383.917 426.773 383.438C426.216 382.953 425.938 382.346 425.938 381.617C425.938 380.701 426.276 380.008 426.953 379.539C427.63 379.07 428.615 378.836 429.906 378.836H430.719V378.391C430.719 377.615 430.383 377.227 429.711 377.227C429.086 377.227 428.773 377.534 428.773 378.148H426.141C426.141 377.331 426.487 376.667 427.18 376.156C427.878 375.646 428.766 375.391 429.844 375.391C430.922 375.391 431.773 375.654 432.398 376.18C433.023 376.706 433.344 377.427 433.359 378.344V382.086C433.37 382.862 433.49 383.456 433.719 383.867V384H431.086ZM429.438 382.281C429.766 382.281 430.036 382.211 430.25 382.07C430.469 381.93 430.625 381.771 430.719 381.594V380.242H429.953C429.036 380.242 428.578 380.654 428.578 381.477C428.578 381.716 428.659 381.911 428.82 382.062C428.982 382.208 429.188 382.281 429.438 382.281ZM439.859 383.086C439.302 383.799 438.549 384.156 437.602 384.156C436.674 384.156 435.971 383.888 435.492 383.352C435.018 382.81 434.781 382.034 434.781 381.023V375.547H437.414V381.039C437.414 381.763 437.766 382.125 438.469 382.125C439.073 382.125 439.503 381.909 439.758 381.477V375.547H442.406V384H439.938L439.859 383.086ZM443.523 379.711C443.523 378.372 443.812 377.318 444.391 376.547C444.969 375.776 445.776 375.391 446.812 375.391C447.568 375.391 448.203 375.688 448.719 376.281V372H451.359V384H448.992L448.859 383.094C448.318 383.802 447.63 384.156 446.797 384.156C445.792 384.156 444.995 383.771 444.406 383C443.818 382.229 443.523 381.133 443.523 379.711ZM446.156 379.875C446.156 381.375 446.594 382.125 447.469 382.125C448.052 382.125 448.469 381.88 448.719 381.391V378.172C448.479 377.672 448.068 377.422 447.484 377.422C446.672 377.422 446.232 378.078 446.164 379.391L446.156 379.875ZM456.945 384.156C455.648 384.156 454.599 383.771 453.797 383C452.995 382.224 452.594 381.216 452.594 379.977V379.758C452.594 378.893 452.753 378.13 453.07 377.469C453.393 376.807 453.862 376.297 454.477 375.938C455.091 375.573 455.82 375.391 456.664 375.391C457.852 375.391 458.789 375.76 459.477 376.5C460.164 377.234 460.508 378.26 460.508 379.578V380.602H455.273C455.367 381.076 455.573 381.448 455.891 381.719C456.208 381.99 456.62 382.125 457.125 382.125C457.958 382.125 458.609 381.833 459.078 381.25L460.281 382.672C459.953 383.125 459.487 383.487 458.883 383.758C458.284 384.023 457.638 384.156 456.945 384.156ZM456.648 377.422C455.878 377.422 455.419 377.932 455.273 378.953H457.93V378.75C457.94 378.328 457.833 378.003 457.609 377.773C457.385 377.539 457.065 377.422 456.648 377.422ZM463.203 381.445C463.62 381.445 463.966 381.57 464.242 381.82C464.518 382.065 464.656 382.38 464.656 382.766C464.656 383.151 464.518 383.469 464.242 383.719C463.966 383.964 463.62 384.086 463.203 384.086C462.781 384.086 462.432 383.961 462.156 383.711C461.885 383.461 461.75 383.146 461.75 382.766C461.75 382.385 461.885 382.07 462.156 381.82C462.432 381.57 462.781 381.445 463.203 381.445ZM466.109 379.711C466.109 378.857 466.25 378.102 466.531 377.445C466.812 376.789 467.216 376.284 467.742 375.93C468.268 375.57 468.88 375.391 469.578 375.391C470.458 375.391 471.146 375.688 471.641 376.281L471.734 375.547H474.125V383.68C474.125 384.424 473.951 385.07 473.602 385.617C473.258 386.169 472.758 386.591 472.102 386.883C471.445 387.18 470.685 387.328 469.82 387.328C469.201 387.328 468.599 387.211 468.016 386.977C467.438 386.742 466.995 386.438 466.688 386.062L467.789 384.516C468.279 385.094 468.924 385.383 469.727 385.383C470.893 385.383 471.477 384.784 471.477 383.586V383.32C470.971 383.878 470.333 384.156 469.562 384.156C468.531 384.156 467.698 383.763 467.062 382.977C466.427 382.185 466.109 381.128 466.109 379.805V379.711ZM468.75 379.875C468.75 380.568 468.88 381.117 469.141 381.523C469.401 381.924 469.766 382.125 470.234 382.125C470.802 382.125 471.216 381.935 471.477 381.555V378C471.221 377.615 470.812 377.422 470.25 377.422C469.781 377.422 469.414 377.633 469.148 378.055C468.883 378.471 468.75 379.078 468.75 379.875ZM475.289 379.695C475.289 378.852 475.453 378.102 475.781 377.445C476.109 376.784 476.581 376.276 477.195 375.922C477.81 375.568 478.531 375.391 479.359 375.391C480.625 375.391 481.622 375.784 482.352 376.57C483.081 377.352 483.445 378.417 483.445 379.766V379.859C483.445 381.177 483.078 382.224 482.344 383C481.615 383.771 480.625 384.156 479.375 384.156C478.172 384.156 477.206 383.797 476.477 383.078C475.747 382.354 475.354 381.375 475.297 380.141L475.289 379.695ZM477.922 379.859C477.922 380.641 478.044 381.214 478.289 381.578C478.534 381.943 478.896 382.125 479.375 382.125C480.312 382.125 480.792 381.404 480.812 379.961V379.695C480.812 378.18 480.328 377.422 479.359 377.422C478.479 377.422 478.003 378.076 477.93 379.383L477.922 379.859ZM487.852 380.867L489.188 375.547H491.961L489.203 384H486.516L483.758 375.547H486.539L487.852 380.867ZM493.062 381.445C493.479 381.445 493.826 381.57 494.102 381.82C494.378 382.065 494.516 382.38 494.516 382.766C494.516 383.151 494.378 383.469 494.102 383.719C493.826 383.964 493.479 384.086 493.062 384.086C492.641 384.086 492.292 383.961 492.016 383.711C491.745 383.461 491.609 383.146 491.609 382.766C491.609 382.385 491.745 382.07 492.016 381.82C492.292 381.57 492.641 381.445 493.062 381.445ZM504.125 379.844C504.125 381.229 503.839 382.294 503.266 383.039C502.693 383.784 501.885 384.156 500.844 384.156C499.984 384.156 499.292 383.815 498.766 383.133L498.656 384H496.297V372H498.93V376.227C499.419 375.669 500.052 375.391 500.828 375.391C501.88 375.391 502.693 375.768 503.266 376.523C503.839 377.279 504.125 378.341 504.125 379.711V379.844ZM501.484 379.68C501.484 378.867 501.375 378.289 501.156 377.945C500.943 377.596 500.612 377.422 500.164 377.422C499.57 377.422 499.159 377.648 498.93 378.102V381.461C499.154 381.909 499.57 382.133 500.18 382.133C500.799 382.133 501.193 381.831 501.359 381.227C501.443 380.93 501.484 380.414 501.484 379.68ZM510.406 377.93L509.539 377.867C508.711 377.867 508.18 378.128 507.945 378.648V384H505.312V375.547H507.781L507.867 376.633C508.31 375.805 508.927 375.391 509.719 375.391C510 375.391 510.245 375.422 510.453 375.484L510.406 377.93Z" fill="#646464"/>
<path d="M414 357H515V355H414V357ZM518 360V392H520V360H518ZM515 395H414V397H515V395ZM411 392V360H409V392H411ZM414 395C412.343 395 411 393.657 411 392H409C409 394.761 411.239 397 414 397V395ZM518 392C518 393.657 516.657 395 515 395V397C517.761 397 520 394.761 520 392H518ZM515 357C516.657 357 518 358.343 518 360H520C520 357.239 517.761 355 515 355V357ZM414 355C411.239 355 409 357.239 409 360H411C411 358.343 412.343 357 414 357V355Z" fill="#C4C4C4"/>
<rect x="41" y="173" width="702" height="68" rx="4" fill="#EBEBEB"/>
<path d="M660.805 194V182.625H664.469C665.474 182.625 666.378 182.854 667.18 183.312C667.982 183.766 668.607 184.409 669.055 185.242C669.508 186.07 669.737 187 669.742 188.031V188.555C669.742 189.596 669.521 190.531 669.078 191.359C668.641 192.182 668.021 192.828 667.219 193.297C666.422 193.76 665.531 193.995 664.547 194H660.805ZM663.547 184.742V191.891H664.5C665.286 191.891 665.891 191.612 666.312 191.055C666.734 190.492 666.945 189.659 666.945 188.555V188.062C666.945 186.964 666.734 186.135 666.312 185.578C665.891 185.021 665.276 184.742 664.469 184.742H663.547ZM670.695 189.695C670.695 188.852 670.859 188.102 671.188 187.445C671.516 186.784 671.987 186.276 672.602 185.922C673.216 185.568 673.938 185.391 674.766 185.391C676.031 185.391 677.029 185.784 677.758 186.57C678.487 187.352 678.852 188.417 678.852 189.766V189.859C678.852 191.177 678.484 192.224 677.75 193C677.021 193.771 676.031 194.156 674.781 194.156C673.578 194.156 672.612 193.797 671.883 193.078C671.154 192.354 670.76 191.375 670.703 190.141L670.695 189.695ZM673.328 189.859C673.328 190.641 673.451 191.214 673.695 191.578C673.94 191.943 674.302 192.125 674.781 192.125C675.719 192.125 676.198 191.404 676.219 189.961V189.695C676.219 188.18 675.734 187.422 674.766 187.422C673.885 187.422 673.409 188.076 673.336 189.383L673.328 189.859ZM682.5 185.547L682.586 186.539C683.185 185.773 683.99 185.391 685 185.391C686.068 185.391 686.789 185.815 687.164 186.664C687.737 185.815 688.565 185.391 689.648 185.391C691.362 185.391 692.242 186.427 692.289 188.5V194H689.648V188.664C689.648 188.232 689.576 187.917 689.43 187.719C689.284 187.521 689.018 187.422 688.633 187.422C688.112 187.422 687.724 187.654 687.469 188.117L687.477 188.227V194H684.836V188.68C684.836 188.237 684.766 187.917 684.625 187.719C684.484 187.521 684.216 187.422 683.82 187.422C683.315 187.422 682.93 187.654 682.664 188.117V194H680.031V185.547H682.5ZM696.664 194H694.016V185.547H696.664V194ZM695.68 182.156H698.461L696.289 184.609H694.141L695.68 182.156ZM700.773 185.547L700.859 186.539C701.443 185.773 702.247 185.391 703.273 185.391C704.154 185.391 704.81 185.654 705.242 186.18C705.68 186.706 705.906 187.497 705.922 188.555V194H703.281V188.664C703.281 188.237 703.195 187.924 703.023 187.727C702.852 187.523 702.539 187.422 702.086 187.422C701.57 187.422 701.188 187.625 700.938 188.031V194H698.305V185.547H700.773ZM710.164 194H707.523V185.547H710.164V194ZM707.367 183.367C707.367 182.992 707.503 182.685 707.773 182.445C708.044 182.206 708.396 182.086 708.828 182.086C709.26 182.086 709.612 182.206 709.883 182.445C710.154 182.685 710.289 182.992 710.289 183.367C710.289 183.742 710.154 184.049 709.883 184.289C709.612 184.529 709.26 184.648 708.828 184.648C708.396 184.648 708.044 184.529 707.773 184.289C707.503 184.049 707.367 183.742 707.367 183.367ZM711.461 189.695C711.461 188.852 711.625 188.102 711.953 187.445C712.281 186.784 712.753 186.276 713.367 185.922C713.982 185.568 714.703 185.391 715.531 185.391C716.797 185.391 717.794 185.784 718.523 186.57C719.253 187.352 719.617 188.417 719.617 189.766V189.859C719.617 191.177 719.25 192.224 718.516 193C717.786 193.771 716.797 194.156 715.547 194.156C714.344 194.156 713.378 193.797 712.648 193.078C711.919 192.354 711.526 191.375 711.469 190.141L711.461 189.695ZM714.094 189.859C714.094 190.641 714.216 191.214 714.461 191.578C714.706 191.943 715.068 192.125 715.547 192.125C716.484 192.125 716.964 191.404 716.984 189.961V189.695C716.984 188.18 716.5 187.422 715.531 187.422C714.651 187.422 714.174 188.076 714.102 189.383L714.094 189.859ZM653.039 213.625C653.039 213.401 652.922 213.221 652.688 213.086C652.453 212.951 652.008 212.81 651.352 212.664C650.695 212.518 650.154 212.328 649.727 212.094C649.299 211.854 648.974 211.565 648.75 211.227C648.526 210.888 648.414 210.5 648.414 210.062C648.414 209.286 648.734 208.648 649.375 208.148C650.016 207.643 650.854 207.391 651.891 207.391C653.005 207.391 653.901 207.643 654.578 208.148C655.255 208.654 655.594 209.318 655.594 210.141H652.953C652.953 209.464 652.596 209.125 651.883 209.125C651.607 209.125 651.375 209.203 651.188 209.359C651 209.51 650.906 209.701 650.906 209.93C650.906 210.164 651.021 210.354 651.25 210.5C651.479 210.646 651.844 210.766 652.344 210.859C652.849 210.953 653.292 211.065 653.672 211.195C654.943 211.633 655.578 212.417 655.578 213.547C655.578 214.318 655.234 214.945 654.547 215.43C653.865 215.914 652.979 216.156 651.891 216.156C651.167 216.156 650.521 216.026 649.953 215.766C649.385 215.505 648.943 215.151 648.625 214.703C648.307 214.255 648.148 213.784 648.148 213.289H650.609C650.62 213.68 650.75 213.966 651 214.148C651.25 214.326 651.57 214.414 651.961 214.414C652.32 214.414 652.589 214.341 652.766 214.195C652.948 214.049 653.039 213.859 653.039 213.625ZM660.906 216.156C659.609 216.156 658.56 215.771 657.758 215C656.956 214.224 656.555 213.216 656.555 211.977V211.758C656.555 210.893 656.714 210.13 657.031 209.469C657.354 208.807 657.823 208.297 658.438 207.938C659.052 207.573 659.781 207.391 660.625 207.391C661.812 207.391 662.75 207.76 663.438 208.5C664.125 209.234 664.469 210.26 664.469 211.578V212.602H659.234C659.328 213.076 659.534 213.448 659.852 213.719C660.169 213.99 660.581 214.125 661.086 214.125C661.919 214.125 662.57 213.833 663.039 213.25L664.242 214.672C663.914 215.125 663.448 215.487 662.844 215.758C662.245 216.023 661.599 216.156 660.906 216.156ZM660.609 209.422C659.839 209.422 659.38 209.932 659.234 210.953H661.891V210.75C661.901 210.328 661.794 210.003 661.57 209.773C661.346 209.539 661.026 209.422 660.609 209.422ZM669.109 214.125C669.479 214.125 669.766 214.026 669.969 213.828C670.172 213.625 670.271 213.344 670.266 212.984H672.734C672.734 213.911 672.401 214.672 671.734 215.266C671.073 215.859 670.219 216.156 669.172 216.156C667.943 216.156 666.974 215.771 666.266 215C665.557 214.229 665.203 213.161 665.203 211.797V211.688C665.203 210.833 665.359 210.081 665.672 209.43C665.99 208.773 666.445 208.271 667.039 207.922C667.633 207.568 668.336 207.391 669.148 207.391C670.247 207.391 671.12 207.695 671.766 208.305C672.411 208.914 672.734 209.74 672.734 210.781H670.266C670.266 210.344 670.159 210.008 669.945 209.773C669.732 209.539 669.445 209.422 669.086 209.422C668.404 209.422 668.005 209.857 667.891 210.727C667.854 211.003 667.836 211.383 667.836 211.867C667.836 212.716 667.938 213.305 668.141 213.633C668.344 213.961 668.667 214.125 669.109 214.125ZM678.883 215.086C678.326 215.799 677.573 216.156 676.625 216.156C675.698 216.156 674.995 215.888 674.516 215.352C674.042 214.81 673.805 214.034 673.805 213.023V207.547H676.438V213.039C676.438 213.763 676.789 214.125 677.492 214.125C678.096 214.125 678.526 213.909 678.781 213.477V207.547H681.43V216H678.961L678.883 215.086ZM685.297 207.547L685.383 208.539C685.966 207.773 686.771 207.391 687.797 207.391C688.677 207.391 689.333 207.654 689.766 208.18C690.203 208.706 690.43 209.497 690.445 210.555V216H687.805V210.664C687.805 210.237 687.719 209.924 687.547 209.727C687.375 209.523 687.062 209.422 686.609 209.422C686.094 209.422 685.711 209.625 685.461 210.031V216H682.828V207.547H685.297ZM691.578 211.711C691.578 210.372 691.867 209.318 692.445 208.547C693.023 207.776 693.831 207.391 694.867 207.391C695.622 207.391 696.258 207.688 696.773 208.281V204H699.414V216H697.047L696.914 215.094C696.372 215.802 695.685 216.156 694.852 216.156C693.846 216.156 693.049 215.771 692.461 215C691.872 214.229 691.578 213.133 691.578 211.711ZM694.211 211.875C694.211 213.375 694.648 214.125 695.523 214.125C696.107 214.125 696.523 213.88 696.773 213.391V210.172C696.534 209.672 696.122 209.422 695.539 209.422C694.727 209.422 694.286 210.078 694.219 211.391L694.211 211.875ZM705.672 216C705.578 215.828 705.495 215.576 705.422 215.242C704.938 215.852 704.26 216.156 703.391 216.156C702.594 216.156 701.917 215.917 701.359 215.438C700.802 214.953 700.523 214.346 700.523 213.617C700.523 212.701 700.862 212.008 701.539 211.539C702.216 211.07 703.201 210.836 704.492 210.836H705.305V210.391C705.305 209.615 704.969 209.227 704.297 209.227C703.672 209.227 703.359 209.534 703.359 210.148H700.727C700.727 209.331 701.073 208.667 701.766 208.156C702.464 207.646 703.352 207.391 704.43 207.391C705.508 207.391 706.359 207.654 706.984 208.18C707.609 208.706 707.93 209.427 707.945 210.344V214.086C707.956 214.862 708.076 215.456 708.305 215.867V216H705.672ZM704.023 214.281C704.352 214.281 704.622 214.211 704.836 214.07C705.055 213.93 705.211 213.771 705.305 213.594V212.242H704.539C703.622 212.242 703.164 212.654 703.164 213.477C703.164 213.716 703.245 213.911 703.406 214.062C703.568 214.208 703.773 214.281 704.023 214.281ZM704.68 204H707.461L705.289 206.453H703.141L704.68 204ZM714.523 209.93L713.656 209.867C712.828 209.867 712.297 210.128 712.062 210.648V216H709.43V207.547H711.898L711.984 208.633C712.427 207.805 713.044 207.391 713.836 207.391C714.117 207.391 714.362 207.422 714.57 207.484L714.523 209.93ZM718.25 216H715.609V207.547H718.25V216ZM715.453 205.367C715.453 204.992 715.589 204.685 715.859 204.445C716.13 204.206 716.482 204.086 716.914 204.086C717.346 204.086 717.698 204.206 717.969 204.445C718.24 204.685 718.375 204.992 718.375 205.367C718.375 205.742 718.24 206.049 717.969 206.289C717.698 206.529 717.346 206.648 716.914 206.648C716.482 206.648 716.13 206.529 715.859 206.289C715.589 206.049 715.453 205.742 715.453 205.367ZM719.547 211.695C719.547 210.852 719.711 210.102 720.039 209.445C720.367 208.784 720.839 208.276 721.453 207.922C722.068 207.568 722.789 207.391 723.617 207.391C724.883 207.391 725.88 207.784 726.609 208.57C727.339 209.352 727.703 210.417 727.703 211.766V211.859C727.703 213.177 727.336 214.224 726.602 215C725.872 215.771 724.883 216.156 723.633 216.156C722.43 216.156 721.464 215.797 720.734 215.078C720.005 214.354 719.612 213.375 719.555 212.141L719.547 211.695ZM722.18 211.859C722.18 212.641 722.302 213.214 722.547 213.578C722.792 213.943 723.154 214.125 723.633 214.125C724.57 214.125 725.049 213.404 725.07 211.961V211.695C725.07 210.18 724.586 209.422 723.617 209.422C722.737 209.422 722.26 210.076 722.188 211.383L722.18 211.859ZM677.096 232.08H681.139V233H675.965V224.469H677.096V232.08ZM681.965 229.771C681.965 229.15 682.086 228.592 682.328 228.096C682.574 227.6 682.914 227.217 683.348 226.947C683.785 226.678 684.283 226.543 684.842 226.543C685.705 226.543 686.402 226.842 686.934 227.439C687.469 228.037 687.736 228.832 687.736 229.824V229.9C687.736 230.518 687.617 231.072 687.379 231.564C687.145 232.053 686.807 232.434 686.365 232.707C685.928 232.98 685.424 233.117 684.854 233.117C683.994 233.117 683.297 232.818 682.762 232.221C682.23 231.623 681.965 230.832 681.965 229.848V229.771ZM683.055 229.9C683.055 230.604 683.217 231.168 683.541 231.594C683.869 232.02 684.307 232.232 684.854 232.232C685.404 232.232 685.842 232.018 686.166 231.588C686.49 231.154 686.652 230.549 686.652 229.771C686.652 229.076 686.486 228.514 686.154 228.084C685.826 227.65 685.389 227.434 684.842 227.434C684.307 227.434 683.875 227.646 683.547 228.072C683.219 228.498 683.055 229.107 683.055 229.9ZM691.639 232.232C692.025 232.232 692.363 232.115 692.652 231.881C692.941 231.646 693.102 231.354 693.133 231.002H694.158C694.139 231.365 694.014 231.711 693.783 232.039C693.553 232.367 693.244 232.629 692.857 232.824C692.475 233.02 692.068 233.117 691.639 233.117C690.775 233.117 690.088 232.83 689.576 232.256C689.068 231.678 688.814 230.889 688.814 229.889V229.707C688.814 229.09 688.928 228.541 689.154 228.061C689.381 227.58 689.705 227.207 690.127 226.941C690.553 226.676 691.055 226.543 691.633 226.543C692.344 226.543 692.934 226.756 693.402 227.182C693.875 227.607 694.127 228.16 694.158 228.84H693.133C693.102 228.43 692.945 228.094 692.664 227.832C692.387 227.566 692.043 227.434 691.633 227.434C691.082 227.434 690.654 227.633 690.35 228.031C690.049 228.426 689.898 228.998 689.898 229.748V229.953C689.898 230.684 690.049 231.246 690.35 231.641C690.65 232.035 691.08 232.232 691.639 232.232ZM699.291 233C699.229 232.875 699.178 232.652 699.139 232.332C698.635 232.855 698.033 233.117 697.334 233.117C696.709 233.117 696.195 232.941 695.793 232.59C695.395 232.234 695.195 231.785 695.195 231.242C695.195 230.582 695.445 230.07 695.945 229.707C696.449 229.34 697.156 229.156 698.066 229.156H699.121V228.658C699.121 228.279 699.008 227.979 698.781 227.756C698.555 227.529 698.221 227.416 697.779 227.416C697.393 227.416 697.068 227.514 696.807 227.709C696.545 227.904 696.414 228.141 696.414 228.418H695.324C695.324 228.102 695.436 227.797 695.658 227.504C695.885 227.207 696.189 226.973 696.572 226.801C696.959 226.629 697.383 226.543 697.844 226.543C698.574 226.543 699.146 226.727 699.561 227.094C699.975 227.457 700.189 227.959 700.205 228.6V231.518C700.205 232.1 700.279 232.562 700.428 232.906V233H699.291ZM697.492 232.174C697.832 232.174 698.154 232.086 698.459 231.91C698.764 231.734 698.984 231.506 699.121 231.225V229.924H698.271C696.943 229.924 696.279 230.312 696.279 231.09C696.279 231.43 696.393 231.695 696.619 231.887C696.846 232.078 697.137 232.174 697.492 232.174ZM703.082 233H701.998V224H703.082V233Z" fill="#646464"/>
<path d="M125.563 215.156C124.266 215.156 123.217 214.771 122.415 214C121.613 213.224 121.212 212.216 121.212 210.977V210.758C121.212 209.893 121.37 209.13 121.688 208.469C122.011 207.807 122.48 207.297 123.094 206.938C123.709 206.573 124.438 206.391 125.282 206.391C126.469 206.391 127.407 206.76 128.094 207.5C128.782 208.234 129.126 209.26 129.126 210.578V211.602H123.891C123.985 212.076 124.191 212.448 124.508 212.719C124.826 212.99 125.238 213.125 125.743 213.125C126.576 213.125 127.227 212.833 127.696 212.25L128.899 213.672C128.571 214.125 128.105 214.487 127.501 214.758C126.902 215.023 126.256 215.156 125.563 215.156ZM125.266 208.422C124.495 208.422 124.037 208.932 123.891 209.953H126.547V209.75C126.558 209.328 126.451 209.003 126.227 208.773C126.003 208.539 125.683 208.422 125.266 208.422ZM129.86 210.711C129.86 209.372 130.149 208.318 130.727 207.547C131.305 206.776 132.113 206.391 133.149 206.391C133.904 206.391 134.54 206.688 135.055 207.281V203H137.696V215H135.329L135.196 214.094C134.654 214.802 133.967 215.156 133.133 215.156C132.128 215.156 131.331 214.771 130.743 214C130.154 213.229 129.86 212.133 129.86 210.711ZM132.493 210.875C132.493 212.375 132.93 213.125 133.805 213.125C134.389 213.125 134.805 212.88 135.055 212.391V209.172C134.816 208.672 134.404 208.422 133.821 208.422C133.008 208.422 132.568 209.078 132.501 210.391L132.493 210.875ZM138.883 210.711C138.883 209.857 139.024 209.102 139.305 208.445C139.587 207.789 139.99 207.284 140.516 206.93C141.042 206.57 141.654 206.391 142.352 206.391C143.232 206.391 143.92 206.688 144.415 207.281L144.508 206.547H146.899V214.68C146.899 215.424 146.725 216.07 146.376 216.617C146.032 217.169 145.532 217.591 144.876 217.883C144.219 218.18 143.459 218.328 142.594 218.328C141.975 218.328 141.373 218.211 140.79 217.977C140.212 217.742 139.769 217.438 139.462 217.062L140.563 215.516C141.053 216.094 141.698 216.383 142.501 216.383C143.667 216.383 144.251 215.784 144.251 214.586V214.32C143.745 214.878 143.107 215.156 142.337 215.156C141.305 215.156 140.472 214.763 139.837 213.977C139.201 213.185 138.883 212.128 138.883 210.805V210.711ZM141.524 210.875C141.524 211.568 141.654 212.117 141.915 212.523C142.175 212.924 142.54 213.125 143.008 213.125C143.576 213.125 143.99 212.935 144.251 212.555V209C143.995 208.615 143.587 208.422 143.024 208.422C142.555 208.422 142.188 208.633 141.922 209.055C141.657 209.471 141.524 210.078 141.524 210.875ZM152.485 215.156C151.188 215.156 150.139 214.771 149.337 214C148.534 213.224 148.133 212.216 148.133 210.977V210.758C148.133 209.893 148.292 209.13 148.61 208.469C148.933 207.807 149.402 207.297 150.016 206.938C150.631 206.573 151.36 206.391 152.204 206.391C153.391 206.391 154.329 206.76 155.016 207.5C155.704 208.234 156.047 209.26 156.047 210.578V211.602H150.813C150.907 212.076 151.113 212.448 151.43 212.719C151.748 212.99 152.159 213.125 152.665 213.125C153.498 213.125 154.149 212.833 154.618 212.25L155.821 213.672C155.493 214.125 155.027 214.487 154.422 214.758C153.823 215.023 153.178 215.156 152.485 215.156ZM152.188 208.422C151.417 208.422 150.959 208.932 150.813 209.953H153.469V209.75C153.48 209.328 153.373 209.003 153.149 208.773C152.925 208.539 152.605 208.422 152.188 208.422ZM160.688 213.125C161.058 213.125 161.344 213.026 161.547 212.828C161.751 212.625 161.85 212.344 161.844 211.984H164.313C164.313 212.911 163.98 213.672 163.313 214.266C162.652 214.859 161.797 215.156 160.751 215.156C159.521 215.156 158.553 214.771 157.844 214C157.136 213.229 156.782 212.161 156.782 210.797V210.688C156.782 209.833 156.938 209.081 157.251 208.43C157.568 207.773 158.024 207.271 158.618 206.922C159.212 206.568 159.915 206.391 160.727 206.391C161.826 206.391 162.698 206.695 163.344 207.305C163.99 207.914 164.313 208.74 164.313 209.781H161.844C161.844 209.344 161.738 209.008 161.524 208.773C161.31 208.539 161.024 208.422 160.665 208.422C159.982 208.422 159.584 208.857 159.469 209.727C159.433 210.003 159.415 210.383 159.415 210.867C159.415 211.716 159.516 212.305 159.719 212.633C159.922 212.961 160.245 213.125 160.688 213.125ZM165.094 210.695C165.094 209.852 165.258 209.102 165.587 208.445C165.915 207.784 166.386 207.276 167.001 206.922C167.615 206.568 168.337 206.391 169.165 206.391C170.43 206.391 171.428 206.784 172.157 207.57C172.886 208.352 173.251 209.417 173.251 210.766V210.859C173.251 212.177 172.883 213.224 172.149 214C171.42 214.771 170.43 215.156 169.18 215.156C167.977 215.156 167.011 214.797 166.282 214.078C165.553 213.354 165.159 212.375 165.102 211.141L165.094 210.695ZM167.727 210.859C167.727 211.641 167.85 212.214 168.094 212.578C168.339 212.943 168.701 213.125 169.18 213.125C170.118 213.125 170.597 212.404 170.618 210.961V210.695C170.618 209.18 170.133 208.422 169.165 208.422C168.284 208.422 167.808 209.076 167.735 210.383L167.727 210.859ZM176.899 206.547L176.985 207.539C177.584 206.773 178.389 206.391 179.399 206.391C180.467 206.391 181.188 206.815 181.563 207.664C182.136 206.815 182.964 206.391 184.047 206.391C185.761 206.391 186.641 207.427 186.688 209.5V215H184.047V209.664C184.047 209.232 183.975 208.917 183.829 208.719C183.683 208.521 183.417 208.422 183.032 208.422C182.511 208.422 182.123 208.654 181.868 209.117L181.876 209.227V215H179.235V209.68C179.235 209.237 179.165 208.917 179.024 208.719C178.883 208.521 178.615 208.422 178.219 208.422C177.714 208.422 177.329 208.654 177.063 209.117V215H174.43V206.547H176.899ZM196.04 210.836C196.04 212.148 195.743 213.198 195.149 213.984C194.56 214.766 193.764 215.156 192.758 215.156C191.982 215.156 191.344 214.872 190.844 214.305V218.25H188.212V206.547H190.672L190.751 207.328C191.256 206.703 191.92 206.391 192.743 206.391C193.784 206.391 194.594 206.776 195.172 207.547C195.751 208.312 196.04 209.367 196.04 210.711V210.836ZM193.407 210.672C193.407 209.172 192.969 208.422 192.094 208.422C191.469 208.422 191.053 208.646 190.844 209.094V212.422C191.073 212.891 191.495 213.125 192.11 213.125C192.948 213.125 193.381 212.401 193.407 210.953V210.672ZM202.243 214.086C201.685 214.799 200.933 215.156 199.985 215.156C199.058 215.156 198.355 214.888 197.876 214.352C197.402 213.81 197.165 213.034 197.165 212.023V206.547H199.797V212.039C199.797 212.763 200.149 213.125 200.852 213.125C201.456 213.125 201.886 212.909 202.141 212.477V206.547H204.79V215H202.321L202.243 214.086ZM209.305 204.445V206.547H210.696V208.375H209.305V212.242C209.305 212.56 209.363 212.781 209.477 212.906C209.592 213.031 209.818 213.094 210.157 213.094C210.417 213.094 210.636 213.078 210.813 213.047V214.93C210.339 215.081 209.844 215.156 209.329 215.156C208.422 215.156 207.753 214.943 207.321 214.516C206.889 214.089 206.672 213.44 206.672 212.57V208.375H205.594V206.547H206.672V204.445H209.305ZM214.516 215H211.876V206.547H214.516V215ZM211.719 204.367C211.719 203.992 211.855 203.685 212.126 203.445C212.396 203.206 212.748 203.086 213.18 203.086C213.613 203.086 213.964 203.206 214.235 203.445C214.506 203.685 214.641 203.992 214.641 204.367C214.641 204.742 214.506 205.049 214.235 205.289C213.964 205.529 213.613 205.648 213.18 205.648C212.748 205.648 212.396 205.529 212.126 205.289C211.855 205.049 211.719 204.742 211.719 204.367ZM218.563 206.547L218.649 207.539C219.232 206.773 220.037 206.391 221.063 206.391C221.943 206.391 222.6 206.654 223.032 207.18C223.469 207.706 223.696 208.497 223.712 209.555V215H221.071V209.664C221.071 209.237 220.985 208.924 220.813 208.727C220.641 208.523 220.329 208.422 219.876 208.422C219.36 208.422 218.977 208.625 218.727 209.031V215H216.094V206.547H218.563ZM224.868 210.711C224.868 209.857 225.008 209.102 225.29 208.445C225.571 207.789 225.975 207.284 226.501 206.93C227.027 206.57 227.639 206.391 228.337 206.391C229.217 206.391 229.904 206.688 230.399 207.281L230.493 206.547H232.883V214.68C232.883 215.424 232.709 216.07 232.36 216.617C232.016 217.169 231.516 217.591 230.86 217.883C230.204 218.18 229.443 218.328 228.579 218.328C227.959 218.328 227.357 218.211 226.774 217.977C226.196 217.742 225.753 217.438 225.446 217.062L226.547 215.516C227.037 216.094 227.683 216.383 228.485 216.383C229.652 216.383 230.235 215.784 230.235 214.586V214.32C229.73 214.878 229.092 215.156 228.321 215.156C227.29 215.156 226.456 214.763 225.821 213.977C225.185 213.185 224.868 212.128 224.868 210.805V210.711ZM227.508 210.875C227.508 211.568 227.639 212.117 227.899 212.523C228.159 212.924 228.524 213.125 228.993 213.125C229.56 213.125 229.975 212.935 230.235 212.555V209C229.98 208.615 229.571 208.422 229.008 208.422C228.54 208.422 228.172 208.633 227.907 209.055C227.641 209.471 227.508 210.078 227.508 210.875Z" fill="#646464"/>
<path d="M111 188H243V186H111V188ZM246 191V223H248V191H246ZM243 226H111V228H243V226ZM108 223V191H106V223H108ZM111 226C109.343 226 108 224.657 108 223H106C106 225.761 108.239 228 111 228V226ZM246 223C246 224.657 244.657 226 243 226V228C245.761 228 248 225.761 248 223H246ZM243 188C244.657 188 246 189.343 246 191H248C248 188.239 245.761 186 243 186V188ZM111 186C108.239 186 106 188.239 106 191H108C108 189.343 109.343 188 111 188V186Z" fill="#C4C4C4"/>
<path d="M320.383 206.547L320.469 207.539C321.068 206.773 321.872 206.391 322.883 206.391C323.951 206.391 324.672 206.815 325.047 207.664C325.62 206.815 326.448 206.391 327.531 206.391C329.245 206.391 330.125 207.427 330.172 209.5V215H327.531V209.664C327.531 209.232 327.458 208.917 327.312 208.719C327.167 208.521 326.901 208.422 326.516 208.422C325.995 208.422 325.607 208.654 325.352 209.117L325.359 209.227V215H322.719V209.68C322.719 209.237 322.648 208.917 322.508 208.719C322.367 208.521 322.099 208.422 321.703 208.422C321.198 208.422 320.812 208.654 320.547 209.117V215H317.914V206.547H320.383ZM334.453 215H331.812V206.547H334.453V215ZM331.656 204.367C331.656 203.992 331.792 203.685 332.062 203.445C332.333 203.206 332.685 203.086 333.117 203.086C333.549 203.086 333.901 203.206 334.172 203.445C334.443 203.685 334.578 203.992 334.578 204.367C334.578 204.742 334.443 205.049 334.172 205.289C333.901 205.529 333.549 205.648 333.117 205.648C332.685 205.648 332.333 205.529 332.062 205.289C331.792 205.049 331.656 204.742 331.656 204.367ZM339.148 204.445V206.547H340.539V208.375H339.148V212.242C339.148 212.56 339.206 212.781 339.32 212.906C339.435 213.031 339.661 213.094 340 213.094C340.26 213.094 340.479 213.078 340.656 213.047V214.93C340.182 215.081 339.688 215.156 339.172 215.156C338.266 215.156 337.596 214.943 337.164 214.516C336.732 214.089 336.516 213.44 336.516 212.57V208.375H335.438V206.547H336.516V204.445H339.148Z" fill="#646464"/>
<path d="M279 188H380V186H279V188ZM383 191V223H385V191H383ZM380 226H279V228H380V226ZM276 223V191H274V223H276ZM279 226C277.343 226 276 224.657 276 223H274C274 225.761 276.239 228 279 228V226ZM383 223C383 224.657 381.657 226 380 226V228C382.761 228 385 225.761 385 223H383ZM380 188C381.657 188 383 189.343 383 191H385C385 188.239 382.761 186 380 186V188ZM279 186C276.239 186 274 188.239 274 191H276C276 189.343 277.343 188 279 188V186Z" fill="#C4C4C4"/>
<path d="M451.766 210.711C451.766 209.857 451.906 209.102 452.188 208.445C452.469 207.789 452.872 207.284 453.398 206.93C453.924 206.57 454.536 206.391 455.234 206.391C456.115 206.391 456.802 206.688 457.297 207.281L457.391 206.547H459.781V214.68C459.781 215.424 459.607 216.07 459.258 216.617C458.914 217.169 458.414 217.591 457.758 217.883C457.102 218.18 456.341 218.328 455.477 218.328C454.857 218.328 454.255 218.211 453.672 217.977C453.094 217.742 452.651 217.438 452.344 217.062L453.445 215.516C453.935 216.094 454.581 216.383 455.383 216.383C456.549 216.383 457.133 215.784 457.133 214.586V214.32C456.628 214.878 455.99 215.156 455.219 215.156C454.188 215.156 453.354 214.763 452.719 213.977C452.083 213.185 451.766 212.128 451.766 210.805V210.711ZM454.406 210.875C454.406 211.568 454.536 212.117 454.797 212.523C455.057 212.924 455.422 213.125 455.891 213.125C456.458 213.125 456.872 212.935 457.133 212.555V209C456.878 208.615 456.469 208.422 455.906 208.422C455.438 208.422 455.07 208.633 454.805 209.055C454.539 209.471 454.406 210.078 454.406 210.875ZM460.945 210.695C460.945 209.852 461.109 209.102 461.438 208.445C461.766 207.784 462.237 207.276 462.852 206.922C463.466 206.568 464.188 206.391 465.016 206.391C466.281 206.391 467.279 206.784 468.008 207.57C468.737 208.352 469.102 209.417 469.102 210.766V210.859C469.102 212.177 468.734 213.224 468 214C467.271 214.771 466.281 215.156 465.031 215.156C463.828 215.156 462.862 214.797 462.133 214.078C461.404 213.354 461.01 212.375 460.953 211.141L460.945 210.695ZM463.578 210.859C463.578 211.641 463.701 212.214 463.945 212.578C464.19 212.943 464.552 213.125 465.031 213.125C465.969 213.125 466.448 212.404 466.469 210.961V210.695C466.469 209.18 465.984 208.422 465.016 208.422C464.135 208.422 463.659 209.076 463.586 210.383L463.578 210.859ZM473.508 211.867L474.844 206.547H477.617L474.859 215H472.172L469.414 206.547H472.195L473.508 211.867Z" fill="#646464"/>
<path d="M414 188H515V186H414V188ZM518 191V223H520V191H518ZM515 226H414V228H515V226ZM411 223V191H409V223H411ZM414 226C412.343 226 411 224.657 411 223H409C409 225.761 411.239 228 414 228V226ZM518 223C518 224.657 516.657 226 515 226V228C517.761 228 520 225.761 520 223H518ZM515 188C516.657 188 518 189.343 518 191H520C520 188.239 517.761 186 515 186V188ZM414 186C411.239 186 409 188.239 409 191H411C411 189.343 412.343 188 414 188V186Z" fill="#C4C4C4"/>
<rect x="41" y="90" width="702" height="68" rx="4" fill="#F7F7F7"/>
<path d="M658.812 108V96.625H662.477C663.482 96.625 664.385 96.8542 665.188 97.3125C665.99 97.7656 666.615 98.4089 667.062 99.2422C667.516 100.07 667.745 101 667.75 102.031V102.555C667.75 103.596 667.529 104.531 667.086 105.359C666.648 106.182 666.029 106.828 665.227 107.297C664.43 107.76 663.539 107.995 662.555 108H658.812ZM661.555 98.7422V105.891H662.508C663.294 105.891 663.898 105.612 664.32 105.055C664.742 104.492 664.953 103.659 664.953 102.555V102.062C664.953 100.964 664.742 100.135 664.32 99.5781C663.898 99.0208 663.284 98.7422 662.477 98.7422H661.555ZM668.703 103.695C668.703 102.852 668.867 102.102 669.195 101.445C669.523 100.784 669.995 100.276 670.609 99.9219C671.224 99.5677 671.945 99.3906 672.773 99.3906C674.039 99.3906 675.036 99.7839 675.766 100.57C676.495 101.352 676.859 102.417 676.859 103.766V103.859C676.859 105.177 676.492 106.224 675.758 107C675.029 107.771 674.039 108.156 672.789 108.156C671.586 108.156 670.62 107.797 669.891 107.078C669.161 106.354 668.768 105.375 668.711 104.141L668.703 103.695ZM671.336 103.859C671.336 104.641 671.458 105.214 671.703 105.578C671.948 105.943 672.31 106.125 672.789 106.125C673.727 106.125 674.206 105.404 674.227 103.961V103.695C674.227 102.18 673.742 101.422 672.773 101.422C671.893 101.422 671.417 102.076 671.344 103.383L671.336 103.859ZM680.508 99.5469L680.594 100.539C681.193 99.7734 681.997 99.3906 683.008 99.3906C684.076 99.3906 684.797 99.8151 685.172 100.664C685.745 99.8151 686.573 99.3906 687.656 99.3906C689.37 99.3906 690.25 100.427 690.297 102.5V108H687.656V102.664C687.656 102.232 687.583 101.917 687.438 101.719C687.292 101.521 687.026 101.422 686.641 101.422C686.12 101.422 685.732 101.654 685.477 102.117L685.484 102.227V108H682.844V102.68C682.844 102.237 682.773 101.917 682.633 101.719C682.492 101.521 682.224 101.422 681.828 101.422C681.323 101.422 680.938 101.654 680.672 102.117V108H678.039V99.5469H680.508ZM694.672 108H692.023V99.5469H694.672V108ZM693.688 96.1562H696.469L694.297 98.6094H692.148L693.688 96.1562ZM698.781 99.5469L698.867 100.539C699.451 99.7734 700.255 99.3906 701.281 99.3906C702.161 99.3906 702.818 99.6536 703.25 100.18C703.688 100.706 703.914 101.497 703.93 102.555V108H701.289V102.664C701.289 102.237 701.203 101.924 701.031 101.727C700.859 101.523 700.547 101.422 700.094 101.422C699.578 101.422 699.195 101.625 698.945 102.031V108H696.312V99.5469H698.781ZM708.172 108H705.531V99.5469H708.172V108ZM705.375 97.3672C705.375 96.9922 705.51 96.6849 705.781 96.4453C706.052 96.2057 706.404 96.0859 706.836 96.0859C707.268 96.0859 707.62 96.2057 707.891 96.4453C708.161 96.6849 708.297 96.9922 708.297 97.3672C708.297 97.7422 708.161 98.0495 707.891 98.2891C707.62 98.5286 707.268 98.6484 706.836 98.6484C706.404 98.6484 706.052 98.5286 705.781 98.2891C705.51 98.0495 705.375 97.7422 705.375 97.3672ZM709.469 103.695C709.469 102.852 709.633 102.102 709.961 101.445C710.289 100.784 710.76 100.276 711.375 99.9219C711.99 99.5677 712.711 99.3906 713.539 99.3906C714.805 99.3906 715.802 99.7839 716.531 100.57C717.26 101.352 717.625 102.417 717.625 103.766V103.859C717.625 105.177 717.258 106.224 716.523 107C715.794 107.771 714.805 108.156 713.555 108.156C712.352 108.156 711.385 107.797 710.656 107.078C709.927 106.354 709.534 105.375 709.477 104.141L709.469 103.695ZM712.102 103.859C712.102 104.641 712.224 105.214 712.469 105.578C712.714 105.943 713.076 106.125 713.555 106.125C714.492 106.125 714.971 105.404 714.992 103.961V103.695C714.992 102.18 714.508 101.422 713.539 101.422C712.659 101.422 712.182 102.076 712.109 103.383L712.102 103.859ZM661.43 125.711C661.43 124.372 661.719 123.318 662.297 122.547C662.875 121.776 663.682 121.391 664.719 121.391C665.474 121.391 666.109 121.688 666.625 122.281V118H669.266V130H666.898L666.766 129.094C666.224 129.802 665.536 130.156 664.703 130.156C663.698 130.156 662.901 129.771 662.312 129C661.724 128.229 661.43 127.133 661.43 125.711ZM664.062 125.875C664.062 127.375 664.5 128.125 665.375 128.125C665.958 128.125 666.375 127.88 666.625 127.391V124.172C666.385 123.672 665.974 123.422 665.391 123.422C664.578 123.422 664.138 124.078 664.07 125.391L664.062 125.875ZM674.852 130.156C673.555 130.156 672.505 129.771 671.703 129C670.901 128.224 670.5 127.216 670.5 125.977V125.758C670.5 124.893 670.659 124.13 670.977 123.469C671.299 122.807 671.768 122.297 672.383 121.938C672.997 121.573 673.727 121.391 674.57 121.391C675.758 121.391 676.695 121.76 677.383 122.5C678.07 123.234 678.414 124.26 678.414 125.578V126.602H673.18C673.273 127.076 673.479 127.448 673.797 127.719C674.115 127.99 674.526 128.125 675.031 128.125C675.865 128.125 676.516 127.833 676.984 127.25L678.188 128.672C677.859 129.125 677.393 129.487 676.789 129.758C676.19 130.023 675.544 130.156 674.852 130.156ZM674.555 123.422C673.784 123.422 673.326 123.932 673.18 124.953H675.836V124.75C675.846 124.328 675.74 124.003 675.516 123.773C675.292 123.539 674.971 123.422 674.555 123.422ZM686.531 119.445V121.547H687.922V123.375H686.531V127.242C686.531 127.56 686.589 127.781 686.703 127.906C686.818 128.031 687.044 128.094 687.383 128.094C687.643 128.094 687.862 128.078 688.039 128.047V129.93C687.565 130.081 687.07 130.156 686.555 130.156C685.648 130.156 684.979 129.943 684.547 129.516C684.115 129.089 683.898 128.44 683.898 127.57V123.375H682.82V121.547H683.898V119.445H686.531ZM688.398 125.695C688.398 124.852 688.562 124.102 688.891 123.445C689.219 122.784 689.69 122.276 690.305 121.922C690.919 121.568 691.641 121.391 692.469 121.391C693.734 121.391 694.732 121.784 695.461 122.57C696.19 123.352 696.555 124.417 696.555 125.766V125.859C696.555 127.177 696.188 128.224 695.453 129C694.724 129.771 693.734 130.156 692.484 130.156C691.281 130.156 690.315 129.797 689.586 129.078C688.857 128.354 688.464 127.375 688.406 126.141L688.398 125.695ZM691.031 125.859C691.031 126.641 691.154 127.214 691.398 127.578C691.643 127.943 692.005 128.125 692.484 128.125C693.422 128.125 693.901 127.404 693.922 125.961V125.695C693.922 124.18 693.438 123.422 692.469 123.422C691.589 123.422 691.112 124.076 691.039 125.383L691.031 125.859ZM705.562 125.836C705.562 127.148 705.266 128.198 704.672 128.984C704.083 129.766 703.286 130.156 702.281 130.156C701.505 130.156 700.867 129.872 700.367 129.305V133.25H697.734V121.547H700.195L700.273 122.328C700.779 121.703 701.443 121.391 702.266 121.391C703.307 121.391 704.117 121.776 704.695 122.547C705.273 123.312 705.562 124.367 705.562 125.711V125.836ZM702.93 125.672C702.93 124.172 702.492 123.422 701.617 123.422C700.992 123.422 700.576 123.646 700.367 124.094V127.422C700.596 127.891 701.018 128.125 701.633 128.125C702.471 128.125 702.904 127.401 702.93 125.953V125.672ZM706.398 125.695C706.398 124.852 706.562 124.102 706.891 123.445C707.219 122.784 707.69 122.276 708.305 121.922C708.919 121.568 709.641 121.391 710.469 121.391C711.734 121.391 712.732 121.784 713.461 122.57C714.19 123.352 714.555 124.417 714.555 125.766V125.859C714.555 127.177 714.188 128.224 713.453 129C712.724 129.771 711.734 130.156 710.484 130.156C709.281 130.156 708.315 129.797 707.586 129.078C706.857 128.354 706.464 127.375 706.406 126.141L706.398 125.695ZM709.031 125.859C709.031 126.641 709.154 127.214 709.398 127.578C709.643 127.943 710.005 128.125 710.484 128.125C711.422 128.125 711.901 127.404 711.922 125.961V125.695C711.922 124.18 711.438 123.422 710.469 123.422C709.589 123.422 709.112 124.076 709.039 125.383L709.031 125.859ZM668.957 143.549H666.953V147H665.822V138.469H668.646C669.607 138.469 670.346 138.688 670.861 139.125C671.381 139.562 671.641 140.199 671.641 141.035C671.641 141.566 671.496 142.029 671.207 142.424C670.922 142.818 670.523 143.113 670.012 143.309L672.016 146.93V147H670.809L668.957 143.549ZM666.953 142.629H668.682C669.24 142.629 669.684 142.484 670.012 142.195C670.344 141.906 670.51 141.52 670.51 141.035C670.51 140.508 670.352 140.104 670.035 139.822C669.723 139.541 669.27 139.398 668.676 139.395H666.953V142.629ZM675.684 147.117C674.824 147.117 674.125 146.836 673.586 146.273C673.047 145.707 672.777 144.951 672.777 144.006V143.807C672.777 143.178 672.896 142.617 673.135 142.125C673.377 141.629 673.713 141.242 674.143 140.965C674.576 140.684 675.045 140.543 675.549 140.543C676.373 140.543 677.014 140.814 677.471 141.357C677.928 141.9 678.156 142.678 678.156 143.689V144.141H673.861C673.877 144.766 674.059 145.271 674.406 145.658C674.758 146.041 675.203 146.232 675.742 146.232C676.125 146.232 676.449 146.154 676.715 145.998C676.98 145.842 677.213 145.635 677.412 145.377L678.074 145.893C677.543 146.709 676.746 147.117 675.684 147.117ZM675.549 141.434C675.111 141.434 674.744 141.594 674.447 141.914C674.15 142.23 673.967 142.676 673.896 143.25H677.072V143.168C677.041 142.617 676.893 142.191 676.627 141.891C676.361 141.586 676.002 141.434 675.549 141.434ZM679.158 143.777C679.158 142.789 679.387 142.004 679.844 141.422C680.301 140.836 680.906 140.543 681.66 140.543C682.434 140.543 683.037 140.816 683.471 141.363L683.523 140.66H684.514V146.848C684.514 147.668 684.27 148.314 683.781 148.787C683.297 149.26 682.645 149.496 681.824 149.496C681.367 149.496 680.92 149.398 680.482 149.203C680.045 149.008 679.711 148.74 679.48 148.4L680.043 147.75C680.508 148.324 681.076 148.611 681.748 148.611C682.275 148.611 682.686 148.463 682.979 148.166C683.275 147.869 683.424 147.451 683.424 146.912V146.367C682.99 146.867 682.398 147.117 681.648 147.117C680.906 147.117 680.305 146.818 679.844 146.221C679.387 145.623 679.158 144.809 679.158 143.777ZM680.248 143.9C680.248 144.615 680.395 145.178 680.688 145.588C680.98 145.994 681.391 146.197 681.918 146.197C682.602 146.197 683.104 145.887 683.424 145.266V142.371C683.092 141.766 682.594 141.463 681.93 141.463C681.402 141.463 680.99 141.668 680.693 142.078C680.396 142.488 680.248 143.096 680.248 143.9ZM687.332 147H686.248V140.66H687.332V147ZM686.16 138.979C686.16 138.803 686.213 138.654 686.318 138.533C686.428 138.412 686.588 138.352 686.799 138.352C687.01 138.352 687.17 138.412 687.279 138.533C687.389 138.654 687.443 138.803 687.443 138.979C687.443 139.154 687.389 139.301 687.279 139.418C687.17 139.535 687.01 139.594 686.799 139.594C686.588 139.594 686.428 139.535 686.318 139.418C686.213 139.301 686.16 139.154 686.16 138.979ZM688.785 143.771C688.785 143.15 688.906 142.592 689.148 142.096C689.395 141.6 689.734 141.217 690.168 140.947C690.605 140.678 691.104 140.543 691.662 140.543C692.525 140.543 693.223 140.842 693.754 141.439C694.289 142.037 694.557 142.832 694.557 143.824V143.9C694.557 144.518 694.438 145.072 694.199 145.564C693.965 146.053 693.627 146.434 693.186 146.707C692.748 146.98 692.244 147.117 691.674 147.117C690.814 147.117 690.117 146.818 689.582 146.221C689.051 145.623 688.785 144.832 688.785 143.848V143.771ZM689.875 143.9C689.875 144.604 690.037 145.168 690.361 145.594C690.689 146.02 691.127 146.232 691.674 146.232C692.225 146.232 692.662 146.018 692.986 145.588C693.311 145.154 693.473 144.549 693.473 143.771C693.473 143.076 693.307 142.514 692.975 142.084C692.646 141.65 692.209 141.434 691.662 141.434C691.127 141.434 690.695 141.646 690.367 142.072C690.039 142.498 689.875 143.107 689.875 143.9ZM696.941 140.66L696.977 141.457C697.461 140.848 698.094 140.543 698.875 140.543C700.215 140.543 700.891 141.299 700.902 142.811V147H699.818V142.805C699.814 142.348 699.709 142.01 699.502 141.791C699.299 141.572 698.98 141.463 698.547 141.463C698.195 141.463 697.887 141.557 697.621 141.744C697.355 141.932 697.148 142.178 697 142.482V147H695.916V140.66H696.941ZM706.451 147C706.389 146.875 706.338 146.652 706.299 146.332C705.795 146.855 705.193 147.117 704.494 147.117C703.869 147.117 703.355 146.941 702.953 146.59C702.555 146.234 702.355 145.785 702.355 145.242C702.355 144.582 702.605 144.07 703.105 143.707C703.609 143.34 704.316 143.156 705.227 143.156H706.281V142.658C706.281 142.279 706.168 141.979 705.941 141.756C705.715 141.529 705.381 141.416 704.939 141.416C704.553 141.416 704.229 141.514 703.967 141.709C703.705 141.904 703.574 142.141 703.574 142.418H702.484C702.484 142.102 702.596 141.797 702.818 141.504C703.045 141.207 703.35 140.973 703.732 140.801C704.119 140.629 704.543 140.543 705.004 140.543C705.734 140.543 706.307 140.727 706.721 141.094C707.135 141.457 707.35 141.959 707.365 142.6V145.518C707.365 146.1 707.439 146.562 707.588 146.906V147H706.451ZM704.652 146.174C704.992 146.174 705.314 146.086 705.619 145.91C705.924 145.734 706.145 145.506 706.281 145.225V143.924H705.432C704.104 143.924 703.439 144.312 703.439 145.09C703.439 145.43 703.553 145.695 703.779 145.887C704.006 146.078 704.297 146.174 704.652 146.174ZM710.242 147H709.158V138H710.242V147Z" fill="#646464"/>
<path d="M182.773 130.125C183.143 130.125 183.43 130.026 183.633 129.828C183.836 129.625 183.935 129.344 183.93 128.984H186.398C186.398 129.911 186.065 130.672 185.398 131.266C184.737 131.859 183.883 132.156 182.836 132.156C181.607 132.156 180.638 131.771 179.93 131C179.221 130.229 178.867 129.161 178.867 127.797V127.688C178.867 126.833 179.023 126.081 179.336 125.43C179.654 124.773 180.109 124.271 180.703 123.922C181.297 123.568 182 123.391 182.812 123.391C183.911 123.391 184.784 123.695 185.43 124.305C186.076 124.914 186.398 125.74 186.398 126.781H183.93C183.93 126.344 183.823 126.008 183.609 125.773C183.396 125.539 183.109 125.422 182.75 125.422C182.068 125.422 181.669 125.857 181.555 126.727C181.518 127.003 181.5 127.383 181.5 127.867C181.5 128.716 181.602 129.305 181.805 129.633C182.008 129.961 182.331 130.125 182.773 130.125ZM187.18 127.695C187.18 126.852 187.344 126.102 187.672 125.445C188 124.784 188.471 124.276 189.086 123.922C189.701 123.568 190.422 123.391 191.25 123.391C192.516 123.391 193.513 123.784 194.242 124.57C194.971 125.352 195.336 126.417 195.336 127.766V127.859C195.336 129.177 194.969 130.224 194.234 131C193.505 131.771 192.516 132.156 191.266 132.156C190.062 132.156 189.096 131.797 188.367 131.078C187.638 130.354 187.245 129.375 187.188 128.141L187.18 127.695ZM189.812 127.859C189.812 128.641 189.935 129.214 190.18 129.578C190.424 129.943 190.786 130.125 191.266 130.125C192.203 130.125 192.682 129.404 192.703 127.961V127.695C192.703 126.18 192.219 125.422 191.25 125.422C190.37 125.422 189.893 126.076 189.82 127.383L189.812 127.859ZM198.984 123.547L199.07 124.539C199.669 123.773 200.474 123.391 201.484 123.391C202.552 123.391 203.273 123.815 203.648 124.664C204.221 123.815 205.049 123.391 206.133 123.391C207.846 123.391 208.727 124.427 208.773 126.5V132H206.133V126.664C206.133 126.232 206.06 125.917 205.914 125.719C205.768 125.521 205.503 125.422 205.117 125.422C204.596 125.422 204.208 125.654 203.953 126.117L203.961 126.227V132H201.32V126.68C201.32 126.237 201.25 125.917 201.109 125.719C200.969 125.521 200.701 125.422 200.305 125.422C199.799 125.422 199.414 125.654 199.148 126.117V132H196.516V123.547H198.984Z" fill="#646464"/>
<path d="M144 105H245V103H144V105ZM248 108V140H250V108H248ZM245 143H144V145H245V143ZM141 140V108H139V140H141ZM144 143C142.343 143 141 141.657 141 140H139C139 142.761 141.239 145 144 145V143ZM248 140C248 141.657 246.657 143 245 143V145C247.761 145 250 142.761 250 140H248ZM245 105C246.657 105 248 106.343 248 108H250C250 105.239 247.761 103 245 103V105ZM144 103C141.239 103 139 105.239 139 108H141C141 106.343 142.343 105 144 105V103Z" fill="#C4C4C4"/>
<path d="M320.953 132.156C319.656 132.156 318.607 131.771 317.805 131C317.003 130.224 316.602 129.216 316.602 127.977V127.758C316.602 126.893 316.76 126.13 317.078 125.469C317.401 124.807 317.87 124.297 318.484 123.938C319.099 123.573 319.828 123.391 320.672 123.391C321.859 123.391 322.797 123.76 323.484 124.5C324.172 125.234 324.516 126.26 324.516 127.578V128.602H319.281C319.375 129.076 319.581 129.448 319.898 129.719C320.216 129.99 320.628 130.125 321.133 130.125C321.966 130.125 322.617 129.833 323.086 129.25L324.289 130.672C323.961 131.125 323.495 131.487 322.891 131.758C322.292 132.023 321.646 132.156 320.953 132.156ZM320.656 125.422C319.885 125.422 319.427 125.932 319.281 126.953H321.938V126.75C321.948 126.328 321.841 126.003 321.617 125.773C321.393 125.539 321.073 125.422 320.656 125.422ZM325.25 127.711C325.25 126.372 325.539 125.318 326.117 124.547C326.695 123.776 327.503 123.391 328.539 123.391C329.294 123.391 329.93 123.688 330.445 124.281V120H333.086V132H330.719L330.586 131.094C330.044 131.802 329.357 132.156 328.523 132.156C327.518 132.156 326.721 131.771 326.133 131C325.544 130.229 325.25 129.133 325.25 127.711ZM327.883 127.875C327.883 129.375 328.32 130.125 329.195 130.125C329.779 130.125 330.195 129.88 330.445 129.391V126.172C330.206 125.672 329.794 125.422 329.211 125.422C328.398 125.422 327.958 126.078 327.891 127.391L327.883 127.875ZM339.617 131.086C339.06 131.799 338.307 132.156 337.359 132.156C336.432 132.156 335.729 131.888 335.25 131.352C334.776 130.81 334.539 130.034 334.539 129.023V123.547H337.172V129.039C337.172 129.763 337.523 130.125 338.227 130.125C338.831 130.125 339.26 129.909 339.516 129.477V123.547H342.164V132H339.695L339.617 131.086Z" fill="#646464"/>
<path d="M279 105H380V103H279V105ZM383 108V140H385V108H383ZM380 143H279V145H380V143ZM276 140V108H274V140H276ZM279 143C277.343 143 276 141.657 276 140H274C274 142.761 276.239 145 279 145V143ZM383 140C383 141.657 381.657 143 380 143V145C382.761 145 385 142.761 385 140H383ZM380 105C381.657 105 383 106.343 383 108H385C385 105.239 382.761 103 380 103V105ZM279 103C276.239 103 274 105.239 274 108H276C276 106.343 277.343 105 279 105V103Z" fill="#C4C4C4"/>
<path d="M452.859 127.695C452.859 126.852 453.023 126.102 453.352 125.445C453.68 124.784 454.151 124.276 454.766 123.922C455.38 123.568 456.102 123.391 456.93 123.391C458.195 123.391 459.193 123.784 459.922 124.57C460.651 125.352 461.016 126.417 461.016 127.766V127.859C461.016 129.177 460.648 130.224 459.914 131C459.185 131.771 458.195 132.156 456.945 132.156C455.742 132.156 454.776 131.797 454.047 131.078C453.318 130.354 452.924 129.375 452.867 128.141L452.859 127.695ZM455.492 127.859C455.492 128.641 455.615 129.214 455.859 129.578C456.104 129.943 456.466 130.125 456.945 130.125C457.883 130.125 458.362 129.404 458.383 127.961V127.695C458.383 126.18 457.898 125.422 456.93 125.422C456.049 125.422 455.573 126.076 455.5 127.383L455.492 127.859ZM467.289 125.93L466.422 125.867C465.594 125.867 465.062 126.128 464.828 126.648V132H462.195V123.547H464.664L464.75 124.633C465.193 123.805 465.81 123.391 466.602 123.391C466.883 123.391 467.128 123.422 467.336 123.484L467.289 125.93ZM467.773 127.711C467.773 126.857 467.914 126.102 468.195 125.445C468.477 124.789 468.88 124.284 469.406 123.93C469.932 123.57 470.544 123.391 471.242 123.391C472.122 123.391 472.81 123.688 473.305 124.281L473.398 123.547H475.789V131.68C475.789 132.424 475.615 133.07 475.266 133.617C474.922 134.169 474.422 134.591 473.766 134.883C473.109 135.18 472.349 135.328 471.484 135.328C470.865 135.328 470.263 135.211 469.68 134.977C469.102 134.742 468.659 134.438 468.352 134.062L469.453 132.516C469.943 133.094 470.589 133.383 471.391 133.383C472.557 133.383 473.141 132.784 473.141 131.586V131.32C472.635 131.878 471.997 132.156 471.227 132.156C470.195 132.156 469.362 131.763 468.727 130.977C468.091 130.185 467.773 129.128 467.773 127.805V127.711ZM470.414 127.875C470.414 128.568 470.544 129.117 470.805 129.523C471.065 129.924 471.43 130.125 471.898 130.125C472.466 130.125 472.88 129.935 473.141 129.555V126C472.885 125.615 472.477 125.422 471.914 125.422C471.445 125.422 471.078 125.633 470.812 126.055C470.547 126.471 470.414 127.078 470.414 127.875Z" fill="#646464"/>
<path d="M414 105H515V103H414V105ZM518 108V140H520V108H518ZM515 143H414V145H515V143ZM411 140V108H409V140H411ZM414 143C412.343 143 411 141.657 411 140H409C409 142.761 411.239 145 414 145V143ZM518 140C518 141.657 516.657 143 515 143V145C517.761 145 520 142.761 520 140H518ZM515 105C516.657 105 518 106.343 518 108H520C520 105.239 517.761 103 515 103V105ZM414 103C411.239 103 409 105.239 409 108H411C411 106.343 412.343 105 414 105V103Z" fill="#C4C4C4"/>
<path d="M576.24 127.844C576.24 129.229 575.953 130.294 575.38 131.039C574.807 131.784 574 132.156 572.958 132.156C572.099 132.156 571.406 131.815 570.88 131.133L570.771 132H568.411V120H571.044V124.227C571.534 123.669 572.167 123.391 572.943 123.391C573.995 123.391 574.807 123.768 575.38 124.523C575.953 125.279 576.24 126.341 576.24 127.711V127.844ZM573.599 127.68C573.599 126.867 573.49 126.289 573.271 125.945C573.057 125.596 572.727 125.422 572.279 125.422C571.685 125.422 571.273 125.648 571.044 126.102V129.461C571.268 129.909 571.685 130.133 572.294 130.133C572.914 130.133 573.307 129.831 573.474 129.227C573.557 128.93 573.599 128.414 573.599 127.68ZM582.521 125.93L581.654 125.867C580.825 125.867 580.294 126.128 580.06 126.648V132H577.427V123.547H579.896L579.982 124.633C580.424 123.805 581.042 123.391 581.833 123.391C582.115 123.391 582.359 123.422 582.568 123.484L582.521 125.93Z" fill="#646464"/>
<path d="M549 105H602V103H549V105ZM605 108V140H607V108H605ZM602 143H549V145H602V143ZM546 140V108H544V140H546ZM549 143C547.343 143 546 141.657 546 140H544C544 142.761 546.239 145 549 145V143ZM605 140C605 141.657 603.657 143 602 143V145C604.761 145 607 142.761 607 140H605ZM602 105C603.657 105 605 106.343 605 108H607C607 105.239 604.761 103 602 103V105ZM549 103C546.239 103 544 105.239 544 108H546C546 106.343 547.343 105 549 105V103Z" fill="#C4C4C4"/>
<path d="M320 258V343" stroke="#F3652B" stroke-width="2"/>
<path d="M443.5 55H576V103.5" stroke="#F3652B" stroke-width="2"/>
<path d="M338 39C338 36.7909 339.791 35 342 35H443C445.209 35 447 36.7909 447 39V71C447 73.2091 445.209 75 443 75H342C339.791 75 338 73.2091 338 71V39Z" fill="white"/>
<path d="M381.297 58.9844H379.812V63H377.07V51.625H381.547C382.896 51.625 383.951 51.9245 384.711 52.5234C385.471 53.1224 385.852 53.9688 385.852 55.0625C385.852 55.8542 385.69 56.5104 385.367 57.0312C385.049 57.5521 384.549 57.974 383.867 58.2969L386.242 62.8828V63H383.305L381.297 58.9844ZM379.812 56.8672H381.547C382.068 56.8672 382.458 56.7318 382.719 56.4609C382.984 56.1849 383.117 55.8021 383.117 55.3125C383.117 54.8229 382.984 54.4401 382.719 54.1641C382.453 53.8828 382.062 53.7422 381.547 53.7422H379.812V56.8672ZM392.148 63C392.055 62.8281 391.971 62.5755 391.898 62.2422C391.414 62.8516 390.737 63.1562 389.867 63.1562C389.07 63.1562 388.393 62.9167 387.836 62.4375C387.279 61.9531 387 61.3464 387 60.6172C387 59.7005 387.339 59.0078 388.016 58.5391C388.693 58.0703 389.677 57.8359 390.969 57.8359H391.781V57.3906C391.781 56.6146 391.445 56.2266 390.773 56.2266C390.148 56.2266 389.836 56.5339 389.836 57.1484H387.203C387.203 56.3307 387.549 55.6667 388.242 55.1562C388.94 54.6458 389.828 54.3906 390.906 54.3906C391.984 54.3906 392.836 54.6536 393.461 55.1797C394.086 55.7057 394.406 56.4271 394.422 57.3438V61.0859C394.432 61.862 394.552 62.4557 394.781 62.8672V63H392.148ZM390.5 61.2812C390.828 61.2812 391.099 61.2109 391.312 61.0703C391.531 60.9297 391.688 60.7708 391.781 60.5938V59.2422H391.016C390.099 59.2422 389.641 59.6536 389.641 60.4766C389.641 60.7161 389.721 60.9115 389.883 61.0625C390.044 61.2083 390.25 61.2812 390.5 61.2812ZM398.664 63H396.023V54.5469H398.664V63ZM395.867 52.3672C395.867 51.9922 396.003 51.6849 396.273 51.4453C396.544 51.2057 396.896 51.0859 397.328 51.0859C397.76 51.0859 398.112 51.2057 398.383 51.4453C398.654 51.6849 398.789 51.9922 398.789 52.3672C398.789 52.7422 398.654 53.0495 398.383 53.2891C398.112 53.5286 397.76 53.6484 397.328 53.6484C396.896 53.6484 396.544 53.5286 396.273 53.2891C396.003 53.0495 395.867 52.7422 395.867 52.3672ZM403.398 60.9688H407.25V63H400.07V61.5312L403.82 56.5781H400.234V54.5469H407.164V55.9688L403.398 60.9688Z" fill="#646464"/>
<path d="M342 36H443V34H342V36ZM446 39V71H448V39H446ZM443 74H342V76H443V74ZM339 71V39H337V71H339ZM342 74C340.343 74 339 72.6569 339 71H337C337 73.7614 339.239 76 342 76V74ZM446 71C446 72.6569 444.657 74 443 74V76C445.761 76 448 73.7614 448 71H446ZM443 36C444.657 36 446 37.3431 446 39H448C448 36.2386 445.761 34 443 34V36ZM342 34C339.239 34 337 36.2386 337 39H339C339 37.3431 340.343 36 342 36V34Z" fill="#C4C4C4"/>
</g>
<defs>
<clipPath id="clip0">
<rect width="784" height="456" fill="white"/>
</clipPath>
</defs>
</svg>
